<svg width="1168" height="180" viewBox="0 0 1168 180" fill="none" xmlns="http://www.w3.org/2000/svg">
<path d="M262.687 170.258C264.733 172.261 266.172 174.709 266.891 177.362H133V128.108C137.294 126.152 142.307 126.829 145.904 129.794C149.658 132.896 151.209 137.999 149.838 142.72C150.557 141.866 153.254 138.811 157.706 138.224C162.426 137.617 167.237 140.047 170.047 144.406C170.632 143.642 175.914 136.898 184.097 137.1C192.032 137.305 199.406 144.001 200.935 153.398C203.834 147.893 209.994 145.148 215.524 146.654C220.088 147.893 223.594 151.869 224.516 156.77C225.011 156.435 230.091 153.016 235.734 155.084C240.702 156.907 243.984 162.165 243.602 168.01C249.739 164.391 257.584 165.315 262.687 170.258Z" fill="#D3E4BF"/>
<path d="M4.1758 169.947C2.14373 171.936 0.714575 174.366 1.11048e-06 177H133V128.1C128.735 126.158 123.755 126.83 120.182 129.774C116.453 132.854 114.912 137.92 116.275 142.607C115.56 141.759 112.88 138.726 108.459 138.143C103.769 137.541 98.9908 139.953 96.1995 144.281C95.6189 143.522 90.3712 136.827 82.243 137.028C74.3603 137.231 67.0359 143.879 65.5175 153.208C62.6368 147.743 56.5183 145.018 51.025 146.513C46.4919 147.743 43.0084 151.691 42.0929 156.556C41.6016 156.224 36.5549 152.829 30.95 154.882C26.0149 156.692 22.7547 161.913 23.1343 167.715C17.0381 164.122 9.2448 165.04 4.1758 169.947Z" fill="#D3E4BF"/>
<path d="M910.144 169.947C908.128 171.936 906.709 174.366 906 177H1038V128.1C1033.77 126.158 1028.82 126.83 1025.28 129.774C1021.58 132.854 1020.05 137.92 1021.4 142.607C1020.69 141.759 1018.03 138.726 1013.64 138.143C1008.99 137.541 1004.25 139.953 1001.48 144.281C1000.9 143.522 995.692 136.827 987.625 137.028C979.801 137.231 972.532 143.879 971.025 153.208C968.166 147.743 962.093 145.018 956.641 146.513C952.142 147.743 948.685 151.691 947.776 156.556C947.289 156.224 942.28 152.829 936.717 154.882C931.819 156.692 928.584 161.913 928.96 167.715C922.91 164.122 915.175 165.04 910.144 169.947Z" fill="#D3E4BF"/>
<path d="M1163.92 169.947C1165.9 171.936 1167.3 174.366 1168 177H1038V128.1C1042.17 126.158 1047.04 126.83 1050.53 129.774C1054.17 132.854 1055.68 137.92 1054.35 142.607C1055.05 141.759 1057.67 138.726 1061.99 138.143C1066.57 137.541 1071.24 139.953 1073.97 144.281C1074.54 143.522 1079.67 136.827 1087.61 137.028C1095.32 137.231 1102.48 143.879 1103.96 153.208C1106.78 147.743 1112.76 145.018 1118.13 146.513C1122.56 147.743 1125.96 151.691 1126.86 156.556C1127.34 156.224 1132.27 152.829 1137.75 154.882C1142.57 156.692 1145.76 161.913 1145.39 167.715C1151.35 164.122 1158.96 165.04 1163.92 169.947Z" fill="#D3E4BF"/>
<path d="M534.592 108.225H419.028V176.674H534.592V108.225Z" fill="#AA4E4E"/>
<path d="M534.592 138.151H419.028V146.746H534.592V138.151Z" fill="#FDD7A7"/>
<path d="M420.806 108.225H419.028V176.674H420.806V108.225Z" fill="#FDD7A7"/>
<path d="M443.564 108.225H441.786V176.674H443.564V108.225Z" fill="#FDD7A7"/>
<path d="M466.32 108.225H464.542V176.674H466.32V108.225Z" fill="#FDD7A7"/>
<path d="M489.076 108.225H487.298V176.674H489.076V108.225Z" fill="#FDD7A7"/>
<path d="M511.836 108.225H510.058V176.674H511.836V108.225Z" fill="#FDD7A7"/>
<path d="M534.591 108.225H532.813V176.674H534.591V108.225Z" fill="#FDD7A7"/>
<path d="M534.591 103.632H416V108.224H534.591V103.632Z" fill="#FDD7A7"/>
<path d="M437.771 112.529H424.881V132.808H437.771V112.529Z" fill="#43484E"/>
<path d="M437.77 112.529H435.316L424.88 129.835V132.808H427.824L437.77 116.313V112.529Z" fill="#414042"/>
<path d="M437.769 122.626V118.698L429.262 132.808H431.63L437.769 122.626Z" fill="#414042"/>
<path d="M424.88 123.522V127.449L433.878 112.529H431.51L424.88 123.522Z" fill="#414042"/>
<path d="M424.437 112.085V133.253H438.215V112.085H424.437ZM437.326 132.364H425.325V117.168H437.326V132.364ZM437.326 116.279H425.325V112.974H437.326V116.279Z" fill="white"/>
<path d="M437.326 117.169H426.511H425.325V118.355V132.365H426.511V118.355H437.326V117.169Z" fill="#BDBEC0"/>
<path d="M437.326 112.974H426.511H425.325V114.159V116.279H426.511V114.159H437.326V112.974Z" fill="#BDBEC0"/>
<path d="M460.363 112.529H447.474V132.808H460.363V112.529Z" fill="#43484E"/>
<path d="M460.363 112.529H457.91L447.474 129.835V132.808H450.418L460.363 116.313V112.529Z" fill="#414042"/>
<path d="M460.364 122.626V118.698L451.856 132.808H454.225L460.364 122.626Z" fill="#414042"/>
<path d="M447.474 123.522V127.449L456.472 112.529H454.103L447.474 123.522Z" fill="#414042"/>
<path d="M447.029 112.085V133.253H460.808V112.085H447.029ZM459.919 132.364H447.918V117.168H459.919V132.364ZM459.919 116.279H447.918V112.974H459.919V116.279Z" fill="white"/>
<path d="M459.92 117.169H449.105H447.919V118.355V132.365H449.105V118.355H459.92V117.169Z" fill="#BDBEC0"/>
<path d="M459.92 112.974H449.105H447.919V114.159V116.279H449.105V114.159H459.92V112.974Z" fill="#BDBEC0"/>
<path d="M482.959 112.529H470.069V132.808H482.959V112.529Z" fill="#43484E"/>
<path d="M482.959 112.529H480.504L470.069 129.835V132.808H473.012L482.959 116.313V112.529Z" fill="#414042"/>
<path d="M482.959 122.626V118.698L474.45 132.808H476.818L482.959 122.626Z" fill="#414042"/>
<path d="M470.069 123.522V127.449L479.067 112.529H476.699L470.069 123.522Z" fill="#414042"/>
<path d="M469.625 112.085V133.253H483.404V112.085H469.625ZM482.515 132.364H470.514V117.168H482.515V132.364ZM482.515 116.279H470.514V112.974H482.515V116.279Z" fill="white"/>
<path d="M482.515 117.169H471.699H470.515V118.355V132.365H471.699V118.355H482.515V117.169Z" fill="#BDBEC0"/>
<path d="M482.515 112.974H471.699H470.515V114.159V116.279H471.699V114.159H482.515V112.974Z" fill="#BDBEC0"/>
<path d="M506.03 112.529H493.141V132.808H506.03V112.529Z" fill="#43484E"/>
<path d="M506.03 112.529H503.575L493.141 129.835V132.808H496.085L506.03 116.313V112.529Z" fill="#414042"/>
<path d="M506.031 122.626V118.698L497.521 132.808H499.89L506.031 122.626Z" fill="#414042"/>
<path d="M493.141 123.522V127.449L502.139 112.529H499.77L493.141 123.522Z" fill="#414042"/>
<path d="M492.694 112.085V133.253H506.473V112.085H492.694ZM505.584 132.364H493.583V117.168H505.584V132.364ZM505.584 116.279H493.583V112.974H505.584V116.279Z" fill="white"/>
<path d="M505.584 117.169H494.769H493.583V118.355V132.365H494.769V118.355H505.584V117.169Z" fill="#BDBEC0"/>
<path d="M505.584 112.974H494.769H493.583V114.159V116.279H494.769V114.159H505.584V112.974Z" fill="#BDBEC0"/>
<path d="M528.888 112.529H515.998V132.808H528.888V112.529Z" fill="#43484E"/>
<path d="M528.887 112.529H526.433L515.997 129.835V132.808H518.941L528.887 116.313V112.529Z" fill="#414042"/>
<path d="M528.887 122.626V118.698L520.38 132.808H522.748L528.887 122.626Z" fill="#414042"/>
<path d="M515.997 123.522V127.449L524.995 112.529H522.627L515.997 123.522Z" fill="#414042"/>
<path d="M515.554 112.085V133.253H529.332V112.085H515.554ZM528.443 132.364H516.443V117.168H528.443V132.364ZM528.443 116.279H516.443V112.974H528.443V116.279Z" fill="white"/>
<path d="M528.443 117.169H517.628H516.442V118.355V132.365H517.628V118.355H528.443V117.169Z" fill="#BDBEC0"/>
<path d="M528.443 112.974H517.628H516.442V114.159V116.279H517.628V114.159H528.443V112.974Z" fill="#BDBEC0"/>
<path d="M441.787 108.224H421.992H420.806V109.409V146.745H421.992V109.409H441.787V108.224Z" fill="#BDBEC0"/>
<path d="M464.542 108.224H444.749H443.564V109.409V146.745H444.749V109.409H464.542V108.224Z" fill="#BDBEC0"/>
<path d="M487.299 108.224H467.505H466.319V109.409V146.745H467.505V109.409H487.299V108.224Z" fill="#BDBEC0"/>
<path d="M510.074 108.224H490.281H489.095V109.409V146.745H490.281V109.409H510.074V108.224Z" fill="#BDBEC0"/>
<path d="M532.813 108.224H513.02H511.834V109.409V146.745H513.02V109.409H532.813V108.224Z" fill="#BDBEC0"/>
<path d="M437.771 151.053H424.881V171.331H437.771V151.053Z" fill="#43484E"/>
<path d="M437.771 151.053H435.317L424.881 168.359V171.331H427.825L437.771 154.836V151.053Z" fill="#414042"/>
<path d="M437.77 161.147V157.22L429.263 171.331H431.631L437.77 161.147Z" fill="#414042"/>
<path d="M424.881 162.046V165.973L433.879 151.053H431.511L424.881 162.046Z" fill="#414042"/>
<path d="M424.437 150.608V171.776H438.215V150.608H424.437ZM437.326 170.887H425.325V155.691H437.326V170.887ZM437.326 154.802H425.325V151.497H437.326V154.802Z" fill="white"/>
<path d="M437.326 155.691H426.511H425.325V156.875V170.887H426.511V156.875H437.326V155.691Z" fill="#BDBEC0"/>
<path d="M437.326 151.497H426.511H425.325V152.681V154.802H426.511V152.681H437.326V151.497Z" fill="#BDBEC0"/>
<path d="M460.364 151.053H447.475V171.331H460.364V151.053Z" fill="#43484E"/>
<path d="M460.364 151.053H457.911L447.475 168.359V171.331H450.419L460.364 154.836V151.053Z" fill="#414042"/>
<path d="M460.365 161.147V157.22L451.857 171.331H454.226L460.365 161.147Z" fill="#414042"/>
<path d="M447.475 162.046V165.973L456.473 151.053H454.104L447.475 162.046Z" fill="#414042"/>
<path d="M447.029 150.608V171.776H460.808V150.608H447.029ZM459.919 170.887H447.918V155.691H459.919V170.887ZM459.919 154.802H447.918V151.497H459.919V154.802Z" fill="white"/>
<path d="M459.92 155.691H449.105H447.919V156.875V170.887H449.105V156.875H459.92V155.691Z" fill="#BDBEC0"/>
<path d="M459.92 151.497H449.105H447.919V152.681V154.802H449.105V152.681H459.92V151.497Z" fill="#BDBEC0"/>
<path d="M482.959 151.053H470.069V171.331H482.959V151.053Z" fill="#43484E"/>
<path d="M482.959 151.053H480.504L470.069 168.359V171.331H473.012L482.959 154.836V151.053Z" fill="#414042"/>
<path d="M482.959 161.147V157.22L474.45 171.331H476.818L482.959 161.147Z" fill="#414042"/>
<path d="M470.069 162.046V165.973L479.067 151.053H476.699L470.069 162.046Z" fill="#414042"/>
<path d="M469.625 150.608V171.776H483.404V150.608H469.625ZM482.515 170.887H470.514V155.691H482.515V170.887ZM482.515 154.802H470.514V151.497H482.515V154.802Z" fill="white"/>
<path d="M482.515 155.691H471.699H470.515V156.875V170.887H471.699V156.875H482.515V155.691Z" fill="#BDBEC0"/>
<path d="M482.515 151.497H471.699H470.515V152.681V154.802H471.699V152.681H482.515V151.497Z" fill="#BDBEC0"/>
<path d="M506.03 151.053H493.141V171.331H506.03V151.053Z" fill="#43484E"/>
<path d="M506.03 151.053H503.575L493.141 168.359V171.331H496.085L506.03 154.836V151.053Z" fill="#414042"/>
<path d="M506.031 161.147V157.22L497.521 171.331H499.89L506.031 161.147Z" fill="#414042"/>
<path d="M493.141 162.046V165.973L502.139 151.053H499.77L493.141 162.046Z" fill="#414042"/>
<path d="M492.694 150.608V171.776H506.473V150.608H492.694ZM505.584 170.887H493.583V155.691H505.584V170.887ZM505.584 154.802H493.583V151.497H505.584V154.802Z" fill="white"/>
<path d="M505.584 155.691H494.769H493.583V156.875V170.887H494.769V156.875H505.584V155.691Z" fill="#BDBEC0"/>
<path d="M505.584 151.497H494.769H493.583V152.681V154.802H494.769V152.681H505.584V151.497Z" fill="#BDBEC0"/>
<path d="M528.889 151.053H515.999V171.331H528.889V151.053Z" fill="#43484E"/>
<path d="M528.889 151.053H526.435L515.999 168.359V171.331H518.943L528.889 154.836V151.053Z" fill="#414042"/>
<path d="M528.888 161.147V157.22L520.381 171.331H522.749L528.888 161.147Z" fill="#414042"/>
<path d="M515.999 162.046V165.973L524.997 151.053H522.629L515.999 162.046Z" fill="#414042"/>
<path d="M515.554 150.608V171.776H529.332V150.608H515.554ZM528.443 170.887H516.443V155.691H528.443V170.887ZM528.443 154.802H516.443V151.497H528.443V154.802Z" fill="white"/>
<path d="M528.443 155.691H517.628H516.442V156.875V170.887H517.628V156.875H528.443V155.691Z" fill="#BDBEC0"/>
<path d="M528.443 151.497H517.628H516.442V152.681V154.802H517.628V152.681H528.443V151.497Z" fill="#BDBEC0"/>
<path d="M441.787 146.746H421.992H420.806V147.93V176.673H421.992V147.93H441.787V146.746Z" fill="#BDBEC0"/>
<path d="M464.542 146.746H444.749H443.564V147.93V176.673H444.749V147.93H464.542V146.746Z" fill="#BDBEC0"/>
<path d="M487.299 146.746H467.505H466.319V147.93V176.673H467.505V147.93H487.299V146.746Z" fill="#BDBEC0"/>
<path d="M510.075 146.746H490.282H489.096V147.93V176.673H490.282V147.93H510.075V146.746Z" fill="#BDBEC0"/>
<path d="M532.814 146.746H513.021H511.835V147.93V176.673H513.021V147.93H532.814V146.746Z" fill="#BDBEC0"/>
<path d="M715.971 108.225H600.407V176.674H715.971V108.225Z" fill="#AA4E4E"/>
<path d="M715.971 138.151H600.407V146.746H715.971V138.151Z" fill="#FDD7A7"/>
<path d="M602.185 108.225H600.407V176.674H602.185V108.225Z" fill="#FDD7A7"/>
<path d="M624.942 108.225H623.164V176.674H624.942V108.225Z" fill="#FDD7A7"/>
<path d="M647.697 108.225H645.919V176.674H647.697V108.225Z" fill="#FDD7A7"/>
<path d="M670.458 108.225H668.68V176.674H670.458V108.225Z" fill="#FDD7A7"/>
<path d="M693.213 108.225H691.436V176.674H693.213V108.225Z" fill="#FDD7A7"/>
<path d="M715.971 108.225H714.193V176.674H715.971V108.225Z" fill="#FDD7A7"/>
<path d="M718.999 103.632H600.408V108.224H718.999V103.632Z" fill="#FDD7A7"/>
<path d="M619.15 112.529H606.26V132.808H619.15V112.529Z" fill="#43484E"/>
<path d="M619.15 112.529H616.694L606.26 129.835V132.808H609.202L619.15 116.313V112.529Z" fill="#414042"/>
<path d="M619.149 122.626V118.698L610.64 132.808H613.008L619.149 122.626Z" fill="#414042"/>
<path d="M606.26 123.522V127.449L615.256 112.529H612.888L606.26 123.522Z" fill="#414042"/>
<path d="M605.813 112.085V133.253H619.592V112.085H605.813ZM618.703 132.364H606.702V117.168H618.703V132.364ZM618.703 116.279H606.702V112.974H618.703V116.279Z" fill="white"/>
<path d="M618.704 117.169H607.889H606.703V118.355V132.365H607.889V118.355H618.704V117.169Z" fill="#BDBEC0"/>
<path d="M618.704 112.974H607.889H606.703V114.159V116.279H607.889V114.159H618.704V112.974Z" fill="#BDBEC0"/>
<path d="M641.743 112.529H628.854V132.808H641.743V112.529Z" fill="#43484E"/>
<path d="M641.743 112.529H639.29L628.854 129.835V132.808H631.796L641.743 116.313V112.529Z" fill="#414042"/>
<path d="M641.744 122.626V118.698L633.236 132.808H635.604L641.744 122.626Z" fill="#414042"/>
<path d="M628.854 123.522V127.449L637.85 112.529H635.482L628.854 123.522Z" fill="#414042"/>
<path d="M628.409 112.085V133.253H642.188V112.085H628.409ZM641.299 132.364H629.298V117.168H641.299V132.364ZM641.299 116.279H629.298V112.974H641.299V116.279Z" fill="white"/>
<path d="M641.3 117.169H630.485H629.299V118.355V132.365H630.485V118.355H641.3V117.169Z" fill="#BDBEC0"/>
<path d="M641.3 112.974H630.485H629.299V114.159V116.279H630.485V114.159H641.3V112.974Z" fill="#BDBEC0"/>
<path d="M664.337 112.529H651.447V132.808H664.337V112.529Z" fill="#43484E"/>
<path d="M664.337 112.529H661.884L651.447 129.835V132.808H654.391L664.337 116.313V112.529Z" fill="#414042"/>
<path d="M664.336 122.626V118.698L655.829 132.808H658.197L664.336 122.626Z" fill="#414042"/>
<path d="M651.447 123.522V127.449L660.445 112.529H658.077L651.447 123.522Z" fill="#414042"/>
<path d="M651.003 112.085V133.253H664.782V112.085H651.003ZM663.893 132.364H651.892V117.168H663.893V132.364ZM663.893 116.279H651.892V112.974H663.893V116.279Z" fill="white"/>
<path d="M663.891 117.169H653.076H651.891V118.355V132.365H653.076V118.355H663.891V117.169Z" fill="#BDBEC0"/>
<path d="M663.891 112.974H653.076H651.891V114.159V116.279H653.076V114.159H663.891V112.974Z" fill="#BDBEC0"/>
<path d="M687.407 112.529H674.518V132.808H687.407V112.529Z" fill="#43484E"/>
<path d="M687.408 112.529H684.953L674.519 129.835V132.808H677.463L687.408 116.313V112.529Z" fill="#414042"/>
<path d="M687.407 122.626V118.698L678.898 132.808H681.267L687.407 122.626Z" fill="#414042"/>
<path d="M674.519 123.522V127.449L683.516 112.529H681.148L674.519 123.522Z" fill="#414042"/>
<path d="M674.072 112.085V133.253H687.851V112.085H674.072ZM686.962 132.364H674.961V117.168H686.962V132.364ZM686.962 116.279H674.961V112.974H686.962V116.279Z" fill="white"/>
<path d="M686.962 117.169H676.147H674.961V118.355V132.365H676.147V118.355H686.962V117.169Z" fill="#BDBEC0"/>
<path d="M686.962 112.974H676.147H674.961V114.159V116.279H676.147V114.159H686.962V112.974Z" fill="#BDBEC0"/>
<path d="M710.268 112.529H697.378V132.808H710.268V112.529Z" fill="#43484E"/>
<path d="M710.267 112.529H707.811L697.377 129.835V132.808H700.319L710.267 116.313V112.529Z" fill="#414042"/>
<path d="M710.267 122.626V118.698L701.758 132.808H704.126L710.267 122.626Z" fill="#414042"/>
<path d="M697.377 123.522V127.449L706.373 112.529H704.005L697.377 123.522Z" fill="#414042"/>
<path d="M696.932 112.085V133.253H710.71V112.085H696.932ZM709.821 132.364H697.821V117.168H709.821V132.364ZM709.821 116.279H697.821V112.974H709.821V116.279Z" fill="white"/>
<path d="M709.821 117.169H699.006H697.82V118.355V132.365H699.006V118.355H709.821V117.169Z" fill="#BDBEC0"/>
<path d="M709.821 112.974H699.006H697.82V114.159V116.279H699.006V114.159H709.821V112.974Z" fill="#BDBEC0"/>
<path d="M623.165 108.224H603.371H602.186V109.409V146.745H603.371V109.409H623.165V108.224Z" fill="#BDBEC0"/>
<path d="M645.92 108.224H626.128H624.942V109.409V146.745H626.128V109.409H645.92V108.224Z" fill="#BDBEC0"/>
<path d="M668.678 108.224H648.883H647.697V109.409V146.745H648.883V109.409H668.678V108.224Z" fill="#BDBEC0"/>
<path d="M691.454 108.224H671.66H670.475V109.409V146.745H671.66V109.409H691.454V108.224Z" fill="#BDBEC0"/>
<path d="M714.193 108.224H694.4H693.214V109.409V146.745H694.4V109.409H714.193V108.224Z" fill="#BDBEC0"/>
<path d="M619.151 151.053H606.261V171.331H619.151V151.053Z" fill="#43484E"/>
<path d="M619.151 151.053H616.695L606.261 168.359V171.331H609.203L619.151 154.836V151.053Z" fill="#414042"/>
<path d="M619.15 161.147V157.22L610.641 171.331H613.009L619.15 161.147Z" fill="#414042"/>
<path d="M606.261 162.046V165.973L615.257 151.053H612.889L606.261 162.046Z" fill="#414042"/>
<path d="M605.814 150.608V171.776H619.593V150.608H605.814ZM618.704 170.887H606.703V155.691H618.704V170.887ZM618.704 154.802H606.703V151.497H618.704V154.802Z" fill="white"/>
<path d="M618.704 155.691H607.889H606.703V156.875V170.887H607.889V156.875H618.704V155.691Z" fill="#BDBEC0"/>
<path d="M618.704 151.497H607.889H606.703V152.681V154.802H607.889V152.681H618.704V151.497Z" fill="#BDBEC0"/>
<path d="M641.745 151.052H628.855V171.33H641.745V151.052Z" fill="#43484E"/>
<path d="M641.744 151.053H639.291L628.854 168.359V171.331H631.797L641.744 154.836V151.053Z" fill="#414042"/>
<path d="M641.745 161.146V157.219L633.237 171.33H635.605L641.745 161.146Z" fill="#414042"/>
<path d="M628.854 162.046V165.973L637.851 151.053H635.483L628.854 162.046Z" fill="#414042"/>
<path d="M628.41 150.607V171.775H642.189V150.607H628.41ZM641.3 170.886H629.299V155.69H641.3V170.886ZM641.3 154.801H629.299V151.496H641.3V154.801Z" fill="white"/>
<path d="M641.3 155.691H630.485H629.299V156.875V170.887H630.485V156.875H641.3V155.691Z" fill="#BDBEC0"/>
<path d="M641.3 151.497H630.485H629.299V152.681V154.802H630.485V152.681H641.3V151.497Z" fill="#BDBEC0"/>
<path d="M664.337 151.053H651.447V171.331H664.337V151.053Z" fill="#43484E"/>
<path d="M664.337 151.053H661.884L651.447 168.359V171.331H654.391L664.337 154.836V151.053Z" fill="#414042"/>
<path d="M664.337 161.147V157.22L655.83 171.331H658.198L664.337 161.147Z" fill="#414042"/>
<path d="M651.447 162.046V165.973L660.445 151.053H658.077L651.447 162.046Z" fill="#414042"/>
<path d="M651.003 150.608V171.776H664.782V150.608H651.003ZM663.893 170.887H651.892V155.691H663.893V170.887ZM663.893 154.802H651.892V151.497H663.893V154.802Z" fill="white"/>
<path d="M663.892 155.691H653.077H651.892V156.875V170.887H653.077V156.875H663.892V155.691Z" fill="#BDBEC0"/>
<path d="M663.892 151.497H653.077H651.892V152.681V154.802H653.077V152.681H663.892V151.497Z" fill="#BDBEC0"/>
<path d="M687.407 151.053H674.518V171.331H687.407V151.053Z" fill="#43484E"/>
<path d="M687.409 151.053H684.954L674.52 168.359V171.331H677.464L687.409 154.836V151.053Z" fill="#414042"/>
<path d="M687.408 161.147V157.22L678.899 171.331H681.268L687.408 161.147Z" fill="#414042"/>
<path d="M674.52 162.046V165.973L683.517 151.053H681.149L674.52 162.046Z" fill="#414042"/>
<path d="M674.072 150.608V171.776H687.851V150.608H674.072ZM686.962 170.887H674.961V155.691H686.962V170.887ZM686.962 154.802H674.961V151.497H686.962V154.802Z" fill="white"/>
<path d="M686.962 155.691H676.147H674.961V156.875V170.887H676.147V156.875H686.962V155.691Z" fill="#BDBEC0"/>
<path d="M686.962 151.497H676.147H674.961V152.681V154.802H676.147V152.681H686.962V151.497Z" fill="#BDBEC0"/>
<path d="M710.268 151.053H697.378V171.331H710.268V151.053Z" fill="#43484E"/>
<path d="M710.268 151.053H707.812L697.378 168.359V171.331H700.32L710.268 154.836V151.053Z" fill="#414042"/>
<path d="M710.267 161.147V157.22L701.758 171.331H704.126L710.267 161.147Z" fill="#414042"/>
<path d="M697.378 162.046V165.973L706.374 151.053H704.006L697.378 162.046Z" fill="#414042"/>
<path d="M696.932 150.608V171.776H710.71V150.608H696.932ZM709.821 170.887H697.821V155.691H709.821V170.887ZM709.821 154.802H697.821V151.497H709.821V154.802Z" fill="white"/>
<path d="M709.821 155.691H699.006H697.82V156.875V170.887H699.006V156.875H709.821V155.691Z" fill="#BDBEC0"/>
<path d="M709.821 151.497H699.006H697.82V152.681V154.802H699.006V152.681H709.821V151.497Z" fill="#BDBEC0"/>
<path d="M623.165 146.746H603.371H602.186V147.93V176.673H603.371V147.93H623.165V146.746Z" fill="#BDBEC0"/>
<path d="M645.919 146.746H626.127H624.941V147.93V176.673H626.127V147.93H645.919V146.746Z" fill="#BDBEC0"/>
<path d="M668.677 146.746H648.882H647.696V147.93V176.673H648.882V147.93H668.677V146.746Z" fill="#BDBEC0"/>
<path d="M691.454 146.746H671.66H670.475V147.93V176.673H671.66V147.93H691.454V146.746Z" fill="#BDBEC0"/>
<path d="M714.193 146.746H694.4H693.214V147.93V176.673H694.4V147.93H714.193V146.746Z" fill="#BDBEC0"/>
<path d="M600.409 82.5928H534.591V176.674H600.409V82.5928Z" fill="#E4716B"/>
<path d="M602.505 78H532.5V82.5923H602.505V78Z" fill="#FDD7A7"/>
<path d="M584.168 146.746H550.832V176.673H584.168V146.746Z" fill="#FDD7A7"/>
<path d="M541.974 82.5908H540.196V176.672H541.974V82.5908Z" fill="#FDD7A7"/>
<path d="M545.677 82.5908H543.899V176.672H545.677V82.5908Z" fill="#FDD7A7"/>
<path d="M591.102 82.5908H589.324V176.672H591.102V82.5908Z" fill="#FDD7A7"/>
<path d="M594.806 82.5908H593.028V176.672H594.806V82.5908Z" fill="#FDD7A7"/>
<path d="M567.944 146.744H567.055V176.673H567.944V146.744Z" fill="white"/>
<path d="M563.943 149.595H554.165V165.041H563.943V149.595Z" fill="#43484E"/>
<path d="M563.944 149.595H561.418L554.166 161.624V165.041H556.84L563.944 153.261V149.595Z" fill="#414042"/>
<path d="M563.945 159.573V155.647L558.279 165.042H560.649L563.945 159.573Z" fill="#414042"/>
<path d="M554.166 155.311V159.238L559.982 149.595H557.612L554.166 155.311Z" fill="#414042"/>
<path d="M554.61 164.597H563.499V150.039H554.61V164.597ZM564.388 165.486H553.721V149.15H564.388V165.486Z" fill="white"/>
<path d="M563.5 150.039H555.796H554.61V151.225V164.597H555.796V151.225H563.5V150.039Z" fill="#BDBEC0"/>
<path d="M563.943 168.207H554.165V173.818H563.943V168.207Z" fill="#43484E"/>
<path d="M563.614 168.207H558.877L555.494 173.818H560.23L563.614 168.207Z" fill="#414042"/>
<path d="M554.165 169.708V173.636L557.438 168.206H555.07L554.165 169.708Z" fill="#414042"/>
<path d="M563.944 170.044L561.668 173.818H563.944V170.044Z" fill="#414042"/>
<path d="M564.388 174.263H553.721V167.763H564.388V174.263ZM554.61 173.374H563.499V168.652H554.61V173.374Z" fill="white"/>
<path d="M563.5 168.651H555.796H554.61V169.837V173.373H555.796V169.837H563.5V168.651Z" fill="#BDBEC0"/>
<path d="M580.835 149.595H571.057V165.041H580.835V149.595Z" fill="#43484E"/>
<path d="M580.834 149.595H578.308L571.056 161.624V165.041H573.731L580.834 153.261V149.595Z" fill="#414042"/>
<path d="M580.834 159.573V155.647L575.168 165.042H577.538L580.834 159.573Z" fill="#414042"/>
<path d="M571.056 155.311V159.238L576.871 149.595H574.501L571.056 155.311Z" fill="#414042"/>
<path d="M571.5 164.597H580.39V150.039H571.5V164.597ZM581.279 165.486H570.611V149.15H581.279V165.486Z" fill="white"/>
<path d="M580.39 150.04H572.686H571.5V151.226V164.597H572.686V151.226H580.39V150.04Z" fill="#BDBEC0"/>
<path d="M580.835 168.207H571.057V173.818H580.835V168.207Z" fill="#43484E"/>
<path d="M580.502 168.207H575.767L572.384 173.818H577.12L580.502 168.207Z" fill="#414042"/>
<path d="M571.056 169.71V173.638L574.329 168.208H571.961L571.056 169.71Z" fill="#414042"/>
<path d="M580.834 170.044L578.559 173.818H580.834V170.044Z" fill="#414042"/>
<path d="M581.279 174.263H570.611V167.763H581.279V174.263ZM571.5 173.374H580.39V168.652H571.5V173.374Z" fill="white"/>
<path d="M580.39 168.651H572.686H571.5V169.837V173.373H572.686V169.837H580.39V168.651Z" fill="#BDBEC0"/>
<path d="M569.48 161.71H568.703V164.304H569.48V161.71Z" fill="white"/>
<path d="M566.296 161.71H565.518V164.304H566.296V161.71Z" fill="white"/>
<path d="M563.811 112.53H550.921V132.809H563.811V112.53Z" fill="#43484E"/>
<path d="M563.811 112.53H561.357L550.921 129.836V132.809H553.865L563.811 116.314V112.53Z" fill="#414042"/>
<path d="M563.811 122.627V118.699L555.304 132.809H557.672L563.811 122.627Z" fill="#414042"/>
<path d="M550.921 123.523V127.45L559.919 112.53H557.551L550.921 123.523Z" fill="#414042"/>
<path d="M550.477 112.085V133.253H564.255V112.085H550.477ZM563.366 132.364H551.366V117.168H563.366V132.364ZM563.366 116.279H551.366V112.974H563.366V116.279Z" fill="white"/>
<path d="M563.367 117.168H552.55H551.366V118.354V132.364H552.55V118.354H563.367V117.168Z" fill="#BDBEC0"/>
<path d="M563.367 112.974H552.55H551.366V114.159V116.279H552.55V114.159H563.367V112.974Z" fill="#BDBEC0"/>
<path d="M584.08 112.53H571.19V132.809H584.08V112.53Z" fill="#43484E"/>
<path d="M584.079 112.53H581.626L571.189 129.836V132.809H574.134L584.079 116.314V112.53Z" fill="#414042"/>
<path d="M584.08 122.627V118.699L575.572 132.809H577.94L584.08 122.627Z" fill="#414042"/>
<path d="M571.189 123.523V127.45L580.189 112.53H577.821L571.189 123.523Z" fill="#414042"/>
<path d="M570.745 112.086V133.254H584.524V112.086H570.745ZM583.635 132.365H571.634V117.169H583.635V132.365ZM583.635 116.28H571.634V112.975H583.635V116.28Z" fill="white"/>
<path d="M583.636 117.17H572.821H571.635V118.356V132.366H572.821V118.356H583.636V117.17Z" fill="#BDBEC0"/>
<path d="M583.636 112.975H572.821H571.635V114.16V116.28H572.821V114.16H583.636V112.975Z" fill="#BDBEC0"/>
<path d="M600.409 82.5928H595.991H594.805H592.285H591.101H546.862H545.676H543.159H541.973H534.591V85.5192H541.973V176.674H543.159V85.5192H545.676V176.674H546.862V85.5192H591.101V176.674H592.285V85.5192H594.805V176.674H595.991V85.5192H600.409V82.5928Z" fill="#BDBEC0"/>
<path d="M594.373 88.9629H540.592V103.631H594.373V88.9629Z" fill="#AA4E4E"/>
<path d="M594.818 104.074H540.147V88.5176H594.818V104.074ZM541.036 103.185H593.929V89.4065H541.036V103.185Z" fill="white"/>
<path d="M593.917 89.3887H542.21H541.024V90.5745V103.112H542.21V90.5745H593.917V89.3887Z" fill="#BDBEC0"/>
<path d="M546.797 97.6222L548.013 97.5048C548.086 97.912 548.235 98.2124 548.457 98.4045C548.681 98.5947 548.984 98.6907 549.362 98.6907C549.764 98.6907 550.068 98.6054 550.273 98.4347C550.475 98.264 550.578 98.0649 550.578 97.8373C550.578 97.6915 550.536 97.5671 550.45 97.4639C550.365 97.3608 550.214 97.2719 550.001 97.1955C549.853 97.1457 549.521 97.055 549 96.9252C548.331 96.7599 547.86 96.5554 547.592 96.3137C547.211 95.9741 547.021 95.558 547.021 95.0691C547.021 94.7544 547.11 94.4593 547.289 94.1837C547.469 93.9081 547.725 93.7019 548.061 93.5579C548.397 93.4139 548.802 93.3428 549.279 93.3428C550.056 93.3428 550.639 93.5135 551.032 93.853C551.425 94.1926 551.631 94.6478 551.651 95.2167L550.401 95.2718C550.347 94.9535 550.232 94.726 550.058 94.5855C549.882 94.4469 549.617 94.3757 549.266 94.3757C548.904 94.3757 548.619 94.4504 548.415 94.5998C548.283 94.6958 548.217 94.8238 548.217 94.9838C548.217 95.1313 548.28 95.2558 548.402 95.3589C548.559 95.4905 548.943 95.6292 549.551 95.7714C550.159 95.9154 550.609 96.0647 550.898 96.2159C551.19 96.3688 551.418 96.5786 551.581 96.8452C551.747 97.1119 551.828 97.4391 551.828 97.8302C551.828 98.1858 551.729 98.5165 551.531 98.8276C551.336 99.1369 551.057 99.3663 550.696 99.5174C550.335 99.6685 549.887 99.7432 549.35 99.7432C548.569 99.7432 547.969 99.5619 547.549 99.201C547.129 98.8418 546.879 98.3156 546.797 97.6222ZM557.699 97.3608L558.91 97.7449C558.725 98.4205 558.415 98.9218 557.983 99.249C557.551 99.5779 557.004 99.7414 556.339 99.7414C555.517 99.7414 554.844 99.4605 554.314 98.8987C553.786 98.3369 553.521 97.5688 553.521 96.5963C553.521 95.5669 553.788 94.7669 554.319 94.1979C554.851 93.629 555.549 93.3446 556.417 93.3446C557.174 93.3446 557.788 93.5668 558.261 94.0148C558.542 94.2797 558.753 94.6602 558.894 95.1545L557.658 95.4496C557.585 95.1296 557.432 94.8753 557.201 94.6904C556.968 94.5055 556.686 94.4113 556.355 94.4113C555.896 94.4113 555.525 94.5766 555.238 94.9056C554.952 95.2345 554.81 95.7678 554.81 96.5039C554.81 97.2862 554.95 97.8426 555.231 98.1751C555.512 98.5076 555.878 98.6729 556.328 98.6729C556.661 98.6729 556.945 98.5662 557.185 98.3565C557.423 98.1467 557.596 97.8142 557.699 97.3608ZM560.851 99.6365V93.4512H562.101V95.8869H564.547V93.4512H565.797V99.6365H564.547V96.9324H562.101V99.6365H560.851ZM567.698 96.5803C567.698 95.951 567.792 95.4211 567.981 94.9927C568.121 94.678 568.313 94.3953 568.557 94.1446C568.8 93.8939 569.067 93.709 569.357 93.5881C569.742 93.4246 570.187 93.3428 570.69 93.3428C571.602 93.3428 572.331 93.6255 572.877 94.1908C573.424 94.7562 573.698 95.542 573.698 96.5501C573.698 97.5493 573.428 98.3298 572.884 98.8934C572.34 99.457 571.615 99.7397 570.706 99.7397C569.785 99.7397 569.054 99.4588 568.512 98.8969C567.97 98.3387 567.698 97.5653 567.698 96.5803ZM568.985 96.5377C568.985 97.2382 569.147 97.7697 569.47 98.1307C569.794 98.4934 570.205 98.6729 570.701 98.6729C571.199 98.6729 571.609 98.4934 571.927 98.1342C572.246 97.7751 572.406 97.2382 572.406 96.5199C572.406 95.8105 572.251 95.2825 571.94 94.9322C571.629 94.582 571.216 94.4095 570.701 94.4095C570.187 94.4095 569.773 94.5873 569.458 94.9393C569.143 95.2949 568.985 95.8265 568.985 96.5377ZM575.286 96.5803C575.286 95.951 575.38 95.4211 575.567 94.9927C575.707 94.678 575.901 94.3953 576.143 94.1446C576.386 93.8939 576.653 93.709 576.943 93.5881C577.329 93.4246 577.773 93.3428 578.276 93.3428C579.188 93.3428 579.917 93.6255 580.463 94.1908C581.011 94.7562 581.285 95.542 581.285 96.5501C581.285 97.5493 581.013 98.3298 580.469 98.8934C579.926 99.457 579.201 99.7397 578.291 99.7397C577.371 99.7397 576.639 99.4588 576.098 98.8969C575.556 98.3387 575.286 97.5653 575.286 96.5803ZM576.573 96.5377C576.573 97.2382 576.735 97.7697 577.057 98.1307C577.382 98.4934 577.791 98.6729 578.289 98.6729C578.787 98.6729 579.196 98.4934 579.514 98.1342C579.832 97.7751 579.994 97.2382 579.994 96.5199C579.994 95.8105 579.837 95.2825 579.526 94.9322C579.215 94.582 578.803 94.4095 578.289 94.4095C577.773 94.4095 577.359 94.5873 577.044 94.9393C576.73 95.2949 576.573 95.8265 576.573 96.5377ZM583.159 99.6365V93.501H584.408V98.5947H587.513V99.6365H583.159Z" fill="white"/>
<path d="M594.808 104.083H540.196V105.267H594.808V104.083Z" fill="#BDBEC0"/>
<path d="M412.89 20.6477C411.085 20.6477 409.428 21.2434 408.07 22.228C405.546 16.7856 400.047 13 393.651 13C388.187 13 383.367 15.7605 380.505 19.9598C378.687 18.6447 376.47 17.8489 374.053 17.8489C367.95 17.8489 363 22.7968 363 28.9023C363 35.0057 367.948 39.9558 374.053 39.9558C376.47 39.9558 378.687 39.16 380.505 37.8449C383.367 42.0442 388.187 44.8047 393.651 44.8047C400.047 44.8047 405.546 41.0191 408.07 35.5767C409.428 36.5613 411.085 37.157 412.89 37.157C417.449 37.157 421.142 33.4613 421.142 28.9046C421.142 24.3412 417.449 20.6477 412.89 20.6477Z" fill="white"/>
<path d="M381.249 6.32362C379.756 6.32362 378.387 6.81594 377.263 7.62971C375.177 3.12922 370.629 0 365.342 0C360.823 0 356.84 2.28172 354.473 5.75263C352.969 4.66685 351.137 4.00818 349.138 4.00818C344.091 4.00818 340 8.09954 340 13.1463C340 18.1931 344.091 22.2844 349.138 22.2844C351.137 22.2844 352.969 21.6258 354.473 20.54C356.84 24.0109 360.823 26.2949 365.342 26.2949C370.629 26.2949 375.177 23.1656 377.263 18.6651C378.387 19.4789 379.756 19.9712 381.249 19.9712C385.016 19.9712 388.071 16.9162 388.071 13.1486C388.071 9.3809 385.016 6.32362 381.249 6.32362Z" fill="white"/>
<path d="M1064.89 29.6477C1063.08 29.6477 1061.43 30.2434 1060.07 31.228C1057.55 25.7856 1052.05 22 1045.65 22C1040.19 22 1035.37 24.7605 1032.51 28.9598C1030.69 27.6447 1028.47 26.8489 1026.05 26.8489C1019.95 26.8489 1015 31.7968 1015 37.9023C1015 44.0057 1019.95 48.9558 1026.05 48.9558C1028.47 48.9558 1030.69 48.16 1032.51 46.8449C1035.37 51.0442 1040.19 53.8047 1045.65 53.8047C1052.05 53.8047 1057.55 50.0191 1060.07 44.5767C1061.43 45.5613 1063.08 46.157 1064.89 46.157C1069.45 46.157 1073.14 42.4613 1073.14 37.9046C1073.14 33.3412 1069.45 29.6477 1064.89 29.6477Z" fill="white"/>
<path d="M1033.25 15.3236C1031.76 15.3236 1030.39 15.8159 1029.26 16.6297C1027.18 12.1292 1022.63 9 1017.34 9C1012.82 9 1008.84 11.2817 1006.47 14.7526C1004.97 13.6668 1003.14 13.0082 1001.14 13.0082C996.091 13.0082 992 17.0995 992 22.1463C992 27.1931 996.091 31.2844 1001.14 31.2844C1003.14 31.2844 1004.97 30.6258 1006.47 29.54C1008.84 33.0109 1012.82 35.2949 1017.34 35.2949C1022.63 35.2949 1027.18 32.1656 1029.26 27.6651C1030.39 28.4789 1031.76 28.9712 1033.25 28.9712C1037.02 28.9712 1040.07 25.9162 1040.07 22.1486C1040.07 18.3809 1037.02 15.3236 1033.25 15.3236Z" fill="white"/>
<path d="M74.8899 39.6477C73.0847 39.6477 71.4279 40.2434 70.0701 41.228C67.5456 35.7856 62.047 32 55.6515 32C50.1866 32 45.3669 34.7605 42.5052 38.9598C40.6865 37.6447 38.47 36.8489 36.0534 36.8489C29.9501 36.8489 25 41.7968 25 47.9023C25 54.0057 29.9479 58.9558 36.0534 58.9558C38.47 58.9558 40.6865 58.16 42.5052 56.8449C45.3669 61.0442 50.1866 63.8047 55.6515 63.8047C62.047 63.8047 67.5456 60.0191 70.0701 54.5767C71.4279 55.5613 73.0847 56.157 74.8899 56.157C79.4488 56.157 83.1423 52.4613 83.1423 47.9046C83.1423 43.3412 79.4488 39.6477 74.8899 39.6477Z" fill="white"/>
<path d="M43.2485 25.3236C41.7559 25.3236 40.3868 25.8159 39.2628 26.6297C37.1767 22.1292 32.629 19 27.3417 19C22.8232 19 18.8398 21.2817 16.4726 24.7526C14.9687 23.6668 13.1366 23.0082 11.1381 23.0082C6.09136 23.0082 2 27.0995 2 32.1463C2 37.1931 6.09136 41.2844 11.1381 41.2844C13.1366 41.2844 14.9687 40.6258 16.4726 39.54C18.8398 43.0109 22.8232 45.2949 27.3417 45.2949C32.629 45.2949 37.1767 42.1656 39.2628 37.6651C40.3868 38.4789 41.7559 38.9712 43.2485 38.9712C47.0162 38.9712 50.0712 35.9162 50.0712 32.1486C50.0712 28.3809 47.0162 25.3236 43.2485 25.3236Z" fill="white"/>
<path d="M123.475 102.896C123.475 102.896 102.517 119.976 90.9626 98.611C79.4079 77.246 58.0339 89.2616 62.64 64.0592C67.2462 38.8569 92.1765 58.174 97.5987 38.504C103.023 18.8362 112.047 10.7277 129.759 15.1967C149.435 20.1603 136.123 43.8205 153.007 50.5712C169.892 57.322 180.804 63.9648 176.904 75.8455C173.003 87.7262 150.62 79.9526 149.973 90.0551C149.323 100.158 135.977 120.14 123.475 102.896Z" fill="#577338"/>
<path d="M164.374 55.6764C161.047 53.9275 157.212 52.2527 153.008 50.5712C136.124 43.8205 149.439 20.1603 129.76 15.1967C112.048 10.7277 103.024 18.8362 97.5997 38.5062C93.3937 53.7544 77.4733 45.5829 68.3779 52.8799C100.338 64.4728 93.2071 45.6481 106.122 49.699C119.039 53.7499 114.055 43.6406 124.711 36.6651C135.366 29.6896 132.228 43.0607 144.733 55.2471C152.975 63.2724 160.319 59.3137 164.374 55.6764Z" fill="#6B8D44"/>
<path d="M176.904 75.8432C180.028 66.3207 173.628 60.1656 162.276 54.6221C167.588 60.8131 174.179 70.7762 166.792 75.6544C155.62 83.0323 143.599 73.3457 139.926 85.8243C136.255 98.3029 129.235 99.5506 123.628 94.6185C118.022 89.6886 107.065 110.172 99.0756 94.8523C94.4852 86.0469 83.9983 84.6374 75.8965 85.0218C81.0511 87.3642 86.6779 90.6935 90.9581 98.6087C102.515 119.974 123.471 102.893 123.471 102.893C135.974 120.138 149.321 100.155 149.968 90.0528C150.62 79.9525 173.003 87.7261 176.904 75.8432Z" fill="#E6E7E8"/>
<path d="M119.082 173.725C119.082 173.725 120.363 155.487 119.614 145.115C118.866 134.747 119.56 112.166 120.77 105.597C121.981 99.0285 112.529 90.9447 109.238 75.6335C109.238 75.6335 108.554 71.8547 109.292 72.7157C110.029 73.5766 111.6 80.197 112.241 81.2423C112.882 82.2876 117.423 91.129 118.436 92.28C119.45 93.4287 121.871 99.8737 122.831 98.9521C123.791 98.0281 125.54 95.0495 126.073 91.6685C126.608 88.2898 128.622 81.1726 129.229 78.9246C129.836 76.6766 131.825 70.9712 134.02 69.3167C134.02 69.3167 135.546 68.2983 133.986 71.1465C132.426 73.9948 131.401 78.5897 130.798 80.5544C130.196 82.5192 129.784 89.479 128.501 92.6554C127.219 95.8318 128.647 100.036 126.127 103.814C123.863 107.213 123.324 117.885 123.524 122.313C123.724 126.742 123.243 142.453 124.018 146.281C124.794 150.108 125.511 172.291 126.752 173.869L119.082 173.725Z" fill="#7C5833"/>
<path d="M134.641 69.252C134.466 69.6229 133.843 70.9222 133.4 71.5696C132.881 72.3317 130.918 77.7449 130.493 79.1993C130.069 80.6515 129.325 87.6293 128.605 89.2119C127.884 90.7945 127.184 94.1306 127.151 95.9919C127.115 97.851 126.337 101.133 124.903 102.489C123.468 103.846 122.599 113.423 122.549 114.751C122.497 116.08 122.201 127.351 122.255 130.553C122.309 133.756 122.576 144.681 122.981 148.267C123.383 151.852 124.15 168.859 124.098 169.187C124.066 169.378 124.01 171.799 123.968 173.822L126.755 173.874C125.514 172.296 124.797 150.112 124.021 146.286C123.246 142.458 123.727 126.747 123.527 122.318C123.327 117.89 123.866 107.218 126.13 103.819C128.65 100.041 127.22 95.8368 128.504 92.6604C129.788 89.4839 130.199 82.5241 130.801 80.5594C131.404 78.5946 132.429 73.9997 133.989 71.1515C134.652 69.9286 134.742 69.4385 134.641 69.252Z" fill="#D2D3D4"/>
<path d="M120.819 105.004C120.828 104.977 120.846 104.957 120.855 104.93C121.916 101.064 119.656 97.2488 118.757 96.208C117.858 95.1672 115.111 89.1853 114.255 87.7555C113.398 86.3281 110.932 80.3506 110.399 78.6467C109.88 76.9831 109.066 72.8805 109.03 72.6895C108.787 73.1256 109.235 75.6366 109.235 75.6366C112.429 90.4936 121.394 98.5414 120.819 105.004Z" fill="#D2D3D4"/>
<path d="M128.106 73.758C128.106 73.758 128.743 85.4768 115.879 83.1479C103.014 80.8167 102.594 103.389 82.7035 93.8191C62.8109 84.2494 67.4081 61.9582 79.9609 61.4636C92.5137 60.9691 70.3485 38.7656 91.356 33.3502C106.483 29.4499 103.547 47.7936 116.453 53.0516C129.358 58.3097 130.296 66.9016 128.106 73.758Z" fill="#8EAD6A"/>
<path d="M115.661 52.6542C103.706 46.9645 106.147 29.538 91.3532 33.3506C70.3456 38.766 92.5109 60.9695 79.9581 61.4641C68.2819 61.9249 63.5184 81.224 78.906 91.6232C76.6647 85.3693 78.6587 79.6549 84.009 79.6661C94.2531 79.6864 87.9834 57.1232 94.7229 54.5043C101.462 51.8853 96.6787 39.3033 104.045 47.8052C108.654 53.1173 113.028 53.2791 115.661 52.6542Z" fill="#99BA72"/>
<path d="M123.206 82.9465C126.717 82.7959 130.188 83.7491 133.041 85.7992C135.581 87.6246 139.929 88.7464 146.965 85.3406C160.327 78.8754 148.68 63.3664 157.504 60.172C166.329 56.9799 159.097 38.1933 140.895 44.1955C122.693 50.1977 134.178 58.8053 117.39 54.9477C101.888 51.3846 98.451 84.0143 123.206 82.9465Z" fill="#99BA72"/>
<path d="M140.9 44.1926C122.698 50.1947 134.183 58.8023 117.395 54.9447C115.859 54.5918 114.447 54.6008 113.166 54.8908C113.676 56.6218 115.299 58.8608 120.225 59.5711C128.61 60.7783 128.9 66.8277 133.268 58.5258C137.633 50.2262 138.353 56.7544 145.171 51.838C151.989 46.9216 153.493 56.4082 146.897 60.6974C140.855 64.6291 153.12 76.9954 148.345 84.5756C159.482 77.7327 149.01 63.2421 157.508 60.1691C166.331 56.9769 159.102 38.1904 140.9 44.1926Z" fill="#A4C77A"/>
<path d="M1083.48 102.896C1083.48 102.896 1062.52 119.976 1050.96 98.611C1039.41 77.246 1018.03 89.2616 1022.64 64.0592C1027.25 38.8569 1052.18 58.174 1057.6 38.504C1063.02 18.8362 1072.05 10.7277 1089.76 15.1967C1109.44 20.1603 1096.12 43.8205 1113.01 50.5712C1129.89 57.322 1140.8 63.9648 1136.9 75.8455C1133 87.7262 1110.62 79.9526 1109.97 90.0551C1109.32 100.158 1095.98 120.14 1083.48 102.896Z" fill="#577338"/>
<path d="M1124.37 55.6764C1121.05 53.9275 1117.21 52.2527 1113.01 50.5712C1096.12 43.8205 1109.44 20.1603 1089.76 15.1967C1072.05 10.7277 1063.02 18.8362 1057.6 38.5062C1053.39 53.7544 1037.47 45.5829 1028.38 52.8799C1060.34 64.4728 1053.21 45.6481 1066.12 49.699C1079.04 53.7499 1074.06 43.6406 1084.71 36.6651C1095.37 29.6896 1092.23 43.0607 1104.73 55.2471C1112.97 63.2724 1120.32 59.3137 1124.37 55.6764Z" fill="#6B8D44"/>
<path d="M1136.9 75.8432C1140.03 66.3207 1133.63 60.1656 1122.28 54.6221C1127.59 60.8131 1134.18 70.7762 1126.79 75.6544C1115.62 83.0323 1103.6 73.3457 1099.93 85.8243C1096.26 98.3029 1089.23 99.5506 1083.63 94.6185C1078.02 89.6886 1067.07 110.172 1059.08 94.8523C1054.49 86.0469 1044 84.6374 1035.9 85.0218C1041.05 87.3642 1046.68 90.6935 1050.96 98.6087C1062.52 119.974 1083.47 102.893 1083.47 102.893C1095.97 120.138 1109.32 100.155 1109.97 90.0528C1110.62 79.9525 1133 87.7261 1136.9 75.8432Z" fill="#E6E7E8"/>
<path d="M1079.08 173.725C1079.08 173.725 1080.36 155.487 1079.61 145.115C1078.87 134.747 1079.56 112.166 1080.77 105.597C1081.98 99.0285 1072.53 90.9447 1069.24 75.6335C1069.24 75.6335 1068.55 71.8547 1069.29 72.7157C1070.03 73.5766 1071.6 80.197 1072.24 81.2423C1072.88 82.2876 1077.42 91.129 1078.44 92.28C1079.45 93.4287 1081.87 99.8737 1082.83 98.9521C1083.79 98.0281 1085.54 95.0495 1086.07 91.6685C1086.61 88.2898 1088.62 81.1726 1089.23 78.9246C1089.84 76.6766 1091.83 70.9712 1094.02 69.3167C1094.02 69.3167 1095.55 68.2983 1093.99 71.1465C1092.43 73.9948 1091.4 78.5897 1090.8 80.5544C1090.2 82.5192 1089.78 89.479 1088.5 92.6554C1087.22 95.8318 1088.65 100.036 1086.13 103.814C1083.86 107.213 1083.32 117.885 1083.52 122.313C1083.72 126.742 1083.24 142.453 1084.02 146.281C1084.79 150.108 1085.51 172.291 1086.75 173.869L1079.08 173.725Z" fill="#7C5833"/>
<path d="M1094.64 69.252C1094.47 69.6229 1093.84 70.9222 1093.4 71.5696C1092.88 72.3317 1090.92 77.7449 1090.49 79.1993C1090.07 80.6515 1089.32 87.6293 1088.61 89.2119C1087.88 90.7945 1087.18 94.1306 1087.15 95.9919C1087.11 97.851 1086.34 101.133 1084.9 102.489C1083.47 103.846 1082.6 113.423 1082.55 114.751C1082.5 116.08 1082.2 127.351 1082.25 130.553C1082.31 133.756 1082.58 144.681 1082.98 148.267C1083.38 151.852 1084.15 168.859 1084.1 169.187C1084.07 169.378 1084.01 171.799 1083.97 173.822L1086.76 173.874C1085.51 172.296 1084.8 150.112 1084.02 146.286C1083.25 142.458 1083.73 126.747 1083.53 122.318C1083.33 117.89 1083.87 107.218 1086.13 103.819C1088.65 100.041 1087.22 95.8368 1088.5 92.6604C1089.79 89.4839 1090.2 82.5241 1090.8 80.5594C1091.4 78.5946 1092.43 73.9997 1093.99 71.1515C1094.65 69.9286 1094.74 69.4385 1094.64 69.252Z" fill="#D2D3D4"/>
<path d="M1080.82 105.004C1080.83 104.977 1080.85 104.957 1080.85 104.93C1081.92 101.064 1079.66 97.2488 1078.76 96.208C1077.86 95.1672 1075.11 89.1853 1074.25 87.7555C1073.4 86.3281 1070.93 80.3506 1070.4 78.6467C1069.88 76.9831 1069.07 72.8805 1069.03 72.6895C1068.79 73.1256 1069.23 75.6366 1069.23 75.6366C1072.43 90.4936 1081.39 98.5414 1080.82 105.004Z" fill="#D2D3D4"/>
<path d="M1088.11 73.758C1088.11 73.758 1088.74 85.4768 1075.88 83.1479C1063.01 80.8167 1062.59 103.389 1042.7 93.8191C1022.81 84.2494 1027.41 61.9582 1039.96 61.4636C1052.51 60.9691 1030.35 38.7656 1051.36 33.3502C1066.48 29.4499 1063.55 47.7936 1076.45 53.0516C1089.36 58.3097 1090.3 66.9016 1088.11 73.758Z" fill="#8EAD6A"/>
<path d="M1075.66 52.6542C1063.71 46.9645 1066.15 29.538 1051.35 33.3506C1030.35 38.766 1052.51 60.9695 1039.96 61.4641C1028.28 61.9249 1023.52 81.224 1038.91 91.6232C1036.66 85.3693 1038.66 79.6549 1044.01 79.6661C1054.25 79.6864 1047.98 57.1232 1054.72 54.5043C1061.46 51.8853 1056.68 39.3033 1064.05 47.8052C1068.65 53.1173 1073.03 53.2791 1075.66 52.6542Z" fill="#99BA72"/>
<path d="M1083.21 82.9465C1086.72 82.7959 1090.19 83.7491 1093.04 85.7992C1095.58 87.6246 1099.93 88.7464 1106.97 85.3406C1120.33 78.8754 1108.68 63.3664 1117.5 60.172C1126.33 56.9799 1119.1 38.1933 1100.9 44.1955C1082.69 50.1977 1094.18 58.8053 1077.39 54.9477C1061.89 51.3846 1058.45 84.0143 1083.21 82.9465Z" fill="#99BA72"/>
<path d="M1100.9 44.1926C1082.7 50.1947 1094.18 58.8023 1077.39 54.9447C1075.86 54.5918 1074.45 54.6008 1073.17 54.8908C1073.68 56.6218 1075.3 58.8608 1080.22 59.5711C1088.61 60.7783 1088.9 66.8277 1093.27 58.5258C1097.63 50.2262 1098.35 56.7544 1105.17 51.838C1111.99 46.9216 1113.49 56.4082 1106.9 60.6974C1100.85 64.6291 1113.12 76.9954 1108.34 84.5756C1119.48 77.7327 1109.01 63.2421 1117.51 60.1691C1126.33 56.9769 1119.1 38.1904 1100.9 44.1926Z" fill="#A4C77A"/>
<path d="M82.5117 177.22C107.404 177.22 132.296 177.22 157.19 177.22C157.386 174.619 156.091 172.139 153.877 170.876C151.442 169.487 148.326 169.81 146.15 171.703C147.625 167.005 144.914 162.266 140.908 161.218C137.68 160.375 133.95 162.019 132.08 165.357C129.284 162.345 125.318 161.971 123.25 163.702C121.546 165.132 121.58 167.623 121.595 168.118C120.316 167.976 119.174 168.758 118.907 169.844C118.7 170.671 119.028 171.586 119.734 172.189C117.954 170.664 115.569 170.217 113.595 171.062C111.772 171.84 110.965 173.434 110.744 173.913C110.747 173.812 110.756 172.018 109.272 171.062C108.146 170.336 106.633 170.404 105.502 171.247C103.62 168.529 100.271 167.481 97.5935 168.578C94.561 169.819 93.8709 173.198 93.8237 173.452C91.7263 171.332 88.5903 170.759 86.0973 171.982C83.0063 173.495 82.5409 176.972 82.5117 177.22Z" fill="#577338"/>
<path d="M153.876 170.875C152.035 169.823 149.803 169.758 147.883 170.605C147.941 170.61 153.952 170.965 152.442 174.166C152.442 174.166 151.785 175.52 144.028 175.52C138.846 175.52 102.352 175.52 82.9651 175.52C82.6167 176.41 82.5223 177.116 82.5088 177.221C107.401 177.221 132.293 177.221 157.187 177.221C157.385 174.618 156.09 172.141 153.876 170.875Z" fill="#E6E7E8"/>
<path d="M94.3667 174.763C97.4352 168.866 101.817 169.28 104.851 172.692C107.509 171.555 109.197 172.348 110.75 175.107C113.612 171.348 117.665 171.532 120.992 173.623C120.234 170.795 121.959 169.313 124.027 170.024C124.901 165.382 129.912 165.334 132.855 167.796C138.924 163.448 143.982 165.519 146.152 171.703C147.626 167.005 144.915 162.266 140.909 161.218C137.681 160.375 133.952 162.019 132.081 165.357C129.285 162.345 125.319 161.971 123.251 163.702C121.547 165.132 121.581 167.623 121.597 168.118C120.318 167.976 119.176 168.758 118.908 169.844C118.701 170.671 119.03 171.586 119.735 172.189C117.955 170.664 115.57 170.217 113.596 171.062C111.773 171.84 110.966 173.434 110.746 173.913C110.748 173.812 110.757 172.018 109.273 171.062C108.147 170.336 106.634 170.404 105.503 171.247C103.622 168.529 100.272 167.481 97.5948 168.578C94.5623 169.819 93.8722 173.198 93.825 173.452C91.7276 171.332 88.5916 170.759 86.0986 171.982C85.3073 172.368 84.6913 172.883 84.208 173.441C87.4564 171.782 90.8553 172.427 94.3667 174.763Z" fill="#6B8D44"/>
<path d="M37.7834 153.208C37.7834 153.208 50.3452 156.533 50.7476 143.249C51.0668 132.74 68.5046 131.115 66.9107 114.104C65.454 98.5546 55.4055 102.149 49.0819 93.0605C42.756 83.9719 35.5264 83.0344 30.0818 84.6395C25.0125 86.1299 21.1797 90.7069 20.2423 97.3385C19.4982 102.601 18.0685 104.57 11.2166 107.304C4.36465 110.035 3.66102 117.631 11.2166 123.047C18.7698 128.464 12.2709 139.075 17.0141 144.376C21.7574 149.679 25.9747 144.322 26.5007 148.393C27.0267 152.464 34.7441 155.31 37.7834 153.208Z" fill="#99BA72"/>
<path d="M35.9467 177.487C35.9467 177.487 36.5334 166.124 35.9467 159.683C35.3622 153.241 35.5308 139.186 36.2075 135.086C36.8841 130.988 30.9112 126.067 28.6834 116.58C28.6834 116.58 28.2158 114.238 28.6834 114.764C29.151 115.29 30.2075 119.392 30.6167 120.035C31.0281 120.68 33.955 126.127 34.5979 126.829C35.2408 127.53 36.8234 131.514 37.4079 130.927C37.9946 130.34 39.0467 128.468 39.3412 126.359C39.6334 124.25 40.8046 119.802 41.1576 118.394C41.5082 116.989 42.6794 113.417 44.026 112.363C44.026 112.363 44.9634 111.711 44.026 113.5C43.0886 115.29 42.5041 118.16 42.1534 119.39C41.8027 120.62 41.6274 124.954 40.8653 126.943C40.1055 128.935 41.0407 131.534 39.5188 133.914C38.1497 136.052 37.9362 142.697 38.1138 145.451C38.2891 148.205 38.1722 157.984 38.6982 160.355C39.2243 162.729 39.9279 176.519 40.7192 177.487H35.9467Z" fill="#7C5833"/>
<path d="M49.0846 93.0609C48.2056 91.7975 47.3087 90.7073 46.4027 89.7451C46.4117 89.8688 47.0209 98.6989 57.3145 102.889C67.68 107.106 62.0578 128.013 52.7466 129.771C43.4331 131.526 51.6653 151.268 42.19 153.519C42.1787 153.521 42.1675 153.528 42.1562 153.53C45.825 153.235 50.5031 151.275 50.7481 143.25C51.0673 132.74 68.5051 131.115 66.9112 114.104C65.4568 98.555 55.4082 102.15 49.0846 93.0609Z" fill="#E6E7E8"/>
<path d="M44.8579 88.2524C39.6987 83.7047 34.344 83.3832 30.0818 84.6399C25.0125 86.1303 21.1797 90.7072 20.2423 97.3388C19.4982 102.601 18.0685 104.571 11.2166 107.304C4.36465 110.036 3.66102 117.632 11.2166 123.047C18.7698 128.465 12.2709 139.075 17.0141 144.376C20.1501 147.883 23.0478 146.736 24.8102 146.727C16.025 144.475 21.2966 137.441 23.3468 129.126C25.3969 120.81 13.1274 114.837 20.593 110.092C28.5981 105.007 23.8009 97.8334 27.2695 91.1186C31.752 82.4391 44.5409 88.1647 44.8579 88.2524Z" fill="#A4C77A"/>
<path d="M44.4159 112.312C44.3125 112.544 43.9393 113.36 43.6696 113.767C43.3549 114.248 42.1971 117.638 41.9499 118.546C41.7026 119.454 41.3227 123.804 40.8911 124.796C40.4594 125.787 40.0638 127.871 40.0638 129.029C40.0638 130.189 39.6164 132.239 38.742 133.097C37.8652 133.958 37.4359 139.927 37.4201 140.754C37.4022 141.581 37.3482 148.595 37.4201 150.587C37.4898 152.579 37.7843 159.372 38.0766 161.598C38.3688 163.821 39.0432 174.393 39.014 174.598C38.9982 174.717 38.9892 176.225 38.987 177.482H40.7225C39.9312 176.513 39.2275 162.724 38.7015 160.35C38.1755 157.978 38.2924 148.2 38.1148 145.446C37.9394 142.692 38.1507 136.047 39.5198 133.909C41.0417 131.528 40.1065 128.93 40.8663 126.938C41.6284 124.946 41.8037 120.614 42.1544 119.385C42.5051 118.155 43.0918 115.284 44.027 113.495C44.4317 112.733 44.4834 112.427 44.4159 112.312Z" fill="#D2D3D4"/>
<path d="M36.2314 134.714C36.2359 134.696 36.2472 134.682 36.2517 134.666C36.8654 132.25 35.4154 129.903 34.8467 129.267C34.2757 128.628 32.4975 124.939 31.9467 124.062C31.3982 123.181 29.7954 119.495 29.4425 118.44C29.1008 117.411 28.5478 114.866 28.5208 114.749C28.3747 115.023 28.6826 116.577 28.6826 116.577C30.8452 125.784 36.5147 130.685 36.2314 134.714Z" fill="#D2D3D4"/>
<path d="M1038.55 158.492C1038.55 158.492 1046.63 160.63 1046.89 152.09C1047.09 145.335 1058.3 144.29 1057.28 133.355C1056.34 123.358 1049.88 125.667 1045.82 119.825C1041.75 113.98 1037.1 113.38 1033.6 114.411C1030.34 115.371 1027.88 118.312 1027.28 122.576C1026.8 125.959 1025.88 127.225 1021.47 128.983C1017.07 130.739 1016.62 135.621 1021.47 139.103C1026.33 142.586 1022.15 149.408 1025.2 152.816C1028.25 156.226 1030.96 152.78 1031.3 155.399C1031.64 158.016 1036.6 159.846 1038.55 158.492Z" fill="#99BA72"/>
<path d="M1037.38 174.102C1037.38 174.102 1037.75 166.798 1037.38 162.657C1037 158.514 1037.11 149.479 1037.54 146.845C1037.98 144.21 1034.14 141.047 1032.71 134.948C1032.71 134.948 1032.41 133.442 1032.71 133.779C1033.01 134.117 1033.69 136.754 1033.95 137.167C1034.21 137.583 1036.09 141.083 1036.51 141.535C1036.93 141.987 1037.94 144.547 1038.32 144.17C1038.7 143.794 1039.37 142.589 1039.56 141.234C1039.75 139.876 1040.5 137.017 1040.73 136.113C1040.96 135.211 1041.71 132.914 1042.57 132.235C1042.57 132.235 1043.18 131.815 1042.57 132.966C1041.97 134.117 1041.59 135.962 1041.37 136.754C1041.14 137.545 1041.03 140.33 1040.54 141.609C1040.05 142.888 1040.66 144.561 1039.68 146.089C1038.79 147.465 1038.66 151.736 1038.77 153.506C1038.89 155.275 1038.81 161.565 1039.15 163.089C1039.49 164.615 1039.94 173.479 1040.45 174.1H1037.38V174.102Z" fill="#7C5833"/>
<path d="M1045.82 119.826C1045.25 119.015 1044.68 118.314 1044.09 117.695C1044.1 117.774 1044.49 123.455 1051.11 126.146C1057.77 128.857 1054.16 142.297 1048.17 143.428C1042.19 144.557 1047.48 157.247 1041.39 158.697C1041.38 158.699 1041.37 158.701 1041.36 158.703C1043.72 158.512 1046.73 157.253 1046.89 152.094C1047.09 145.339 1058.3 144.294 1057.28 133.359C1056.34 123.358 1049.89 125.669 1045.82 119.826Z" fill="#E6E7E8"/>
<path d="M1043.1 116.736C1039.78 113.812 1036.34 113.605 1033.6 114.414C1030.34 115.374 1027.88 118.314 1027.28 122.579C1026.8 125.962 1025.88 127.228 1021.47 128.986C1017.07 130.741 1016.62 135.624 1021.47 139.106C1026.33 142.588 1022.15 149.411 1025.2 152.819C1027.22 155.074 1029.08 154.336 1030.21 154.332L1030.21 154.329C1024.57 152.882 1027.95 148.361 1029.27 143.015C1030.59 137.67 1022.7 133.83 1027.5 130.782C1032.65 127.511 1029.56 122.9 1031.79 118.582C1034.68 113 1042.9 116.68 1043.1 116.736Z" fill="#A4C77A"/>
<path d="M1042.82 132.204C1042.75 132.352 1042.51 132.876 1042.34 133.139C1042.14 133.449 1041.39 135.626 1041.23 136.212C1041.08 136.797 1040.83 139.593 1040.55 140.229C1040.28 140.868 1040.02 142.208 1040.02 142.952C1040.02 143.696 1039.74 145.013 1039.17 145.566C1038.61 146.119 1038.33 149.957 1038.32 150.487C1038.31 151.018 1038.27 155.529 1038.32 156.811C1038.37 158.09 1038.56 162.458 1038.74 163.887C1038.93 165.317 1039.36 172.113 1039.35 172.245C1039.34 172.322 1039.33 173.291 1039.33 174.098H1040.44C1039.94 173.477 1039.48 164.611 1039.15 163.087C1038.81 161.563 1038.88 155.273 1038.77 153.504C1038.66 151.735 1038.79 147.464 1039.67 146.088C1040.65 144.557 1040.05 142.887 1040.54 141.607C1041.03 140.328 1041.14 137.541 1041.37 136.752C1041.59 135.961 1041.97 134.115 1042.57 132.964C1042.83 132.474 1042.86 132.276 1042.82 132.204Z" fill="#D2D3D4"/>
<path d="M1037.56 146.606C1037.56 146.594 1037.57 146.583 1037.57 146.574C1037.97 145.021 1037.04 143.51 1036.67 143.101C1036.3 142.69 1035.16 140.32 1034.81 139.756C1034.45 139.189 1033.42 136.818 1033.19 136.141C1032.97 135.48 1032.62 133.846 1032.6 133.77C1032.51 133.945 1032.71 134.945 1032.71 134.945C1034.09 140.864 1037.74 144.016 1037.56 146.606Z" fill="#D2D3D4"/>
<path d="M1027.07 177.122C1040.42 177.122 1053.76 177.122 1067.11 177.122C1068.23 173.525 1066.51 169.83 1063.52 168.591C1061.21 167.636 1058.39 168.247 1056.39 170.131C1056.74 164.801 1053.45 160.213 1049.27 159.161C1044.07 157.848 1037.65 162.065 1036.96 168.975C1034.41 167.541 1031.24 167.856 1029.06 169.746C1026.98 171.554 1026.19 174.478 1027.07 177.122Z" fill="#577338"/>
<path d="M1029.06 171.635C1031.24 169.746 1034.41 169.434 1036.96 170.866C1037.66 163.956 1044.07 159.738 1049.27 161.049C1053.45 162.103 1056.74 166.689 1056.39 172.021C1058.39 170.138 1061.21 169.526 1063.52 170.479C1065.63 171.356 1067.08 173.46 1067.38 175.886C1067.81 172.712 1066.16 169.686 1063.52 168.591C1061.21 167.636 1058.39 168.247 1056.39 170.131C1056.74 164.799 1053.45 160.213 1049.27 159.161C1044.07 157.848 1037.65 162.065 1036.96 168.975C1034.41 167.541 1031.24 167.856 1029.06 169.746C1027.31 171.273 1026.54 173.591 1026.86 175.872C1027.08 174.26 1027.8 172.736 1029.06 171.635Z" fill="#6B8D44"/>
<path d="M370.85 145.592C370.85 145.592 387.293 149.947 387.82 132.558C388.237 118.803 411.064 116.673 408.979 94.409C407.071 74.0531 393.92 78.7575 385.641 66.86C377.362 54.9624 367.899 53.7374 360.77 55.8361C354.136 57.7891 349.118 63.7806 347.892 72.4615C346.917 79.3517 345.045 81.929 336.076 85.5038C327.107 89.0786 326.187 99.0214 336.076 106.112C345.965 113.203 337.457 127.093 343.666 134.035C349.875 140.975 355.396 133.963 356.085 139.293C356.775 144.623 366.872 148.345 370.85 145.592Z" fill="#99BA72"/>
<path d="M368.445 177.37C368.445 177.37 369.212 162.499 368.445 154.066C367.679 145.632 367.9 127.235 368.787 121.869C369.672 116.502 361.853 110.062 358.941 97.6438C358.941 97.6438 358.327 94.5778 358.941 95.2673C359.553 95.9568 360.934 101.324 361.471 102.168C362.007 103.011 365.841 110.14 366.685 111.059C367.528 111.978 369.597 117.191 370.365 116.425C371.131 115.658 372.51 113.205 372.894 110.447C373.277 107.687 374.81 101.861 375.27 100.02C375.73 98.181 377.263 93.5033 379.027 92.1243C379.027 92.1243 380.254 91.2708 379.027 93.6138C377.801 95.9568 377.034 99.714 376.574 101.322C376.114 102.931 375.884 108.606 374.887 111.212C373.891 113.819 375.118 117.22 373.125 120.334C371.332 123.136 371.054 131.832 371.284 135.435C371.515 139.038 371.361 151.841 372.05 154.944C372.741 158.049 373.66 176.103 374.696 177.367H368.445V177.37Z" fill="#7C5833"/>
<path d="M385.64 66.8594C384.49 65.2076 383.317 63.7817 382.13 62.5215C382.14 62.6805 382.94 74.2433 396.414 79.726C409.982 85.2455 402.623 112.612 390.435 114.913C378.246 117.213 389.019 143.051 376.617 146C376.601 146.005 376.589 146.012 376.572 146.017C381.374 145.63 387.501 143.063 387.819 132.558C388.236 118.803 411.063 116.672 408.978 94.4084C407.072 74.0525 393.919 78.757 385.64 66.8594Z" fill="#E6E7E8"/>
<path d="M380.111 60.5673C373.359 54.6144 366.35 54.1943 360.77 55.8361C354.136 57.7892 349.118 63.7806 347.892 72.4615C346.917 79.3517 345.045 81.929 336.076 85.5038C327.107 89.0786 326.187 99.0214 336.076 106.112C345.965 113.203 337.457 127.093 343.666 134.035C347.771 138.622 351.565 137.122 353.871 137.112V137.111C342.372 134.162 349.271 124.955 351.953 114.07C354.636 103.184 338.576 95.3646 348.35 89.1539C358.827 82.498 352.549 73.1092 357.09 64.3162C362.954 52.9592 379.695 60.4502 380.111 60.5673Z" fill="#A4C77A"/>
<path d="M379.532 92.0615C379.395 92.3644 378.906 93.4322 378.556 93.9677C378.145 94.5953 376.63 99.032 376.305 100.224C375.981 101.414 375.482 107.107 374.919 108.406C374.357 109.705 373.837 112.431 373.837 113.947C373.837 115.463 373.253 118.148 372.105 119.274C370.956 120.399 370.396 128.213 370.372 129.294C370.351 130.377 370.28 139.561 370.372 142.165C370.464 144.773 370.848 153.665 371.231 156.578C371.614 159.49 372.496 173.329 372.458 173.597C372.436 173.751 372.426 175.724 372.423 177.371H374.694C373.658 176.106 372.739 158.053 372.048 154.948C371.358 151.846 371.512 139.043 371.281 135.439C371.052 131.836 371.328 123.138 373.122 120.338C375.115 117.224 373.889 113.822 374.884 111.216C375.882 108.608 376.111 102.937 376.571 101.327C377.032 99.7165 377.798 95.9593 379.025 93.618C379.552 92.6121 379.617 92.2105 379.532 92.0615Z" fill="#D2D3D4"/>
<path d="M368.82 121.384C368.826 121.363 368.842 121.346 368.848 121.323C369.653 118.158 367.755 115.085 367.007 114.252C366.259 113.418 363.931 108.588 363.212 107.438C362.494 106.289 360.395 101.459 359.935 100.08C359.484 98.7308 358.761 95.4037 358.728 95.248C358.537 95.6079 358.941 97.6446 358.941 97.6446C361.769 109.696 369.19 116.113 368.82 121.384Z" fill="#D2D3D4"/>
<path d="M568.799 35.1494V44.7012C568.799 44.7012 573.423 40.7942 578.602 42.5476C581.81 43.6334 586.252 44.7012 591.594 40.666C591.594 40.666 584.899 42.3902 581.95 37.8448C579 33.2971 573.58 31.9775 568.799 35.1494Z" fill="#EE554C"/>
<path d="M569.855 34.5293C569.596 38.162 569.787 40.981 570.858 43.3864C572.69 42.4467 575.549 41.5138 578.602 42.5479C579.002 42.685 579.42 42.8199 579.858 42.9435C579.573 41.1654 580.13 38.6454 581.171 36.7908C578.355 33.4053 573.96 32.3959 569.855 34.5293Z" fill="#F06C55"/>
<path d="M578.408 42.4858C578.262 39.7096 579.301 36.9625 579.946 35.5508C577.401 33.3859 574.02 32.7835 570.738 34.121C570.367 37.8909 571.122 40.9482 572.066 42.841C572.802 42.5555 573.631 42.315 574.524 42.1869C574.04 37.5852 574.98 35.3125 575.459 38.5586C575.675 40.0355 576.007 41.2202 576.369 42.1104C577.032 42.1509 577.713 42.2678 578.408 42.4858Z" fill="#FD7259"/>
<path d="M585.583 40.54C585.722 41.2684 585.824 42.5048 585.203 43.4467C587.148 43.1972 589.285 42.4081 591.592 40.6637C591.592 40.6637 588.492 41.4617 585.583 40.54Z" fill="#F06C55"/>
<path d="M568.811 34.971V179.619C568.681 179.632 568.55 179.632 568.407 179.632C568.263 179.632 568.132 179.632 568.002 179.619V34.971C568.002 34.7485 568.184 34.5664 568.407 34.5664C568.443 34.5664 568.474 34.5911 568.51 34.6046V34.5934C568.548 34.6069 568.589 34.6204 568.627 34.6451C568.665 34.6721 568.692 34.6968 568.719 34.7373C568.757 34.7642 568.771 34.8024 568.784 34.8429C568.8 34.8811 568.811 34.9328 568.811 34.971Z" fill="white"/>
<path d="M568.811 34.9695V179.617C568.681 179.63 568.55 179.63 568.407 179.63C568.263 179.63 568.132 179.63 568.002 179.617V176.697C568.483 177.257 568.51 175.874 568.51 175.874V34.5918C568.548 34.6053 568.589 34.6188 568.627 34.6435C568.665 34.6705 568.692 34.6952 568.719 34.7357C568.744 34.7626 568.771 34.8009 568.784 34.8413C568.8 34.8795 568.811 34.9312 568.811 34.9695Z" fill="#E6E7E8"/>
<path d="M568.839 35.1475H568V44.6992H568.839V35.1475Z" fill="#F06C55"/>
<path d="M568 43.6944C568.699 41.6914 568.602 36.5952 568.558 35.1475H568V43.6944Z" fill="#FD7259"/>
<path d="M532.54 22.8714C531.216 22.8714 530.018 23.4087 529.15 24.2764C528.21 21.4822 525.574 19.4657 522.462 19.4657C520.102 19.4657 518.018 20.6279 516.737 22.4061C515.284 19.7804 512.486 18 509.273 18C505.373 18 502.093 20.6212 501.077 24.1932C500.218 23.3795 499.065 22.8737 497.79 22.8737C495.145 22.8737 493 25.0183 493 27.6642C493 30.31 495.145 32.4546 497.79 32.4546C499.407 32.4546 500.828 31.6498 501.695 30.4247C503.112 33.1717 505.971 35.0556 509.276 35.0556C512.49 35.0556 515.287 33.2752 516.739 30.6472C518.02 32.4277 520.104 33.5876 522.465 33.5876C525.018 33.5876 527.248 32.2276 528.489 30.1954C529.334 31.5487 530.829 32.4546 532.542 32.4546C535.188 32.4546 537.333 30.31 537.333 27.6642C537.333 25.0183 535.186 22.8714 532.54 22.8714Z" fill="white"/>
<path d="M691.263 20.8393C689.948 20.8393 688.76 21.3727 687.898 22.2343C686.964 19.4587 684.347 17.4565 681.256 17.4565C678.914 17.4565 676.845 18.6105 675.571 20.3761C674.128 17.7678 671.351 16 668.159 16C664.287 16 661.029 18.6015 660.021 22.1506C659.168 21.3426 658.025 20.8393 656.757 20.8393C654.129 20.8393 652 22.9687 652 25.5959C652 28.2231 654.129 30.3526 656.757 30.3526C658.362 30.3526 659.772 29.5535 660.635 28.337C662.041 31.0646 664.879 32.934 668.159 32.934C671.35 32.934 674.128 31.1673 675.571 28.558C676.845 30.3236 678.914 31.4776 681.256 31.4776C683.792 31.4776 686.008 30.1271 687.239 28.1093C688.079 29.453 689.561 30.3537 691.262 30.3537C693.889 30.3537 696.019 28.2242 696.019 25.597C696.019 22.9698 693.89 20.8393 691.263 20.8393Z" fill="white"/>
<path d="M708.964 34.3672C708.169 34.3672 707.441 34.6294 706.842 35.0636C705.731 32.6663 703.31 31 700.494 31C698.088 31 695.966 32.2143 694.705 34.0636C693.905 33.4844 692.929 33.1339 691.866 33.1339C689.179 33.1339 687 35.3125 687 37.9999C687 40.6874 689.179 42.8671 691.866 42.8671C692.929 42.8671 693.905 42.5167 694.705 41.9374C695.966 43.7856 698.087 45.001 700.494 45.001C703.309 45.001 705.73 43.3347 706.842 40.9374C707.441 41.3705 708.169 41.6339 708.964 41.6339C710.971 41.6339 712.598 40.0066 712.598 37.9999C712.597 35.9933 710.97 34.3672 708.964 34.3672Z" fill="white"/>
<path d="M796.362 17.4939C794.827 17.4939 793.422 17.9997 792.268 18.8348C790.126 14.2136 785.458 11 780.025 11C775.384 11 771.293 13.3418 768.862 16.9084C767.317 15.7913 765.436 15.1154 763.385 15.1154C758.202 15.1154 754 19.317 754 24.5C754 29.683 758.202 33.8846 763.385 33.8846C765.436 33.8846 767.317 33.2087 768.862 32.0916C771.293 35.6582 775.382 38 780.025 38C785.456 38 790.124 34.7864 792.268 30.1652C793.422 31.0003 794.827 31.5061 796.362 31.5061C800.232 31.5061 803.368 28.3679 803.368 24.5C803.368 20.6321 800.232 17.4939 796.362 17.4939Z" fill="white"/>
<path d="M765.639 131.889C765.639 131.889 769.873 136.043 773.201 130.702C776.529 125.362 769.795 117.023 775.473 112.006C781.151 106.988 792.552 98.1534 785.313 92.7394C771.885 82.697 785.405 69.0587 766.363 74.6469C752.131 78.8232 749.687 68.7998 742.139 85.4917C734.591 102.184 749.652 101.844 747.024 108.664C744.394 115.484 741.012 118.421 746.753 123.365C752.496 128.308 751.602 140.744 765.639 131.889Z" fill="#577338"/>
<path d="M744.123 81.5009C750.242 70.5378 753.453 78.4328 766.365 74.6449C785.407 69.0568 771.886 82.6951 785.315 92.7374C792.554 98.1514 781.153 106.987 775.476 112.004C769.797 117.022 776.531 125.361 773.203 130.7C771.18 133.947 768.826 133.682 767.288 132.977C767.089 132.637 766.894 132.287 766.729 131.881C760.184 115.784 785.776 101.773 778.907 97.7686C772.04 93.7642 776.753 83.6895 773.56 78.3268C770.368 72.963 760.218 81.608 753.884 79.0969C749.2 77.2398 745.654 79.9574 744.123 81.5009Z" fill="#6B8D44"/>
<path d="M759.459 116.832C759.37 116.417 759.367 116.098 759.434 116.428C759.455 116.532 759.461 116.671 759.459 116.832Z" fill="#273D5D"/>
<path d="M771.959 143.533C771.14 146.584 771.544 147.375 771.308 150.015C771.072 152.652 771.052 155.428 770.988 156.796C770.922 158.166 771.52 159.518 770.75 161.799C769.979 164.08 769.151 169.893 769.264 174.533L769.632 177.24L764.738 177.009C764.738 177.009 763.739 175.509 764.614 168.684C764.777 167.41 766.248 166.568 766.328 164.873C766.407 163.181 766.427 161.899 766.286 161.352C766.146 160.81 763.94 158.719 764.207 155.419C764.475 152.12 763.876 146.13 763.902 143.261C763.925 140.392 764.347 138.536 763.568 136.291C762.791 134.048 763.388 130.764 763.388 130.764C763.388 130.764 763.132 129.757 762.76 128.942C762.364 128.876 761.987 128.83 761.949 128.743C761.889 128.612 759.845 128.192 759.588 127.792C759.333 127.393 758.793 127.239 758.424 126.878C758.054 126.515 757.478 126.403 757.098 126.246C756.718 126.09 755.551 124.827 756.003 124.849C756.453 124.871 756.895 125.085 757.648 125.547C758.401 126.009 759.351 126.363 759.637 126.764C759.841 127.045 760.94 126.989 761.578 126.929C761.105 125.886 760.571 124.522 759.903 123.979C758.894 123.156 756.776 120.075 756.352 119.724C755.926 119.374 756.388 118.926 756.388 118.926C756.388 118.926 757.824 120.676 757.95 120.877C758.08 121.077 758.62 121.35 758.897 121.862C759.028 122.1 759.391 122.398 759.779 122.717C759.74 122.622 759.383 121.759 759.523 121.339C759.674 120.895 759.343 119.718 759.311 119.007C759.288 118.438 759.446 117.467 759.459 116.835C759.509 117.075 759.586 117.346 759.699 117.54C760.001 118.071 759.589 118.707 759.935 119.526C760.281 120.342 760.19 120.919 760.282 121.698C760.374 122.477 759.992 122.737 760.434 123.297C760.624 123.487 760.782 123.674 760.875 123.857C761.228 124.566 761.546 124.857 762.026 125.762C762.508 126.669 763.569 127.573 763.569 127.573C763.569 127.573 764.629 127.898 764.213 126.224C763.795 124.548 763.743 118.061 764.009 115.922C764.276 113.782 764.78 113.641 764.224 111.376C763.671 109.115 763.596 107.209 763.235 106.032C762.878 104.857 763.03 103.372 761.577 102.642C760.119 101.91 756.612 99.095 755.564 98.4656C754.517 97.8372 752.993 96.7714 751.948 96.1408C750.901 95.5125 752.131 95.2123 753.165 96.0884C754.201 96.9656 754.666 96.4634 755.406 97.1341C756.148 97.8049 756.301 97.479 757.949 98.8004C759.598 100.121 761.153 100.487 761.481 101.137C761.809 101.788 763.329 103.498 763.408 102.396C763.489 101.298 764.255 100.864 763.207 99.6553C762.161 98.4466 761.586 95.6888 761.274 95.287C760.964 94.8853 760.158 94.1297 759.281 92.8183C758.406 91.5069 758.872 91.0047 757.576 90.3909C756.304 89.7882 755.036 86.988 754.987 86.8775C755.106 86.9634 758.935 89.7257 759.109 90.6029C759.289 91.4947 760.908 92.2313 761.513 93.4757C762.117 94.7178 763.161 95.9823 763.444 96.989C763.728 97.9957 764.716 99.3127 764.819 97.1096C764.924 94.9053 765.519 95.0995 764.773 92.1944C764.028 89.2893 763.472 89.3741 764.011 87.3005C764.552 85.2313 765.541 87.642 765.753 90.142C765.753 90.142 766.301 94.9143 765.94 97.8785C765.58 100.843 766.002 110.575 765.965 113.666C765.927 116.755 766.741 120.546 766.6 123.52L765.86 139.16C765.646 143.677 767.268 149.05 767.212 152.58C767.155 156.111 767.922 158.573 768.771 154.642C769.618 150.707 770.19 147.975 769.969 145.647C769.749 143.318 769.841 139.128 770.478 137.282C771.115 135.436 770.482 130.215 770.989 126.487C771.493 122.758 772.321 119.267 772.521 117.4C772.719 115.532 773.464 118.438 772.94 120.179C772.415 121.92 772.935 123.16 772.734 127.123C772.533 131.088 772.837 132.202 772.309 136.097C771.783 139.992 772.778 140.481 771.959 143.533Z" fill="#7C5833"/>
<path d="M740.222 95.9609C740.851 97.4196 741.732 98.8214 742.958 99.6518C746.408 101.985 752.158 104.974 747.91 111.83C743.662 118.686 750.161 121.748 752.206 128.203C753.536 132.403 756.047 134.426 758.367 134.941C751.678 135.677 751.245 127.23 746.755 123.363C741.013 118.418 744.397 115.481 747.026 108.662C748.925 103.734 741.59 102.54 740.222 95.9609Z" fill="#E6E6E6"/>
<path d="M768.041 156.602C768.041 156.603 767.831 158.121 767.954 158.45C768.075 158.779 768.423 158.255 769.016 156.65C769.608 155.045 769.964 154.351 770.036 152.806C770.109 151.262 770.272 149.204 770.302 148.56C770.332 147.917 770.64 141.414 770.683 140.512C770.726 139.61 770.403 138.241 770.836 137.293C771.268 136.346 771.202 130.923 771.229 128.989C771.242 128.136 771.102 127.427 770.94 126.9C770.531 130.592 771.094 135.502 770.48 137.281C769.843 139.127 769.75 143.318 769.971 145.646C770.191 147.975 769.622 150.707 768.773 154.641C768.513 155.839 768.263 156.44 768.041 156.602Z" fill="#D2D3D4"/>
<path d="M763.903 143.261C763.878 146.129 764.477 152.12 764.21 155.418C763.944 158.717 766.148 160.808 766.288 161.353C766.428 161.898 766.408 163.18 766.329 164.873C766.32 165.044 766.3 165.206 766.271 165.362C767.15 164.029 766.922 161.926 766.81 160.976C766.671 159.808 766.678 159.679 766.061 157.715C765.444 155.749 765.591 155.369 765.373 154.52C765.156 153.672 764.807 148.75 764.512 147.575C764.215 146.399 764.808 146.04 764.675 144.162C764.541 142.284 764.807 141.975 764.667 140.858C764.526 139.74 765.21 138.896 764.819 137.658C764.425 136.42 764.503 136.152 763.911 135.028C763.32 133.905 763.754 132.891 763.705 132.566C763.656 132.242 763.391 130.762 763.391 130.762C763.391 130.762 762.794 134.045 763.571 136.29C764.348 138.536 763.928 140.392 763.903 143.261Z" fill="#D2D3D4"/>
<path d="M748.478 97.4532C748.478 97.4532 752.517 102.787 757.256 97.0358C761.994 91.2847 770.489 100.951 775.62 89.4622C780.752 77.9734 770.543 69.9679 764.9 74.3741C759.256 78.7814 760.724 60.959 749.589 66.3384C741.572 70.2112 749.604 77.1118 745.924 84.1519C742.246 91.1932 745.001 95.278 748.478 97.4532Z" fill="#8EAD6A"/>
<path d="M746.121 83.6886C749.228 76.8103 741.748 70.1262 749.589 66.3394C760.724 60.96 759.255 78.7824 764.899 74.3751C770.149 70.2769 779.328 76.9197 776.461 87.1105C775.133 83.5636 772.162 81.8114 769.837 83.7868C765.389 87.5681 759.807 75.4409 755.911 76.7835C752.015 78.1262 749.464 70.8907 749.387 77.3014C749.341 81.3092 747.497 82.9911 746.121 83.6886Z" fill="#99BA72"/>
<path d="M759.545 124.018C759.545 124.018 767.724 122.091 763.805 117.594C759.704 112.89 765.913 111.438 764.487 108.188C762.464 103.579 756.099 103.473 754.328 108.571C752.826 112.892 751.663 113.458 747.253 112.993C741.724 112.409 739.856 121.741 746.605 121.433C750.63 121.249 753.572 129.973 759.545 124.018Z" fill="#8EAD6A"/>
<path d="M747.256 112.992C751.666 113.458 752.829 112.892 754.331 108.57C756.102 103.473 762.467 103.578 764.49 108.188C765.083 109.54 764.353 110.583 763.596 111.675C762.244 109.961 758.614 107.674 757.518 112.153C756.156 117.72 749.995 113.568 745.97 115.81C742.773 117.591 745.383 120.364 746.594 121.432C739.864 121.724 741.732 112.408 747.256 112.992Z" fill="#99BA72"/>
<path d="M760.788 121.564C760.788 121.564 761.144 127.599 767.594 125.657C774.043 123.716 775.571 135.244 785.196 129.189C794.821 123.133 791.172 111.991 784.716 112.469C778.261 112.947 788.316 100.292 777.248 98.7414C769.278 97.6264 771.848 106.844 765.549 110.287C759.248 113.729 759.268 118.182 760.788 121.564Z" fill="#99BA72"/>
<path d="M765.929 110.037C771.719 106.43 769.453 97.6511 777.248 98.7415C788.316 100.291 778.262 112.946 784.717 112.468C790.72 112.024 794.281 121.625 787.011 127.843C787.794 124.51 786.441 121.703 783.703 122.019C778.461 122.626 780.356 110.711 776.755 109.764C773.152 108.815 774.868 102.098 771.592 106.878C769.543 109.866 767.313 110.203 765.929 110.037Z" fill="#A4C77A"/>
</svg>
