<svg width="1140" height="177" viewBox="0 0 1140 177" fill="none" xmlns="http://www.w3.org/2000/svg">
<path d="M129.687 170.258C131.733 172.261 133.172 174.709 133.891 177.362H0V128.108C4.29368 126.152 9.30672 126.829 12.9035 129.794C16.6577 132.896 18.2088 137.999 16.8375 142.72C17.5569 141.866 20.2545 138.811 24.7055 138.224C29.4263 137.617 34.237 140.047 37.047 144.406C37.6315 143.642 42.9143 136.898 51.097 137.1C59.0325 137.305 66.4059 144.001 67.9345 153.398C70.8345 147.893 76.994 145.148 82.5241 146.654C87.0875 147.893 90.5944 151.869 91.5161 156.77C92.0106 156.435 97.0911 153.016 102.734 155.084C107.702 156.907 110.984 162.165 110.602 168.01C116.739 164.391 124.584 165.315 129.687 170.258Z" fill="#D3E4BF"/>
<path d="M1012.14 169.947C1010.13 171.936 1008.71 174.366 1008 177H1140V128.1C1135.77 126.158 1130.82 126.83 1127.28 129.774C1123.58 132.854 1122.05 137.92 1123.4 142.607C1122.69 141.759 1120.03 138.726 1115.64 138.143C1110.99 137.541 1106.25 139.953 1103.48 144.281C1102.9 143.522 1097.69 136.827 1089.62 137.028C1081.8 137.231 1074.53 143.879 1073.02 153.208C1070.17 147.743 1064.09 145.018 1058.64 146.513C1054.14 147.743 1050.69 151.691 1049.78 156.556C1049.29 156.224 1044.28 152.829 1038.72 154.882C1033.82 156.692 1030.58 161.913 1030.96 167.715C1024.91 164.122 1017.18 165.04 1012.14 169.947Z" fill="#D3E4BF"/>
<path d="M536.592 108.225H421.028V176.674H536.592V108.225Z" fill="#AA4E4E"/>
<path d="M536.592 138.151H421.028V146.746H536.592V138.151Z" fill="#FDD7A7"/>
<path d="M422.806 108.225H421.028V176.674H422.806V108.225Z" fill="#FDD7A7"/>
<path d="M445.564 108.225H443.786V176.674H445.564V108.225Z" fill="#FDD7A7"/>
<path d="M468.32 108.225H466.542V176.674H468.32V108.225Z" fill="#FDD7A7"/>
<path d="M491.076 108.225H489.298V176.674H491.076V108.225Z" fill="#FDD7A7"/>
<path d="M513.836 108.225H512.058V176.674H513.836V108.225Z" fill="#FDD7A7"/>
<path d="M536.591 108.225H534.813V176.674H536.591V108.225Z" fill="#FDD7A7"/>
<path d="M536.591 103.632H418V108.224H536.591V103.632Z" fill="#FDD7A7"/>
<path d="M439.771 112.529H426.881V132.808H439.771V112.529Z" fill="#43484E"/>
<path d="M439.77 112.529H437.316L426.88 129.835V132.808H429.824L439.77 116.313V112.529Z" fill="#414042"/>
<path d="M439.769 122.626V118.698L431.262 132.808H433.63L439.769 122.626Z" fill="#414042"/>
<path d="M426.88 123.522V127.449L435.878 112.529H433.51L426.88 123.522Z" fill="#414042"/>
<path d="M426.437 112.085V133.253H440.215V112.085H426.437ZM439.326 132.364H427.325V117.168H439.326V132.364ZM439.326 116.279H427.325V112.974H439.326V116.279Z" fill="white"/>
<path d="M439.326 117.169H428.511H427.325V118.355V132.365H428.511V118.355H439.326V117.169Z" fill="#BDBEC0"/>
<path d="M439.326 112.974H428.511H427.325V114.159V116.279H428.511V114.159H439.326V112.974Z" fill="#BDBEC0"/>
<path d="M462.363 112.529H449.474V132.808H462.363V112.529Z" fill="#43484E"/>
<path d="M462.363 112.529H459.91L449.474 129.835V132.808H452.418L462.363 116.313V112.529Z" fill="#414042"/>
<path d="M462.364 122.626V118.698L453.856 132.808H456.225L462.364 122.626Z" fill="#414042"/>
<path d="M449.474 123.522V127.449L458.472 112.529H456.103L449.474 123.522Z" fill="#414042"/>
<path d="M449.029 112.085V133.253H462.808V112.085H449.029ZM461.919 132.364H449.918V117.168H461.919V132.364ZM461.919 116.279H449.918V112.974H461.919V116.279Z" fill="white"/>
<path d="M461.92 117.169H451.105H449.919V118.355V132.365H451.105V118.355H461.92V117.169Z" fill="#BDBEC0"/>
<path d="M461.92 112.974H451.105H449.919V114.159V116.279H451.105V114.159H461.92V112.974Z" fill="#BDBEC0"/>
<path d="M484.959 112.529H472.069V132.808H484.959V112.529Z" fill="#43484E"/>
<path d="M484.959 112.529H482.504L472.069 129.835V132.808H475.012L484.959 116.313V112.529Z" fill="#414042"/>
<path d="M484.959 122.626V118.698L476.45 132.808H478.818L484.959 122.626Z" fill="#414042"/>
<path d="M472.069 123.522V127.449L481.067 112.529H478.699L472.069 123.522Z" fill="#414042"/>
<path d="M471.625 112.085V133.253H485.404V112.085H471.625ZM484.515 132.364H472.514V117.168H484.515V132.364ZM484.515 116.279H472.514V112.974H484.515V116.279Z" fill="white"/>
<path d="M484.515 117.169H473.699H472.515V118.355V132.365H473.699V118.355H484.515V117.169Z" fill="#BDBEC0"/>
<path d="M484.515 112.974H473.699H472.515V114.159V116.279H473.699V114.159H484.515V112.974Z" fill="#BDBEC0"/>
<path d="M508.03 112.529H495.141V132.808H508.03V112.529Z" fill="#43484E"/>
<path d="M508.03 112.529H505.575L495.141 129.835V132.808H498.085L508.03 116.313V112.529Z" fill="#414042"/>
<path d="M508.031 122.626V118.698L499.521 132.808H501.89L508.031 122.626Z" fill="#414042"/>
<path d="M495.141 123.522V127.449L504.139 112.529H501.77L495.141 123.522Z" fill="#414042"/>
<path d="M494.694 112.085V133.253H508.473V112.085H494.694ZM507.584 132.364H495.583V117.168H507.584V132.364ZM507.584 116.279H495.583V112.974H507.584V116.279Z" fill="white"/>
<path d="M507.584 117.169H496.769H495.583V118.355V132.365H496.769V118.355H507.584V117.169Z" fill="#BDBEC0"/>
<path d="M507.584 112.974H496.769H495.583V114.159V116.279H496.769V114.159H507.584V112.974Z" fill="#BDBEC0"/>
<path d="M530.888 112.529H517.998V132.808H530.888V112.529Z" fill="#43484E"/>
<path d="M530.887 112.529H528.433L517.997 129.835V132.808H520.941L530.887 116.313V112.529Z" fill="#414042"/>
<path d="M530.887 122.626V118.698L522.38 132.808H524.748L530.887 122.626Z" fill="#414042"/>
<path d="M517.997 123.522V127.449L526.995 112.529H524.627L517.997 123.522Z" fill="#414042"/>
<path d="M517.554 112.085V133.253H531.332V112.085H517.554ZM530.443 132.364H518.443V117.168H530.443V132.364ZM530.443 116.279H518.443V112.974H530.443V116.279Z" fill="white"/>
<path d="M530.443 117.169H519.628H518.442V118.355V132.365H519.628V118.355H530.443V117.169Z" fill="#BDBEC0"/>
<path d="M530.443 112.974H519.628H518.442V114.159V116.279H519.628V114.159H530.443V112.974Z" fill="#BDBEC0"/>
<path d="M443.787 108.224H423.992H422.806V109.409V146.745H423.992V109.409H443.787V108.224Z" fill="#BDBEC0"/>
<path d="M466.542 108.224H446.749H445.564V109.409V146.745H446.749V109.409H466.542V108.224Z" fill="#BDBEC0"/>
<path d="M489.299 108.224H469.505H468.319V109.409V146.745H469.505V109.409H489.299V108.224Z" fill="#BDBEC0"/>
<path d="M512.074 108.224H492.281H491.095V109.409V146.745H492.281V109.409H512.074V108.224Z" fill="#BDBEC0"/>
<path d="M534.813 108.224H515.02H513.834V109.409V146.745H515.02V109.409H534.813V108.224Z" fill="#BDBEC0"/>
<path d="M439.771 151.053H426.881V171.331H439.771V151.053Z" fill="#43484E"/>
<path d="M439.771 151.053H437.317L426.881 168.359V171.331H429.825L439.771 154.836V151.053Z" fill="#414042"/>
<path d="M439.77 161.147V157.22L431.263 171.331H433.631L439.77 161.147Z" fill="#414042"/>
<path d="M426.881 162.046V165.973L435.879 151.053H433.511L426.881 162.046Z" fill="#414042"/>
<path d="M426.437 150.608V171.776H440.215V150.608H426.437ZM439.326 170.887H427.325V155.691H439.326V170.887ZM439.326 154.802H427.325V151.497H439.326V154.802Z" fill="white"/>
<path d="M439.326 155.691H428.511H427.325V156.875V170.887H428.511V156.875H439.326V155.691Z" fill="#BDBEC0"/>
<path d="M439.326 151.497H428.511H427.325V152.681V154.802H428.511V152.681H439.326V151.497Z" fill="#BDBEC0"/>
<path d="M462.364 151.053H449.475V171.331H462.364V151.053Z" fill="#43484E"/>
<path d="M462.364 151.053H459.911L449.475 168.359V171.331H452.419L462.364 154.836V151.053Z" fill="#414042"/>
<path d="M462.365 161.147V157.22L453.857 171.331H456.226L462.365 161.147Z" fill="#414042"/>
<path d="M449.475 162.046V165.973L458.473 151.053H456.104L449.475 162.046Z" fill="#414042"/>
<path d="M449.029 150.608V171.776H462.808V150.608H449.029ZM461.919 170.887H449.918V155.691H461.919V170.887ZM461.919 154.802H449.918V151.497H461.919V154.802Z" fill="white"/>
<path d="M461.92 155.691H451.105H449.919V156.875V170.887H451.105V156.875H461.92V155.691Z" fill="#BDBEC0"/>
<path d="M461.92 151.497H451.105H449.919V152.681V154.802H451.105V152.681H461.92V151.497Z" fill="#BDBEC0"/>
<path d="M484.959 151.053H472.069V171.331H484.959V151.053Z" fill="#43484E"/>
<path d="M484.959 151.053H482.504L472.069 168.359V171.331H475.012L484.959 154.836V151.053Z" fill="#414042"/>
<path d="M484.959 161.147V157.22L476.45 171.331H478.818L484.959 161.147Z" fill="#414042"/>
<path d="M472.069 162.046V165.973L481.067 151.053H478.699L472.069 162.046Z" fill="#414042"/>
<path d="M471.625 150.608V171.776H485.404V150.608H471.625ZM484.515 170.887H472.514V155.691H484.515V170.887ZM484.515 154.802H472.514V151.497H484.515V154.802Z" fill="white"/>
<path d="M484.515 155.691H473.699H472.515V156.875V170.887H473.699V156.875H484.515V155.691Z" fill="#BDBEC0"/>
<path d="M484.515 151.497H473.699H472.515V152.681V154.802H473.699V152.681H484.515V151.497Z" fill="#BDBEC0"/>
<path d="M508.03 151.053H495.141V171.331H508.03V151.053Z" fill="#43484E"/>
<path d="M508.03 151.053H505.575L495.141 168.359V171.331H498.085L508.03 154.836V151.053Z" fill="#414042"/>
<path d="M508.031 161.147V157.22L499.521 171.331H501.89L508.031 161.147Z" fill="#414042"/>
<path d="M495.141 162.046V165.973L504.139 151.053H501.77L495.141 162.046Z" fill="#414042"/>
<path d="M494.694 150.608V171.776H508.473V150.608H494.694ZM507.584 170.887H495.583V155.691H507.584V170.887ZM507.584 154.802H495.583V151.497H507.584V154.802Z" fill="white"/>
<path d="M507.584 155.691H496.769H495.583V156.875V170.887H496.769V156.875H507.584V155.691Z" fill="#BDBEC0"/>
<path d="M507.584 151.497H496.769H495.583V152.681V154.802H496.769V152.681H507.584V151.497Z" fill="#BDBEC0"/>
<path d="M530.889 151.053H517.999V171.331H530.889V151.053Z" fill="#43484E"/>
<path d="M530.889 151.053H528.435L517.999 168.359V171.331H520.943L530.889 154.836V151.053Z" fill="#414042"/>
<path d="M530.888 161.147V157.22L522.381 171.331H524.749L530.888 161.147Z" fill="#414042"/>
<path d="M517.999 162.046V165.973L526.997 151.053H524.629L517.999 162.046Z" fill="#414042"/>
<path d="M517.554 150.608V171.776H531.332V150.608H517.554ZM530.443 170.887H518.443V155.691H530.443V170.887ZM530.443 154.802H518.443V151.497H530.443V154.802Z" fill="white"/>
<path d="M530.443 155.691H519.628H518.442V156.875V170.887H519.628V156.875H530.443V155.691Z" fill="#BDBEC0"/>
<path d="M530.443 151.497H519.628H518.442V152.681V154.802H519.628V152.681H530.443V151.497Z" fill="#BDBEC0"/>
<path d="M443.787 146.746H423.992H422.806V147.93V176.673H423.992V147.93H443.787V146.746Z" fill="#BDBEC0"/>
<path d="M466.542 146.746H446.749H445.564V147.93V176.673H446.749V147.93H466.542V146.746Z" fill="#BDBEC0"/>
<path d="M489.299 146.746H469.505H468.319V147.93V176.673H469.505V147.93H489.299V146.746Z" fill="#BDBEC0"/>
<path d="M512.075 146.746H492.282H491.096V147.93V176.673H492.282V147.93H512.075V146.746Z" fill="#BDBEC0"/>
<path d="M534.814 146.746H515.021H513.835V147.93V176.673H515.021V147.93H534.814V146.746Z" fill="#BDBEC0"/>
<path d="M717.971 108.225H602.407V176.674H717.971V108.225Z" fill="#AA4E4E"/>
<path d="M717.971 138.151H602.407V146.746H717.971V138.151Z" fill="#FDD7A7"/>
<path d="M604.185 108.225H602.407V176.674H604.185V108.225Z" fill="#FDD7A7"/>
<path d="M626.942 108.225H625.164V176.674H626.942V108.225Z" fill="#FDD7A7"/>
<path d="M649.697 108.225H647.919V176.674H649.697V108.225Z" fill="#FDD7A7"/>
<path d="M672.458 108.225H670.68V176.674H672.458V108.225Z" fill="#FDD7A7"/>
<path d="M695.213 108.225H693.436V176.674H695.213V108.225Z" fill="#FDD7A7"/>
<path d="M717.971 108.225H716.193V176.674H717.971V108.225Z" fill="#FDD7A7"/>
<path d="M720.999 103.632H602.408V108.224H720.999V103.632Z" fill="#FDD7A7"/>
<path d="M621.15 112.529H608.26V132.808H621.15V112.529Z" fill="#43484E"/>
<path d="M621.15 112.529H618.694L608.26 129.835V132.808H611.202L621.15 116.313V112.529Z" fill="#414042"/>
<path d="M621.149 122.626V118.698L612.64 132.808H615.008L621.149 122.626Z" fill="#414042"/>
<path d="M608.26 123.522V127.449L617.256 112.529H614.888L608.26 123.522Z" fill="#414042"/>
<path d="M607.813 112.085V133.253H621.592V112.085H607.813ZM620.703 132.364H608.702V117.168H620.703V132.364ZM620.703 116.279H608.702V112.974H620.703V116.279Z" fill="white"/>
<path d="M620.704 117.169H609.889H608.703V118.355V132.365H609.889V118.355H620.704V117.169Z" fill="#BDBEC0"/>
<path d="M620.704 112.974H609.889H608.703V114.159V116.279H609.889V114.159H620.704V112.974Z" fill="#BDBEC0"/>
<path d="M643.743 112.529H630.854V132.808H643.743V112.529Z" fill="#43484E"/>
<path d="M643.743 112.529H641.29L630.854 129.835V132.808H633.796L643.743 116.313V112.529Z" fill="#414042"/>
<path d="M643.744 122.626V118.698L635.236 132.808H637.604L643.744 122.626Z" fill="#414042"/>
<path d="M630.854 123.522V127.449L639.85 112.529H637.482L630.854 123.522Z" fill="#414042"/>
<path d="M630.409 112.085V133.253H644.188V112.085H630.409ZM643.299 132.364H631.298V117.168H643.299V132.364ZM643.299 116.279H631.298V112.974H643.299V116.279Z" fill="white"/>
<path d="M643.3 117.169H632.485H631.299V118.355V132.365H632.485V118.355H643.3V117.169Z" fill="#BDBEC0"/>
<path d="M643.3 112.974H632.485H631.299V114.159V116.279H632.485V114.159H643.3V112.974Z" fill="#BDBEC0"/>
<path d="M666.337 112.529H653.447V132.808H666.337V112.529Z" fill="#43484E"/>
<path d="M666.337 112.529H663.884L653.447 129.835V132.808H656.391L666.337 116.313V112.529Z" fill="#414042"/>
<path d="M666.336 122.626V118.698L657.829 132.808H660.197L666.336 122.626Z" fill="#414042"/>
<path d="M653.447 123.522V127.449L662.445 112.529H660.077L653.447 123.522Z" fill="#414042"/>
<path d="M653.003 112.085V133.253H666.782V112.085H653.003ZM665.893 132.364H653.892V117.168H665.893V132.364ZM665.893 116.279H653.892V112.974H665.893V116.279Z" fill="white"/>
<path d="M665.891 117.169H655.076H653.891V118.355V132.365H655.076V118.355H665.891V117.169Z" fill="#BDBEC0"/>
<path d="M665.891 112.974H655.076H653.891V114.159V116.279H655.076V114.159H665.891V112.974Z" fill="#BDBEC0"/>
<path d="M689.407 112.529H676.518V132.808H689.407V112.529Z" fill="#43484E"/>
<path d="M689.408 112.529H686.953L676.519 129.835V132.808H679.463L689.408 116.313V112.529Z" fill="#414042"/>
<path d="M689.407 122.626V118.698L680.898 132.808H683.267L689.407 122.626Z" fill="#414042"/>
<path d="M676.519 123.522V127.449L685.516 112.529H683.148L676.519 123.522Z" fill="#414042"/>
<path d="M676.072 112.085V133.253H689.851V112.085H676.072ZM688.962 132.364H676.961V117.168H688.962V132.364ZM688.962 116.279H676.961V112.974H688.962V116.279Z" fill="white"/>
<path d="M688.962 117.169H678.147H676.961V118.355V132.365H678.147V118.355H688.962V117.169Z" fill="#BDBEC0"/>
<path d="M688.962 112.974H678.147H676.961V114.159V116.279H678.147V114.159H688.962V112.974Z" fill="#BDBEC0"/>
<path d="M712.268 112.529H699.378V132.808H712.268V112.529Z" fill="#43484E"/>
<path d="M712.267 112.529H709.811L699.377 129.835V132.808H702.319L712.267 116.313V112.529Z" fill="#414042"/>
<path d="M712.267 122.626V118.698L703.758 132.808H706.126L712.267 122.626Z" fill="#414042"/>
<path d="M699.377 123.522V127.449L708.373 112.529H706.005L699.377 123.522Z" fill="#414042"/>
<path d="M698.932 112.085V133.253H712.71V112.085H698.932ZM711.821 132.364H699.821V117.168H711.821V132.364ZM711.821 116.279H699.821V112.974H711.821V116.279Z" fill="white"/>
<path d="M711.821 117.169H701.006H699.82V118.355V132.365H701.006V118.355H711.821V117.169Z" fill="#BDBEC0"/>
<path d="M711.821 112.974H701.006H699.82V114.159V116.279H701.006V114.159H711.821V112.974Z" fill="#BDBEC0"/>
<path d="M625.165 108.224H605.371H604.186V109.409V146.745H605.371V109.409H625.165V108.224Z" fill="#BDBEC0"/>
<path d="M647.92 108.224H628.128H626.942V109.409V146.745H628.128V109.409H647.92V108.224Z" fill="#BDBEC0"/>
<path d="M670.678 108.224H650.883H649.697V109.409V146.745H650.883V109.409H670.678V108.224Z" fill="#BDBEC0"/>
<path d="M693.454 108.224H673.66H672.475V109.409V146.745H673.66V109.409H693.454V108.224Z" fill="#BDBEC0"/>
<path d="M716.193 108.224H696.4H695.214V109.409V146.745H696.4V109.409H716.193V108.224Z" fill="#BDBEC0"/>
<path d="M621.151 151.053H608.261V171.331H621.151V151.053Z" fill="#43484E"/>
<path d="M621.151 151.053H618.695L608.261 168.359V171.331H611.203L621.151 154.836V151.053Z" fill="#414042"/>
<path d="M621.15 161.147V157.22L612.641 171.331H615.009L621.15 161.147Z" fill="#414042"/>
<path d="M608.261 162.046V165.973L617.257 151.053H614.889L608.261 162.046Z" fill="#414042"/>
<path d="M607.814 150.608V171.776H621.593V150.608H607.814ZM620.704 170.887H608.703V155.691H620.704V170.887ZM620.704 154.802H608.703V151.497H620.704V154.802Z" fill="white"/>
<path d="M620.704 155.691H609.889H608.703V156.875V170.887H609.889V156.875H620.704V155.691Z" fill="#BDBEC0"/>
<path d="M620.704 151.497H609.889H608.703V152.681V154.802H609.889V152.681H620.704V151.497Z" fill="#BDBEC0"/>
<path d="M643.745 151.052H630.855V171.33H643.745V151.052Z" fill="#43484E"/>
<path d="M643.744 151.053H641.291L630.854 168.359V171.331H633.797L643.744 154.836V151.053Z" fill="#414042"/>
<path d="M643.745 161.146V157.219L635.237 171.33H637.605L643.745 161.146Z" fill="#414042"/>
<path d="M630.854 162.046V165.973L639.851 151.053H637.483L630.854 162.046Z" fill="#414042"/>
<path d="M630.41 150.607V171.775H644.189V150.607H630.41ZM643.3 170.886H631.299V155.69H643.3V170.886ZM643.3 154.801H631.299V151.496H643.3V154.801Z" fill="white"/>
<path d="M643.3 155.691H632.485H631.299V156.875V170.887H632.485V156.875H643.3V155.691Z" fill="#BDBEC0"/>
<path d="M643.3 151.497H632.485H631.299V152.681V154.802H632.485V152.681H643.3V151.497Z" fill="#BDBEC0"/>
<path d="M666.337 151.053H653.447V171.331H666.337V151.053Z" fill="#43484E"/>
<path d="M666.337 151.053H663.884L653.447 168.359V171.331H656.391L666.337 154.836V151.053Z" fill="#414042"/>
<path d="M666.337 161.147V157.22L657.83 171.331H660.198L666.337 161.147Z" fill="#414042"/>
<path d="M653.447 162.046V165.973L662.445 151.053H660.077L653.447 162.046Z" fill="#414042"/>
<path d="M653.003 150.608V171.776H666.782V150.608H653.003ZM665.893 170.887H653.892V155.691H665.893V170.887ZM665.893 154.802H653.892V151.497H665.893V154.802Z" fill="white"/>
<path d="M665.892 155.691H655.077H653.892V156.875V170.887H655.077V156.875H665.892V155.691Z" fill="#BDBEC0"/>
<path d="M665.892 151.497H655.077H653.892V152.681V154.802H655.077V152.681H665.892V151.497Z" fill="#BDBEC0"/>
<path d="M689.407 151.053H676.518V171.331H689.407V151.053Z" fill="#43484E"/>
<path d="M689.409 151.053H686.954L676.52 168.359V171.331H679.464L689.409 154.836V151.053Z" fill="#414042"/>
<path d="M689.408 161.147V157.22L680.899 171.331H683.268L689.408 161.147Z" fill="#414042"/>
<path d="M676.52 162.046V165.973L685.517 151.053H683.149L676.52 162.046Z" fill="#414042"/>
<path d="M676.072 150.608V171.776H689.851V150.608H676.072ZM688.962 170.887H676.961V155.691H688.962V170.887ZM688.962 154.802H676.961V151.497H688.962V154.802Z" fill="white"/>
<path d="M688.962 155.691H678.147H676.961V156.875V170.887H678.147V156.875H688.962V155.691Z" fill="#BDBEC0"/>
<path d="M688.962 151.497H678.147H676.961V152.681V154.802H678.147V152.681H688.962V151.497Z" fill="#BDBEC0"/>
<path d="M712.268 151.053H699.378V171.331H712.268V151.053Z" fill="#43484E"/>
<path d="M712.268 151.053H709.812L699.378 168.359V171.331H702.32L712.268 154.836V151.053Z" fill="#414042"/>
<path d="M712.267 161.147V157.22L703.758 171.331H706.126L712.267 161.147Z" fill="#414042"/>
<path d="M699.378 162.046V165.973L708.374 151.053H706.006L699.378 162.046Z" fill="#414042"/>
<path d="M698.932 150.608V171.776H712.71V150.608H698.932ZM711.821 170.887H699.821V155.691H711.821V170.887ZM711.821 154.802H699.821V151.497H711.821V154.802Z" fill="white"/>
<path d="M711.821 155.691H701.006H699.82V156.875V170.887H701.006V156.875H711.821V155.691Z" fill="#BDBEC0"/>
<path d="M711.821 151.497H701.006H699.82V152.681V154.802H701.006V152.681H711.821V151.497Z" fill="#BDBEC0"/>
<path d="M625.165 146.746H605.371H604.186V147.93V176.673H605.371V147.93H625.165V146.746Z" fill="#BDBEC0"/>
<path d="M647.919 146.746H628.127H626.941V147.93V176.673H628.127V147.93H647.919V146.746Z" fill="#BDBEC0"/>
<path d="M670.677 146.746H650.882H649.696V147.93V176.673H650.882V147.93H670.677V146.746Z" fill="#BDBEC0"/>
<path d="M693.454 146.746H673.66H672.475V147.93V176.673H673.66V147.93H693.454V146.746Z" fill="#BDBEC0"/>
<path d="M716.193 146.746H696.4H695.214V147.93V176.673H696.4V147.93H716.193V146.746Z" fill="#BDBEC0"/>
<path d="M602.409 82.5928H536.591V176.674H602.409V82.5928Z" fill="#E4716B"/>
<path d="M604.505 78H534.5V82.5923H604.505V78Z" fill="#FDD7A7"/>
<path d="M586.168 146.746H552.832V176.673H586.168V146.746Z" fill="#FDD7A7"/>
<path d="M543.974 82.5908H542.196V176.672H543.974V82.5908Z" fill="#FDD7A7"/>
<path d="M547.677 82.5908H545.899V176.672H547.677V82.5908Z" fill="#FDD7A7"/>
<path d="M593.102 82.5908H591.324V176.672H593.102V82.5908Z" fill="#FDD7A7"/>
<path d="M596.806 82.5908H595.028V176.672H596.806V82.5908Z" fill="#FDD7A7"/>
<path d="M569.944 146.744H569.055V176.673H569.944V146.744Z" fill="white"/>
<path d="M565.943 149.595H556.165V165.041H565.943V149.595Z" fill="#43484E"/>
<path d="M565.944 149.595H563.418L556.166 161.624V165.041H558.84L565.944 153.261V149.595Z" fill="#414042"/>
<path d="M565.945 159.573V155.647L560.279 165.042H562.649L565.945 159.573Z" fill="#414042"/>
<path d="M556.166 155.311V159.238L561.982 149.595H559.612L556.166 155.311Z" fill="#414042"/>
<path d="M556.61 164.597H565.499V150.039H556.61V164.597ZM566.388 165.486H555.721V149.15H566.388V165.486Z" fill="white"/>
<path d="M565.5 150.039H557.796H556.61V151.225V164.597H557.796V151.225H565.5V150.039Z" fill="#BDBEC0"/>
<path d="M565.943 168.207H556.165V173.818H565.943V168.207Z" fill="#43484E"/>
<path d="M565.614 168.207H560.877L557.494 173.818H562.23L565.614 168.207Z" fill="#414042"/>
<path d="M556.165 169.708V173.636L559.438 168.206H557.07L556.165 169.708Z" fill="#414042"/>
<path d="M565.944 170.044L563.668 173.818H565.944V170.044Z" fill="#414042"/>
<path d="M566.388 174.263H555.721V167.763H566.388V174.263ZM556.61 173.374H565.499V168.652H556.61V173.374Z" fill="white"/>
<path d="M565.5 168.651H557.796H556.61V169.837V173.373H557.796V169.837H565.5V168.651Z" fill="#BDBEC0"/>
<path d="M582.835 149.595H573.057V165.041H582.835V149.595Z" fill="#43484E"/>
<path d="M582.834 149.595H580.308L573.056 161.624V165.041H575.731L582.834 153.261V149.595Z" fill="#414042"/>
<path d="M582.834 159.573V155.647L577.168 165.042H579.538L582.834 159.573Z" fill="#414042"/>
<path d="M573.056 155.311V159.238L578.871 149.595H576.501L573.056 155.311Z" fill="#414042"/>
<path d="M573.5 164.597H582.39V150.039H573.5V164.597ZM583.279 165.486H572.611V149.15H583.279V165.486Z" fill="white"/>
<path d="M582.39 150.04H574.686H573.5V151.226V164.597H574.686V151.226H582.39V150.04Z" fill="#BDBEC0"/>
<path d="M582.835 168.207H573.057V173.818H582.835V168.207Z" fill="#43484E"/>
<path d="M582.502 168.207H577.767L574.384 173.818H579.12L582.502 168.207Z" fill="#414042"/>
<path d="M573.056 169.71V173.638L576.329 168.208H573.961L573.056 169.71Z" fill="#414042"/>
<path d="M582.834 170.044L580.559 173.818H582.834V170.044Z" fill="#414042"/>
<path d="M583.279 174.263H572.611V167.763H583.279V174.263ZM573.5 173.374H582.39V168.652H573.5V173.374Z" fill="white"/>
<path d="M582.39 168.651H574.686H573.5V169.837V173.373H574.686V169.837H582.39V168.651Z" fill="#BDBEC0"/>
<path d="M571.48 161.71H570.703V164.304H571.48V161.71Z" fill="white"/>
<path d="M568.296 161.71H567.518V164.304H568.296V161.71Z" fill="white"/>
<path d="M565.811 112.53H552.921V132.809H565.811V112.53Z" fill="#43484E"/>
<path d="M565.811 112.53H563.357L552.921 129.836V132.809H555.865L565.811 116.314V112.53Z" fill="#414042"/>
<path d="M565.811 122.627V118.699L557.304 132.809H559.672L565.811 122.627Z" fill="#414042"/>
<path d="M552.921 123.523V127.45L561.919 112.53H559.551L552.921 123.523Z" fill="#414042"/>
<path d="M552.477 112.085V133.253H566.255V112.085H552.477ZM565.366 132.364H553.366V117.168H565.366V132.364ZM565.366 116.279H553.366V112.974H565.366V116.279Z" fill="white"/>
<path d="M565.367 117.168H554.55H553.366V118.354V132.364H554.55V118.354H565.367V117.168Z" fill="#BDBEC0"/>
<path d="M565.367 112.974H554.55H553.366V114.159V116.279H554.55V114.159H565.367V112.974Z" fill="#BDBEC0"/>
<path d="M586.08 112.53H573.19V132.809H586.08V112.53Z" fill="#43484E"/>
<path d="M586.079 112.53H583.626L573.189 129.836V132.809H576.134L586.079 116.314V112.53Z" fill="#414042"/>
<path d="M586.08 122.627V118.699L577.572 132.809H579.94L586.08 122.627Z" fill="#414042"/>
<path d="M573.189 123.523V127.45L582.189 112.53H579.821L573.189 123.523Z" fill="#414042"/>
<path d="M572.745 112.086V133.254H586.524V112.086H572.745ZM585.635 132.365H573.634V117.169H585.635V132.365ZM585.635 116.28H573.634V112.975H585.635V116.28Z" fill="white"/>
<path d="M585.636 117.17H574.821H573.635V118.356V132.366H574.821V118.356H585.636V117.17Z" fill="#BDBEC0"/>
<path d="M585.636 112.975H574.821H573.635V114.16V116.28H574.821V114.16H585.636V112.975Z" fill="#BDBEC0"/>
<path d="M602.409 82.5928H597.991H596.805H594.285H593.101H548.862H547.676H545.159H543.973H536.591V85.5192H543.973V176.674H545.159V85.5192H547.676V176.674H548.862V85.5192H593.101V176.674H594.285V85.5192H596.805V176.674H597.991V85.5192H602.409V82.5928Z" fill="#BDBEC0"/>
<path d="M596.373 88.9629H542.592V103.631H596.373V88.9629Z" fill="#AA4E4E"/>
<path d="M596.818 104.074H542.147V88.5176H596.818V104.074ZM543.036 103.185H595.929V89.4065H543.036V103.185V103.185Z" fill="white"/>
<path d="M595.917 89.3887H544.21H543.024V90.5745V103.112H544.21V90.5745H595.917V89.3887Z" fill="#BDBEC0"/>
<path d="M548.797 97.6222L550.013 97.5048C550.086 97.912 550.235 98.2124 550.457 98.4045C550.681 98.5947 550.984 98.6907 551.362 98.6907C551.764 98.6907 552.068 98.6054 552.273 98.4347C552.475 98.264 552.578 98.0649 552.578 97.8373C552.578 97.6915 552.536 97.5671 552.45 97.4639C552.365 97.3608 552.214 97.2719 552.001 97.1955C551.853 97.1457 551.521 97.055 551 96.9252C550.331 96.7599 549.86 96.5554 549.592 96.3137C549.211 95.9741 549.021 95.558 549.021 95.0691C549.021 94.7544 549.11 94.4593 549.289 94.1837C549.469 93.9081 549.725 93.7019 550.061 93.5579C550.397 93.4139 550.802 93.3428 551.279 93.3428C552.056 93.3428 552.639 93.5135 553.032 93.853C553.425 94.1926 553.631 94.6478 553.651 95.2167L552.401 95.2718C552.347 94.9535 552.232 94.726 552.058 94.5855C551.882 94.4469 551.617 94.3757 551.266 94.3757C550.904 94.3757 550.619 94.4504 550.415 94.5998C550.283 94.6958 550.217 94.8238 550.217 94.9838C550.217 95.1313 550.28 95.2558 550.402 95.3589C550.559 95.4905 550.943 95.6292 551.551 95.7714C552.159 95.9154 552.609 96.0647 552.898 96.2159C553.19 96.3688 553.418 96.5786 553.581 96.8452C553.747 97.1119 553.828 97.4391 553.828 97.8302C553.828 98.1858 553.729 98.5165 553.531 98.8276C553.336 99.1369 553.057 99.3663 552.696 99.5174C552.335 99.6685 551.887 99.7432 551.35 99.7432C550.569 99.7432 549.969 99.5619 549.549 99.201C549.129 98.8418 548.879 98.3156 548.797 97.6222ZM559.699 97.3608L560.91 97.7449C560.725 98.4205 560.415 98.9218 559.983 99.249C559.551 99.5779 559.004 99.7414 558.339 99.7414C557.517 99.7414 556.844 99.4605 556.314 98.8987C555.786 98.3369 555.521 97.5688 555.521 96.5963C555.521 95.5669 555.788 94.7669 556.319 94.1979C556.851 93.629 557.549 93.3446 558.417 93.3446C559.174 93.3446 559.788 93.5668 560.261 94.0148C560.542 94.2797 560.753 94.6602 560.894 95.1545L559.658 95.4496C559.585 95.1296 559.432 94.8753 559.201 94.6904C558.968 94.5055 558.686 94.4113 558.355 94.4113C557.896 94.4113 557.525 94.5766 557.238 94.9056C556.952 95.2345 556.81 95.7678 556.81 96.5039C556.81 97.2862 556.95 97.8426 557.231 98.1751C557.512 98.5076 557.878 98.6729 558.328 98.6729C558.661 98.6729 558.945 98.5662 559.185 98.3565C559.423 98.1467 559.596 97.8142 559.699 97.3608ZM562.851 99.6365V93.4512H564.101V95.8869H566.547V93.4512H567.797V99.6365H566.547V96.9324H564.101V99.6365H562.851ZM569.698 96.5803C569.698 95.951 569.792 95.4211 569.981 94.9927C570.121 94.678 570.313 94.3953 570.557 94.1446C570.8 93.8939 571.067 93.709 571.357 93.5881C571.742 93.4246 572.187 93.3428 572.69 93.3428C573.602 93.3428 574.331 93.6255 574.877 94.1908C575.424 94.7562 575.698 95.542 575.698 96.5501C575.698 97.5493 575.428 98.3298 574.884 98.8934C574.34 99.457 573.615 99.7397 572.706 99.7397C571.785 99.7397 571.054 99.4588 570.512 98.8969C569.97 98.3387 569.698 97.5653 569.698 96.5803ZM570.985 96.5377C570.985 97.2382 571.147 97.7697 571.47 98.1307C571.794 98.4934 572.205 98.6729 572.701 98.6729C573.199 98.6729 573.609 98.4934 573.927 98.1342C574.246 97.7751 574.406 97.2382 574.406 96.5199C574.406 95.8105 574.251 95.2825 573.94 94.9322C573.629 94.582 573.216 94.4095 572.701 94.4095C572.187 94.4095 571.773 94.5873 571.458 94.9393C571.143 95.2949 570.985 95.8265 570.985 96.5377ZM577.286 96.5803C577.286 95.951 577.38 95.4211 577.567 94.9927C577.707 94.678 577.901 94.3953 578.143 94.1446C578.386 93.8939 578.653 93.709 578.943 93.5881C579.329 93.4246 579.773 93.3428 580.276 93.3428C581.188 93.3428 581.917 93.6255 582.463 94.1908C583.011 94.7562 583.285 95.542 583.285 96.5501C583.285 97.5493 583.013 98.3298 582.469 98.8934C581.926 99.457 581.201 99.7397 580.291 99.7397C579.371 99.7397 578.639 99.4588 578.098 98.8969C577.556 98.3387 577.286 97.5653 577.286 96.5803ZM578.573 96.5377C578.573 97.2382 578.735 97.7697 579.057 98.1307C579.382 98.4934 579.791 98.6729 580.289 98.6729C580.787 98.6729 581.196 98.4934 581.514 98.1342C581.832 97.7751 581.994 97.2382 581.994 96.5199C581.994 95.8105 581.837 95.2825 581.526 94.9322C581.215 94.582 580.803 94.4095 580.289 94.4095C579.773 94.4095 579.359 94.5873 579.044 94.9393C578.73 95.2949 578.573 95.8265 578.573 96.5377ZM585.158 99.6365V93.501H586.408V98.5947H589.513V99.6365H585.158Z" fill="white"/>
<path d="M596.808 104.083H542.196V105.267H596.808V104.083Z" fill="#BDBEC0"/>
<path d="M414.89 20.6477C413.085 20.6477 411.428 21.2434 410.07 22.228C407.546 16.7856 402.047 13 395.651 13C390.187 13 385.367 15.7605 382.505 19.9598C380.687 18.6447 378.47 17.8489 376.053 17.8489C369.95 17.8489 365 22.7968 365 28.9023C365 35.0057 369.948 39.9558 376.053 39.9558C378.47 39.9558 380.687 39.16 382.505 37.8449C385.367 42.0442 390.187 44.8047 395.651 44.8047C402.047 44.8047 407.546 41.0191 410.07 35.5767C411.428 36.5613 413.085 37.157 414.89 37.157C419.449 37.157 423.142 33.4613 423.142 28.9046C423.142 24.3412 419.449 20.6477 414.89 20.6477Z" fill="white"/>
<path d="M383.249 6.32362C381.756 6.32362 380.387 6.81594 379.263 7.62971C377.177 3.12922 372.629 0 367.342 0C362.823 0 358.84 2.28172 356.473 5.75263C354.969 4.66685 353.137 4.00818 351.138 4.00818C346.091 4.00818 342 8.09954 342 13.1463C342 18.1931 346.091 22.2844 351.138 22.2844C353.137 22.2844 354.969 21.6258 356.473 20.54C358.84 24.0109 362.823 26.2949 367.342 26.2949C372.629 26.2949 377.177 23.1656 379.263 18.6651C380.387 19.4789 381.756 19.9712 383.249 19.9712C387.016 19.9712 390.071 16.9162 390.071 13.1486C390.071 9.3809 387.016 6.32362 383.249 6.32362Z" fill="white"/>
<path d="M1066.89 20.6477C1065.08 20.6477 1063.43 21.2434 1062.07 22.228C1059.55 16.7856 1054.05 13 1047.65 13C1042.19 13 1037.37 15.7605 1034.51 19.9598C1032.69 18.6447 1030.47 17.8489 1028.05 17.8489C1021.95 17.8489 1017 22.7968 1017 28.9023C1017 35.0057 1021.95 39.9558 1028.05 39.9558C1030.47 39.9558 1032.69 39.16 1034.51 37.8449C1037.37 42.0442 1042.19 44.8047 1047.65 44.8047C1054.05 44.8047 1059.55 41.0191 1062.07 35.5767C1063.43 36.5613 1065.08 37.157 1066.89 37.157C1071.45 37.157 1075.14 33.4613 1075.14 28.9046C1075.14 24.3412 1071.45 20.6477 1066.89 20.6477Z" fill="white"/>
<path d="M1035.25 6.32362C1033.76 6.32362 1032.39 6.81594 1031.26 7.62971C1029.18 3.12922 1024.63 0 1019.34 0C1014.82 0 1010.84 2.28172 1008.47 5.75263C1006.97 4.66685 1005.14 4.00818 1003.14 4.00818C998.091 4.00818 994 8.09954 994 13.1463C994 18.1931 998.091 22.2844 1003.14 22.2844C1005.14 22.2844 1006.97 21.6258 1008.47 20.54C1010.84 24.0109 1014.82 26.2949 1019.34 26.2949C1024.63 26.2949 1029.18 23.1656 1031.26 18.6651C1032.39 19.4789 1033.76 19.9712 1035.25 19.9712C1039.02 19.9712 1042.07 16.9162 1042.07 13.1486C1042.07 9.3809 1039.02 6.32362 1035.25 6.32362Z" fill="white"/>
<path d="M100.89 20.6477C99.0847 20.6477 97.4279 21.2434 96.0701 22.228C93.5456 16.7856 88.047 13 81.6515 13C76.1866 13 71.3669 15.7605 68.5052 19.9598C66.6865 18.6447 64.47 17.8489 62.0534 17.8489C55.9501 17.8489 51 22.7968 51 28.9023C51 35.0057 55.9479 39.9558 62.0534 39.9558C64.47 39.9558 66.6865 39.16 68.5052 37.8449C71.3669 42.0442 76.1866 44.8047 81.6515 44.8047C88.047 44.8047 93.5456 41.0191 96.0701 35.5767C97.4279 36.5613 99.0847 37.157 100.89 37.157C105.449 37.157 109.142 33.4613 109.142 28.9046C109.142 24.3412 105.449 20.6477 100.89 20.6477Z" fill="white"/>
<path d="M69.2485 6.32362C67.7559 6.32362 66.3868 6.81594 65.2628 7.62971C63.1767 3.12922 58.629 0 53.3417 0C48.8232 0 44.8398 2.28172 42.4726 5.75263C40.9687 4.66685 39.1366 4.00818 37.1381 4.00818C32.0914 4.00818 28 8.09954 28 13.1463C28 18.1931 32.0914 22.2844 37.1381 22.2844C39.1366 22.2844 40.9687 21.6258 42.4726 20.54C44.8398 24.0109 48.8232 26.2949 53.3417 26.2949C58.629 26.2949 63.1767 23.1656 65.2628 18.6651C66.3868 19.4789 67.7559 19.9712 69.2485 19.9712C73.0162 19.9712 76.0712 16.9162 76.0712 13.1486C76.0712 9.3809 73.0162 6.32362 69.2485 6.32362Z" fill="white"/>
<path d="M125.475 102.896C125.475 102.896 104.517 119.976 92.9626 98.611C81.4079 77.246 60.0339 89.2616 64.64 64.0592C69.2462 38.8569 94.1765 58.174 99.5987 38.504C105.023 18.8362 114.047 10.7277 131.759 15.1967C151.435 20.1603 138.123 43.8205 155.007 50.5712C171.892 57.322 182.804 63.9648 178.904 75.8455C175.003 87.7262 152.62 79.9526 151.973 90.0551C151.323 100.158 137.977 120.14 125.475 102.896Z" fill="#577338"/>
<path d="M166.374 55.6764C163.047 53.9275 159.212 52.2527 155.008 50.5712C138.124 43.8205 151.439 20.1603 131.76 15.1967C114.048 10.7277 105.024 18.8362 99.5997 38.5062C95.3937 53.7544 79.4733 45.5829 70.3779 52.8799C102.338 64.4728 95.2071 45.6481 108.122 49.699C121.039 53.7499 116.055 43.6406 126.711 36.6651C137.366 29.6896 134.228 43.0607 146.733 55.2471C154.975 63.2724 162.319 59.3137 166.374 55.6764Z" fill="#6B8D44"/>
<path d="M178.904 75.8432C182.028 66.3207 175.628 60.1656 164.276 54.6221C169.588 60.8131 176.179 70.7762 168.792 75.6544C157.62 83.0323 145.599 73.3457 141.926 85.8243C138.255 98.3029 131.235 99.5506 125.628 94.6185C120.022 89.6886 109.065 110.172 101.076 94.8523C96.4852 86.0469 85.9983 84.6374 77.8965 85.0218C83.0511 87.3642 88.6779 90.6935 92.9581 98.6087C104.515 119.974 125.471 102.893 125.471 102.893C137.974 120.138 151.321 100.155 151.968 90.0528C152.62 79.9525 175.003 87.7261 178.904 75.8432Z" fill="#E6E7E8"/>
<path d="M121.082 173.725C121.082 173.725 122.363 155.487 121.614 145.115C120.866 134.747 121.56 112.166 122.77 105.597C123.981 99.0285 114.529 90.9447 111.238 75.6335C111.238 75.6335 110.554 71.8547 111.292 72.7157C112.029 73.5766 113.6 80.197 114.241 81.2423C114.882 82.2876 119.423 91.129 120.436 92.28C121.45 93.4287 123.871 99.8737 124.831 98.9521C125.791 98.0281 127.54 95.0495 128.073 91.6685C128.608 88.2898 130.622 81.1726 131.229 78.9246C131.836 76.6766 133.825 70.9712 136.02 69.3167C136.02 69.3167 137.546 68.2983 135.986 71.1465C134.426 73.9948 133.401 78.5897 132.798 80.5544C132.196 82.5192 131.784 89.479 130.501 92.6554C129.219 95.8318 130.647 100.036 128.127 103.814C125.863 107.213 125.324 117.885 125.524 122.313C125.724 126.742 125.243 142.453 126.018 146.281C126.794 150.108 127.511 172.291 128.752 173.869L121.082 173.725Z" fill="#7C5833"/>
<path d="M136.641 69.252C136.466 69.6229 135.843 70.9222 135.4 71.5696C134.881 72.3317 132.918 77.7449 132.493 79.1993C132.069 80.6515 131.325 87.6293 130.605 89.2119C129.884 90.7945 129.184 94.1306 129.151 95.9919C129.115 97.851 128.337 101.133 126.903 102.489C125.468 103.846 124.599 113.423 124.549 114.751C124.497 116.08 124.201 127.351 124.255 130.553C124.309 133.756 124.576 144.681 124.981 148.267C125.383 151.852 126.15 168.859 126.098 169.187C126.066 169.378 126.01 171.799 125.968 173.822L128.755 173.874C127.514 172.296 126.797 150.112 126.022 146.286C125.246 142.458 125.727 126.747 125.527 122.318C125.327 117.89 125.866 107.218 128.13 103.819C130.65 100.041 129.22 95.8368 130.504 92.6604C131.788 89.4839 132.199 82.5241 132.801 80.5594C133.404 78.5946 134.429 73.9997 135.989 71.1515C136.652 69.9286 136.742 69.4385 136.641 69.252Z" fill="#D2D3D4"/>
<path d="M122.819 105.004C122.828 104.977 122.846 104.957 122.855 104.93C123.916 101.064 121.657 97.2488 120.757 96.208C119.858 95.1672 117.111 89.1853 116.255 87.7555C115.398 86.3281 112.932 80.3506 112.399 78.6467C111.88 76.9831 111.066 72.8805 111.03 72.6895C110.787 73.1256 111.235 75.6366 111.235 75.6366C114.429 90.4936 123.394 98.5414 122.819 105.004Z" fill="#D2D3D4"/>
<path d="M130.106 73.758C130.106 73.758 130.742 85.4768 117.879 83.1479C105.014 80.8167 104.594 103.389 84.7035 93.8191C64.8109 84.2494 69.4081 61.9582 81.9609 61.4636C94.5137 60.9691 72.3485 38.7656 93.356 33.3502C108.483 29.4499 105.547 47.7936 118.453 53.0516C131.358 58.3097 132.296 66.9016 130.106 73.758Z" fill="#8EAD6A"/>
<path d="M117.661 52.6542C105.706 46.9645 108.147 29.538 93.3532 33.3506C72.3456 38.766 94.5109 60.9695 81.9581 61.4641C70.2819 61.9249 65.5184 81.224 80.906 91.6232C78.6647 85.3693 80.6587 79.6549 86.009 79.6661C96.2531 79.6864 89.9834 57.1232 96.7229 54.5043C103.462 51.8853 98.6787 39.3033 106.045 47.8052C110.654 53.1173 115.028 53.2791 117.661 52.6542Z" fill="#99BA72"/>
<path d="M125.206 82.9465C128.717 82.7959 132.188 83.7491 135.041 85.7992C137.581 87.6246 141.929 88.7464 148.965 85.3406C162.327 78.8754 150.68 63.3664 159.504 60.172C168.329 56.9799 161.097 38.1933 142.895 44.1955C124.693 50.1977 136.178 58.8053 119.39 54.9477C103.888 51.3846 100.451 84.0143 125.206 82.9465Z" fill="#99BA72"/>
<path d="M142.9 44.1926C124.698 50.1947 136.183 58.8023 119.395 54.9447C117.859 54.5918 116.447 54.6008 115.166 54.8908C115.676 56.6218 117.299 58.8608 122.225 59.5711C130.61 60.7783 130.9 66.8277 135.268 58.5258C139.633 50.2262 140.353 56.7544 147.171 51.838C153.989 46.9216 155.493 56.4082 148.897 60.6974C142.855 64.6291 155.12 76.9954 150.345 84.5756C161.482 77.7327 151.01 63.2421 159.508 60.1691C168.331 56.9769 161.102 38.1904 142.9 44.1926Z" fill="#A4C77A"/>
<path d="M84.5117 177.22C109.404 177.22 134.296 177.22 159.19 177.22C159.386 174.619 158.091 172.139 155.877 170.876C153.442 169.487 150.326 169.81 148.15 171.703C149.625 167.005 146.914 162.266 142.908 161.218C139.68 160.375 135.95 162.019 134.08 165.357C131.284 162.345 127.318 161.971 125.25 163.702C123.546 165.132 123.58 167.623 123.595 168.118C122.316 167.976 121.174 168.758 120.907 169.844C120.7 170.671 121.028 171.586 121.734 172.189C119.954 170.664 117.569 170.217 115.595 171.062C113.772 171.84 112.965 173.434 112.744 173.913C112.747 173.812 112.756 172.018 111.272 171.062C110.146 170.336 108.633 170.404 107.502 171.247C105.62 168.529 102.271 167.481 99.5935 168.578C96.561 169.819 95.8709 173.198 95.8237 173.452C93.7263 171.332 90.5903 170.759 88.0973 171.982C85.0063 173.495 84.5409 176.972 84.5117 177.22Z" fill="#577338"/>
<path d="M155.876 170.875C154.035 169.823 151.803 169.758 149.883 170.605C149.941 170.61 155.952 170.965 154.442 174.166C154.442 174.166 153.785 175.52 146.028 175.52C140.846 175.52 104.352 175.52 84.9651 175.52C84.6167 176.41 84.5223 177.116 84.5088 177.221C109.401 177.221 134.293 177.221 159.187 177.221C159.385 174.618 158.09 172.141 155.876 170.875Z" fill="#E6E7E8"/>
<path d="M96.3667 174.763C99.4352 168.866 103.817 169.28 106.851 172.692C109.509 171.555 111.197 172.348 112.75 175.107C115.612 171.348 119.665 171.532 122.992 173.623C122.234 170.795 123.959 169.313 126.027 170.024C126.901 165.382 131.912 165.334 134.855 167.796C140.924 163.448 145.982 165.519 148.152 171.703C149.626 167.005 146.915 162.266 142.909 161.218C139.681 160.375 135.952 162.019 134.081 165.357C131.285 162.345 127.319 161.971 125.251 163.702C123.547 165.132 123.581 167.623 123.597 168.118C122.318 167.976 121.176 168.758 120.908 169.844C120.701 170.671 121.03 171.586 121.735 172.189C119.955 170.664 117.57 170.217 115.596 171.062C113.773 171.84 112.966 173.434 112.746 173.913C112.748 173.812 112.757 172.018 111.273 171.062C110.147 170.336 108.634 170.404 107.503 171.247C105.622 168.529 102.272 167.481 99.5948 168.578C96.5623 169.819 95.8722 173.198 95.825 173.452C93.7276 171.332 90.5916 170.759 88.0986 171.982C87.3073 172.368 86.6913 172.883 86.208 173.441C89.4564 171.782 92.8553 172.427 96.3667 174.763Z" fill="#6B8D44"/>
<path d="M39.7834 149.89C39.7834 149.89 52.3452 153.214 52.7476 139.931C53.0668 129.422 70.5046 127.796 68.9107 110.786C67.454 95.2363 57.4055 98.8308 51.0819 89.7422C44.756 80.6535 37.5264 79.7161 32.0818 81.3211C27.0125 82.8116 23.1797 87.3885 22.2423 94.0201C21.4982 99.2827 20.0685 101.252 13.2166 103.985C6.36465 106.717 5.66102 114.313 13.2166 119.728C20.7698 125.146 14.2709 135.756 19.0141 141.057C23.7574 146.36 27.9747 141.003 28.5007 145.074C29.0267 149.146 36.7441 151.992 39.7834 149.89Z" fill="#99BA72"/>
<path d="M37.9467 174.169C37.9467 174.169 38.5334 162.805 37.9467 156.365C37.3622 149.922 37.5308 135.868 38.2075 131.767C38.8841 127.669 32.9112 122.748 30.6834 113.262C30.6834 113.262 30.2158 110.919 30.6834 111.445C31.151 111.971 32.2075 116.074 32.6167 116.717C33.0281 117.362 35.955 122.809 36.5979 123.51C37.2408 124.212 38.8234 128.195 39.4079 127.609C39.9946 127.022 41.0467 125.149 41.3412 123.041C41.6334 120.932 42.8046 116.483 43.1576 115.076C43.5082 113.671 44.6794 110.099 46.026 109.045C46.026 109.045 46.9634 108.393 46.026 110.182C45.0886 111.971 44.5041 114.842 44.1534 116.072C43.8027 117.301 43.6274 121.636 42.8653 123.625C42.1055 125.617 43.0407 128.215 41.5188 130.596C40.1497 132.734 39.9362 139.379 40.1138 142.133C40.2891 144.887 40.1722 154.665 40.6982 157.037C41.2243 159.411 41.9279 173.2 42.7192 174.169H37.9467Z" fill="#7C5833"/>
<path d="M51.0846 89.7426C50.2056 88.4792 49.3087 87.3889 48.4027 86.4268C48.4117 86.5504 49.0209 95.3805 59.3145 99.5708C69.68 103.788 64.0578 124.694 54.7466 126.452C45.4331 128.208 53.6653 147.95 44.19 150.2C44.1787 150.202 44.1675 150.209 44.1562 150.212C47.825 149.917 52.5031 147.957 52.7481 139.931C53.0673 129.422 70.5051 127.797 68.9112 110.786C67.4568 95.2367 57.4082 98.8312 51.0846 89.7426Z" fill="#E6E7E8"/>
<path d="M46.8579 84.9341C41.6987 80.3863 36.344 80.0649 32.0818 81.3215C27.0125 82.8119 23.1797 87.3889 22.2423 94.0205C21.4982 99.283 20.0685 101.252 13.2166 103.986C6.36465 106.717 5.66102 114.313 13.2166 119.729C20.7698 125.146 14.2709 135.757 19.0141 141.058C22.1501 144.565 25.0478 143.418 26.8102 143.409C18.025 141.157 23.2966 134.123 25.3468 125.807C27.3969 117.492 15.1274 111.519 22.593 106.773C30.5981 101.688 25.8009 94.515 29.2695 87.8003C33.752 79.1207 46.5409 84.8464 46.8579 84.9341Z" fill="#A4C77A"/>
<path d="M46.4159 108.994C46.3125 109.226 45.9393 110.042 45.6696 110.449C45.3549 110.93 44.1971 114.32 43.9499 115.228C43.7026 116.136 43.3227 120.486 42.8911 121.477C42.4594 122.469 42.0638 124.553 42.0638 125.71C42.0638 126.87 41.6164 128.92 40.742 129.779C39.8652 130.64 39.4359 136.609 39.4201 137.436C39.4022 138.263 39.3482 145.277 39.4201 147.269C39.4898 149.26 39.7843 156.054 40.0766 158.279C40.3688 160.503 41.0432 171.075 41.014 171.279C40.9982 171.399 40.9892 172.907 40.987 174.164H42.7225C41.9312 173.195 41.2275 159.406 40.7015 157.032C40.1755 154.66 40.2924 144.881 40.1148 142.127C39.9394 139.374 40.1507 132.729 41.5198 130.591C43.0417 128.21 42.1065 125.611 42.8663 123.62C43.6284 121.628 43.8037 117.296 44.1544 116.066C44.5051 114.837 45.0918 111.966 46.027 110.177C46.4317 109.415 46.4834 109.109 46.4159 108.994Z" fill="#D2D3D4"/>
<path d="M38.2314 131.395C38.2359 131.377 38.2472 131.364 38.2517 131.348C38.8654 128.931 37.4154 126.584 36.8467 125.948C36.2757 125.31 34.4975 121.621 33.9467 120.744C33.3982 119.863 31.7954 116.176 31.4425 115.122C31.1008 114.092 30.5478 111.548 30.5208 111.431C30.3747 111.705 30.6826 113.258 30.6826 113.258C32.8452 122.466 38.5147 127.367 38.2314 131.395Z" fill="#D2D3D4"/>
<path d="M58.6953 180.033H0V137.613C4.40608 135.455 9.35168 134.851 13.9151 136.04C24.9303 138.917 32.3937 151.933 28.3248 164.859C29.786 163.6 31.3821 162.589 33.0906 161.847C33.3828 161.71 33.6975 161.6 33.9898 161.465C34.3045 161.352 34.6192 161.238 34.9339 161.148C35.4734 160.968 36.0354 160.813 36.5974 160.7C37.2943 160.543 38.0137 160.406 38.733 160.341C38.9578 160.316 39.1602 160.293 39.385 160.273C39.7896 160.251 40.2167 160.228 40.6214 160.228C43.7236 160.228 46.8034 160.993 49.5684 162.589C55.6605 166.051 59.2348 172.884 58.6953 180.033Z" fill="#577338"/>
<path d="M58.6953 180.033H0V175.358H22.5025C43.836 175.358 45.6344 171.626 45.6344 171.626C49.7932 162.836 33.2479 161.847 33.0906 161.847C33.3828 161.71 33.6975 161.6 33.9898 161.465C34.3045 161.353 34.6192 161.238 34.9339 161.148C35.4734 160.968 36.0354 160.813 36.5974 160.701C37.2943 160.543 38.0137 160.406 38.733 160.341C38.9578 160.316 39.1602 160.294 39.385 160.273C39.7896 160.251 40.2167 160.229 40.6214 160.229C43.7236 160.229 46.8034 160.993 49.5684 162.589C55.6605 166.051 59.2348 172.885 58.6953 180.033Z" fill="#E6E7E8"/>
<path d="M28.3248 164.859C23.3792 150.742 12.9485 144.425 0 149.528V137.613C4.40608 135.455 9.35168 134.851 13.9151 136.04C24.9303 138.917 32.3937 151.933 28.3248 164.859Z" fill="#6B8D44"/>
<path d="M1040.55 158.492C1040.55 158.492 1048.63 160.63 1048.89 152.09C1049.09 145.335 1060.3 144.29 1059.28 133.355C1058.34 123.358 1051.88 125.667 1047.82 119.825C1043.75 113.98 1039.1 113.38 1035.6 114.411C1032.34 115.371 1029.88 118.312 1029.28 122.576C1028.8 125.959 1027.88 127.225 1023.47 128.983C1019.07 130.739 1018.62 135.621 1023.47 139.103C1028.33 142.586 1024.15 149.408 1027.2 152.816C1030.25 156.226 1032.96 152.78 1033.3 155.399C1033.64 158.016 1038.6 159.846 1040.55 158.492Z" fill="#99BA72"/>
<path d="M1039.38 174.102C1039.38 174.102 1039.75 166.798 1039.38 162.657C1039 158.514 1039.11 149.479 1039.54 146.845C1039.98 144.21 1036.14 141.047 1034.71 134.948C1034.71 134.948 1034.41 133.442 1034.71 133.779C1035.01 134.117 1035.69 136.754 1035.95 137.167C1036.21 137.583 1038.09 141.083 1038.51 141.535C1038.93 141.987 1039.94 144.547 1040.32 144.17C1040.7 143.794 1041.37 142.589 1041.56 141.234C1041.75 139.876 1042.5 137.017 1042.73 136.113C1042.96 135.211 1043.71 132.914 1044.57 132.235C1044.57 132.235 1045.18 131.815 1044.57 132.966C1043.97 134.117 1043.59 135.962 1043.37 136.754C1043.14 137.545 1043.03 140.33 1042.54 141.609C1042.05 142.888 1042.66 144.561 1041.68 146.089C1040.79 147.465 1040.66 151.736 1040.77 153.506C1040.89 155.275 1040.81 161.565 1041.15 163.089C1041.49 164.615 1041.94 173.479 1042.45 174.1H1039.38V174.102Z" fill="#7C5833"/>
<path d="M1047.82 119.826C1047.25 119.015 1046.68 118.314 1046.09 117.695C1046.1 117.774 1046.49 123.455 1053.11 126.146C1059.77 128.857 1056.16 142.297 1050.17 143.428C1044.19 144.557 1049.48 157.247 1043.39 158.697C1043.38 158.699 1043.37 158.701 1043.36 158.703C1045.72 158.512 1048.73 157.253 1048.89 152.094C1049.09 145.339 1060.3 144.294 1059.28 133.359C1058.34 123.358 1051.89 125.669 1047.82 119.826Z" fill="#E6E7E8"/>
<path d="M1045.1 116.736C1041.78 113.812 1038.34 113.605 1035.6 114.414C1032.34 115.374 1029.88 118.314 1029.28 122.579C1028.8 125.962 1027.88 127.228 1023.47 128.986C1019.07 130.741 1018.62 135.624 1023.47 139.106C1028.33 142.588 1024.15 149.411 1027.2 152.819C1029.22 155.074 1031.08 154.336 1032.21 154.332L1032.21 154.329C1026.57 152.882 1029.95 148.361 1031.27 143.015C1032.59 137.67 1024.7 133.83 1029.5 130.782C1034.65 127.511 1031.56 122.9 1033.79 118.582C1036.68 113 1044.9 116.68 1045.1 116.736Z" fill="#A4C77A"/>
<path d="M1044.82 132.204C1044.75 132.352 1044.51 132.876 1044.34 133.139C1044.14 133.449 1043.39 135.626 1043.23 136.212C1043.08 136.797 1042.83 139.593 1042.55 140.229C1042.28 140.868 1042.02 142.208 1042.02 142.952C1042.02 143.696 1041.74 145.013 1041.17 145.566C1040.61 146.119 1040.33 149.957 1040.32 150.487C1040.31 151.018 1040.27 155.529 1040.32 156.811C1040.37 158.09 1040.56 162.458 1040.74 163.887C1040.93 165.317 1041.36 172.113 1041.35 172.245C1041.34 172.322 1041.33 173.291 1041.33 174.098H1042.44C1041.94 173.477 1041.48 164.611 1041.15 163.087C1040.81 161.563 1040.88 155.273 1040.77 153.504C1040.66 151.735 1040.79 147.464 1041.67 146.088C1042.65 144.557 1042.05 142.887 1042.54 141.607C1043.03 140.328 1043.14 137.541 1043.37 136.752C1043.59 135.961 1043.97 134.115 1044.57 132.964C1044.83 132.474 1044.86 132.276 1044.82 132.204Z" fill="#D2D3D4"/>
<path d="M1039.56 146.606C1039.56 146.594 1039.57 146.583 1039.57 146.574C1039.97 145.021 1039.04 143.51 1038.67 143.101C1038.3 142.69 1037.16 140.32 1036.81 139.756C1036.45 139.189 1035.42 136.818 1035.19 136.141C1034.97 135.48 1034.62 133.846 1034.6 133.77C1034.51 133.945 1034.71 134.945 1034.71 134.945C1036.09 140.864 1039.74 144.016 1039.56 146.606Z" fill="#D2D3D4"/>
<path d="M1139.53 9.97742V101.302C1136.59 102.8 1132.76 103.607 1127.84 103.458C1127.42 103.458 1126.95 103.429 1126.49 103.4C1125.89 103.368 1125.27 103.31 1124.61 103.251C1124.61 103.251 1124.19 103.22 1123.44 103.13C1121.04 102.831 1115.38 101.932 1110.37 99.4433C1110.34 99.4433 1110.34 99.4141 1110.34 99.4141C1110.01 99.2657 1109.71 99.1128 1109.41 98.933C1107.77 98.0361 1106.21 96.9255 1104.92 95.6082C1104.53 95.2193 1104.17 94.8304 1103.84 94.3808C1103.72 94.2324 1103.6 94.0526 1103.45 93.8705C1103.36 93.6907 1103.27 93.5108 1103.15 93.3602C1103.06 93.2388 1102.97 93.1219 1102.88 92.9691C1102.85 92.8791 1102.79 92.7915 1102.73 92.7015C1102.7 92.6408 1102.67 92.5509 1102.64 92.4902C1102.43 92.1013 1102.25 91.6832 1102.07 91.2314C1102.02 91.0515 1101.95 90.8402 1101.89 90.6626C1101.78 90.3614 1101.71 90.0332 1101.66 89.7319C1101.53 89.2531 1101.44 88.7743 1101.42 88.2932C1101.39 87.9043 1101.36 87.4862 1101.36 87.0658C1101.36 85.6563 1101.57 84.1592 1102.05 82.5114C1102.11 82.2731 1102.17 82.0325 1102.23 81.7943C1106.57 63.3966 1072.45 47.4583 1101.78 34.0333C1119.82 25.7943 1112.71 10.9935 1125.51 5.69048C1130.06 3.80666 1135.24 5.96249 1139.53 9.97742Z" fill="#577338"/>
<path d="M1139.53 9.97549V18.0346C1136.44 15.6067 1132.97 14.141 1129.76 15.818C1121.37 20.1634 1126.02 33.9751 1116.55 36.612C1107.08 39.2197 1096.35 42.2455 1102.07 50.1855C1107.77 58.1546 1113.19 77.3615 1109 83.9234C1108.51 84.672 1108.13 85.4521 1107.82 86.2906C1106.48 89.8874 1106.69 94.4081 1109.41 98.9333C1107.77 98.0364 1106.21 96.9259 1104.92 95.6086C1104.53 95.2197 1104.17 94.8307 1103.84 94.3811C1103.72 94.2328 1103.6 94.0529 1103.45 93.8708C1103.36 93.691 1103.27 93.5112 1103.15 93.3605C1103.06 93.2392 1102.97 93.1223 1102.88 92.9694C1102.85 92.8795 1102.79 92.7918 1102.73 92.7019C1102.7 92.6412 1102.67 92.5513 1102.64 92.4906C1102.43 92.1017 1102.25 91.6835 1102.07 91.2317C1102.02 91.0518 1101.95 90.8405 1101.89 90.6629C1101.78 90.3617 1101.71 90.0335 1101.66 89.7323C1101.53 89.2534 1101.44 88.7746 1101.42 88.2935C1101.39 87.9046 1101.36 87.4865 1101.36 87.0661C1101.36 85.6566 1101.57 84.1595 1102.05 82.5117C1102.11 82.2734 1102.17 82.0329 1102.23 81.7946C1106.57 63.397 1072.45 47.4586 1101.78 34.0336C1119.82 25.7947 1112.71 10.9938 1125.51 5.6908C1130.06 3.80473 1135.24 5.96057 1139.53 9.97549Z" fill="#6B8D44"/>
<path d="M1113.28 118.516C1110.03 122.182 1107.47 126.366 1105.59 130.895C1104.25 134.108 1101.73 136.756 1096.99 134.292C1087.65 129.434 1081.42 141.542 1072.17 130.32C1062.92 119.098 1069.83 113.064 1062.44 102.211C1055.06 91.3575 1069.59 86.1579 1076.52 88.0462C1083.46 89.9323 1087.48 78.3843 1095.32 79.6994C1103.16 81.0145 1111.29 85.1508 1110.24 96.5931C1109.33 106.446 1122.28 108.397 1113.28 118.516Z" fill="#8EAD6A"/>
<path d="M1095.32 79.6994C1089.45 78.7148 1085.72 84.9373 1081.31 87.3359C1081.31 87.3359 1091.95 84.2809 1097.96 88.4554C1102.22 91.4183 1105.31 94.3856 1104.42 100.39C1103.86 104.171 1114.09 110.576 1114.52 116.992C1120.96 108.173 1109.38 105.927 1110.24 96.5932C1111.29 85.1508 1103.16 81.0145 1095.32 79.6994Z" fill="#E6E7E8"/>
<path d="M1062.44 102.212C1069.83 113.065 1062.92 119.099 1072.17 130.321C1081.42 141.54 1087.65 129.433 1096.99 134.293C1101.62 136.698 1104.13 134.232 1105.48 131.125C1099.25 134.572 1095.34 125.51 1089.86 124.633C1084.07 123.712 1078.48 121.032 1079.01 111.788C1079.53 102.544 1068.25 100.795 1066.05 96.205C1063.87 91.6483 1070.96 87.9032 1071.07 87.8447C1064.19 88.7799 1056.71 93.7794 1062.44 102.212Z" fill="#99BA72"/>
<path d="M1138.76 59.7166C1137.02 62.8706 1135.87 67.9713 1135.2 70.1676C1134.53 72.3391 1134.09 80.061 1132.67 83.5994C1131.25 87.1355 1132.82 91.8091 1130.03 95.9993C1127.52 99.7692 1126.9 111.63 1127.14 116.555C1127.35 121.476 1126.82 138.911 1127.7 143.171C1128.55 147.429 1129.34 172.067 1130.72 173.825L1122.21 173.668C1122.21 173.668 1123.62 153.411 1122.8 141.877C1122.58 139.01 1122.48 135.27 1122.45 131.151C1121.61 129.378 1119.58 126.152 1115.55 124.095C1109.76 121.125 1086.33 123 1081.33 112.639C1081.33 112.639 1080.61 110.719 1082.13 112.931C1083.67 115.168 1089.1 117.252 1090.25 117.6C1091.42 117.971 1098.01 119.878 1100.54 119.923C1103.08 119.97 1110.55 121.541 1108.83 119.853C1107.08 118.189 1106.98 112.59 1103.59 110.117C1100.22 107.669 1098 105.645 1098.35 105.502C1098.68 105.38 1103.5 108.408 1105.25 109.946C1107 111.486 1107.81 115.339 1108.67 116.31C1109.55 117.281 1110.16 120.981 1112.83 120.757C1115.04 120.572 1120.04 123.05 1122.47 125.855C1122.58 114.763 1123.2 102.676 1124.07 97.9753C1125.41 90.6963 1114.91 81.7178 1111.26 64.7049C1111.26 64.7049 1110.51 60.4989 1111.32 61.4431C1112.13 62.412 1113.88 69.7742 1114.61 70.9162C1115.31 72.0851 1120.35 81.9156 1121.48 83.1925C1122.61 84.4671 1125.29 91.6202 1126.37 90.5862C1127.44 89.5768 1129.38 86.2497 1129.96 82.4956C1130.55 78.7414 1132.81 70.851 1133.48 68.3534C1134.16 65.8559 1136.35 59.521 1138.8 57.6844C1138.8 57.6822 1140.48 56.5357 1138.76 59.7166Z" fill="#7C5833"/>
<path d="M1139.49 57.5996C1139.29 58.011 1138.6 59.4542 1138.11 60.1758C1137.53 61.0211 1135.35 67.0345 1134.88 68.6508C1134.4 70.2671 1133.58 78.0182 1132.78 79.7739C1131.98 81.5318 1131.2 85.2388 1131.16 87.3047C1131.12 89.3706 1130.26 93.0169 1128.67 94.523C1127.07 96.0292 1126.11 106.671 1126.05 108.148C1125.99 109.625 1125.66 122.146 1125.73 125.703C1125.78 129.259 1126.08 141.396 1126.53 145.38C1126.98 149.361 1127.83 168.255 1127.77 168.622C1127.74 168.831 1127.68 171.522 1127.63 173.767L1130.73 173.823C1129.35 172.075 1128.55 147.43 1127.69 143.176C1126.82 138.923 1127.36 121.47 1127.13 116.549C1126.91 111.63 1127.51 99.7743 1130.03 95.9999C1132.82 91.8029 1131.24 87.1338 1132.66 83.6022C1134.09 80.0706 1134.55 72.342 1135.21 70.1592C1135.88 67.9764 1137.02 62.8712 1138.75 59.7082C1139.5 58.3504 1139.6 57.8042 1139.49 57.5996Z" fill="#D2D3D4"/>
<path d="M1124.13 97.3156C1124.14 97.2841 1124.16 97.2616 1124.17 97.2302C1125.35 92.9365 1122.84 88.6968 1121.84 87.5413C1120.84 86.3836 1117.79 79.7385 1116.84 78.1514C1115.89 76.5666 1113.15 69.926 1112.56 68.0332C1111.98 66.183 1111.07 61.6264 1111.03 61.415C1110.76 61.9006 1111.26 64.6881 1111.26 64.6881C1114.81 81.1929 1124.77 90.1332 1124.13 97.3156Z" fill="#D2D3D4"/>
<path d="M1029.07 177.122C1042.42 177.122 1055.76 177.122 1069.11 177.122C1070.23 173.525 1068.51 169.83 1065.52 168.591C1063.21 167.636 1060.39 168.247 1058.39 170.131C1058.74 164.801 1055.45 160.213 1051.27 159.161C1046.07 157.848 1039.65 162.065 1038.96 168.975C1036.41 167.541 1033.24 167.856 1031.06 169.746C1028.98 171.554 1028.19 174.478 1029.07 177.122Z" fill="#577338"/>
<path d="M1031.06 171.635C1033.24 169.746 1036.41 169.434 1038.96 170.866C1039.66 163.956 1046.07 159.738 1051.27 161.049C1055.45 162.103 1058.74 166.689 1058.39 172.021C1060.39 170.138 1063.21 169.526 1065.52 170.479C1067.63 171.356 1069.08 173.46 1069.38 175.886C1069.81 172.712 1068.16 169.686 1065.52 168.591C1063.21 167.636 1060.39 168.247 1058.39 170.131C1058.74 164.799 1055.45 160.213 1051.27 159.161C1046.07 157.848 1039.65 162.065 1038.96 168.975C1036.41 167.541 1033.24 167.856 1031.06 169.746C1029.31 171.273 1028.54 173.591 1028.86 175.872C1029.08 174.26 1029.8 172.736 1031.06 171.635Z" fill="#6B8D44"/>
<path d="M1065.52 168.593C1064.81 168.3 1064.06 168.201 1063.3 168.192C1064.46 170.004 1065.1 172.095 1062.63 172.855C1059.04 173.961 1038.31 174.046 1028.85 174.028C1028.71 175.051 1028.73 176.101 1029.08 177.121C1042.42 177.121 1055.77 177.121 1069.11 177.121C1070.23 173.527 1068.51 169.829 1065.52 168.593Z" fill="#E6E7E8"/>
<path d="M1130.88 152.477C1133.98 153.084 1136.97 154.521 1139.53 156.726V177.048H1079.85C1079.85 176.958 1079.9 176.733 1079.94 176.396C1079.96 176.306 1079.99 176.194 1080.01 176.081C1080.05 175.877 1080.1 175.632 1080.16 175.34C1080.21 175.182 1080.23 175.023 1080.28 174.843C1080.34 174.618 1080.41 174.348 1080.5 174.103C1080.66 173.564 1080.84 172.979 1081.09 172.37C1081.78 170.594 1082.86 168.526 1084.5 166.638C1085.83 165.109 1087.54 163.69 1089.7 162.636C1096.56 159.264 1105.19 160.838 1110.94 166.683C1111.08 165.986 1112.99 156.681 1121.3 153.284C1123.15 152.543 1125.1 152.16 1127.1 152.138C1128 152.093 1128.88 152.138 1129.76 152.273C1130.14 152.32 1130.5 152.387 1130.88 152.477Z" fill="#577338"/>
<path d="M1139.53 172.373V177.049H1079.85C1079.85 176.959 1079.89 176.734 1079.94 176.397C1079.96 176.307 1079.98 176.195 1080 176.083C1080.05 175.878 1080.09 175.633 1080.16 175.341C1080.21 175.183 1080.23 175.024 1080.27 174.844C1080.34 174.619 1080.41 174.349 1080.5 174.104C1080.66 173.565 1080.84 172.98 1081.09 172.371H1139.53V172.373Z" fill="#E6E7E8"/>
<path d="M1139.54 156.727V162.819C1137.02 160.458 1134.21 158.817 1131.33 158.143C1130.95 158.03 1130.57 157.963 1130.16 157.895C1129.17 157.761 1128.16 157.718 1127.15 157.808C1121.95 158.28 1116.72 162.057 1112.45 170.284C1102.78 163.855 1093.43 162.099 1084.5 166.642C1085.83 165.114 1087.54 163.695 1089.7 162.641C1096.55 159.269 1105.19 160.843 1110.94 166.687C1111.08 165.991 1112.99 156.686 1121.3 153.289C1123.15 152.547 1125.1 152.165 1127.1 152.143C1128 152.098 1128.88 152.143 1129.76 152.278C1130.14 152.325 1130.5 152.392 1130.88 152.482C1133.98 153.085 1136.97 154.523 1139.54 156.727Z" fill="#6B8D44"/>
<path d="M372.85 145.592C372.85 145.592 389.293 149.947 389.82 132.558C390.237 118.803 413.064 116.673 410.979 94.409C409.071 74.0531 395.92 78.7575 387.641 66.86C379.362 54.9624 369.899 53.7374 362.77 55.8361C356.136 57.7891 351.118 63.7806 349.892 72.4615C348.917 79.3517 347.045 81.929 338.076 85.5038C329.107 89.0786 328.187 99.0214 338.076 106.112C347.965 113.203 339.457 127.093 345.666 134.035C351.875 140.975 357.396 133.963 358.085 139.293C358.775 144.623 368.872 148.345 372.85 145.592Z" fill="#99BA72"/>
<path d="M370.445 177.37C370.445 177.37 371.212 162.499 370.445 154.066C369.679 145.632 369.9 127.235 370.787 121.869C371.672 116.502 363.853 110.062 360.941 97.6438C360.941 97.6438 360.327 94.5778 360.941 95.2673C361.553 95.9568 362.934 101.324 363.471 102.168C364.007 103.011 367.841 110.14 368.685 111.059C369.528 111.978 371.597 117.191 372.365 116.425C373.131 115.658 374.51 113.205 374.894 110.447C375.277 107.687 376.81 101.861 377.27 100.02C377.73 98.181 379.263 93.5033 381.027 92.1243C381.027 92.1243 382.254 91.2708 381.027 93.6138C379.801 95.9568 379.034 99.714 378.574 101.322C378.114 102.931 377.884 108.606 376.887 111.212C375.891 113.819 377.118 117.22 375.125 120.334C373.332 123.136 373.054 131.832 373.284 135.435C373.515 139.038 373.361 151.841 374.05 154.944C374.741 158.049 375.66 176.103 376.696 177.367H370.445V177.37Z" fill="#7C5833"/>
<path d="M387.64 66.8594C386.49 65.2076 385.317 63.7817 384.13 62.5215C384.14 62.6805 384.94 74.2433 398.414 79.726C411.982 85.2455 404.623 112.612 392.435 114.913C380.246 117.213 391.019 143.051 378.617 146C378.601 146.005 378.589 146.012 378.572 146.017C383.374 145.63 389.501 143.063 389.819 132.558C390.236 118.803 413.063 116.672 410.978 94.4084C409.072 74.0525 395.919 78.757 387.64 66.8594Z" fill="#E6E7E8"/>
<path d="M382.111 60.5673C375.359 54.6144 368.35 54.1943 362.77 55.8361C356.136 57.7892 351.118 63.7806 349.892 72.4615C348.917 79.3517 347.045 81.929 338.076 85.5038C329.107 89.0786 328.187 99.0214 338.076 106.112C347.965 113.203 339.457 127.093 345.666 134.035C349.771 138.622 353.565 137.122 355.871 137.112V137.111C344.372 134.162 351.271 124.955 353.953 114.07C356.636 103.184 340.576 95.3646 350.35 89.1539C360.827 82.498 354.549 73.1092 359.09 64.3162C364.954 52.9592 381.695 60.4502 382.111 60.5673Z" fill="#A4C77A"/>
<path d="M381.532 92.0615C381.395 92.3644 380.906 93.4322 380.556 93.9677C380.145 94.5953 378.63 99.032 378.305 100.224C377.981 101.414 377.482 107.107 376.919 108.406C376.357 109.705 375.837 112.431 375.837 113.947C375.837 115.463 375.253 118.148 374.105 119.274C372.956 120.399 372.396 128.213 372.372 129.294C372.351 130.377 372.28 139.561 372.372 142.165C372.464 144.773 372.848 153.665 373.231 156.578C373.614 159.49 374.496 173.329 374.458 173.597C374.436 173.751 374.426 175.724 374.423 177.371H376.694C375.658 176.106 374.739 158.053 374.048 154.948C373.358 151.846 373.512 139.043 373.281 135.439C373.052 131.836 373.328 123.138 375.122 120.338C377.115 117.224 375.889 113.822 376.884 111.216C377.882 108.608 378.111 102.937 378.571 101.327C379.032 99.7165 379.798 95.9593 381.025 93.618C381.552 92.6121 381.617 92.2105 381.532 92.0615Z" fill="#D2D3D4"/>
<path d="M370.82 121.384C370.826 121.363 370.842 121.346 370.848 121.323C371.653 118.158 369.755 115.085 369.007 114.252C368.259 113.418 365.931 108.588 365.212 107.438C364.494 106.289 362.395 101.459 361.935 100.08C361.484 98.7308 360.761 95.4037 360.728 95.248C360.537 95.6079 360.941 97.6446 360.941 97.6446C363.769 109.696 371.19 116.113 370.82 121.384Z" fill="#D2D3D4"/>
<path d="M570.799 35.1494V44.7012C570.799 44.7012 575.423 40.7942 580.602 42.5476C583.81 43.6334 588.252 44.7012 593.594 40.666C593.594 40.666 586.899 42.3902 583.95 37.8448C581 33.2971 575.58 31.9775 570.799 35.1494Z" fill="#EE554C"/>
<path d="M571.855 34.5293C571.596 38.162 571.787 40.981 572.858 43.3864C574.69 42.4467 577.549 41.5138 580.602 42.5479C581.002 42.685 581.42 42.8199 581.858 42.9435C581.573 41.1654 582.13 38.6454 583.171 36.7908C580.355 33.4053 575.96 32.3959 571.855 34.5293Z" fill="#F06C55"/>
<path d="M580.408 42.4858C580.262 39.7096 581.301 36.9625 581.946 35.5508C579.401 33.3859 576.02 32.7835 572.738 34.121C572.367 37.8909 573.122 40.9482 574.066 42.841C574.802 42.5555 575.631 42.315 576.524 42.1869C576.04 37.5852 576.98 35.3125 577.459 38.5586C577.675 40.0355 578.007 41.2202 578.369 42.1104C579.032 42.1509 579.713 42.2678 580.408 42.4858Z" fill="#FD7259"/>
<path d="M587.583 40.54C587.722 41.2684 587.824 42.5048 587.203 43.4467C589.148 43.1972 591.285 42.4081 593.592 40.6637C593.592 40.6637 590.492 41.4617 587.583 40.54Z" fill="#F06C55"/>
<path d="M570.811 34.971V179.619C570.681 179.632 570.55 179.632 570.407 179.632C570.263 179.632 570.132 179.632 570.002 179.619V34.971C570.002 34.7485 570.184 34.5664 570.407 34.5664C570.443 34.5664 570.474 34.5911 570.51 34.6046V34.5934C570.548 34.6069 570.589 34.6204 570.627 34.6451C570.665 34.6721 570.692 34.6968 570.719 34.7373C570.757 34.7642 570.771 34.8024 570.784 34.8429C570.8 34.8811 570.811 34.9328 570.811 34.971Z" fill="white"/>
<path d="M570.811 34.9695V179.617C570.681 179.63 570.55 179.63 570.407 179.63C570.263 179.63 570.132 179.63 570.002 179.617V176.697C570.483 177.257 570.51 175.874 570.51 175.874V34.5918C570.548 34.6053 570.589 34.6188 570.627 34.6435C570.665 34.6705 570.692 34.6952 570.719 34.7357C570.744 34.7626 570.771 34.8009 570.784 34.8413C570.8 34.8795 570.811 34.9312 570.811 34.9695Z" fill="#E6E7E8"/>
<path d="M570.839 35.1475H570V44.6992H570.839V35.1475Z" fill="#F06C55"/>
<path d="M570 43.6944C570.699 41.6914 570.602 36.5952 570.558 35.1475H570V43.6944Z" fill="#FD7259"/>
<path d="M534.54 22.8714C533.216 22.8714 532.018 23.4087 531.15 24.2764C530.21 21.4822 527.574 19.4657 524.462 19.4657C522.102 19.4657 520.018 20.6279 518.737 22.4061C517.284 19.7804 514.486 18 511.273 18C507.373 18 504.093 20.6212 503.077 24.1932C502.218 23.3795 501.065 22.8737 499.79 22.8737C497.145 22.8737 495 25.0183 495 27.6642C495 30.31 497.145 32.4546 499.79 32.4546C501.407 32.4546 502.828 31.6498 503.695 30.4247C505.112 33.1717 507.971 35.0556 511.276 35.0556C514.49 35.0556 517.287 33.2752 518.739 30.6472C520.02 32.4277 522.104 33.5876 524.465 33.5876C527.018 33.5876 529.248 32.2276 530.489 30.1954C531.334 31.5487 532.829 32.4546 534.542 32.4546C537.188 32.4546 539.333 30.31 539.333 27.6642C539.333 25.0183 537.186 22.8714 534.54 22.8714Z" fill="white"/>
<path d="M693.263 20.8393C691.948 20.8393 690.76 21.3727 689.898 22.2343C688.964 19.4587 686.347 17.4565 683.256 17.4565C680.914 17.4565 678.845 18.6105 677.571 20.3761C676.128 17.7678 673.351 16 670.159 16C666.287 16 663.029 18.6015 662.021 22.1506C661.168 21.3426 660.025 20.8393 658.757 20.8393C656.129 20.8393 654 22.9687 654 25.5959C654 28.2231 656.129 30.3526 658.757 30.3526C660.362 30.3526 661.772 29.5535 662.635 28.337C664.041 31.0646 666.879 32.934 670.159 32.934C673.35 32.934 676.128 31.1673 677.571 28.558C678.845 30.3236 680.914 31.4776 683.256 31.4776C685.792 31.4776 688.008 30.1271 689.239 28.1093C690.079 29.453 691.561 30.3537 693.262 30.3537C695.889 30.3537 698.019 28.2242 698.019 25.597C698.019 22.9698 695.89 20.8393 693.263 20.8393Z" fill="white"/>
<path d="M710.964 34.3672C710.169 34.3672 709.441 34.6294 708.842 35.0636C707.731 32.6663 705.31 31 702.494 31C700.088 31 697.966 32.2143 696.705 34.0636C695.905 33.4844 694.929 33.1339 693.866 33.1339C691.179 33.1339 689 35.3125 689 37.9999C689 40.6874 691.179 42.8671 693.866 42.8671C694.929 42.8671 695.905 42.5167 696.705 41.9374C697.966 43.7856 700.087 45.001 702.494 45.001C705.309 45.001 707.73 43.3347 708.842 40.9374C709.441 41.3705 710.169 41.6339 710.964 41.6339C712.971 41.6339 714.598 40.0066 714.598 37.9999C714.597 35.9933 712.97 34.3672 710.964 34.3672Z" fill="white"/>
<path d="M798.362 17.4939C796.827 17.4939 795.422 17.9997 794.268 18.8348C792.126 14.2136 787.458 11 782.025 11C777.384 11 773.293 13.3418 770.862 16.9084C769.317 15.7913 767.436 15.1154 765.385 15.1154C760.202 15.1154 756 19.317 756 24.5C756 29.683 760.202 33.8846 765.385 33.8846C767.436 33.8846 769.317 33.2087 770.862 32.0916C773.293 35.6582 777.382 38 782.025 38C787.456 38 792.124 34.7864 794.268 30.1652C795.422 31.0003 796.827 31.5061 798.362 31.5061C802.232 31.5061 805.368 28.3679 805.368 24.5C805.368 20.6321 802.232 17.4939 798.362 17.4939Z" fill="white"/>
<path d="M767.639 131.889C767.639 131.889 771.873 136.043 775.201 130.702C778.529 125.362 771.795 117.023 777.473 112.006C783.151 106.988 794.552 98.1534 787.313 92.7394C773.885 82.697 787.405 69.0587 768.363 74.6469C754.131 78.8232 751.687 68.7998 744.139 85.4917C736.591 102.184 751.652 101.844 749.024 108.664C746.394 115.484 743.012 118.421 748.753 123.365C754.496 128.308 753.602 140.744 767.639 131.889Z" fill="#577338"/>
<path d="M746.123 81.5009C752.242 70.5378 755.453 78.4328 768.365 74.6449C787.407 69.0568 773.886 82.6951 787.315 92.7374C794.554 98.1514 783.153 106.987 777.476 112.004C771.797 117.022 778.531 125.361 775.203 130.7C773.18 133.947 770.826 133.682 769.288 132.977C769.089 132.637 768.894 132.287 768.729 131.881C762.184 115.784 787.776 101.773 780.907 97.7686C774.04 93.7642 778.753 83.6895 775.56 78.3268C772.368 72.963 762.218 81.608 755.884 79.0969C751.2 77.2398 747.654 79.9574 746.123 81.5009Z" fill="#6B8D44"/>
<path d="M761.459 116.832C761.37 116.417 761.367 116.098 761.434 116.428C761.455 116.532 761.461 116.671 761.459 116.832Z" fill="#273D5D"/>
<path d="M773.959 143.533C773.14 146.584 773.544 147.375 773.308 150.015C773.072 152.652 773.052 155.428 772.988 156.796C772.922 158.166 773.52 159.518 772.75 161.799C771.979 164.08 771.151 169.893 771.264 174.533L771.632 177.24L766.738 177.009C766.738 177.009 765.739 175.509 766.614 168.684C766.777 167.41 768.248 166.568 768.328 164.873C768.407 163.181 768.427 161.899 768.286 161.352C768.146 160.81 765.94 158.719 766.207 155.419C766.475 152.12 765.876 146.13 765.902 143.261C765.925 140.392 766.347 138.536 765.568 136.291C764.791 134.048 765.388 130.764 765.388 130.764C765.388 130.764 765.132 129.757 764.76 128.942C764.364 128.876 763.987 128.83 763.949 128.743C763.889 128.612 761.845 128.192 761.588 127.792C761.333 127.393 760.793 127.239 760.424 126.878C760.054 126.515 759.478 126.403 759.098 126.246C758.718 126.09 757.551 124.827 758.003 124.849C758.453 124.871 758.895 125.085 759.648 125.547C760.401 126.009 761.351 126.363 761.637 126.764C761.841 127.045 762.94 126.989 763.578 126.929C763.105 125.886 762.571 124.522 761.903 123.979C760.894 123.156 758.776 120.075 758.352 119.724C757.926 119.374 758.388 118.926 758.388 118.926C758.388 118.926 759.824 120.676 759.95 120.877C760.08 121.077 760.62 121.35 760.897 121.862C761.028 122.1 761.391 122.398 761.779 122.717C761.74 122.622 761.383 121.759 761.523 121.339C761.674 120.895 761.343 119.718 761.311 119.007C761.288 118.438 761.446 117.467 761.459 116.835C761.509 117.075 761.586 117.346 761.699 117.54C762.001 118.071 761.589 118.707 761.935 119.526C762.281 120.342 762.19 120.919 762.282 121.698C762.374 122.477 761.992 122.737 762.434 123.297C762.624 123.487 762.782 123.674 762.875 123.857C763.228 124.566 763.546 124.857 764.026 125.762C764.508 126.669 765.569 127.573 765.569 127.573C765.569 127.573 766.629 127.898 766.213 126.224C765.795 124.548 765.743 118.061 766.009 115.922C766.276 113.782 766.78 113.641 766.224 111.376C765.671 109.115 765.596 107.209 765.235 106.032C764.878 104.857 765.03 103.372 763.577 102.642C762.119 101.91 758.612 99.095 757.564 98.4656C756.517 97.8372 754.993 96.7714 753.948 96.1408C752.901 95.5125 754.131 95.2123 755.165 96.0884C756.201 96.9656 756.666 96.4634 757.406 97.1341C758.148 97.8049 758.301 97.479 759.949 98.8004C761.598 100.121 763.153 100.487 763.481 101.137C763.809 101.788 765.329 103.498 765.408 102.396C765.489 101.298 766.255 100.864 765.207 99.6553C764.161 98.4466 763.586 95.6888 763.274 95.287C762.964 94.8853 762.158 94.1297 761.281 92.8183C760.406 91.5069 760.872 91.0047 759.576 90.3909C758.304 89.7882 757.036 86.988 756.987 86.8775C757.106 86.9634 760.935 89.7257 761.109 90.6029C761.289 91.4947 762.908 92.2313 763.513 93.4757C764.117 94.7178 765.161 95.9823 765.444 96.989C765.728 97.9957 766.716 99.3127 766.819 97.1096C766.924 94.9053 767.519 95.0995 766.773 92.1944C766.028 89.2893 765.472 89.3741 766.011 87.3005C766.552 85.2313 767.541 87.642 767.753 90.142C767.753 90.142 768.301 94.9143 767.94 97.8785C767.58 100.843 768.002 110.575 767.965 113.666C767.927 116.755 768.741 120.546 768.6 123.52L767.86 139.16C767.646 143.677 769.268 149.05 769.212 152.58C769.155 156.111 769.922 158.573 770.771 154.642C771.618 150.707 772.19 147.975 771.969 145.647C771.749 143.318 771.841 139.128 772.478 137.282C773.115 135.436 772.482 130.215 772.989 126.487C773.493 122.758 774.321 119.267 774.521 117.4C774.719 115.532 775.464 118.438 774.94 120.179C774.415 121.92 774.935 123.16 774.734 127.123C774.533 131.088 774.837 132.202 774.309 136.097C773.783 139.992 774.778 140.481 773.959 143.533Z" fill="#7C5833"/>
<path d="M742.222 95.9609C742.851 97.4196 743.732 98.8214 744.958 99.6518C748.408 101.985 754.158 104.974 749.91 111.83C745.662 118.686 752.161 121.748 754.206 128.203C755.536 132.403 758.047 134.426 760.367 134.941C753.678 135.677 753.245 127.23 748.755 123.363C743.013 118.418 746.397 115.481 749.026 108.662C750.925 103.734 743.59 102.54 742.222 95.9609Z" fill="#E6E6E6"/>
<path d="M770.041 156.602C770.041 156.603 769.831 158.121 769.954 158.45C770.075 158.779 770.423 158.255 771.016 156.65C771.608 155.045 771.964 154.351 772.036 152.806C772.109 151.262 772.272 149.204 772.302 148.56C772.332 147.917 772.64 141.414 772.683 140.512C772.726 139.61 772.403 138.241 772.836 137.293C773.268 136.346 773.202 130.923 773.229 128.989C773.242 128.136 773.102 127.427 772.94 126.9C772.531 130.592 773.094 135.502 772.48 137.281C771.843 139.127 771.75 143.318 771.971 145.646C772.191 147.975 771.622 150.707 770.773 154.641C770.513 155.839 770.263 156.44 770.041 156.602Z" fill="#D2D3D4"/>
<path d="M765.903 143.261C765.878 146.129 766.477 152.12 766.21 155.418C765.944 158.717 768.148 160.808 768.288 161.353C768.428 161.898 768.408 163.18 768.329 164.873C768.32 165.044 768.3 165.206 768.271 165.362C769.15 164.029 768.922 161.926 768.81 160.976C768.671 159.808 768.678 159.679 768.061 157.715C767.444 155.749 767.591 155.369 767.373 154.52C767.156 153.672 766.807 148.75 766.512 147.575C766.215 146.399 766.808 146.04 766.675 144.162C766.541 142.284 766.807 141.975 766.667 140.858C766.526 139.74 767.21 138.896 766.819 137.658C766.425 136.42 766.503 136.152 765.911 135.028C765.32 133.905 765.754 132.891 765.705 132.566C765.656 132.242 765.391 130.762 765.391 130.762C765.391 130.762 764.794 134.045 765.571 136.29C766.348 138.536 765.928 140.392 765.903 143.261Z" fill="#D2D3D4"/>
<path d="M750.478 97.4532C750.478 97.4532 754.517 102.787 759.256 97.0358C763.994 91.2847 772.489 100.951 777.62 89.4622C782.752 77.9734 772.543 69.9679 766.9 74.3741C761.256 78.7814 762.724 60.959 751.589 66.3384C743.572 70.2112 751.604 77.1118 747.924 84.1519C744.246 91.1932 747.001 95.278 750.478 97.4532Z" fill="#8EAD6A"/>
<path d="M748.121 83.6886C751.228 76.8103 743.748 70.1262 751.589 66.3394C762.724 60.96 761.255 78.7824 766.899 74.3751C772.149 70.2769 781.328 76.9197 778.461 87.1105C777.133 83.5636 774.162 81.8114 771.837 83.7868C767.389 87.5681 761.807 75.4409 757.911 76.7835C754.015 78.1262 751.464 70.8907 751.387 77.3014C751.341 81.3092 749.497 82.9911 748.121 83.6886Z" fill="#99BA72"/>
<path d="M761.545 124.018C761.545 124.018 769.724 122.091 765.805 117.594C761.704 112.89 767.913 111.438 766.487 108.188C764.464 103.579 758.099 103.473 756.328 108.571C754.826 112.892 753.663 113.458 749.253 112.993C743.724 112.409 741.856 121.741 748.605 121.433C752.63 121.249 755.572 129.973 761.545 124.018Z" fill="#8EAD6A"/>
<path d="M749.256 112.992C753.666 113.458 754.829 112.892 756.331 108.57C758.102 103.473 764.467 103.578 766.49 108.188C767.083 109.54 766.353 110.583 765.596 111.675C764.244 109.961 760.614 107.674 759.518 112.153C758.156 117.72 751.995 113.568 747.97 115.81C744.773 117.591 747.383 120.364 748.594 121.432C741.864 121.724 743.732 112.408 749.256 112.992Z" fill="#99BA72"/>
<path d="M762.788 121.564C762.788 121.564 763.144 127.599 769.594 125.657C776.043 123.716 777.571 135.244 787.196 129.189C796.821 123.133 793.172 111.991 786.716 112.469C780.261 112.947 790.316 100.292 779.248 98.7414C771.278 97.6264 773.848 106.844 767.549 110.287C761.248 113.729 761.268 118.182 762.788 121.564Z" fill="#99BA72"/>
<path d="M767.929 110.037C773.719 106.43 771.453 97.6511 779.248 98.7415C790.316 100.291 780.262 112.946 786.717 112.468C792.72 112.024 796.281 121.625 789.011 127.843C789.794 124.51 788.441 121.703 785.703 122.019C780.461 122.626 782.356 110.711 778.755 109.764C775.152 108.815 776.868 102.098 773.592 106.878C771.543 109.866 769.313 110.203 767.929 110.037Z" fill="#A4C77A"/>
</svg>
