<svg width="400" height="400" viewBox="0 0 400 400" fill="none" xmlns="http://www.w3.org/2000/svg">
<path d="M322.012 202.377C389.837 241.536 389.836 305.026 322.01 344.186C254.184 383.346 144.216 383.346 76.39 344.186C8.56361 305.026 8.56441 241.536 76.39 202.377C144.217 163.217 254.184 163.217 322.012 202.377Z" fill="#EBEBEB"/>
<path d="M372.879 273.181C372.839 250.19 359.182 227.208 331.922 208.604C331.434 208.274 330.947 207.942 330.458 207.616L85.4648 349.063C85.4648 349.063 85.4648 349.063 85.4656 349.063C85.9648 349.313 86.4728 349.562 86.9776 349.811C119.236 365.615 159.123 373.531 199.026 373.554L372.879 273.181Z" fill="#FAFAFA"/>
<path d="M181.476 188.073C193.423 194.971 193.423 206.153 181.476 213.05C169.53 219.947 150.161 219.947 138.215 213.05C126.268 206.153 126.268 194.97 138.215 188.073C150.161 181.176 169.53 181.176 181.476 188.073Z" fill="#E0E0E0"/>
<path opacity="0.05" d="M287.296 278.164C304.838 288.292 304.838 304.713 287.296 314.841C269.754 324.969 241.312 324.969 223.77 314.841C206.227 304.713 206.228 288.292 223.77 278.164C241.313 268.036 269.754 268.036 287.296 278.164Z" fill="black"/>
<path d="M52.3462 270.8C38.5422 278.77 38.5422 291.692 52.3462 299.661C66.1494 307.631 88.5302 307.631 102.333 299.661C116.137 291.692 116.137 278.771 102.333 270.8C88.5294 262.832 66.1494 262.832 52.3462 270.8Z" fill="#E0E0E0"/>
<path d="M152.769 114.8V200.374C152.769 201.401 153.447 202.428 154.804 203.211C157.518 204.778 161.919 204.778 164.633 203.211C165.989 202.428 166.668 201.401 166.668 200.374V114.8H152.769Z" fill="#B16668"/>
<path d="M205.77 159.09L162.718 55.1221H156.722L113.669 159.098C112.341 162.304 114.278 165.924 117.682 166.6L118.383 166.739C121.214 167.3 123.13 169.953 122.773 172.817C122.278 176.779 126.034 179.932 129.85 178.757L131.976 178.103C134.622 177.288 137.462 178.568 138.606 181.088L140.746 185.808C142.098 188.792 145.744 189.94 148.562 188.268L156.915 183.316C158.646 182.291 160.797 182.291 162.527 183.316L170.88 188.269C173.698 189.94 177.343 188.793 178.697 185.809L180.838 181.088C181.982 178.567 184.82 177.288 187.466 178.101L189.594 178.756C193.41 179.929 197.166 176.775 196.67 172.814V172.812C196.311 169.948 198.225 167.295 201.055 166.732L201.762 166.591C205.162 165.914 207.097 162.295 205.77 159.09Z" fill="#00B4D8"/>
<path opacity="0.3" d="M206.122 159.09L163.07 55.1221H157.074L114.021 159.098C112.693 162.304 114.63 165.924 118.035 166.6L118.736 166.739C121.567 167.3 123.483 169.953 123.125 172.817C122.63 176.779 126.387 179.932 130.203 178.757L132.328 178.103C134.975 177.288 137.814 178.568 138.958 181.088L141.098 185.808C142.451 188.792 146.096 189.94 148.915 188.268L157.268 183.316C158.998 182.291 161.149 182.291 162.88 183.316L171.232 188.269C174.051 189.94 177.696 188.793 179.049 185.809L181.191 181.088C182.334 178.567 185.172 177.288 187.818 178.101L189.946 178.756C193.762 179.929 197.518 176.775 197.022 172.814V172.812C196.664 169.948 198.577 167.295 201.408 166.732L202.115 166.591C205.515 165.914 207.449 162.295 206.122 159.09Z" fill="black"/>
<path opacity="0.1" d="M151.911 66.7373L156.721 55.8101H162.717L170.669 74.3269L196.653 137.075C196.366 138.368 195.471 139.397 193.945 139.648H193.944C191.751 140.008 190.228 142.027 190.485 144.234L190.579 145.032C190.941 148.132 187.885 150.512 184.968 149.4L182.837 148.589C180.774 147.804 178.457 148.766 177.559 150.783L174.917 156.71C173.903 158.987 171.127 159.866 168.987 158.588L161.85 153.833C160.537 153.05 158.9 153.05 157.587 153.833L149.621 158.588C147.481 159.866 144.705 158.987 143.69 156.71L141.049 150.783C140.15 148.766 137.833 147.803 135.769 148.589L133.64 149.4C130.722 150.512 127.666 148.132 128.029 145.031L128.121 144.235C128.379 142.028 126.856 140.008 124.663 139.648C123.577 139.47 122.813 138.895 122.357 138.113L151.911 66.7373Z" fill="black"/>
<path d="M196.171 128.86L162.717 50.9663H156.721L122.436 128.862C121.202 131.366 121.907 134.353 124.663 134.805C126.856 135.164 128.38 137.184 128.121 139.391L128.028 140.187C127.666 143.288 130.722 145.668 133.64 144.557L135.769 143.746C137.832 142.96 140.15 143.923 141.048 145.94L143.69 151.866C144.704 154.143 147.48 155.022 149.62 153.746L157.587 148.99C158.9 148.207 160.537 148.207 161.85 148.99L168.987 153.746C171.127 155.022 173.903 154.144 174.917 151.866L177.559 145.939C178.457 143.922 180.775 142.959 182.837 143.745L184.968 144.556C187.885 145.667 190.941 143.288 190.579 140.187L190.485 139.389C190.228 137.182 191.751 135.162 193.944 134.802H193.944C196.7 134.351 197.406 131.366 196.171 128.86Z" fill="#00B4D8"/>
<path opacity="0.2" d="M196.72 129.093L163.266 51.1997H157.27L122.985 129.095C121.751 131.6 122.456 134.586 125.212 135.038C127.404 135.397 128.928 137.417 128.67 139.624L128.577 140.42C128.215 143.521 131.271 145.901 134.188 144.79L136.318 143.979C138.381 143.193 140.699 144.156 141.597 146.173L144.239 152.1C145.253 154.376 148.028 155.256 150.169 153.979L158.136 149.224C159.448 148.44 161.086 148.44 162.399 149.224L169.536 153.979C171.676 155.256 174.452 154.377 175.466 152.1L178.108 146.172C179.006 144.156 181.324 143.192 183.386 143.978L185.516 144.789C188.434 145.9 191.49 143.521 191.128 140.42L191.034 139.622C190.777 137.415 192.3 135.396 194.492 135.036H194.493C197.249 134.585 197.955 131.599 196.72 129.093Z" fill="black"/>
<path opacity="0.1" d="M156.72 50.9663H162.716L187.096 107.73C186.909 107.89 186.705 108.038 186.481 108.163L186.295 108.267C185.012 108.986 184.268 110.389 184.393 111.854V111.854C184.612 114.436 182.209 116.456 179.704 115.796L178.249 115.413C176.572 114.971 174.811 115.737 173.992 117.266L171.996 120.987C171.026 122.798 168.779 123.49 166.958 122.538L161.452 119.663C160.365 119.095 159.069 119.095 157.982 119.663L152.477 122.538C150.656 123.49 148.409 122.798 147.439 120.987L145.444 117.267C144.624 115.738 142.863 114.971 141.185 115.414L139.732 115.797C137.227 116.457 134.823 114.437 135.043 111.855C135.168 110.39 134.424 108.987 133.141 108.269L132.956 108.165C132.547 107.936 132.21 107.634 131.927 107.296L156.72 50.9663Z" fill="black"/>
<path d="M187.838 98.2239L162.692 45.3671L162.496 45.0495C161.938 44.0895 160.91 43.4375 159.719 43.4375C158.529 43.4375 157.501 44.0895 156.942 45.0495L156.741 45.3759L131.6 98.2255C130.479 100.04 131.096 102.421 132.956 103.464L133.142 103.568C134.424 104.287 135.168 105.689 135.043 107.154C134.824 109.736 137.227 111.756 139.733 111.096L141.186 110.713C142.863 110.271 144.625 111.037 145.444 112.566L147.439 116.286C148.41 118.097 150.657 118.789 152.478 117.837L157.982 114.962C159.07 114.394 160.366 114.394 161.453 114.962L166.958 117.837C168.779 118.789 171.026 118.097 171.997 116.286L173.992 112.565C174.811 111.037 176.573 110.27 178.25 110.713L179.704 111.096C182.21 111.756 184.613 109.736 184.393 107.154V107.153C184.268 105.688 185.012 104.286 186.294 103.567L186.481 103.463C188.342 102.42 188.958 100.038 187.838 98.2239Z" fill="#00B4D8"/>
<path opacity="0.1" d="M187.838 98.7864L162.692 45.9296L162.496 45.612C161.938 44.652 160.91 44 159.719 44C158.529 44 157.501 44.652 156.942 45.612L156.741 45.9384L131.6 98.788C130.479 100.602 131.096 102.984 132.956 104.026L133.142 104.13C134.424 104.85 135.168 106.252 135.043 107.717C134.824 110.298 137.227 112.318 139.733 111.658L141.186 111.275C142.863 110.834 144.625 111.6 145.444 113.129L147.439 116.849C148.41 118.659 150.657 119.351 152.478 118.4L157.982 115.525C159.07 114.957 160.366 114.957 161.453 115.525L166.958 118.4C168.779 119.351 171.026 118.659 171.997 116.849L173.992 113.128C174.811 111.599 176.573 110.833 178.25 111.275L179.704 111.658C182.21 112.318 184.613 110.298 184.393 107.717C184.268 106.251 185.012 104.849 186.294 104.13L186.481 104.026C188.342 102.982 188.958 100.601 187.838 98.7864Z" fill="black"/>
<path d="M156.366 203.058C156.306 200.758 154.417 198.91 152.099 198.91C149.781 198.91 147.895 200.758 147.835 203.058C147.831 203.099 147.831 203.137 147.831 203.178C147.831 203.218 147.831 203.256 147.835 203.297C147.884 203.89 148.297 204.47 149.08 204.922C150.746 205.883 153.452 205.883 155.117 204.922C155.901 204.47 156.317 203.889 156.366 203.297C156.369 203.256 156.369 203.218 156.369 203.178C156.369 203.137 156.369 203.1 156.366 203.058Z" fill="#37474F"/>
<path d="M155.117 204.922C155.9 204.471 156.317 203.89 156.366 203.298C156.369 203.257 156.369 203.219 156.369 203.178C156.369 203.138 156.369 203.1 156.366 203.059C156.325 201.496 155.438 200.143 154.147 199.436C154.168 199.477 156.269 202.116 154.716 203.876C153.644 205.091 149.96 205.313 148.343 204.354C148.535 204.558 148.779 204.75 149.079 204.923C150.746 205.883 153.452 205.883 155.117 204.922Z" fill="#263238"/>
<path d="M149.467 205.206C149.424 203.582 148.09 202.277 146.453 202.277C144.816 202.277 143.484 203.582 143.442 205.206C143.439 205.235 143.439 205.262 143.439 205.29C143.439 205.319 143.439 205.346 143.442 205.374C143.476 205.793 143.768 206.203 144.321 206.522C145.498 207.201 147.408 207.201 148.585 206.522C149.138 206.203 149.432 205.793 149.467 205.374C149.469 205.346 149.469 205.319 149.469 205.29C149.469 205.262 149.469 205.235 149.467 205.206Z" fill="#455A64"/>
<path d="M148.585 206.522C149.138 206.204 149.432 205.793 149.467 205.375C149.469 205.345 149.469 205.32 149.469 205.291C149.469 205.262 149.469 205.236 149.467 205.207C149.458 204.855 149.384 204.519 149.264 204.207C149.339 205.499 148.726 206.283 146.823 206.525C144.859 206.776 143.674 205.961 143.511 205.668C143.629 205.981 143.899 206.28 144.322 206.523C145.498 207.201 147.408 207.201 148.585 206.522Z" fill="#37474F"/>
<path d="M171.569 202.19C171.527 200.578 170.202 199.283 168.578 199.283C166.953 199.283 165.631 200.579 165.59 202.19C165.588 202.219 165.588 202.245 165.588 202.274C165.588 202.302 165.588 202.329 165.59 202.358C165.624 202.773 165.914 203.18 166.462 203.496C167.629 204.17 169.526 204.17 170.694 203.496C171.243 203.18 171.535 202.773 171.569 202.358C171.572 202.329 171.572 202.302 171.572 202.274C171.571 202.246 171.571 202.219 171.569 202.19Z" fill="#455A64"/>
<path d="M170.693 203.497C171.242 203.181 171.535 202.773 171.568 202.358C171.571 202.329 171.571 202.303 171.571 202.274C171.571 202.245 171.571 202.22 171.568 202.191C171.56 201.841 171.487 201.508 171.368 201.198C171.441 202.481 170.834 203.259 168.944 203.5C166.996 203.749 165.82 202.94 165.657 202.649C165.776 202.961 166.043 203.256 166.462 203.497C167.629 204.17 169.526 204.17 170.693 203.497Z" fill="#37474F"/>
<path d="M84.4017 193.254V285.731C84.4017 286.84 83.6681 287.95 82.2017 288.797C79.2689 290.491 74.5129 290.491 71.5801 288.797C70.1137 287.95 69.3809 286.841 69.3809 285.731V193.254H84.4017Z" fill="#B16668"/>
<path d="M27.1255 241.116L73.6503 128.763H80.1303L126.656 241.125C128.091 244.591 125.998 248.503 122.319 249.232L121.562 249.382C118.502 249.988 116.432 252.856 116.818 255.951C117.353 260.232 113.294 263.639 109.17 262.37L106.873 261.663C104.013 260.783 100.945 262.165 99.7087 264.89L97.3951 269.991C95.9327 273.216 91.9943 274.456 88.9487 272.649L79.9223 267.298C78.0527 266.189 75.7271 266.189 73.8575 267.298L64.8311 272.65C61.7855 274.456 57.8471 273.216 56.3839 269.992L54.0695 264.889C52.8343 262.165 49.7671 260.783 46.9071 261.662L44.6071 262.369C40.4831 263.637 36.4239 260.229 36.9607 255.948V255.945C37.3479 252.851 35.2791 249.984 32.2215 249.376L31.4567 249.224C27.7823 248.491 25.6911 244.58 27.1255 241.116Z" fill="#00B4D8"/>
<path opacity="0.3" d="M27.6548 241.116L74.1796 128.763H80.6596L127.185 241.125C128.62 244.591 126.528 248.503 122.848 249.232L122.091 249.382C119.032 249.988 116.961 252.856 117.348 255.951C117.882 260.232 113.823 263.639 109.699 262.37L107.402 261.664C104.542 260.783 101.474 262.165 100.238 264.89L97.9244 269.991C96.462 273.216 92.5236 274.456 89.478 272.649L80.4516 267.298C78.582 266.189 76.2564 266.189 74.3868 267.298L65.3604 272.65C62.3148 274.456 58.3764 273.216 56.9132 269.992L54.5988 264.889C53.3636 262.165 50.2964 260.783 47.4364 261.662L45.1364 262.369C41.0124 263.637 36.9532 260.229 37.49 255.948V255.945C37.8772 252.851 35.8084 249.984 32.7508 249.376L31.986 249.224C28.3116 248.491 26.2204 244.58 27.6548 241.116Z" fill="black"/>
<path opacity="0.1" d="M85.3279 141.316L80.1303 129.507H73.6503L65.0567 149.517L36.9775 217.326C37.2871 218.724 38.2543 219.836 39.9039 220.106H39.9047C42.2743 220.495 43.9199 222.677 43.6415 225.063L43.5407 225.925C43.1495 229.276 46.4519 231.847 49.6047 230.646L51.9071 229.77C54.1367 228.92 56.6407 229.961 57.6119 232.14L60.4671 238.546C61.5631 241.007 64.5631 241.956 66.8759 240.576L74.5887 235.437C76.0071 234.59 77.7767 234.59 79.1959 235.437L87.8055 240.576C90.1183 241.956 93.1183 241.006 94.2143 238.545L97.0687 232.14C98.0399 229.961 100.544 228.92 102.774 229.77L105.074 230.646C108.227 231.847 111.53 229.276 111.138 225.924L111.038 225.064C110.759 222.679 112.405 220.496 114.775 220.108C115.95 219.915 116.774 219.293 117.266 218.448L85.3279 141.316Z" fill="black"/>
<path d="M37.4986 208.448L73.6506 124.272H80.1306L117.181 208.451C118.515 211.158 117.753 214.384 114.775 214.873C112.405 215.262 110.759 217.444 111.037 219.83L111.138 220.691C111.529 224.041 108.227 226.612 105.074 225.412L102.773 224.536C100.543 223.687 98.0394 224.728 97.0682 226.907L94.2138 233.312C93.1178 235.772 90.1186 236.722 87.805 235.342L79.1954 230.204C77.777 229.356 76.0074 229.356 74.5882 230.204L66.8754 235.343C64.5618 236.723 61.5626 235.773 60.4666 233.312L57.6114 226.908C56.641 224.728 54.1362 223.688 51.9066 224.536L49.6042 225.413C46.4514 226.613 43.1498 224.043 43.5402 220.692L43.641 219.83C43.9194 217.445 42.2738 215.263 39.9042 214.874H39.9034C36.9258 214.383 36.1642 211.156 37.4986 208.448Z" fill="#00B4D8"/>
<path opacity="0.2" d="M37.4329 208.448L73.5849 124.272H80.0649L117.115 208.451C118.45 211.158 117.687 214.384 114.709 214.873C112.339 215.262 110.693 217.444 110.971 219.83L111.072 220.691C111.463 224.041 108.161 226.612 105.008 225.412L102.707 224.536C100.478 223.687 97.9737 224.728 97.0025 226.907L94.1481 233.312C93.0521 235.772 90.0529 236.722 87.7393 235.342L79.1297 230.204C77.7113 229.356 75.9417 229.356 74.5225 230.204L66.8097 235.343C64.4961 236.723 61.4969 235.773 60.4009 233.312L57.5457 226.908C56.5753 224.728 54.0705 223.688 51.8409 224.536L49.5385 225.413C46.3857 226.613 43.0841 224.043 43.4745 220.692L43.5753 219.83C43.8537 217.445 42.2081 215.263 39.8385 214.874C36.8609 214.383 36.0985 211.156 37.4329 208.448Z" fill="black"/>
<path opacity="0.1" d="M80.1303 124.271H73.6503L47.3047 185.613C47.5071 185.787 47.7271 185.946 47.9687 186.081L48.1703 186.194C49.5559 186.971 50.3599 188.487 50.2247 190.07V190.071C49.9879 192.86 52.5847 195.043 55.2919 194.331L56.8631 193.916C58.6759 193.439 60.5791 194.267 61.4639 195.919L63.6199 199.94C64.6687 201.897 67.0967 202.644 69.0647 201.616L75.0143 198.509C76.1895 197.895 77.5903 197.895 78.7647 198.509L84.7135 201.616C86.6807 202.644 89.1095 201.896 90.1583 199.939L92.3135 195.919C93.1991 194.267 95.1023 193.439 96.9151 193.916L98.4855 194.33C101.194 195.043 103.791 192.86 103.554 190.07C103.419 188.487 104.223 186.971 105.609 186.194L105.809 186.081C106.251 185.833 106.615 185.507 106.921 185.143L80.1303 124.271Z" fill="black"/>
<path d="M46.5041 175.341L73.6777 118.22L73.8897 117.876C74.4937 116.84 75.6049 116.135 76.8905 116.135C78.1769 116.135 79.2881 116.84 79.8913 117.876L80.1089 118.229L107.277 175.342C108.487 177.303 107.821 179.876 105.811 181.004L105.61 181.116C104.225 181.893 103.421 183.409 103.555 184.992C103.793 187.782 101.195 189.965 98.4873 189.252L96.9169 188.839C95.1041 188.361 93.2009 189.189 92.3153 190.842L90.1601 194.862C89.1113 196.819 86.6825 197.566 84.7153 196.538L78.7665 193.431C77.5921 192.817 76.1905 192.817 75.0161 193.431L69.0665 196.538C67.0993 197.566 64.6705 196.818 63.6217 194.862L61.4657 190.841C60.5801 189.189 58.6769 188.36 56.8649 188.838L55.2937 189.252C52.5865 189.966 49.9897 187.783 50.2265 184.992V184.991C50.3609 183.408 49.5577 181.892 48.1721 181.115L47.9705 181.002C45.9601 179.876 45.2937 177.302 46.5041 175.341Z" fill="#00B4D8"/>
<path opacity="0.1" d="M46.2043 175.206L73.3779 118.085L73.5899 117.741C74.1939 116.704 75.3051 116 76.5907 116C77.8771 116 78.9883 116.704 79.5915 117.741L79.8091 118.094L106.977 175.207C108.187 177.167 107.521 179.741 105.511 180.868L105.311 180.981C103.925 181.758 103.121 183.274 103.255 184.857C103.493 187.647 100.895 189.83 98.1875 189.117L96.6171 188.703C94.8043 188.226 92.9011 189.054 92.0155 190.707L89.8603 194.727C88.8115 196.683 86.3827 197.431 84.4155 196.403L78.4667 193.295C77.2923 192.682 75.8907 192.682 74.7163 193.295L68.7667 196.403C66.7995 197.431 64.3707 196.683 63.3219 194.727L61.1659 190.706C60.2803 189.054 58.3771 188.225 56.5651 188.703L54.9939 189.117C52.2867 189.831 49.6899 187.647 49.9267 184.857V184.855C50.0611 183.272 49.2579 181.756 47.8723 180.979L47.6707 180.867C45.6603 179.74 44.9939 177.167 46.2043 175.206Z" fill="black"/>
<path d="M80.5157 288.632C80.5805 286.147 82.6221 284.148 85.1277 284.148C87.6333 284.148 89.6709 286.146 89.7357 288.632C89.7397 288.676 89.7397 288.716 89.7397 288.76C89.7397 288.804 89.7397 288.845 89.7357 288.889C89.6837 289.53 89.2357 290.158 88.3901 290.645C86.5901 291.684 83.6653 291.684 81.8653 290.645C81.0189 290.158 80.5685 289.529 80.5157 288.889C80.5117 288.845 80.5117 288.804 80.5117 288.76C80.5117 288.716 80.5117 288.676 80.5157 288.632Z" fill="#37474F"/>
<path d="M81.8643 290.646C81.0179 290.158 80.5675 289.529 80.5147 288.889C80.5107 288.845 80.5107 288.805 80.5107 288.761C80.5107 288.717 80.5107 288.677 80.5147 288.632C80.5587 286.943 81.5171 285.481 82.9131 284.716C82.8907 284.761 80.6195 287.612 82.2971 289.514C83.4563 290.827 87.4371 291.067 89.1843 290.031C88.9771 290.252 88.7131 290.46 88.3891 290.646C86.5891 291.685 83.6651 291.685 81.8643 290.646Z" fill="#263238"/>
<path d="M87.971 290.953C88.0166 289.197 89.459 287.786 91.2278 287.786C92.9966 287.786 94.4366 289.197 94.4814 290.953C94.4846 290.984 94.4846 291.013 94.4846 291.044C94.4846 291.075 94.4846 291.104 94.4814 291.135C94.4446 291.587 94.1286 292.031 93.531 292.375C92.2598 293.109 90.1942 293.109 88.923 292.375C88.3254 292.031 88.007 291.587 87.9702 291.135C87.9678 291.104 87.9678 291.075 87.9678 291.044C87.9678 291.013 87.9678 290.984 87.971 290.953Z" fill="#455A64"/>
<path d="M88.924 292.375C88.3264 292.031 88.0079 291.587 87.9711 291.135C87.9687 291.104 87.9688 291.075 87.9688 291.044C87.9688 291.012 87.9687 290.984 87.9711 290.952C87.9815 290.572 88.06 290.209 88.1904 289.872C88.1096 291.268 88.772 292.116 90.8288 292.377C92.9504 292.648 94.2312 291.768 94.408 291.45C94.2792 291.789 93.9888 292.111 93.5312 292.374C92.2608 293.108 90.1952 293.108 88.924 292.375Z" fill="#37474F"/>
<path d="M64.0851 287.694C64.1307 285.953 65.5619 284.553 67.3171 284.553C69.0731 284.553 70.5011 285.953 70.5467 287.694C70.5499 287.726 70.5499 287.754 70.5499 287.785C70.5499 287.816 70.5499 287.844 70.5467 287.875C70.5107 288.324 70.1971 288.765 69.6043 289.106C68.3427 289.834 66.2931 289.834 65.0315 289.106C64.4387 288.765 64.1227 288.324 64.0859 287.875C64.0835 287.844 64.0835 287.816 64.0835 287.785C64.0827 287.754 64.0827 287.726 64.0851 287.694Z" fill="#455A64"/>
<path d="M65.032 289.104C64.4392 288.763 64.1232 288.322 64.0864 287.873C64.084 287.842 64.084 287.814 64.084 287.783C64.084 287.752 64.084 287.724 64.0864 287.692C64.096 287.314 64.1744 286.955 64.304 286.62C64.2248 288.005 64.8808 288.846 66.9232 289.107C69.0288 289.375 70.2992 288.501 70.4744 288.186C70.3472 288.523 70.0584 288.842 69.6048 289.104C68.3432 289.833 66.2936 289.833 65.032 289.104Z" fill="#37474F"/>
<path d="M176.643 296.262L181.329 293.584C181.329 293.584 183.577 281.199 181.895 270.552C179.532 255.584 169.341 250.42 165.639 251.909C161.938 253.396 161.068 257.83 167.753 266.479C171.697 271.583 176.77 282.37 176.643 296.262Z" fill="#B9EBF5"/>
<path opacity="0.3" d="M176.643 296.262L181.329 293.584C181.329 293.584 183.577 281.199 181.895 270.552C179.532 255.584 169.341 250.42 165.639 251.909C161.938 253.396 161.068 257.83 167.753 266.479C171.697 271.583 176.77 282.37 176.643 296.262Z" fill="black"/>
<path d="M178.342 290.317C178.326 290.317 178.311 290.316 178.295 290.314C178.112 290.288 177.984 290.12 178.01 289.937C179.946 275.923 174.31 260.57 167.978 254.382C167.846 254.254 167.844 254.042 167.974 253.91C168.103 253.78 168.314 253.776 168.446 253.906C174.894 260.206 180.636 275.809 178.671 290.029C178.649 290.195 178.505 290.317 178.342 290.317Z" fill="white"/>
<path d="M163.643 303.772C162.903 304.197 161.376 303.268 160.792 302.875C159.792 302.204 158.98 301.253 158.442 300.177C157.815 298.926 157.657 297.585 157.853 296.201C157.955 295.483 158.156 294.783 158.356 294.085C158.553 293.401 158.75 292.717 158.947 292.033C159.14 291.357 159.336 290.659 159.247 289.962C159.067 288.559 157.822 287.575 156.689 286.727C155.436 285.789 154.132 284.551 154.139 282.861C154.144 281.557 154.82 280.345 155.628 279.322C156.436 278.299 157.395 277.394 158.125 276.314C158.651 275.537 159.061 274.623 158.976 273.689C158.922 273.108 158.681 272.561 158.404 272.048C157.807 270.947 157.019 269.939 156.607 268.757C156.196 267.575 156.255 266.105 157.177 265.259C157.935 264.565 159.06 264.468 160.085 264.535C161.034 264.598 161.96 265.025 162.79 265.487C165.473 266.979 167.005 270.157 169.852 271.305C170.95 271.748 172.153 271.845 173.298 272.147C174.443 272.449 175.61 273.034 176.14 274.093C177.185 276.181 175.246 278.753 175.98 280.969C176.631 282.931 178.536 283.681 179.606 285.449C180.074 286.221 180.182 287.115 180.106 288.016C179.978 289.54 179.756 290.658 179.024 292.353C178.42 293.754 176.643 296.261 176.643 296.261C176.599 296.305 163.756 303.706 163.643 303.772Z" fill="#00B4D8"/>
<path opacity="0.15" d="M163.643 303.772C162.903 304.197 161.376 303.268 160.792 302.875C159.792 302.204 158.98 301.253 158.442 300.177C157.815 298.926 157.657 297.585 157.853 296.201C157.955 295.483 158.156 294.783 158.356 294.085C158.553 293.401 158.75 292.717 158.947 292.033C159.14 291.357 159.336 290.659 159.247 289.962C159.067 288.559 157.822 287.575 156.689 286.727C155.436 285.789 154.132 284.551 154.139 282.861C154.144 281.557 154.82 280.345 155.628 279.322C156.436 278.299 157.395 277.394 158.125 276.314C158.651 275.537 159.061 274.623 158.976 273.689C158.922 273.108 158.681 272.561 158.404 272.048C157.807 270.947 157.019 269.939 156.607 268.757C156.196 267.575 156.255 266.105 157.177 265.259C157.935 264.565 159.06 264.468 160.085 264.535C161.034 264.598 161.96 265.025 162.79 265.487C165.473 266.979 167.005 270.157 169.852 271.305C170.95 271.748 172.153 271.845 173.298 272.147C174.443 272.449 175.61 273.034 176.14 274.093C177.185 276.181 175.246 278.753 175.98 280.969C176.631 282.931 178.536 283.681 179.606 285.449C180.074 286.221 180.182 287.115 180.106 288.016C179.978 289.54 179.756 290.658 179.024 292.353C178.42 293.754 176.643 296.261 176.643 296.261C176.599 296.305 163.756 303.706 163.643 303.772Z" fill="black"/>
<path d="M171.249 299.719C171.244 299.719 171.239 299.719 171.239 299.719C171.051 299.711 170.907 299.555 170.915 299.371C171.466 286.107 165.217 271.464 160.672 267.21C160.538 267.083 160.53 266.872 160.656 266.737C160.782 266.602 160.993 266.596 161.128 266.721C165.764 271.061 172.142 285.947 171.582 299.398C171.575 299.579 171.427 299.719 171.249 299.719Z" fill="white"/>
<path d="M169.262 284.049C169.229 284.049 169.195 284.044 169.163 284.034C164.901 282.717 159.59 282.484 159.537 282.482C159.353 282.474 159.21 282.318 159.217 282.134C159.225 281.95 159.365 281.805 159.565 281.814C159.619 281.817 165.015 282.052 169.36 283.396C169.536 283.45 169.635 283.638 169.581 283.814C169.536 283.957 169.404 284.049 169.262 284.049Z" fill="white"/>
<path d="M351.638 100.884C351.624 100.447 351.333 100.013 350.756 99.6799C349.573 98.9967 347.653 98.9967 346.469 99.6799C345.891 100.013 345.601 100.447 345.586 100.884H345.58V252.749C345.58 253.698 346.936 254.466 348.61 254.466C350.282 254.466 351.638 253.698 351.638 252.749H351.643V100.884H351.638Z" fill="#37474F"/>
<path d="M348.61 102.601C350.283 102.601 351.639 101.832 351.639 100.884C351.639 99.9356 350.283 99.167 348.61 99.167C346.937 99.167 345.581 99.9356 345.581 100.884C345.581 101.832 346.937 102.601 348.61 102.601Z" fill="#455A64"/>
<path d="M382.871 158.742L376.924 148.443L337.388 125.636L334.396 127.359V141.091L373.932 163.899L376.981 162.217L382.871 158.742Z" fill="#00B4D8"/>
<path d="M334.396 127.359L373.932 150.166L379.88 160.466L373.933 163.899L334.396 141.091V127.359Z" fill="#00B4D8"/>
<g opacity="0.3">
<path opacity="0.3" d="M334.396 127.359L373.932 150.166L379.896 160.496L373.933 163.899L334.396 141.091V127.359Z" fill="black"/>
</g>
<path opacity="0.1" d="M376.924 148.443L373.932 150.166L334.396 127.359L337.388 125.636L376.924 148.443Z" fill="black"/>
<path opacity="0.2" d="M373.933 150.166L376.925 148.443L382.871 158.742L379.897 160.496L373.933 150.166Z" fill="black"/>
<path d="M369.871 123.757L330.335 100.913L324.389 104.346L330.335 114.645L369.871 137.489V123.757Z" fill="#00B4D8"/>
<path d="M330.335 100.913L333.241 99.168L372.836 122.046L369.871 123.758L330.335 100.913Z" fill="#00B4D8"/>
<g opacity="0.4">
<path opacity="0.4" d="M330.335 100.913L333.241 99.168L372.836 122.046L369.871 123.758L330.335 100.913Z" fill="white"/>
</g>
<path d="M372.836 135.778L369.871 137.49V123.758L372.836 122.046V135.778Z" fill="#00B4D8"/>
<path opacity="0.1" d="M372.836 135.778L369.871 137.49V123.758L372.836 122.046V135.778Z" fill="black"/>
<path d="M359.883 166.189L320.347 143.344L314.4 146.778L320.347 157.076L359.883 179.921V166.189Z" fill="#29C0DE"/>
<path d="M320.347 143.344L323.252 141.6L362.847 164.478L359.883 166.189L320.347 143.344Z" fill="#29C0DE"/>
<g opacity="0.4">
<path opacity="0.4" d="M320.347 143.344L323.252 141.6L362.847 164.478L359.883 166.189L320.347 143.344Z" fill="white"/>
</g>
<path d="M362.848 178.21L359.883 179.921V166.189L362.848 164.478V178.21Z" fill="#29C0DE"/>
<path opacity="0.1" d="M362.848 178.21L359.883 179.921V166.189L362.848 164.478V178.21Z" fill="black"/>
<path d="M250.124 63.929C251.484 63.4794 252.871 63.2314 254.281 63.1826C255.691 63.1338 257.019 63.313 258.261 63.721C259.503 64.1282 260.607 64.7746 261.572 65.6594C262.538 66.5434 263.255 67.6946 263.723 69.1114C264.105 70.2682 264.256 71.3338 264.176 72.3058C264.095 73.2794 263.886 74.1986 263.547 75.0642C263.207 75.9298 262.796 76.7554 262.319 77.5386C261.839 78.3234 261.386 79.0666 260.961 79.7666C260.535 80.469 260.187 81.1698 259.922 81.8666C259.655 82.565 259.583 83.2466 259.706 83.9114C259.753 84.249 259.713 84.5666 259.587 84.8634C259.462 85.1634 259.239 85.3634 258.922 85.469L255.623 86.5578C255.305 86.6634 254.984 86.641 254.663 86.4906C254.341 86.3402 254.142 86.1026 254.066 85.7738C253.751 84.6266 253.662 83.557 253.799 82.565C253.938 81.5738 254.19 80.6394 254.559 79.7642C254.927 78.889 255.361 78.0642 255.86 77.2898C256.357 76.5154 256.812 75.7802 257.224 75.0826C257.635 74.3858 257.945 73.7218 258.155 73.0922C258.364 72.4618 258.368 71.8418 258.167 71.2346C257.804 70.1354 257.043 69.3842 255.883 68.981C254.724 68.5786 253.377 68.6298 251.843 69.1354C249.385 69.9474 247.983 71.7738 247.638 74.6154C247.599 74.9818 247.524 75.2698 247.419 75.481C247.312 75.6938 247.071 75.8618 246.695 75.985L243.18 77.145C242.92 77.2306 242.666 77.2186 242.422 77.1066C242.176 76.9954 242.006 76.7946 241.91 76.5058C241.603 75.4842 241.575 74.3474 241.819 73.0954C242.063 71.8442 242.544 70.6266 243.259 69.4434C243.976 68.261 244.916 67.1722 246.08 66.1778C247.244 65.185 248.591 64.4346 250.124 63.929ZM259.999 88.0026C260.315 87.8978 260.63 87.9226 260.936 88.0786C261.245 88.233 261.451 88.4698 261.555 88.7882L262.816 92.6066C262.922 92.9258 262.897 93.2386 262.741 93.5458C262.587 93.8546 262.351 94.0602 262.032 94.165L258.301 95.3978C257.982 95.5026 257.669 95.4786 257.36 95.3226C257.052 95.1682 256.846 94.9322 256.741 94.613L255.481 90.7946C255.376 90.477 255.4 90.1634 255.555 89.8554C255.711 89.5482 255.947 89.341 256.267 89.2362L259.999 88.0026Z" fill="#00B4D8"/>
<path d="M276.556 99.2914C277.43 98.8322 278.345 98.505 279.302 98.3122C280.257 98.1194 281.181 98.0906 282.073 98.2274C282.965 98.3658 283.789 98.6803 284.547 99.1739C285.305 99.6675 285.924 100.371 286.402 101.281C286.793 102.027 287.017 102.735 287.073 103.407C287.128 104.078 287.089 104.728 286.956 105.356C286.822 105.984 286.637 106.592 286.4 107.18C286.162 107.768 285.937 108.325 285.728 108.851C285.517 109.378 285.361 109.895 285.257 110.399C285.154 110.904 285.182 111.376 285.341 111.815C285.412 112.04 285.421 112.26 285.369 112.478C285.317 112.695 285.187 112.858 284.984 112.965L282.861 114.08C282.656 114.188 282.436 114.209 282.199 114.143C281.963 114.078 281.801 113.938 281.712 113.723C281.367 112.977 281.186 112.259 281.168 111.567C281.149 110.877 281.216 110.212 281.368 109.574C281.519 108.936 281.721 108.325 281.973 107.741C282.225 107.158 282.452 106.605 282.653 106.083C282.855 105.563 282.99 105.075 283.062 104.623C283.133 104.17 283.066 103.747 282.861 103.356C282.489 102.65 281.885 102.224 281.049 102.08C280.213 101.937 279.302 102.124 278.316 102.643C276.733 103.474 275.985 104.876 276.071 106.851C276.086 107.103 276.069 107.308 276.02 107.465C275.972 107.622 275.827 107.763 275.585 107.89L273.323 109.078C273.155 109.166 272.981 109.186 272.801 109.138C272.621 109.089 272.484 108.972 272.385 108.786C272.061 108.125 271.912 107.354 271.937 106.474C271.961 105.594 272.151 104.71 272.505 103.824C272.858 102.937 273.376 102.091 274.055 101.282C274.736 100.472 275.569 99.8098 276.556 99.2914ZM286.004 114.567C286.209 114.459 286.425 114.441 286.653 114.511C286.88 114.583 287.047 114.721 287.154 114.925L288.445 117.383C288.553 117.588 288.571 117.804 288.5 118.031C288.429 118.259 288.291 118.426 288.086 118.533L285.685 119.795C285.48 119.902 285.265 119.922 285.037 119.851C284.809 119.78 284.642 119.642 284.534 119.438L283.243 116.979C283.137 116.775 283.117 116.559 283.189 116.331C283.259 116.104 283.397 115.937 283.601 115.829L286.004 114.567Z" fill="#0077B6"/>
<g opacity="0.2">
<path opacity="0.2" d="M276.556 99.2914C277.43 98.8322 278.345 98.505 279.302 98.3122C280.257 98.1194 281.181 98.0906 282.073 98.2274C282.965 98.3658 283.789 98.6803 284.547 99.1739C285.305 99.6675 285.924 100.371 286.402 101.281C286.793 102.027 287.017 102.735 287.073 103.407C287.128 104.078 287.089 104.728 286.956 105.356C286.822 105.984 286.637 106.592 286.4 107.18C286.162 107.768 285.937 108.325 285.728 108.851C285.517 109.378 285.361 109.895 285.257 110.399C285.154 110.904 285.182 111.376 285.341 111.815C285.412 112.04 285.421 112.26 285.369 112.478C285.317 112.695 285.187 112.858 284.984 112.965L282.861 114.08C282.656 114.188 282.436 114.209 282.199 114.143C281.963 114.078 281.801 113.938 281.712 113.723C281.367 112.977 281.186 112.259 281.168 111.567C281.149 110.877 281.216 110.212 281.368 109.574C281.519 108.936 281.721 108.325 281.973 107.741C282.225 107.158 282.452 106.605 282.653 106.083C282.855 105.563 282.99 105.075 283.062 104.623C283.133 104.17 283.066 103.747 282.861 103.356C282.489 102.65 281.885 102.224 281.049 102.08C280.213 101.937 279.302 102.124 278.316 102.643C276.733 103.474 275.985 104.876 276.071 106.851C276.086 107.103 276.069 107.308 276.02 107.465C275.972 107.622 275.827 107.763 275.585 107.89L273.323 109.078C273.155 109.166 272.981 109.186 272.801 109.138C272.621 109.089 272.484 108.972 272.385 108.786C272.061 108.125 271.912 107.354 271.937 106.474C271.961 105.594 272.151 104.71 272.505 103.824C272.858 102.937 273.376 102.091 274.055 101.282C274.736 100.472 275.569 99.8098 276.556 99.2914ZM286.004 114.567C286.209 114.459 286.425 114.441 286.653 114.511C286.88 114.583 287.047 114.721 287.154 114.925L288.445 117.383C288.553 117.588 288.571 117.804 288.5 118.031C288.429 118.259 288.291 118.426 288.086 118.533L285.685 119.795C285.48 119.902 285.265 119.922 285.037 119.851C284.809 119.78 284.642 119.642 284.534 119.438L283.243 116.979C283.137 116.775 283.117 116.559 283.189 116.331C283.259 116.104 283.397 115.937 283.601 115.829L286.004 114.567Z" fill="#0077B6"/>
</g>
<path d="M294.4 88.2289C294.662 88.3097 294.86 88.4737 294.992 88.7225C295.124 88.9721 295.151 89.2273 295.071 89.4889L294.111 92.6345C294.03 92.8977 293.866 93.0945 293.617 93.2265C293.368 93.3601 293.113 93.3857 292.851 93.3057L289.776 92.3673C289.513 92.2865 289.318 92.1233 289.185 91.8745C289.052 91.6249 289.026 91.3697 289.107 91.1073L290.067 87.9609C290.147 87.6985 290.31 87.5017 290.56 87.3689C290.808 87.2369 291.063 87.2105 291.326 87.2905L294.4 88.2289ZM299.171 67.4873C300.29 67.8281 301.334 68.3169 302.299 68.9505C303.264 69.5841 304.068 70.3305 304.703 71.1889C305.34 72.0481 305.772 73.0001 305.999 74.0465C306.227 75.0937 306.163 76.2009 305.806 77.3689C305.516 78.3225 305.113 79.1049 304.601 79.7161C304.088 80.3289 303.515 80.8441 302.879 81.2617C302.243 81.6801 301.58 82.0377 300.891 82.3361C300.2 82.6329 299.546 82.9161 298.931 83.1833C298.315 83.4513 297.752 83.7553 297.247 84.0953C296.738 84.4353 296.368 84.8577 296.137 85.3593C296.009 85.6073 295.833 85.8001 295.608 85.9401C295.383 86.0801 295.14 86.1097 294.878 86.0297L292.161 85.2001C291.899 85.1201 291.696 84.9545 291.551 84.7017C291.406 84.4497 291.386 84.1961 291.49 83.9409C291.823 83.0249 292.268 82.2697 292.828 81.6721C293.388 81.0753 293.998 80.5713 294.658 80.1593C295.316 79.7489 295.996 79.4025 296.695 79.1209C297.392 78.8385 298.044 78.5617 298.648 78.2905C299.252 78.0193 299.771 77.7225 300.209 77.3993C300.646 77.0769 300.942 76.6657 301.094 76.1649C301.371 75.2593 301.216 74.3985 300.632 73.5817C300.048 72.7649 299.124 72.1641 297.862 71.7785C295.836 71.1601 294.036 71.7185 292.464 73.4529C292.265 73.6793 292.08 73.8377 291.91 73.9281C291.737 74.0193 291.498 74.0177 291.189 73.9233L288.293 73.0393C288.078 72.9737 287.916 72.8465 287.805 72.6561C287.693 72.4649 287.675 72.2513 287.748 72.0129C288.025 71.1857 288.541 70.4121 289.296 69.6913C290.052 68.9705 290.946 68.3841 291.983 67.9321C293.02 67.4809 294.161 67.1969 295.407 67.0825C296.652 66.9657 297.907 67.1017 299.171 67.4873Z" fill="#91E0F0"/>
<g opacity="0.6">
<path opacity="0.6" d="M294.4 88.2289C294.662 88.3097 294.86 88.4737 294.992 88.7225C295.124 88.9721 295.151 89.2273 295.071 89.4889L294.111 92.6345C294.03 92.8977 293.866 93.0945 293.617 93.2265C293.368 93.3601 293.113 93.3857 292.851 93.3057L289.776 92.3673C289.513 92.2865 289.318 92.1233 289.185 91.8745C289.052 91.6249 289.026 91.3697 289.107 91.1073L290.067 87.9609C290.147 87.6985 290.31 87.5017 290.56 87.3689C290.808 87.2369 291.063 87.2105 291.326 87.2905L294.4 88.2289ZM299.171 67.4873C300.29 67.8281 301.334 68.3169 302.299 68.9505C303.264 69.5841 304.068 70.3305 304.703 71.1889C305.34 72.0481 305.772 73.0001 305.999 74.0465C306.227 75.0937 306.163 76.2009 305.806 77.3689C305.516 78.3225 305.113 79.1049 304.601 79.7161C304.088 80.3289 303.515 80.8441 302.879 81.2617C302.243 81.6801 301.58 82.0377 300.891 82.3361C300.2 82.6329 299.546 82.9161 298.931 83.1833C298.315 83.4513 297.752 83.7553 297.247 84.0953C296.738 84.4353 296.368 84.8577 296.137 85.3593C296.009 85.6073 295.833 85.8001 295.608 85.9401C295.383 86.0801 295.14 86.1097 294.878 86.0297L292.161 85.2001C291.899 85.1201 291.696 84.9545 291.551 84.7017C291.406 84.4497 291.386 84.1961 291.49 83.9409C291.823 83.0249 292.268 82.2697 292.828 81.6721C293.388 81.0753 293.998 80.5713 294.658 80.1593C295.316 79.7489 295.996 79.4025 296.695 79.1209C297.392 78.8385 298.044 78.5617 298.648 78.2905C299.252 78.0193 299.771 77.7225 300.209 77.3993C300.646 77.0769 300.942 76.6657 301.094 76.1649C301.371 75.2593 301.216 74.3985 300.632 73.5817C300.048 72.7649 299.124 72.1641 297.862 71.7785C295.836 71.1601 294.036 71.7185 292.464 73.4529C292.265 73.6793 292.08 73.8377 291.91 73.9281C291.737 74.0193 291.498 74.0177 291.189 73.9233L288.293 73.0393C288.078 72.9737 287.916 72.8465 287.805 72.6561C287.693 72.4649 287.675 72.2513 287.748 72.0129C288.025 71.1857 288.541 70.4121 289.296 69.6913C290.052 68.9705 290.946 68.3841 291.983 67.9321C293.02 67.4809 294.161 67.1969 295.407 67.0825C296.652 66.9657 297.907 67.1017 299.171 67.4873Z" fill="white"/>
</g>
<path d="M250.957 278.912C251.041 280.353 251.199 281.651 250.609 283.223C249.761 285.478 248.046 286.483 247.033 287.359C246.02 288.235 244.885 289.538 244.063 290.815C243.333 291.95 242.503 293.254 240.962 294.535C240.001 295.335 237.339 295.355 236.067 294.791C234.794 294.226 234.374 293.734 234.494 291.687C234.611 289.686 240.84 289.066 240.84 289.066L250.957 278.912Z" fill="#455A64"/>
<path d="M235.421 285.593C234.887 285.783 234.733 286.79 234.612 288.795C234.521 290.312 233.837 292.523 235.91 293.522C237.582 294.328 240.29 293.869 241.459 292.46C242.917 290.702 243.911 289.149 245.985 287.01C247.785 285.155 249.632 284.554 250.489 280.79C251.041 278.371 250.666 277.356 249.045 276.626C246.816 275.623 243.221 278.683 241.449 279.14C239.924 279.534 235.955 285.403 235.421 285.593Z" fill="#00ADCF"/>
<path opacity="0.2" d="M235.421 285.593C234.887 285.783 234.733 286.79 234.612 288.795C234.521 290.312 233.837 292.523 235.91 293.522C237.582 294.328 240.29 293.869 241.459 292.46C242.917 290.702 243.911 289.149 245.985 287.01C247.785 285.155 249.632 284.554 250.489 280.79C251.041 278.371 250.666 277.356 249.045 276.626C246.816 275.623 243.221 278.683 241.449 279.14C239.924 279.534 235.955 285.403 235.421 285.593Z" fill="black"/>
<path d="M241.45 279.139C241.544 279.115 241.646 279.079 241.751 279.041C244.99 279.388 246.242 281.649 246.555 282.331C246.841 282.999 245.907 283.495 245.367 282.969C244.162 280.447 241.592 279.842 240.567 279.699C240.906 279.41 241.211 279.201 241.45 279.139Z" fill="#FAFAFA"/>
<path d="M239.973 280.254C242.962 280.717 244.131 282.853 244.432 283.51C244.718 284.178 243.783 284.674 243.245 284.148C242.289 282.148 240.471 281.353 239.249 281.038C239.496 280.758 239.74 280.491 239.973 280.254Z" fill="#FAFAFA"/>
<path d="M278.591 310.532C278.9 312.24 278.267 313.115 276.046 314.338C273.826 315.561 270.371 315.927 266.767 314.801C263.164 313.673 261.464 312.057 259.965 311.65C258.467 311.244 254.741 311.137 253.261 310.671C251.781 310.205 251.819 309.442 251.863 307.653L278.591 310.532Z" fill="#455A64"/>
<path d="M253.495 299.055C253.495 299.055 252.744 301.183 252.326 303.05C251.994 304.533 251.509 307.015 252.009 308.146C252.509 309.277 254.529 310.041 257.684 310.079C259.728 310.105 262.885 311.556 265.04 312.817C267.267 314.119 269.71 314.172 272.097 313.94C274.911 313.667 277.851 312.098 278.328 310.944C278.806 309.791 278.941 308.921 272.382 305.97C272.322 305.943 264.763 302.98 261.632 299.384L253.495 299.055Z" fill="#00B4D8"/>
<g opacity="0.2">
<path opacity="0.2" d="M253.495 299.055C253.495 299.055 252.744 301.183 252.326 303.05C251.994 304.533 251.509 307.015 252.009 308.146C252.509 309.277 254.529 310.041 257.684 310.079C259.728 310.105 262.885 311.556 265.04 312.817C267.267 314.119 269.71 314.172 272.097 313.94C274.911 313.667 277.851 312.098 278.328 310.944C278.806 309.791 278.941 308.921 272.382 305.97C272.322 305.943 264.763 302.98 261.632 299.384L253.495 299.055Z" fill="black"/>
</g>
<path d="M265.934 313.27C265.934 313.27 266.615 307.601 271.265 306.069C275.467 304.685 279.05 307.851 278.59 310.531C278.282 312.334 273.118 316.339 265.934 313.27Z" fill="#FAFAFA"/>
<path d="M270.117 304.983C270.117 304.983 268.629 304.952 266.937 306.319C265.584 307.412 265.529 308.156 265.529 308.156C265.216 308.616 264.244 308.341 264.337 307.556C264.337 307.556 264.705 304.698 268.487 304.187C268.487 304.186 269.529 303.949 270.117 304.983Z" fill="#FAFAFA"/>
<path d="M267.502 303.665C267.502 303.665 265.986 303.499 264.295 304.865C262.942 305.959 262.915 306.839 262.915 306.839C262.602 307.299 261.63 307.024 261.723 306.239C261.723 306.239 262.09 303.38 265.873 302.869C265.873 302.869 266.915 302.632 267.502 303.665Z" fill="#FAFAFA"/>
<path d="M264.913 302.117C264.913 302.117 263.412 301.848 261.631 303.096C260.205 304.095 260.119 304.971 260.119 304.971C259.775 305.408 258.824 305.068 258.97 304.291C258.97 304.291 259.532 301.464 263.34 301.212C263.341 301.212 264.396 301.046 264.913 302.117Z" fill="#FAFAFA"/>
<path d="M235.487 282.346L235.409 286.198C235.409 286.198 237.932 288.218 241.632 286.492C241.745 286.257 242.133 282.479 242.133 282.479L235.487 282.346Z" fill="#FFA8A7"/>
<path d="M253.549 296.392C253.549 296.392 253.521 298.22 253.492 299.265C253.461 300.31 254.665 301.892 257.861 301.842C260.108 301.807 261.685 301.235 261.634 299.385L261.687 296.721L253.549 296.392Z" fill="#FFA8A7"/>
<path d="M231.987 249.566C232.358 241.443 234.101 237.91 234.101 237.91C234.101 237.91 233.681 227.859 232.576 215.541C230.895 196.789 232.382 194.01 236.242 185.666C236.242 185.666 267.335 182.276 268.034 195.385C268.903 211.71 268.381 244.87 267.832 250.619C267.284 256.37 267.396 251.048 265.764 262.677C264.473 271.875 261.686 296.722 261.686 296.722C257.461 298.898 253.548 296.392 253.548 296.392C253.548 296.392 251.584 265.88 251.987 259.241C252.48 251.134 252.982 249.079 252.982 249.079C252.982 249.079 249.826 222.74 249.34 218.499C249.34 218.499 248.676 226.057 248.127 231.807C247.579 237.556 247.522 242.195 246.071 254.083C244.931 263.406 242.221 283.531 242.221 283.531C238.466 285.028 235.363 282.887 235.363 282.887C235.363 282.887 231.687 256.138 231.987 249.566Z" fill="#455A64"/>
<path d="M249.403 283.566C249.403 283.566 249.316 279.063 243.248 278.316L242.896 278.506C242.896 278.506 243.9 276.762 245.933 276.257C247.967 275.752 249.552 276.306 250.586 277.695C251.619 279.084 250.471 282.71 249.403 283.566Z" fill="#FAFAFA"/>
<path d="M249.341 218.498L248.947 213.116C248.947 213.116 244.259 211.581 239.337 208.292C239.337 208.292 241.49 212.558 247.076 214.163L248.046 219.445L248.129 231.806L249.341 218.498Z" fill="#37474F"/>
<path d="M238.172 112.85C236.475 114.974 223.871 135.266 222.029 139.066C220.187 142.867 219.745 145.328 222.657 148.4C227.034 153.017 238.063 164.15 238.063 164.15L244.239 149.413L232.784 142.224L244.001 118.519L238.172 112.85Z" fill="#FFA8A7"/>
<path d="M232.784 142.223C232.784 142.223 229.649 141.122 227.033 142.819C227.033 142.819 229.097 139.903 233.363 140.998L232.784 142.223Z" fill="#F28F8F"/>
<path d="M244.539 148.257C244.522 148.256 234.386 143.228 234.386 143.228C230.65 142.693 225.78 148.539 225.924 153.016L234.806 160.853L244.539 148.257Z" fill="#455A64"/>
<path d="M246.009 140.748L245.372 147.793C243.786 148.288 244.062 150.521 245 151.898L244.813 153.97L255.179 154.906L256.734 143.003L246.009 140.748Z" fill="#FFA8A7"/>
<path d="M234.597 152.915C235.747 149.781 240.298 147.376 243.055 147.593C244.119 147.676 245.371 147.793 245.371 147.793C244.73 149.076 245.656 149.988 247.332 150.47C249.497 151.093 253.473 151.451 255.816 150.061L255.889 149.468C255.889 149.468 260.31 150.725 261.613 151.216C265.275 152.596 266.485 153.301 270.283 163.155C271.907 167.369 270.904 171.738 266.532 174.122C266.207 176.725 265.838 180.828 265.838 180.828C267.809 189.869 268.487 197.765 268.487 197.765C268.487 197.765 266.182 202.995 250.223 202.115C237.864 201.433 232.111 195.18 232.111 195.18C232.415 192.145 234.334 187.301 238.268 178.165C233.616 165.031 232.888 157.565 234.597 152.915Z" fill="#37474F"/>
<path d="M300.584 146.416C300.571 146.415 300.558 146.411 300.546 146.405C299.558 145.891 298.995 144.844 299.111 143.737C299.266 142.263 300.592 141.19 302.066 141.345C302.124 141.351 302.166 141.403 302.16 141.461C302.153 141.519 302.102 141.561 302.044 141.555C300.685 141.412 299.463 142.401 299.32 143.759C299.212 144.78 299.732 145.745 300.642 146.218C300.694 146.245 300.714 146.308 300.688 146.36C300.668 146.399 300.626 146.42 300.584 146.416Z" fill="#E0E0E0"/>
<path d="M298.953 144.228L299.56 144.978C299.773 145.526 300.203 146.058 300.694 146.381L301.3 147.131L301.749 146.769L301.746 146.765C301.996 146.602 302.12 146.272 302.049 145.824C301.918 144.993 301.175 144.074 300.39 143.771C299.966 143.608 299.617 143.659 299.407 143.87L299.403 143.866L298.953 144.228Z" fill="#455A64"/>
<path d="M300.363 147.185C301.148 147.487 301.679 147.058 301.547 146.226C301.417 145.395 300.674 144.476 299.888 144.174C299.103 143.872 298.572 144.301 298.704 145.132C298.835 145.963 299.578 146.882 300.363 147.185Z" fill="#263238"/>
<path d="M298.34 145.409L300.016 147.482L300.729 146.906L300.727 146.903C300.906 146.786 300.994 146.551 300.944 146.231C300.85 145.637 300.32 144.98 299.759 144.764C299.457 144.647 299.208 144.684 299.057 144.835L299.054 144.832L298.34 145.409Z" fill="#37474F"/>
<path d="M282.933 152.746L283.745 155.311C283.745 155.314 283.746 155.318 283.748 155.321L283.753 155.339H283.754C284.163 156.596 285.397 157.59 287.366 158.024C291.328 158.899 296.76 157.182 299.498 154.189C300.859 152.702 301.298 151.179 300.911 149.916H300.912L300.905 149.897C300.905 149.894 300.904 149.891 300.902 149.887L300.091 147.322L299.074 147.834C298.569 147.558 297.973 147.336 297.285 147.184C293.323 146.309 287.891 148.026 285.153 151.019C284.681 151.535 284.321 152.055 284.068 152.567L282.933 152.746Z" fill="#00ADCF"/>
<path opacity="0.3" d="M282.933 152.746L283.745 155.311C283.745 155.314 283.746 155.318 283.748 155.321L283.753 155.339H283.754C284.163 156.596 285.397 157.59 287.366 158.024C291.328 158.899 296.76 157.182 299.498 154.189C300.859 152.702 301.298 151.179 300.911 149.916H300.912L300.905 149.897C300.905 149.894 300.904 149.891 300.902 149.887L300.091 147.322L299.074 147.834C298.569 147.558 297.973 147.336 297.285 147.184C293.323 146.309 287.891 148.026 285.153 151.019C284.681 151.535 284.321 152.055 284.068 152.567L282.933 152.746Z" fill="black"/>
<path d="M301.503 146.692C301.166 146.657 300.844 146.56 300.546 146.405C300.495 146.378 300.474 146.315 300.501 146.263C300.528 146.211 300.591 146.191 300.643 146.217C300.918 146.36 301.215 146.449 301.526 146.482C302.884 146.625 304.106 145.636 304.249 144.278C304.392 142.92 303.402 141.698 302.045 141.555C301.987 141.548 301.945 141.496 301.951 141.438C301.957 141.38 302.009 141.338 302.067 141.344C303.541 141.5 304.615 142.825 304.459 144.3C304.303 145.774 302.977 146.848 301.503 146.692Z" fill="#E0E0E0"/>
<path d="M296.463 144.59C292.501 143.714 287.07 145.432 284.331 148.425C281.591 151.418 282.583 154.554 286.545 155.43C290.507 156.305 295.939 154.587 298.678 151.594C301.416 148.601 300.424 145.465 296.463 144.59Z" fill="#00ADCF"/>
<path opacity="0.2" d="M296.463 144.59C292.501 143.714 287.07 145.432 284.331 148.425C281.591 151.418 282.583 154.554 286.545 155.43C290.507 156.305 295.939 154.587 298.678 151.594C301.416 148.601 300.424 145.465 296.463 144.59Z" fill="black"/>
<path d="M285.614 149.6C287.934 147.064 292.731 145.548 296.089 146.289C296.901 146.469 297.551 146.766 297.972 147.15C298.425 147.565 298.53 148.048 298.457 148.522C298.337 149.29 297.745 150.034 297.393 150.419C295.074 152.956 290.277 154.472 286.92 153.731C286.108 153.551 285.456 153.254 285.037 152.87C285.01 152.845 284.985 152.821 284.961 152.796C283.903 151.716 285.057 150.208 285.614 149.6Z" fill="#00ADCF"/>
<path opacity="0.5" d="M285.614 149.6C287.934 147.064 292.731 145.548 296.089 146.289C296.901 146.469 297.551 146.766 297.972 147.15C298.425 147.565 298.53 148.048 298.457 148.522C298.337 149.29 297.745 150.034 297.393 150.419C295.074 152.956 290.277 154.472 286.92 153.731C286.108 153.551 285.456 153.254 285.037 152.87C285.01 152.845 284.985 152.821 284.961 152.796C283.903 151.716 285.057 150.208 285.614 149.6Z" fill="black"/>
<path d="M286.023 150.897C288.344 148.361 293.14 146.845 296.497 147.587C297.31 147.766 297.961 148.064 298.38 148.448C298.407 148.472 298.431 148.497 298.456 148.522C298.336 149.291 297.744 150.035 297.393 150.419C295.074 152.956 290.277 154.472 286.919 153.731C286.107 153.551 285.455 153.254 285.036 152.87C285.01 152.845 284.985 152.821 284.961 152.796C285.081 152.026 285.672 151.281 286.023 150.897Z" fill="#F0F0F0"/>
<path d="M290.542 150.667L288.23 152.395C288.047 152.53 288.271 152.664 288.513 152.564L291.588 151.295L290.542 150.667Z" fill="#455A64"/>
<path d="M292.41 150.837L294.722 149.11C294.903 148.974 294.679 148.84 294.439 148.94L291.363 150.21L292.41 150.837Z" fill="#455A64"/>
<path d="M292.43 151.324C291.714 151.722 290.707 151.79 290.18 151.474C289.653 151.158 289.805 150.579 290.522 150.181C291.238 149.782 292.245 149.715 292.773 150.031C293.3 150.347 293.147 150.926 292.43 151.324Z" fill="#00ADCF"/>
<path d="M292.091 151.121C291.629 151.377 290.978 151.421 290.639 151.217C290.299 151.013 290.397 150.64 290.859 150.383C291.321 150.126 291.972 150.083 292.311 150.286C292.651 150.49 292.553 150.864 292.091 151.121Z" fill="#37474F"/>
<path d="M301.615 149.114C300.751 147.883 300.171 147.58 300.171 147.58L300.839 149.692C301.359 151.248 300.225 153.297 299.096 154.459C298.335 155.242 296.911 156.176 296.795 155.886C296.633 155.48 296.869 153.482 296.459 151.684C295.967 149.521 294.683 150.572 294.35 152.196C294.167 153.084 293.204 155.341 292.931 157.061C292.597 159.166 293.035 160.968 292.402 162.492C291.907 163.68 286.766 170.1 283.809 173.535C280.737 169.439 276.571 164.104 272.999 159.524C267.971 153.076 266.934 151.724 262.902 151.592C259.704 160.826 265.187 170.124 265.187 170.124C265.187 170.124 272.747 179.315 277.461 184.144C282.011 188.807 283.61 188.411 285.792 186.552C287.975 184.692 293.606 176.352 296.016 171.723C298.435 167.077 300.983 163.585 302.413 161.132C304.822 156.997 304.107 152.668 301.615 149.114Z" fill="#FFA8A7"/>
<path d="M261.614 151.216C261.614 151.216 265.393 150.679 267.941 152.721C268.523 153.187 270.49 155.115 272.287 157.518C275.815 162.236 282.393 171.01 282.393 171.01C282.393 171.01 279.703 176.836 272.104 179.016C272.104 179.016 265.643 172.258 263.223 168.906C258.937 162.97 259.376 154.507 261.614 151.216Z" fill="#455A64"/>
<path d="M245.372 147.793C245.372 147.793 240.202 150.083 239.157 153.393L234.305 152.782C234.305 152.782 236.37 148.994 240.475 147.793C243.091 147.026 245.372 147.793 245.372 147.793Z" fill="#00ADCF"/>
<path opacity="0.2" d="M245.372 147.793C245.372 147.793 240.202 150.083 239.157 153.393L234.305 152.782C234.305 152.782 236.37 148.994 240.475 147.793C243.091 147.026 245.372 147.793 245.372 147.793Z" fill="black"/>
<path d="M256.588 158.12C256.588 158.12 258.604 152.024 261.613 151.216C261.613 151.216 259.599 149.797 256.196 149.572C256.196 149.572 253.322 151.437 251.562 155.252L256.588 158.12Z" fill="#00ADCF"/>
<path opacity="0.2" d="M256.588 158.12C256.588 158.12 258.604 152.024 261.613 151.216C261.613 151.216 259.599 149.797 256.196 149.572C256.196 149.572 253.322 151.437 251.562 155.252L256.588 158.12Z" fill="black"/>
<path d="M237.195 151.216C234.309 151.179 228.636 154.82 227.632 157.069C226.579 159.429 222.649 188.995 225.119 191.968C228.217 195.698 242.442 204.14 249.095 203.906C254.583 203.712 259.974 199.554 260.804 198.083C262.166 195.673 260.327 162.851 258.575 160.092C255.736 155.62 240.872 151.263 237.195 151.216Z" fill="#00ADCF"/>
<path opacity="0.2" d="M255.462 157.35L252.612 159.274C249.746 160.928 248.192 165.29 248.241 175.731C248.292 186.172 248.085 200.315 249.757 201.804C251.379 203.25 254.8 202.28 255.001 202.221C258.002 200.944 260.274 199.023 260.805 198.084C262.166 195.674 260.327 162.852 258.575 160.092C257.972 159.14 256.863 158.216 255.462 157.35Z" fill="black"/>
<path opacity="0.1" d="M259.83 199.198C257.87 201.022 253.511 203.75 249.094 203.91C242.446 204.142 228.214 195.694 225.118 191.966C222.654 188.998 226.575 159.429 227.631 157.069C228.64 154.821 234.312 151.181 237.191 151.213C240.087 151.253 250.278 154.142 255.463 157.35L252.614 159.27C249.75 160.926 248.19 165.286 248.246 175.734C248.294 186.174 248.086 200.318 249.758 201.806C251.382 203.246 254.799 202.278 254.998 202.222C257.07 201.342 258.782 200.157 259.83 199.198Z" fill="black"/>
<path d="M236.897 151.216C233.728 151.216 228.943 153.79 227.334 156.285C225.726 158.781 224.58 166.043 225.759 168.177C226.921 170.277 234.796 174.554 240.15 176.739C244.43 178.485 246.668 178.032 248.183 176.952C249.147 176.265 249.315 174.215 249.387 172.696C249.573 168.789 249.253 166.7 251.609 164.407C253.965 162.114 258.16 160.181 258.873 161.909C258.873 161.909 259.822 159.308 254.953 156.799C246.881 152.641 240.797 151.217 236.897 151.216Z" fill="#00B4D8"/>
<path d="M241.436 171.776L244.261 172.851C244.261 172.851 243.89 181.467 243.9 184.837C243.9 184.837 243.241 186.288 242.624 186.527C242.008 186.765 241.204 185.14 241.068 183.922C240.935 182.704 241.136 174.695 241.436 171.776Z" fill="#455A64"/>
<path d="M241.354 172.444L244.228 173.44C244.574 173.56 244.88 173.36 244.909 172.996L245.02 171.604C245.044 171.304 244.832 170.973 244.547 170.871L241.659 169.831C241.316 169.708 241.014 169.904 240.987 170.267L240.879 171.719C240.855 172.02 241.07 172.346 241.354 172.444Z" fill="#37474F"/>
<path d="M242.442 182.486C242.878 182.663 243.231 183.2 243.231 183.686C243.231 184.171 242.877 184.434 242.442 184.271C242.006 184.107 241.653 183.57 241.654 183.071C241.653 182.571 242.007 182.309 242.442 182.486Z" fill="#E0E0E0"/>
<path d="M229.611 165.595L232.377 166.814C232.377 166.814 231.562 175.4 231.397 178.766C231.397 178.766 230.664 180.182 230.036 180.388C229.408 180.594 228.688 178.929 228.618 177.705C228.547 176.481 229.161 168.494 229.611 165.595Z" fill="#455A64"/>
<path d="M229.495 166.258L232.314 167.401C232.653 167.539 232.969 167.355 233.017 166.992L233.2 165.608C233.239 165.309 233.044 164.968 232.766 164.852L229.934 163.664C229.598 163.523 229.286 163.703 229.241 164.064L229.058 165.509C229.019 165.808 229.217 166.145 229.495 166.258Z" fill="#37474F"/>
<path d="M230.063 176.342C230.489 176.541 230.814 177.096 230.788 177.581C230.763 178.067 230.398 178.31 229.97 178.125C229.544 177.94 229.22 177.384 229.246 176.885C229.271 176.386 229.638 176.143 230.063 176.342Z" fill="#E0E0E0"/>
<path d="M226.559 182.031C226.531 185.48 226.462 186.902 226.619 188.56C226.727 189.694 226.938 190.701 228.61 191.893C230.283 193.084 237.485 196.873 239.618 197.885C242.227 199.122 245.067 199.944 245.022 197.925C244.983 196.162 245.019 192.397 245.022 191.115C245.027 189.529 244.259 188.498 241.026 187.002C237.96 185.584 231.136 181.748 229.243 180.885C227.646 180.155 226.567 180.999 226.559 182.031Z" fill="#00ADCF"/>
<path d="M263.469 127.047C263.469 127.047 268.919 120.021 264.87 116.218C260.077 111.715 253.712 111.811 245.401 114.708C241.509 116.066 235.852 120.007 235.353 127.643C234.969 133.534 251.397 137.879 251.021 141.914L263.469 127.047Z" fill="#263238"/>
<path d="M264.87 130.108C264.87 130.108 267.099 133.683 266.786 134.046C266.473 134.41 264.986 134.766 264.986 134.766L264.87 130.108Z" fill="#F28F8F"/>
<path d="M258.071 118.787C260.299 120.015 264.144 122.277 264.923 130.623C265.723 139.191 263.742 142.108 262.547 143.196C261.74 143.93 257.678 144.095 255.58 143.381C252.955 142.488 247.298 139.499 244.729 135.019C241.707 129.748 241.239 122.819 244.963 120.207C250.203 116.532 256.186 117.749 258.071 118.787Z" fill="#FFA8A7"/>
<path d="M256.656 143.645C258.515 143.973 260.979 143.87 262.095 143.447C259.133 143.541 256.735 141.914 256.735 141.914L256.656 143.645Z" fill="#F28F8F"/>
<path d="M257.961 128.872C257.961 128.872 262.556 127.462 263.397 122.026C264.239 116.59 257.447 114.288 257.447 114.288L257.961 128.872Z" fill="#263238"/>
<path d="M257.241 136.347C256.794 137.055 255.041 137.727 253.192 135.812C251.289 133.841 251.405 130.399 254.06 129.592C256.697 128.791 257.996 131.867 257.996 131.867C260.486 127.007 258.729 119.163 258.729 119.163C258.729 119.163 252.939 113.201 243.545 116.049C238.495 117.579 235.901 122.848 235.346 126.775C234.792 130.701 233.274 137.719 235.229 140.268C237.225 142.868 244.761 146.745 251.564 146.417C258.38 146.089 258.38 144.745 258.38 144.745L257.333 136.159C257.333 136.158 257.302 136.231 257.241 136.347Z" fill="#263238"/>
<path d="M238.172 112.85C240.818 109.634 245.003 110.394 248.253 110.926C251.504 111.458 256.284 111.922 255.433 114.086C254.583 116.251 252.2 118.27 246.621 117.73C241.052 117.191 239.99 117.728 238.74 119.211C238.74 119.21 235.075 117.729 238.172 112.85Z" fill="#FFA8A7"/>
</svg>
