<?xml version="1.0" encoding="utf-8"?>
<!-- Generator: Adobe Illustrator 19.0.0, SVG Export Plug-In . SVG Version: 6.00 Build 0)  -->
<svg version="1.1" id="Layer_1" xmlns="http://www.w3.org/2000/svg" xmlns:xlink="http://www.w3.org/1999/xlink" x="0px" y="0px"
	 viewBox="-280 126 50 50" style="enable-background:new -280 126 50 50;" xml:space="preserve">
<style type="text/css">
	.st0{fill:#5CB65F;}
	.st1{fill:url(#SVGID_1_);}
	.st2{fill:#FF9900;}
	.st3{fill:url(#SVGID_2_);}
	.st4{fill:url(#SVGID_3_);}
	.st5{fill:url(#SVGID_4_);}
	.st6{fill:url(#SVGID_5_);}
	.st7{fill:url(#SVGID_6_);}
	.st8{fill:url(#SVGID_7_);}
	.st9{fill:url(#SVGID_8_);}
	.st10{fill:url(#SVGID_9_);}
	.st11{fill:url(#SVGID_10_);}
	.st12{fill:url(#SVGID_11_);}
	.st13{fill:url(#SVGID_12_);}
	.st14{fill:url(#SVGID_13_);}
	.st15{fill:url(#SVGID_14_);}
	.st16{fill:url(#SVGID_15_);}
	.st17{fill:url(#SVGID_16_);}
	.st18{fill:url(#SVGID_17_);}
	.st19{fill:url(#SVGID_18_);}
	.st20{fill:url(#SVGID_19_);}
	.st21{fill:url(#SVGID_20_);}
	.st22{fill:url(#SVGID_21_);}
	.st23{fill:url(#SVGID_22_);}
	.st24{fill:url(#SVGID_23_);}
	.st25{fill:url(#SVGID_24_);}
	.st26{fill:url(#SVGID_25_);}
	.st27{fill:url(#SVGID_26_);}
	.st28{fill:url(#SVGID_27_);}
	.st29{fill:url(#SVGID_28_);}
	.st30{fill:url(#SVGID_29_);}
	.st31{fill:#FFA117;}
	.st32{fill:#E25985;}
</style>
<path class="st0" d="M-239.5,143.3c-0.1-0.2-0.3-0.5-0.5-0.7c-5.9-9.2-14.3-16.2-18.5-15.2c-1.2,0.2-2.5,1.2-3.7,2.7
	c2.4,0.1,4.9,1.1,7.2,2.8c1.3,0.6,2.8,1.7,4.5,3.2c2,1.6,8.6,9.1,12.3,18c1.4,3.6,1.8,6.5,1.1,7.7l0,0c-0.8,1.3-4.1,2.1-8.4,2.2
	c-0.4,1.5-0.9,2.8-1.5,4.1c6.9,0.3,12.6-1,14.3-3.5C-230.6,161.2-233.7,151.8-239.5,143.3z"/>
<linearGradient id="SVGID_1_" gradientUnits="userSpaceOnUse" x1="3354.4517" y1="-3720.7017" x2="3346.2139" y2="-3719.3286" gradientTransform="matrix(5.190000e-002 -0.9986 0.9986 5.190000e-002 3304.1956 3691.1472)">
	<stop  offset="0" style="stop-color:#F0584B"/>
	<stop  offset="1" style="stop-color:#C73F3D"/>
</linearGradient>
<path class="st1" d="M-234.5,152.5c-0.3-0.8-0.7-1.6-1.1-2.5c-0.6,1.8-1.3,3.7-2.1,5.6c1,2.9,1.2,5.2,0.5,6.2l0,0
	c-0.1,0.2-0.4,0.4-0.7,0.6C-236.3,161.6-233.1,160.1-234.5,152.5z"/>
<path class="st2" d="M-239,138.4L-239,138.4c1.1,1.2,1,4.7-0.1,9.2c-4.5,11.8-6.8,13.2-12,18.3c-3.5,2.8-6.7,4.3-8.2,3.8l0,0
	c-1-0.3-2.1-1.8-3.1-4.1c-1.8-0.5-3.4-1.1-5-1.7c1.6,5.7,4,9.9,6.5,10.7c3.8,1.3,11.9-3.9,18.5-11.5c8.4-9.9,10.5-24.7,7.3-28.1
	c-2.1-2.2-7.9-2.6-14.8-1.2c1.6,1,3.3,2.2,4.9,3.5C-242.1,137.1-239.8,137.5-239,138.4z"/>
<linearGradient id="SVGID_2_" gradientUnits="userSpaceOnUse" x1="3334.1587" y1="-3718.3831" x2="3360.0234" y2="-3718.3831" gradientTransform="matrix(5.190000e-002 -0.9986 0.9986 5.190000e-002 3304.1956 3691.1472)">
	<stop  offset="0" style="stop-color:#FCBA39"/>
	<stop  offset="1" style="stop-color:#D96D2D"/>
</linearGradient>
<path class="st3" d="M-235,151.2C-235,151.2-235,151.2-235,151.2C-235,151.2-235,151.2-235,151.2C-235,151.2-235,151.2-235,151.2z"
	/>
<linearGradient id="SVGID_3_" gradientUnits="userSpaceOnUse" x1="3334.1184" y1="-3717.8044" x2="3360.0232" y2="-3717.8044" gradientTransform="matrix(5.190000e-002 -0.9986 0.9986 5.190000e-002 3304.1956 3691.1472)">
	<stop  offset="0" style="stop-color:#FCBA39"/>
	<stop  offset="1" style="stop-color:#D96D2D"/>
</linearGradient>
<path class="st4" d="M-234.5,152.4C-234.5,152.4-234.5,152.3-234.5,152.4C-234.5,152.3-234.5,152.4-234.5,152.4
	C-234.5,152.4-234.5,152.4-234.5,152.4z"/>
<radialGradient id="SVGID_4_" cx="3348.2231" cy="-3738.0679" r="18.37" gradientTransform="matrix(5.190000e-002 -0.9986 0.9986 5.190000e-002 3304.1956 3691.1472)" gradientUnits="userSpaceOnUse">
	<stop  offset="0" style="stop-color:#F9B314"/>
	<stop  offset="1" style="stop-color:#EC5222"/>
</radialGradient>
<path class="st5" d="M-234.5,152.3c-0.1-0.3-0.3-0.6-0.4-0.9c0.1,0.2,0.2,0.3,0.2,0.5C-234.6,152.1-234.6,152.2-234.5,152.3z"/>
<radialGradient id="SVGID_5_" cx="3348.2266" cy="-3738.0769" r="18.3779" gradientTransform="matrix(5.190000e-002 -0.9986 0.9986 5.190000e-002 3304.1956 3691.1472)" gradientUnits="userSpaceOnUse">
	<stop  offset="0" style="stop-color:#F9B314"/>
	<stop  offset="1" style="stop-color:#EC5222"/>
</radialGradient>
<path class="st6" d="M-234.5,152.5c1.9,4.4,2.7,8.4,2.1,10.9c0,0,0,0,0,0C-231.7,160.9-232.6,156.9-234.5,152.5
	C-234.5,152.5-234.5,152.5-234.5,152.5z"/>
<radialGradient id="SVGID_6_" cx="3348.2275" cy="-3738.0732" r="18.3741" gradientTransform="matrix(5.190000e-002 -0.9986 0.9986 5.190000e-002 3304.1956 3691.1472)" gradientUnits="userSpaceOnUse">
	<stop  offset="0" style="stop-color:#F9B314"/>
	<stop  offset="1" style="stop-color:#EC5222"/>
</radialGradient>
<path class="st7" d="M-235.6,150c0.2,0.4,0.4,0.8,0.5,1.1C-235.2,150.8-235.4,150.4-235.6,150z"/>
<linearGradient id="SVGID_7_" gradientUnits="userSpaceOnUse" x1="3333.9456" y1="-3717.8999" x2="3360.124" y2="-3717.8999" gradientTransform="matrix(5.190000e-002 -0.9986 0.9986 5.190000e-002 3304.1956 3691.1472)">
	<stop  offset="0" style="stop-color:#FCBA39"/>
	<stop  offset="1" style="stop-color:#D96D2D"/>
</linearGradient>
<path class="st8" d="M-234.5,152.4C-234.5,152.4-234.5,152.3-234.5,152.4c-0.1-0.2-0.1-0.3-0.2-0.4
	C-234.6,152.1-234.6,152.2-234.5,152.4z"/>
<radialGradient id="SVGID_8_" cx="3348.2288" cy="-3738.05" r="18.3536" gradientTransform="matrix(5.190000e-002 -0.9986 0.9986 5.190000e-002 3304.1956 3691.1472)" gradientUnits="userSpaceOnUse">
	<stop  offset="0" style="stop-color:#F9B314"/>
	<stop  offset="1" style="stop-color:#EC5222"/>
</radialGradient>
<path class="st9" d="M-234.5,152.4C-234.5,152.4-234.5,152.3-234.5,152.4c-0.1-0.2-0.1-0.3-0.2-0.4
	C-234.6,152.1-234.6,152.2-234.5,152.4z"/>
<linearGradient id="SVGID_9_" gradientUnits="userSpaceOnUse" x1="3333.9265" y1="-3720.092" x2="3360.1372" y2="-3720.092" gradientTransform="matrix(5.190000e-002 -0.9986 0.9986 5.190000e-002 3304.1956 3691.1472)">
	<stop  offset="0" style="stop-color:#FCBA39"/>
	<stop  offset="1" style="stop-color:#D96D2D"/>
</linearGradient>
<path class="st10" d="M-237.4,162.1c0.1-0.1,0.1-0.1,0.2-0.2C-237.3,161.9-237.3,162-237.4,162.1z"/>
<radialGradient id="SVGID_10_" cx="3348.2275" cy="-3738.1113" r="18.4085" gradientTransform="matrix(5.190000e-002 -0.9986 0.9986 5.190000e-002 3304.1956 3691.1472)" gradientUnits="userSpaceOnUse">
	<stop  offset="0" style="stop-color:#F9B314"/>
	<stop  offset="1" style="stop-color:#EC5222"/>
</radialGradient>
<path class="st11" d="M-237.4,162.1c0.1-0.1,0.1-0.1,0.2-0.2C-237.3,161.9-237.3,162-237.4,162.1z"/>
<linearGradient id="SVGID_11_" gradientUnits="userSpaceOnUse" x1="3333.9275" y1="-3727.5981" x2="3360.1343" y2="-3727.5981" gradientTransform="matrix(5.190000e-002 -0.9986 0.9986 5.190000e-002 3304.1956 3691.1472)">
	<stop  offset="0" style="stop-color:#FCBA39"/>
	<stop  offset="1" style="stop-color:#D96D2D"/>
</linearGradient>
<path class="st12" d="M-234.5,152.5c1.3,7.7-1.8,9.2-3.4,10c0,0,0,0,0,0c-1.4,1-4.4,1.6-8.2,1.6c-5.3-0.5-8.7-1.2-11.3-2
	c0,0.6,0.1,1.1,0.2,1.7c0,0.2,0.1,0.4,0.2,0.7c10.4,2.8,21.7,1.5,24.7-1C-231.8,160.9-232.6,156.9-234.5,152.5z"/>
<linearGradient id="SVGID_12_" gradientUnits="userSpaceOnUse" x1="3333.9785" y1="-3720.2961" x2="3359.98" y2="-3720.2961" gradientTransform="matrix(5.190000e-002 -0.9986 0.9986 5.190000e-002 3304.1956 3691.1472)">
	<stop  offset="0" style="stop-color:#FCBA39"/>
	<stop  offset="1" style="stop-color:#D96D2D"/>
</linearGradient>
<path class="st13" d="M-237.6,162.2c0,0,0.1-0.1,0.1-0.1C-237.5,162.2-237.5,162.2-237.6,162.2z"/>
<radialGradient id="SVGID_13_" cx="3348.1653" cy="-3737.9246" r="18.2222" gradientTransform="matrix(5.190000e-002 -0.9986 0.9986 5.190000e-002 3304.1956 3691.1472)" gradientUnits="userSpaceOnUse">
	<stop  offset="0" style="stop-color:#F9B314"/>
	<stop  offset="1" style="stop-color:#EC5222"/>
</radialGradient>
<path class="st14" d="M-237.6,162.2c0,0,0.1-0.1,0.1-0.1C-237.5,162.2-237.5,162.2-237.6,162.2z"/>
<linearGradient id="SVGID_14_" gradientUnits="userSpaceOnUse" x1="3333.9424" y1="-3718.6909" x2="3360.1265" y2="-3718.6909" gradientTransform="matrix(5.190000e-002 -0.9986 0.9986 5.190000e-002 3304.1956 3691.1472)">
	<stop  offset="0" style="stop-color:#FCBA39"/>
	<stop  offset="1" style="stop-color:#D96D2D"/>
</linearGradient>
<path class="st15" d="M-235,151.1c-0.2-0.4-0.4-0.7-0.5-1.1C-235.4,150.4-235.2,150.8-235,151.1C-235,151.2-235,151.2-235,151.1z"/>
<radialGradient id="SVGID_15_" cx="3348.2288" cy="-3738.0901" r="18.3894" gradientTransform="matrix(5.190000e-002 -0.9986 0.9986 5.190000e-002 3304.1956 3691.1472)" gradientUnits="userSpaceOnUse">
	<stop  offset="0" style="stop-color:#F9B314"/>
	<stop  offset="1" style="stop-color:#EC5222"/>
</radialGradient>
<path class="st16" d="M-235,151.1c-0.2-0.4-0.4-0.7-0.5-1.1C-235.4,150.4-235.2,150.8-235,151.1C-235,151.2-235,151.2-235,151.1z"/>
<linearGradient id="SVGID_16_" gradientUnits="userSpaceOnUse" x1="3354.7988" y1="-3718.4905" x2="3346.6016" y2="-3717.1243" gradientTransform="matrix(5.190000e-002 -0.9986 0.9986 5.190000e-002 3304.1956 3691.1472)">
	<stop  offset="0" style="stop-color:#F0584B"/>
	<stop  offset="1" style="stop-color:#C73F3D"/>
</linearGradient>
<path class="st17" d="M-234.5,152.5C-234.5,152.5-234.5,152.5-234.5,152.5c0,0,0-0.1,0-0.1c0,0,0,0,0,0
	C-234.5,152.4-234.5,152.4-234.5,152.5z"/>
<linearGradient id="SVGID_17_" gradientUnits="userSpaceOnUse" x1="3354.7603" y1="-3718.8501" x2="3346.5242" y2="-3717.4773" gradientTransform="matrix(5.190000e-002 -0.9986 0.9986 5.190000e-002 3304.1956 3691.1472)">
	<stop  offset="0" style="stop-color:#F0584B"/>
	<stop  offset="1" style="stop-color:#C73F3D"/>
</linearGradient>
<path class="st18" d="M-234.9,151.4c0-0.1-0.1-0.1-0.1-0.2C-235,151.3-235,151.3-234.9,151.4C-234.9,151.4-234.9,151.4-234.9,151.4z
	"/>
<linearGradient id="SVGID_18_" gradientUnits="userSpaceOnUse" x1="3354.0774" y1="-3722.7805" x2="3345.856" y2="-3721.4104" gradientTransform="matrix(5.190000e-002 -0.9986 0.9986 5.190000e-002 3304.1956 3691.1472)">
	<stop  offset="0" style="stop-color:#F0584B"/>
	<stop  offset="1" style="stop-color:#C73F3D"/>
</linearGradient>
<path class="st19" d="M-237.9,162.5c0.1-0.1,0.2-0.2,0.3-0.2C-237.7,162.3-237.8,162.4-237.9,162.5z"/>
<linearGradient id="SVGID_19_" gradientUnits="userSpaceOnUse" x1="3354.3135" y1="-3722.4836" x2="3345.9812" y2="-3721.095" gradientTransform="matrix(5.190000e-002 -0.9986 0.9986 5.190000e-002 3304.1956 3691.1472)">
	<stop  offset="0" style="stop-color:#F0584B"/>
	<stop  offset="1" style="stop-color:#C73F3D"/>
</linearGradient>
<path class="st20" d="M-237.5,162.1C-237.4,162.1-237.4,162.1-237.5,162.1C-237.4,162.1-237.4,162.1-237.5,162.1z"/>
<linearGradient id="SVGID_20_" gradientUnits="userSpaceOnUse" x1="3333.9224" y1="-3718.3469" x2="3360.136" y2="-3718.3469" gradientTransform="matrix(5.190000e-002 -0.9986 0.9986 5.190000e-002 3304.1956 3691.1472)">
	<stop  offset="0" style="stop-color:#FCBA39"/>
	<stop  offset="1" style="stop-color:#D96D2D"/>
</linearGradient>
<path class="st21" d="M-235,151.3c0,0,0-0.1,0-0.1c0,0,0,0,0,0C-235,151.2-235,151.3-235,151.3z"/>
<linearGradient id="SVGID_21_" gradientUnits="userSpaceOnUse" x1="3354.752" y1="-3718.8721" x2="3346.5256" y2="-3717.501" gradientTransform="matrix(5.190000e-002 -0.9986 0.9986 5.190000e-002 3304.1956 3691.1472)">
	<stop  offset="0" style="stop-color:#F0584B"/>
	<stop  offset="1" style="stop-color:#C73F3D"/>
</linearGradient>
<path class="st22" d="M-235,151.3c0,0,0-0.1,0-0.1c0,0,0,0,0,0C-235,151.2-235,151.3-235,151.3z"/>
<linearGradient id="SVGID_22_" gradientUnits="userSpaceOnUse" x1="3333.0967" y1="-3717.7947" x2="3360.6157" y2="-3717.7947" gradientTransform="matrix(5.190000e-002 -0.9986 0.9986 5.190000e-002 3304.1956 3691.1472)">
	<stop  offset="0" style="stop-color:#FCBA39"/>
	<stop  offset="1" style="stop-color:#D96D2D"/>
</linearGradient>
<path class="st23" d="M-234.5,152.4C-234.5,152.4-234.5,152.4-234.5,152.4C-234.5,152.4-234.5,152.4-234.5,152.4
	C-234.5,152.4-234.5,152.4-234.5,152.4z"/>
<linearGradient id="SVGID_23_" gradientUnits="userSpaceOnUse" x1="3355.0388" y1="-3718.5486" x2="3346.376" y2="-3717.1047" gradientTransform="matrix(5.190000e-002 -0.9986 0.9986 5.190000e-002 3304.1956 3691.1472)">
	<stop  offset="0" style="stop-color:#F0584B"/>
	<stop  offset="1" style="stop-color:#C73F3D"/>
</linearGradient>
<path class="st24" d="M-234.5,152.4C-234.5,152.4-234.5,152.4-234.5,152.4C-234.5,152.4-234.5,152.4-234.5,152.4
	C-234.5,152.4-234.5,152.4-234.5,152.4z"/>
<radialGradient id="SVGID_24_" cx="3348.2268" cy="-3738.085" r="18.3851" gradientTransform="matrix(5.190000e-002 -0.9986 0.9986 5.190000e-002 3304.1956 3691.1472)" gradientUnits="userSpaceOnUse">
	<stop  offset="0" style="stop-color:#F9B314"/>
	<stop  offset="1" style="stop-color:#EC5222"/>
</radialGradient>
<path class="st25" d="M-234.7,151.9c-0.1-0.2-0.2-0.3-0.2-0.5c0,0,0-0.1,0-0.1C-234.9,151.5-234.8,151.7-234.7,151.9z"/>
<linearGradient id="SVGID_25_" gradientUnits="userSpaceOnUse" x1="3354.7756" y1="-3718.7476" x2="3346.542" y2="-3717.3752" gradientTransform="matrix(5.190000e-002 -0.9986 0.9986 5.190000e-002 3304.1956 3691.1472)">
	<stop  offset="0" style="stop-color:#F0584B"/>
	<stop  offset="1" style="stop-color:#C73F3D"/>
</linearGradient>
<path class="st26" d="M-234.7,151.9c-0.1-0.2-0.2-0.3-0.2-0.5c0,0,0-0.1,0-0.1C-234.9,151.5-234.8,151.7-234.7,151.9z"/>
<radialGradient id="SVGID_26_" cx="3348.2375" cy="-3738.3879" r="18.6544" gradientTransform="matrix(5.190000e-002 -0.9986 0.9986 5.190000e-002 3304.1956 3691.1472)" gradientUnits="userSpaceOnUse">
	<stop  offset="0" style="stop-color:#F9B314"/>
	<stop  offset="1" style="stop-color:#EC5222"/>
</radialGradient>
<path class="st27" d="M-234.5,152.5C-234.5,152.5-234.5,152.5-234.5,152.5c0,0,0-0.1,0-0.1C-234.5,152.4-234.5,152.5-234.5,152.5z"
	/>
<linearGradient id="SVGID_27_" gradientUnits="userSpaceOnUse" x1="3354.7915" y1="-3718.4885" x2="3346.6072" y2="-3717.1243" gradientTransform="matrix(5.190000e-002 -0.9986 0.9986 5.190000e-002 3304.1956 3691.1472)">
	<stop  offset="0" style="stop-color:#F0584B"/>
	<stop  offset="1" style="stop-color:#C73F3D"/>
</linearGradient>
<path class="st28" d="M-234.5,152.5C-234.5,152.5-234.5,152.5-234.5,152.5c0,0,0-0.1,0-0.1C-234.5,152.4-234.5,152.5-234.5,152.5z"
	/>
<linearGradient id="SVGID_28_" gradientUnits="userSpaceOnUse" x1="3333.927" y1="-3719.0286" x2="3360.1323" y2="-3719.0286" gradientTransform="matrix(5.190000e-002 -0.9986 0.9986 5.190000e-002 3304.1956 3691.1472)">
	<stop  offset="0" style="stop-color:#FCBA39"/>
	<stop  offset="1" style="stop-color:#D96D2D"/>
</linearGradient>
<path class="st29" d="M-234.5,152.5c0,0,0-0.1,0-0.1c0,0,0,0,0,0c-0.1-0.1-0.1-0.3-0.2-0.4c-0.1-0.2-0.2-0.4-0.3-0.6
	c0,0,0-0.1-0.1-0.1c-0.2-0.4-0.4-0.8-0.6-1.2c-0.6,1.8-1.3,3.7-2.1,5.6c1,2.9,1.2,5.2,0.5,6.2l0,0c0,0.1-0.1,0.1-0.2,0.2
	c0,0-0.1,0.1-0.1,0.1c0,0-0.1,0.1-0.1,0.1c-0.1,0.1-0.2,0.2-0.3,0.2c0,0,0,0,0,0C-236.3,161.6-233.1,160.1-234.5,152.5z"/>
<radialGradient id="SVGID_29_" cx="3348.2251" cy="-3738.0828" r="18.383" gradientTransform="matrix(5.190000e-002 -0.9986 0.9986 5.190000e-002 3304.1956 3691.1472)" gradientUnits="userSpaceOnUse">
	<stop  offset="0" style="stop-color:#F9B314"/>
	<stop  offset="1" style="stop-color:#EC5222"/>
</radialGradient>
<path class="st30" d="M-234.5,152.5c0,0,0-0.1,0-0.1c0,0,0,0,0,0c-0.1-0.1-0.1-0.3-0.2-0.4c-0.1-0.2-0.2-0.4-0.3-0.6
	c0,0,0-0.1-0.1-0.1c-0.2-0.4-0.4-0.8-0.6-1.2c-0.6,1.8-1.3,3.7-2.1,5.6c1,2.9,1.2,5.2,0.5,6.2l0,0c0,0.1-0.1,0.1-0.2,0.2
	c0,0-0.1,0.1-0.1,0.1c0,0-0.1,0.1-0.1,0.1c-0.1,0.1-0.2,0.2-0.3,0.2c0,0,0,0,0,0C-236.3,161.6-233.1,160.1-234.5,152.5z"/>
<path class="st31" d="M-235,151.3C-235,151.3-235,151.3-235,151.3c0-0.1,0-0.1-0.1-0.2c0,0,0,0,0,0c-0.2-0.4-0.4-0.8-0.5-1.1
	c-0.6,1.8-1.3,3.7-2.1,5.6c1,2.9,1.2,5.2,0.5,6.2l0,0c0,0.1-0.1,0.1-0.2,0.2c0,0,0,0.1-0.1,0.1c0,0-0.1,0.1-0.1,0.1c0,0,0,0,0,0
	c-0.1,0.1-0.2,0.2-0.3,0.2c0,0,0,0,0,0c-0.1,0.1-0.2,0.1-0.2,0.2c0,0,0,0-0.1,0c-0.1,0-0.2,0.1-0.3,0.1c0,0-0.1,0-0.1,0
	c-0.1,0-0.2,0.1-0.3,0.1c0,0-0.1,0-0.1,0c-0.1,0-0.2,0.1-0.3,0.1c0,0,0,0,0,0c-0.2,0.1-0.4,0.1-0.7,0.2c-0.1,0-0.1,0-0.2,0.1
	c-0.1,0-0.2,0-0.2,0.1c-0.1,0-0.2,0-0.3,0.1c-0.1,0-0.2,0-0.2,0c-0.1,0-0.2,0-0.4,0.1c-0.1,0-0.1,0-0.2,0c-0.2,0-0.3,0.1-0.5,0.1
	c0,0-0.1,0-0.1,0c-0.9,0.1-1.9,0.2-3,0.2c0,0,0,0,0,0c-0.3,0-0.5,0-0.8,0c0.5-0.6,1-1.3,1.6-1.9c5.3-7,8.1-16.3,8.6-22.5
	c0.7,0.2,1.3,0.4,1.9,0.7c0-2.4-0.4-4.3-1.4-5.4c-1.5-1.7-5-2.3-9.5-1.9c0,0-0.1,0-0.1,0c-0.3,0-0.5,0-0.8,0.1c-0.1,0-0.1,0-0.2,0
	c-0.3,0-0.5,0.1-0.8,0.1c-0.1,0-0.1,0-0.2,0c-0.3,0-0.6,0.1-1,0.1c-0.1,0-0.2,0-0.3,0c-0.2,0-0.5,0.1-0.7,0.1c-0.1,0-0.3,0-0.4,0.1
	c-0.2,0-0.4,0.1-0.6,0.1c-0.1,0-0.2,0-0.3,0c0,0,0,0,0,0c-2.4,0.5-5,1.2-7.5,2.1c-0.3,0.1-0.5,0.2-0.8,0.2c-8,2.6-15,6.8-18,10.6
	c0,0,0,0,0,0c-0.6,0.7-1,1.5-1.2,2.2c0,0,0,0,0,0c-0.1,0.2-0.1,0.3-0.1,0.5c0,0,0,0,0,0c0,0.2-0.1,0.4-0.1,0.6
	c-0.1,2.2,2,5.2,5.4,8.1c-0.1-0.5-0.1-0.9-0.1-1.4c2.9,2.2,6.7,4.3,11,6.2c1.5,0.6,3,1.1,4.5,1.5c0,0,0,0,0,0
	c0.2,0.1,0.4,0.1,0.6,0.2c0.1,0,0.1,0,0.2,0.1c-0.3-0.1-0.5-0.1-0.8-0.2c0.3,0.9,0.6,1.8,1.1,2.7c0.8,0.2,1.6,0.4,2.4,0.5
	c-2.5,1.7-4.7,2.5-5.8,2.1l0,0c-1-0.3-2.1-1.8-3.1-4.1c-1.5-0.4-2.9-0.9-4.3-1.4c-0.2-0.1-0.5-0.1-0.7-0.2c1.6,5.6,3.9,9.7,6.4,10.6
	c2.4,0.7,6.8-1.9,11.4-6.4c8.1,0.8,15.2-0.9,16.8-3.5c0.2-0.4,0.4-0.8,0.5-1.3c-0.1,0.1-0.2,0.2-0.3,0.2c0.1-0.1,0.2-0.2,0.3-0.2
	c0,0,0,0,0,0c0,0,0,0,0,0C-231.7,160.7-232.7,156.2-235,151.3z M-233.8,164.2c0.1-0.1,0.3-0.1,0.4-0.2c-0.3,0.2-0.7,0.3-1.1,0.5
	c0.1-0.1,0.3-0.1,0.4-0.2C-234,164.3-233.9,164.2-233.8,164.2z M-235.4,164.8c0.1,0,0.1,0,0.2-0.1c0.2,0,0.3-0.1,0.5-0.2
	c-0.4,0.1-0.9,0.3-1.4,0.4C-235.9,164.9-235.6,164.9-235.4,164.8z M-236.3,165c0,0,0.1,0,0.1,0c-0.3,0.1-0.5,0.1-0.8,0.2
	c0,0,0,0,0.1,0C-236.7,165.1-236.5,165.1-236.3,165z M-237.2,165.2c-0.6,0.1-1.3,0.2-1.9,0.3c0,0,0.1,0,0.1,0
	C-238.4,165.5-237.7,165.4-237.2,165.2z M-240.1,165.7c0.3,0,0.6-0.1,1-0.1C-239.5,165.6-239.8,165.7-240.1,165.7
	C-240.1,165.7-240.1,165.7-240.1,165.7z M-240.2,165.7c-0.7,0.1-1.5,0.1-2.2,0.2C-241.6,165.8-240.9,165.8-240.2,165.7z
	 M-266.9,157.2c-2.2-1.6-3.9-3.2-4.8-4.6c-0.1-0.1-0.1-0.2-0.2-0.3c0,0,0-0.1,0-0.1c-0.2-0.3-0.3-0.5-0.4-0.8c0-0.1-0.1-0.1-0.1-0.2
	c0-0.1,0-0.1-0.1-0.2c0-0.1,0-0.1-0.1-0.2c0,0,0-0.1,0-0.1c0-0.1,0-0.1,0-0.2c0,0,0-0.1,0-0.1c0-0.1,0-0.2,0-0.3l0,0
	c0-0.1,0-0.2,0-0.2c0,0,0-0.1,0-0.1c0-0.1,0-0.1,0.1-0.2c0,0,0-0.1,0-0.1c0-0.1,0.1-0.2,0.1-0.3c0,0,0,0,0-0.1
	c0-0.1,0.1-0.1,0.1-0.2c0,0,0-0.1,0.1-0.1c0-0.1,0.1-0.1,0.1-0.2c0,0,0.1-0.1,0.1-0.1c0-0.1,0.1-0.1,0.1-0.2
	c0.1-0.1,0.1-0.2,0.2-0.2c0,0,0.1-0.1,0.1-0.1c0.1-0.1,0.1-0.1,0.2-0.2c0,0,0.1-0.1,0.1-0.1c0.2-0.2,0.5-0.5,0.7-0.7c0,0,0,0,0,0
	c0.1-0.1,0.2-0.2,0.3-0.3c0,0,0,0,0,0c0.2-0.2,0.4-0.4,0.7-0.6c0,0,0,0,0,0c0.7-0.5,1.5-1.1,2.3-1.6c9.7-4.6,15.8-6,20.5-7.2
	c0.6-0.1,1.1-0.1,1.6-0.1c0,0,0,0,0,0c1.1-0.1,2.2-0.1,3,0c0,0,0,0,0,0c0.1,0,0.3,0,0.4,0c0,0,0,0,0,0c0.4,0.1,0.8,0.1,1.1,0.2
	c0,0,0,0,0,0c0.1,0,0.1,0,0.2,0.1c0,0,0.1,0,0.1,0c0.1,0,0.1,0,0.2,0.1c0,0,0.1,0,0.1,0.1c0,0,0.1,0,0.1,0.1c0.1,0,0.1,0.1,0.1,0.1
	c0,0,0.1,0,0.1,0.1c0.1,0,0.1,0.1,0.1,0.1c0,0,0.1,0,0.1,0.1c0.1,0.1,0.1,0.1,0.2,0.2l0,0c0.1,0.1,0.1,0.2,0.2,0.3c0,0,0,0,0,0
	c0.1,0.1,0.1,0.2,0.2,0.3c0.7,1.5,0.5,4.7-0.5,8.6c-3.8,10-6.1,12.5-9.8,16.2C-259,162.5-261.1,160.6-266.9,157.2z M-250.9,165.6
	c-1.3-0.2-2.6-0.4-3.9-0.7c0.4,0.1,0.8,0.2,1.1,0.2c0.1,0,0.1,0,0.2,0C-252.6,165.3-251.8,165.5-250.9,165.6
	C-250.9,165.6-250.9,165.6-250.9,165.6z M-256.2,164.6c0.4,0.1,0.8,0.2,1.2,0.3c0,0,0.1,0,0.1,0
	C-255.3,164.8-255.8,164.7-256.2,164.6z M-247.5,165.9L-247.5,165.9c0.9,0,1.7,0.1,2.6,0.1c0,0,0,0,0,0c0.8,0,1.6,0,2.4-0.1
	C-244.1,166-245.7,166-247.5,165.9z M-233.3,163.9c0,0,0.1,0,0.1-0.1c0.1,0,0.2-0.1,0.3-0.1c0,0,0,0,0.1,0
	C-233,163.8-233.1,163.9-233.3,163.9z"/>
<path class="st0" d="M-235.6,150c-0.6,1.8-1.3,3.7-2.1,5.6c1,2.9,1.2,5.2,0.5,6.2l0,0c-0.9,1.3-4.3,2.2-8.9,2.2
	c-9.7-1-13.1-2.3-17-4.6c-0.9-0.5-1.9-1.1-2.9-1.7c-0.3-0.2-0.6-0.3-0.8-0.5c-1.8-1.3-3.2-2.6-4.2-3.8c0,0,0,0,0,0
	c-1.1-1.2-1.6-2.3-1.6-3.1l0,0c0.1-1,1.2-2.5,3.1-4c0-1.8,0.1-3.6,0.3-5.3c-5.1,3-8.5,6.4-8.6,9c-0.2,3.3,4.5,8.2,11.2,12.3
	c0,0,0,0,0,0c0.3,0.2,0.7,0.4,1,0.6c0,0,0.1,0,0.1,0.1c0.4,0.2,0.7,0.4,1.1,0.6c0,0,0,0,0,0c0.3,0.2,0.7,0.4,1,0.5
	c0.1,0,0.2,0.1,0.2,0.1c0.4,0.2,0.7,0.4,1.1,0.6c0,0,0.1,0,0.1,0.1l0,0c11.7,5.5,26.6,3.3,28.9-0.3
	C-231.2,162.1-232.5,156.3-235.6,150z"/>
<path class="st32" d="M-259.4,169.7L-259.4,169.7c-1.5-0.5-3.3-3.6-4.5-8c-2-12.5-0.7-14.8,1.2-21.9c1.7-4.2,3.7-7.1,5.2-7.4l0,0
	c1-0.2,2.7,0.5,4.7,2c1.8-0.5,3.5-0.8,5.2-1c-4.2-4.1-8.4-6.6-11-6c-3.9,0.8-8.3,9.3-10.3,19.2c-2.3,12.8,3.4,26.7,7.7,28
	c2.9,0.9,8.2-1.8,13.4-6.4c-1.9-0.1-3.9-0.3-6-0.6C-256.1,169.2-258.2,170-259.4,169.7z"/>
<path class="st32" d="M-258.4,127.3c-3.4,0.8-6.9,9.3-8.3,19.1c-1.6,12.3,3.5,25.8,7.1,28.3c3-0.1,7.5-2.6,12-6.6
	c-1.9-0.1-3.9-0.3-6-0.6c-2.5,1.7-4.7,2.5-5.8,2.1l0,0c-1.5-0.5-3.2-3.6-4.4-8c-2-12.5-0.7-14.8,1.2-21.9c1.7-4.2,3.7-7.1,5.2-7.4
	l0,0c1-0.2,2.7,0.5,4.7,2c1.5-0.4,3-0.7,4.4-0.9c0.2-0.1,0.5-0.1,0.7-0.2C-251.7,129.2-255.8,126.8-258.4,127.3z"/>
<path class="st2" d="M-249.6,169.9c0.7-0.5,1.4-1.1,2.1-1.7c-1.9-0.1-3.9-0.3-6-0.6c-2.5,1.7-4.7,2.5-5.8,2.1l0,0
	c-0.3-0.1-0.5-0.3-0.8-0.5C-259,170.5-256.7,173.1-249.6,169.9z"/>
<path class="st0" d="M-247.5,133.3C-247.6,133.3-247.6,133.3-247.5,133.3c-1.8-1.6-4.7-2.3-7.6-1.7c-0.9,0.2-1.7,0.5-2.4,0.8
	c0.1,0,0.1,0,0.2-0.1l0,0c1-0.2,2.7,0.5,4.7,2c1.5-0.4,3-0.7,4.4-0.9C-248,133.4-247.8,133.3-247.5,133.3z"/>
</svg>
