<?xml version="1.0" encoding="utf-8"?>
<!-- Generator: Adobe Illustrator 19.0.0, SVG Export Plug-In . SVG Version: 6.00 Build 0)  -->
<svg version="1.1" id="Layer_1" xmlns="http://www.w3.org/2000/svg" xmlns:xlink="http://www.w3.org/1999/xlink" x="0px" y="0px"
	 viewBox="-280 372 50 50" style="enable-background:new -280 372 50 50;" xml:space="preserve">
<style type="text/css">
	.st0{fill:#5D5D5D;}
</style>
<g>
	<path class="st0" d="M-239.6,389.3c-0.1-0.2-0.3-0.5-0.5-0.7c-5.9-9.2-14.3-16.2-18.5-15.2c-1.2,0.2-2.5,1.2-3.7,2.7
		c2.4,0.1,4.9,1.1,7.2,2.8c1.3,0.6,2.8,1.7,4.5,3.2c2,1.6,8.6,9.1,12.3,18c1.4,3.6,1.8,6.5,1.1,7.7l0,0c-0.8,1.3-4.1,2.1-8.4,2.2
		c-0.4,1.5-0.9,2.8-1.5,4.1c6.9,0.3,12.6-1,14.3-3.5C-230.7,407.2-233.8,397.8-239.6,389.3z"/>
	<path class="st0" d="M-234.6,398.5c-0.3-0.8-0.7-1.6-1.1-2.5c-0.6,1.8-1.3,3.7-2.1,5.6c1,2.9,1.2,5.2,0.5,6.2l0,0
		c-0.1,0.2-0.4,0.4-0.7,0.6C-236.4,407.6-233.2,406.1-234.6,398.5z"/>
	<path class="st0" d="M-239.1,384.4L-239.1,384.4c1.1,1.2,1,4.7-0.1,9.2c-4.5,11.8-6.8,13.2-12,18.3c-3.5,2.8-6.7,4.3-8.2,3.8l0,0
		c-1-0.3-2.1-1.8-3.1-4.1c-1.8-0.5-3.4-1.1-5-1.7c1.6,5.7,4,9.9,6.5,10.7c3.8,1.3,11.9-3.9,18.5-11.5c8.4-9.9,10.5-24.7,7.3-28.1
		c-2.1-2.2-7.9-2.6-14.8-1.2c1.6,1,3.3,2.2,4.9,3.5C-242.2,383.1-239.9,383.5-239.1,384.4z"/>
	<path class="st0" d="M-235.1,397.2L-235.1,397.2L-235.1,397.2L-235.1,397.2z"/>
	<path class="st0" d="M-234.6,398.4C-234.6,398.4-234.6,398.3-234.6,398.4C-234.6,398.3-234.6,398.4-234.6,398.4L-234.6,398.4z"/>
	<path class="st0" d="M-234.6,398.3c-0.1-0.3-0.3-0.6-0.4-0.9c0.1,0.2,0.2,0.3,0.2,0.5C-234.7,398.1-234.7,398.2-234.6,398.3z"/>
	<path class="st0" d="M-234.6,398.5c1.9,4.4,2.7,8.4,2.1,10.9l0,0C-231.8,406.9-232.7,402.9-234.6,398.5L-234.6,398.5z"/>
	<path class="st0" d="M-235.7,396c0.2,0.4,0.4,0.8,0.5,1.1C-235.3,396.8-235.5,396.4-235.7,396z"/>
	<path class="st0" d="M-234.6,398.4C-234.6,398.4-234.6,398.3-234.6,398.4c-0.1-0.2-0.1-0.3-0.2-0.4
		C-234.7,398.1-234.7,398.2-234.6,398.4z"/>
	<path class="st0" d="M-234.6,398.4C-234.6,398.4-234.6,398.3-234.6,398.4c-0.1-0.2-0.1-0.3-0.2-0.4
		C-234.7,398.1-234.7,398.2-234.6,398.4z"/>
	<path class="st0" d="M-237.5,408.1c0.1-0.1,0.1-0.1,0.2-0.2C-237.4,407.9-237.4,408-237.5,408.1z"/>
	<path class="st0" d="M-237.5,408.1c0.1-0.1,0.1-0.1,0.2-0.2C-237.4,407.9-237.4,408-237.5,408.1z"/>
	<path class="st0" d="M-234.6,398.5c1.3,7.7-1.8,9.2-3.4,10l0,0c-1.4,1-4.4,1.6-8.2,1.6c-5.3-0.5-8.7-1.2-11.3-2
		c0,0.6,0.1,1.1,0.2,1.7c0,0.2,0.1,0.4,0.2,0.7c10.4,2.8,21.7,1.5,24.7-1C-231.9,406.9-232.7,402.9-234.6,398.5z"/>
	<path class="st0" d="M-237.7,408.2l0.1-0.1C-237.6,408.2-237.6,408.2-237.7,408.2z"/>
	<path class="st0" d="M-237.7,408.2l0.1-0.1C-237.6,408.2-237.6,408.2-237.7,408.2z"/>
	<path class="st0" d="M-235.1,397.1c-0.2-0.4-0.4-0.7-0.5-1.1C-235.5,396.4-235.3,396.8-235.1,397.1
		C-235.1,397.2-235.1,397.2-235.1,397.1z"/>
	<path class="st0" d="M-235.1,397.1c-0.2-0.4-0.4-0.7-0.5-1.1C-235.5,396.4-235.3,396.8-235.1,397.1
		C-235.1,397.2-235.1,397.2-235.1,397.1z"/>
	<path class="st0" d="M-234.6,398.5L-234.6,398.5v-0.1l0,0C-234.6,398.4-234.6,398.4-234.6,398.5z"/>
	<path class="st0" d="M-235,397.4c0-0.1-0.1-0.1-0.1-0.2C-235.1,397.3-235.1,397.3-235,397.4L-235,397.4z"/>
	<path class="st0" d="M-238,408.5c0.1-0.1,0.2-0.2,0.3-0.2C-237.8,408.3-237.9,408.4-238,408.5z"/>
	<path class="st0" d="M-237.6,408.1C-237.5,408.1-237.5,408.1-237.6,408.1C-237.5,408.1-237.5,408.1-237.6,408.1z"/>
	<path class="st0" d="M-235.1,397.3v-0.1l0,0V397.3z"/>
	<path class="st0" d="M-235.1,397.3v-0.1l0,0V397.3z"/>
	<path class="st0" d="M-234.6,398.4L-234.6,398.4L-234.6,398.4L-234.6,398.4z"/>
	<path class="st0" d="M-234.6,398.4L-234.6,398.4L-234.6,398.4L-234.6,398.4z"/>
	<path class="st0" d="M-234.8,397.9c-0.1-0.2-0.2-0.3-0.2-0.5v-0.1C-235,397.5-234.9,397.7-234.8,397.9z"/>
	<path class="st0" d="M-234.8,397.9c-0.1-0.2-0.2-0.3-0.2-0.5v-0.1C-235,397.5-234.9,397.7-234.8,397.9z"/>
	<path class="st0" d="M-234.6,398.5L-234.6,398.5v-0.1V398.5z"/>
	<path class="st0" d="M-234.6,398.5L-234.6,398.5v-0.1V398.5z"/>
	<path class="st0" d="M-234.6,398.5v-0.1l0,0c-0.1-0.1-0.1-0.3-0.2-0.4c-0.1-0.2-0.2-0.4-0.3-0.6c0,0,0-0.1-0.1-0.1
		c-0.2-0.4-0.4-0.8-0.6-1.2c-0.6,1.8-1.3,3.7-2.1,5.6c1,2.9,1.2,5.2,0.5,6.2l0,0c0,0.1-0.1,0.1-0.2,0.2l-0.1,0.1l-0.1,0.1
		c-0.1,0.1-0.2,0.2-0.3,0.2l0,0C-236.4,407.6-233.2,406.1-234.6,398.5z"/>
	<path class="st0" d="M-234.6,398.5v-0.1l0,0c-0.1-0.1-0.1-0.3-0.2-0.4c-0.1-0.2-0.2-0.4-0.3-0.6c0,0,0-0.1-0.1-0.1
		c-0.2-0.4-0.4-0.8-0.6-1.2c-0.6,1.8-1.3,3.7-2.1,5.6c1,2.9,1.2,5.2,0.5,6.2l0,0c0,0.1-0.1,0.1-0.2,0.2l-0.1,0.1l-0.1,0.1
		c-0.1,0.1-0.2,0.2-0.3,0.2l0,0C-236.4,407.6-233.2,406.1-234.6,398.5z"/>
	<path class="st0" d="M-235.1,397.3L-235.1,397.3c0-0.1,0-0.1-0.1-0.2l0,0c-0.2-0.4-0.4-0.8-0.5-1.1c-0.6,1.8-1.3,3.7-2.1,5.6
		c1,2.9,1.2,5.2,0.5,6.2l0,0c0,0.1-0.1,0.1-0.2,0.2c0,0,0,0.1-0.1,0.1l-0.1,0.1l0,0c-0.1,0.1-0.2,0.2-0.3,0.2l0,0
		c-0.1,0.1-0.2,0.1-0.2,0.2c0,0,0,0-0.1,0s-0.2,0.1-0.3,0.1h-0.1c-0.1,0-0.2,0.1-0.3,0.1h-0.1c-0.1,0-0.2,0.1-0.3,0.1l0,0
		c-0.2,0.1-0.4,0.1-0.7,0.2c-0.1,0-0.1,0-0.2,0.1c-0.1,0-0.2,0-0.2,0.1c-0.1,0-0.2,0-0.3,0.1c-0.1,0-0.2,0-0.2,0
		c-0.1,0-0.2,0-0.4,0.1c-0.1,0-0.1,0-0.2,0c-0.2,0-0.3,0.1-0.5,0.1h-0.1c-0.9,0.1-1.9,0.2-3,0.2l0,0c-0.3,0-0.5,0-0.8,0
		c0.5-0.6,1-1.3,1.6-1.9c5.3-7,8.1-16.3,8.6-22.5c0.7,0.2,1.3,0.4,1.9,0.7c0-2.4-0.4-4.3-1.4-5.4c-1.5-1.7-5-2.3-9.5-1.9h-0.1
		c-0.3,0-0.5,0-0.8,0.1c-0.1,0-0.1,0-0.2,0c-0.3,0-0.5,0.1-0.8,0.1c-0.1,0-0.1,0-0.2,0c-0.3,0-0.6,0.1-1,0.1c-0.1,0-0.2,0-0.3,0
		c-0.2,0-0.5,0.1-0.7,0.1c-0.1,0-0.3,0-0.4,0.1c-0.2,0-0.4,0.1-0.6,0.1c-0.1,0-0.2,0-0.3,0l0,0c-2.4,0.5-5,1.2-7.5,2.1
		c-0.3,0.1-0.5,0.2-0.8,0.2c-8,2.6-15,6.8-18,10.6l0,0c-0.6,0.7-1,1.5-1.2,2.2l0,0c-0.1,0.2-0.1,0.3-0.1,0.5l0,0
		c0,0.2-0.1,0.4-0.1,0.6c-0.1,2.2,2,5.2,5.4,8.1c-0.1-0.5-0.1-0.9-0.1-1.4c2.9,2.2,6.7,4.3,11,6.2c1.5,0.6,3,1.1,4.5,1.5l0,0
		c0.2,0.1,0.4,0.1,0.6,0.2c0.1,0,0.1,0,0.2,0.1c-0.3-0.1-0.5-0.1-0.8-0.2c0.3,0.9,0.6,1.8,1.1,2.7c0.8,0.2,1.6,0.4,2.4,0.5
		c-2.5,1.7-4.7,2.5-5.8,2.1l0,0c-1-0.3-2.1-1.8-3.1-4.1c-1.5-0.4-2.9-0.9-4.3-1.4c-0.2-0.1-0.5-0.1-0.7-0.2
		c1.6,5.6,3.9,9.7,6.4,10.6c2.4,0.7,6.8-1.9,11.4-6.4c8.1,0.8,15.2-0.9,16.8-3.5c0.2-0.4,0.4-0.8,0.5-1.3c-0.1,0.1-0.2,0.2-0.3,0.2
		c0.1-0.1,0.2-0.2,0.3-0.2l0,0l0,0C-231.8,406.7-232.8,402.2-235.1,397.3z M-233.9,410.2c0.1-0.1,0.3-0.1,0.4-0.2
		c-0.3,0.2-0.7,0.3-1.1,0.5c0.1-0.1,0.3-0.1,0.4-0.2C-234.1,410.3-234,410.2-233.9,410.2z M-235.5,410.8c0.1,0,0.1,0,0.2-0.1
		c0.2,0,0.3-0.1,0.5-0.2c-0.4,0.1-0.9,0.3-1.4,0.4C-236,410.9-235.7,410.9-235.5,410.8z M-236.4,411h0.1c-0.3,0.1-0.5,0.1-0.8,0.2
		c0,0,0,0,0.1,0C-236.8,411.1-236.6,411.1-236.4,411z M-237.3,411.2c-0.6,0.1-1.3,0.2-1.9,0.3h0.1
		C-238.5,411.5-237.8,411.4-237.3,411.2z M-240.2,411.7c0.3,0,0.6-0.1,1-0.1C-239.6,411.6-239.9,411.7-240.2,411.7L-240.2,411.7z
		 M-240.3,411.7c-0.7,0.1-1.5,0.1-2.2,0.2C-241.7,411.8-241,411.8-240.3,411.7z M-267,403.2c-2.2-1.6-3.9-3.2-4.8-4.6
		c-0.1-0.1-0.1-0.2-0.2-0.3v-0.1c-0.2-0.3-0.3-0.5-0.4-0.8c0-0.1-0.1-0.1-0.1-0.2s0-0.1-0.1-0.2c0-0.1,0-0.1-0.1-0.2v-0.1
		c0-0.1,0-0.1,0-0.2v-0.1c0-0.1,0-0.2,0-0.3l0,0c0-0.1,0-0.2,0-0.2v-0.1c0-0.1,0-0.1,0.1-0.2v-0.1c0-0.1,0.1-0.2,0.1-0.3
		c0,0,0,0,0-0.1s0.1-0.1,0.1-0.2c0,0,0-0.1,0.1-0.1c0-0.1,0.1-0.1,0.1-0.2l0.1-0.1c0-0.1,0.1-0.1,0.1-0.2c0.1-0.1,0.1-0.2,0.2-0.2
		l0.1-0.1c0.1-0.1,0.1-0.1,0.2-0.2l0.1-0.1c0.2-0.2,0.5-0.5,0.7-0.7l0,0c0.1-0.1,0.2-0.2,0.3-0.3l0,0c0.2-0.2,0.4-0.4,0.7-0.6l0,0
		c0.7-0.5,1.5-1.1,2.3-1.6c9.7-4.6,15.8-6,20.5-7.2c0.6-0.1,1.1-0.1,1.6-0.1l0,0c1.1-0.1,2.2-0.1,3,0l0,0c0.1,0,0.3,0,0.4,0l0,0
		c0.4,0.1,0.8,0.1,1.1,0.2l0,0c0.1,0,0.1,0,0.2,0.1h0.1c0.1,0,0.1,0,0.2,0.1c0,0,0.1,0,0.1,0.1c0,0,0.1,0,0.1,0.1
		c0.1,0,0.1,0.1,0.1,0.1s0.1,0,0.1,0.1c0.1,0,0.1,0.1,0.1,0.1s0.1,0,0.1,0.1c0.1,0.1,0.1,0.1,0.2,0.2l0,0c0.1,0.1,0.1,0.2,0.2,0.3
		l0,0c0.1,0.1,0.1,0.2,0.2,0.3c0.7,1.5,0.5,4.7-0.5,8.6c-3.8,10-6.1,12.5-9.8,16.2C-259.1,408.5-261.2,406.6-267,403.2z M-251,411.6
		c-1.3-0.2-2.6-0.4-3.9-0.7c0.4,0.1,0.8,0.2,1.1,0.2c0.1,0,0.1,0,0.2,0C-252.7,411.3-251.9,411.5-251,411.6L-251,411.6z
		 M-256.3,410.6c0.4,0.1,0.8,0.2,1.2,0.3h0.1C-255.4,410.8-255.9,410.7-256.3,410.6z M-247.6,411.9L-247.6,411.9
		c0.9,0,1.7,0.1,2.6,0.1l0,0c0.8,0,1.6,0,2.4-0.1C-244.2,412-245.8,412-247.6,411.9z M-233.4,409.9c0,0,0.1,0,0.1-0.1
		c0.1,0,0.2-0.1,0.3-0.1c0,0,0,0,0.1,0C-233.1,409.8-233.2,409.9-233.4,409.9z"/>
	<path class="st0" d="M-235.7,396c-0.6,1.8-1.3,3.7-2.1,5.6c1,2.9,1.2,5.2,0.5,6.2l0,0c-0.9,1.3-4.3,2.2-8.9,2.2
		c-9.7-1-13.1-2.3-17-4.6c-0.9-0.5-1.9-1.1-2.9-1.7c-0.3-0.2-0.6-0.3-0.8-0.5c-1.8-1.3-3.2-2.6-4.2-3.8l0,0
		c-1.1-1.2-1.6-2.3-1.6-3.1l0,0c0.1-1,1.2-2.5,3.1-4c0-1.8,0.1-3.6,0.3-5.3c-5.1,3-8.5,6.4-8.6,9c-0.2,3.3,4.5,8.2,11.2,12.3l0,0
		c0.3,0.2,0.7,0.4,1,0.6c0,0,0.1,0,0.1,0.1c0.4,0.2,0.7,0.4,1.1,0.6l0,0c0.3,0.2,0.7,0.4,1,0.5c0.1,0,0.2,0.1,0.2,0.1
		c0.4,0.2,0.7,0.4,1.1,0.6c0,0,0.1,0,0.1,0.1l0,0c11.7,5.5,26.6,3.3,28.9-0.3C-231.3,408.1-232.6,402.3-235.7,396z"/>
	<path class="st0" d="M-259.5,415.7L-259.5,415.7c-1.5-0.5-3.3-3.6-4.5-8c-2-12.5-0.7-14.8,1.2-21.9c1.7-4.2,3.7-7.1,5.2-7.4l0,0
		c1-0.2,2.7,0.5,4.7,2c1.8-0.5,3.5-0.8,5.2-1c-4.2-4.1-8.4-6.6-11-6c-3.9,0.8-8.3,9.3-10.3,19.2c-2.3,12.8,3.4,26.7,7.7,28
		c2.9,0.9,8.2-1.8,13.4-6.4c-1.9-0.1-3.9-0.3-6-0.6C-256.2,415.2-258.3,416-259.5,415.7z"/>
	<path class="st0" d="M-258.5,373.3c-3.4,0.8-6.9,9.3-8.3,19.1c-1.6,12.3,3.5,25.8,7.1,28.3c3-0.1,7.5-2.6,12-6.6
		c-1.9-0.1-3.9-0.3-6-0.6c-2.5,1.7-4.7,2.5-5.8,2.1l0,0c-1.5-0.5-3.2-3.6-4.4-8c-2-12.5-0.7-14.8,1.2-21.9c1.7-4.2,3.7-7.1,5.2-7.4
		l0,0c1-0.2,2.7,0.5,4.7,2c1.5-0.4,3-0.7,4.4-0.9c0.2-0.1,0.5-0.1,0.7-0.2C-251.8,375.2-255.9,372.8-258.5,373.3z"/>
	<path class="st0" d="M-249.7,415.9c0.7-0.5,1.4-1.1,2.1-1.7c-1.9-0.1-3.9-0.3-6-0.6c-2.5,1.7-4.7,2.5-5.8,2.1l0,0
		c-0.3-0.1-0.5-0.3-0.8-0.5C-259.1,416.5-256.8,419.1-249.7,415.9z"/>
	<path class="st0" d="M-247.6,379.3C-247.7,379.3-247.7,379.3-247.6,379.3c-1.8-1.6-4.7-2.3-7.6-1.7c-0.9,0.2-1.7,0.5-2.4,0.8
		c0.1,0,0.1,0,0.2-0.1l0,0c1-0.2,2.7,0.5,4.7,2c1.5-0.4,3-0.7,4.4-0.9C-248.1,379.4-247.9,379.3-247.6,379.3z"/>
</g>
</svg>
