<svg width="20" height="20" viewBox="0 0 20 20" fill="none" xmlns="http://www.w3.org/2000/svg">
<g clip-path="url(#clip0_671_702)">
<path d="M19 17.6665H18.6667V11.9998C18.6667 11.4476 18.219 10.9998 17.6667 10.9998H13.3333V8.99984C13.3333 8.44755 12.8856 7.99984 12.3333 7.99984H11.3333V6.94684C11.6488 7.05109 11.9953 6.99552 12.2623 6.79784C12.5835 6.56614 12.7385 6.16728 12.658 5.77951L12.4037 4.52884L13.3567 3.66217C13.6539 3.39745 13.7658 2.98167 13.6417 2.60351C13.5197 2.21914 13.1817 1.94346 12.7807 1.90117L11.4883 1.75317L10.9457 0.590839C10.7745 0.230558 10.4112 0.000976562 10.0123 0.000976562C9.61345 0.000976562 9.25019 0.230558 9.079 0.590839L8.536 1.75317L7.24333 1.90217C6.84239 1.9445 6.50454 2.22019 6.38267 2.60451C6.25828 2.98247 6.36981 3.39821 6.66667 3.66317L7.62 4.52984L7.36667 5.77951C7.28617 6.16728 7.44114 6.56614 7.76233 6.79784C8.02042 6.99402 8.35806 7.05176 8.66667 6.95251V7.99984H7.66667C7.11438 7.99984 6.66667 8.44755 6.66667 8.99984V10.3332H2.33333C1.78105 10.3332 1.33333 10.7809 1.33333 11.3332V17.6665H1C0.447715 17.6665 0 18.1142 0 18.6665V18.9998C0 19.5521 0.447715 19.9998 1 19.9998H19C19.5523 19.9998 20 19.5521 20 18.9998V18.6665C20 18.1142 19.5523 17.6665 19 17.6665ZM17.6667 11.6665C17.8508 11.6665 18 11.8157 18 11.9998V17.6665H13.3333V11.6665H17.6667ZM8.15633 6.26017C8.04593 6.18143 7.99235 6.045 8.01967 5.91217L8.281 4.62784C8.32291 4.41813 8.25181 4.2018 8.09367 4.05784L7.11567 3.16951C7.01242 3.0806 6.97295 2.93822 7.01567 2.80884C7.05808 2.67383 7.17741 2.57749 7.31833 2.56451L8.64 2.41217C8.85105 2.38734 9.03444 2.25559 9.12533 2.06351L9.681 0.872839C9.74248 0.746905 9.87036 0.667027 10.0105 0.667027C10.1506 0.667027 10.2785 0.746905 10.34 0.872839L10.8957 2.06351C10.9866 2.25559 11.17 2.38734 11.381 2.41217L12.7027 2.56451C12.8436 2.57758 12.9628 2.67388 13.0053 2.80884C13.0481 2.93822 13.0086 3.0806 12.9053 3.16951L11.9273 4.05784C11.7692 4.2017 11.6981 4.4179 11.74 4.62751L12.0013 5.91217C12.0286 6.045 11.9751 6.18143 11.8647 6.26017C11.7489 6.34661 11.593 6.35642 11.4673 6.28517L10.307 5.64351C10.1217 5.54017 9.89602 5.54017 9.71067 5.64351L8.55033 6.28484C8.4254 6.35405 8.27166 6.34443 8.15633 6.26017ZM9.33333 6.61584L10.0123 6.24051L10.6667 6.60251V7.99984H9.33333V6.61584ZM7.33333 8.99984C7.33333 8.81574 7.48257 8.66651 7.66667 8.66651H12.3333C12.5174 8.66651 12.6667 8.81574 12.6667 8.99984V17.6665H7.33333V8.99984ZM2 11.3332C2 11.1491 2.14924 10.9998 2.33333 10.9998H6.66667V17.6665H2V11.3332ZM19.3333 18.9998C19.3333 19.1839 19.1841 19.3332 19 19.3332H1C0.815905 19.3332 0.666667 19.1839 0.666667 18.9998V18.6665C0.666667 18.4824 0.815905 18.3332 1 18.3332H19C19.1841 18.3332 19.3333 18.4824 19.3333 18.6665V18.9998Z" fill="white"/>
<path d="M14.6663 13.9996C14.8504 13.9996 14.9997 13.8504 14.9997 13.6663C14.9997 13.2981 15.2982 12.9996 15.6663 12.9996C16.0345 12.9996 16.333 13.2981 16.333 13.6663C16.333 14.0345 16.0345 14.333 15.6663 14.333C15.4822 14.333 15.333 14.4822 15.333 14.6663C15.333 14.8504 15.4822 14.9996 15.6663 14.9996C16.0345 14.9996 16.333 15.2981 16.333 15.6663C16.333 16.0345 16.0345 16.333 15.6663 16.333C15.2982 16.333 14.9997 16.0345 14.9997 15.6663C14.9997 15.4822 14.8504 15.333 14.6663 15.333C14.4822 15.333 14.333 15.4822 14.333 15.6663C14.3326 16.2804 14.7517 16.8153 15.3481 16.9619C15.9444 17.1085 16.5638 16.8288 16.8481 16.2845C17.1325 15.7402 17.0083 15.0721 16.5473 14.6663C17.0083 14.2605 17.1325 13.5924 16.8481 13.0481C16.5638 12.5038 15.9444 12.2241 15.3481 12.3707C14.7517 12.5173 14.3326 13.0522 14.333 13.6663C14.333 13.8504 14.4822 13.9996 14.6663 13.9996Z" fill="white"/>
<path d="M5.66667 16H4.13333C5.12667 14.985 5.66667 14.3 5.66667 13.3333C5.66667 12.597 5.06972 12 4.33333 12C3.59695 12 3 12.597 3 13.3333C3 13.5174 3.14924 13.6667 3.33333 13.6667C3.51743 13.6667 3.66667 13.5174 3.66667 13.3333C3.66667 12.9651 3.96514 12.6667 4.33333 12.6667C4.70153 12.6667 5 12.9651 5 13.3333C5 14.1953 4.40367 14.7917 3.09767 16.0977C3.00236 16.193 2.97386 16.3364 3.02544 16.4609C3.07702 16.5854 3.19853 16.6666 3.33333 16.6667H5.66667C5.85076 16.6667 6 16.5174 6 16.3333C6 16.1492 5.85076 16 5.66667 16Z" fill="white"/>
<path d="M8.66732 14.666H11.334C11.5181 14.666 11.6673 14.5167 11.6673 14.3326C11.6673 14.1485 11.5181 13.9993 11.334 13.9993H10.334V9.99929C10.334 9.86449 10.2527 9.74298 10.1282 9.69139C10.0037 9.63981 9.86032 9.66832 9.76499 9.76362L8.76498 10.7636C8.63866 10.8944 8.64047 11.1023 8.76905 11.2309C8.89762 11.3595 9.10553 11.3613 9.23632 11.235L9.66732 10.804V13.9993H8.66732C8.48322 13.9993 8.33398 14.1485 8.33398 14.3326C8.33398 14.5167 8.48322 14.666 8.66732 14.666Z" fill="white"/>
</g>
<defs>
<clipPath id="clip0_671_702">
<rect width="20" height="20" fill="white"/>
</clipPath>
</defs>
</svg>
