<svg width="20" height="20" viewBox="0 0 20 20" fill="none" xmlns="http://www.w3.org/2000/svg">
<g clip-path="url(#clip0_671_670)">
<path d="M16.6346 5.81499C16.7618 5.46216 16.6574 5.07949 16.3686 4.84014L13.9983 2.8756C13.8738 2.77236 13.6891 2.78962 13.5858 2.9142C13.4825 3.03877 13.4998 3.22347 13.6244 3.32676L15.9946 5.29129C16.1417 5.41317 16.0996 5.5708 16.0833 5.61623C16.0669 5.66166 15.9987 5.80983 15.8077 5.80983H13.6809C13.5191 5.80983 13.3879 5.94101 13.3879 6.10281V7.65491H6.83624V6.10281C6.83624 5.94101 6.70511 5.80983 6.54326 5.80983H4.45263C4.26023 5.80983 4.19254 5.66018 4.17636 5.61432C4.16019 5.56845 4.11902 5.40938 4.26883 5.28872L10.0271 0.649962C10.1351 0.562966 10.2911 0.56402 10.3978 0.65254L12.685 2.54813C12.8095 2.65138 12.9942 2.63411 13.0975 2.50953C13.2008 2.38496 13.1835 2.20026 13.0589 2.09698L10.7718 0.201388C10.4513 -0.0641706 9.9836 -0.067452 9.65949 0.193653L3.90123 4.83245C3.607 5.06949 3.49809 5.45294 3.62372 5.80928C3.74943 6.16563 4.07476 6.39587 4.45263 6.39587H6.25028V7.65499C6.25028 7.97809 6.51314 8.24095 6.83624 8.24095H13.388C13.7111 8.24095 13.9739 7.97809 13.9739 7.65499V6.39587H15.8077C16.1828 6.39583 16.5073 6.16785 16.6346 5.81499Z" fill="white"/>
<path d="M4.63023 11.3776C4.63023 11.0221 4.21303 10.9078 3.63558 10.7495C3.47803 10.7064 3.24869 10.6435 3.15572 10.6011C3.1088 10.4762 3.04095 10.1291 2.99469 9.89217C2.83117 9.05494 2.74113 8.59375 2.37076 8.59375C2.00039 8.59375 1.91035 9.05494 1.74683 9.89217C1.70054 10.129 1.63276 10.4762 1.58584 10.6011C1.49287 10.6435 1.26353 10.7063 1.10598 10.7495C0.528533 10.9078 0.111328 11.0221 0.111328 11.3776C0.111328 11.733 0.528533 11.8474 1.10598 12.0056C1.26353 12.0488 1.49287 12.1116 1.58584 12.1541C1.63276 12.279 1.70058 12.6261 1.74683 12.863C1.91035 13.7002 2.00039 14.1614 2.37076 14.1614C2.74113 14.1614 2.83117 13.7002 2.99469 12.863C3.04098 12.6261 3.1088 12.279 3.15572 12.1541C3.24869 12.1116 3.47803 12.0488 3.63558 12.0056C4.21303 11.8474 4.63023 11.733 4.63023 11.3776ZM2.72988 11.7405C2.60101 11.8694 2.54546 12.1063 2.41963 12.7507C2.40537 12.8237 2.38877 12.9088 2.3708 12.9971C2.35287 12.9088 2.33623 12.8237 2.32197 12.7507C2.19614 12.1063 2.14059 11.8693 2.01176 11.7405C1.88769 11.6164 1.66901 11.5523 1.26091 11.4404C1.19559 11.4225 1.11625 11.4008 1.03602 11.3775C1.11625 11.3543 1.19559 11.3325 1.26091 11.3147C1.66897 11.2028 1.88769 11.1387 2.01176 11.0146C2.14063 10.8858 2.19618 10.6488 2.32197 10.0044C2.33623 9.93139 2.35287 9.84634 2.3708 9.75794C2.38877 9.84631 2.40537 9.93139 2.41963 10.0044C2.54549 10.6488 2.60104 10.8857 2.72988 11.0146C2.85395 11.1386 3.07263 11.2028 3.48073 11.3146C3.54605 11.3325 3.62538 11.3543 3.70562 11.3775C3.62538 11.4007 3.54605 11.4225 3.48073 11.4404C3.07263 11.5523 2.85391 11.6164 2.72988 11.7405Z" fill="white"/>
<path d="M18.4803 13.0933C18.3228 13.0501 18.0934 12.9873 18.0004 12.9448C17.9535 12.8199 17.8857 12.4728 17.8394 12.2359C17.6759 11.3987 17.5859 10.9375 17.2155 10.9375C16.8451 10.9375 16.7551 11.3987 16.5916 12.2359C16.5453 12.4728 16.4775 12.8199 16.4306 12.9448C16.3376 12.9873 16.1083 13.0501 15.9507 13.0933C15.3733 13.2515 14.9561 13.3659 14.9561 13.7213C14.9561 14.0768 15.3733 14.1911 15.9507 14.3494C16.1083 14.3925 16.3376 14.4554 16.4306 14.4978C16.4775 14.6227 16.5453 14.9699 16.5916 15.2067C16.7551 16.044 16.8451 16.5052 17.2155 16.5052C17.5859 16.5052 17.6759 16.044 17.8394 15.2067C17.8857 14.9699 17.9535 14.6227 18.0004 14.4978C18.0934 14.4554 18.3228 14.3926 18.4803 14.3494C19.0577 14.1911 19.475 14.0768 19.475 13.7213C19.475 13.3659 19.0577 13.2515 18.4803 13.0933ZM18.3254 13.7842C17.9174 13.8961 17.6986 13.9602 17.5746 14.0842C17.4457 14.2131 17.3901 14.4501 17.2643 15.0944C17.2501 15.1675 17.2335 15.2525 17.2155 15.3409C17.1976 15.2525 17.1809 15.1675 17.1667 15.0944C17.0408 14.45 16.9853 14.2131 16.8564 14.0842C16.7324 13.9602 16.5137 13.896 16.1056 13.7842C16.0403 13.7663 15.9609 13.7445 15.8807 13.7213C15.9609 13.698 16.0403 13.6763 16.1056 13.6584C16.5137 13.5466 16.7324 13.4825 16.8564 13.3584C16.9853 13.2295 17.0409 12.9926 17.1667 12.3482C17.1809 12.2751 17.1976 12.1901 17.2155 12.1017C17.2335 12.1901 17.2501 12.2751 17.2643 12.3482C17.3902 12.9925 17.4457 13.2295 17.5746 13.3583C17.6986 13.4824 17.9173 13.5465 18.3254 13.6584C18.3907 13.6763 18.4701 13.698 18.5503 13.7213C18.4701 13.7446 18.3907 13.7663 18.3254 13.7842Z" fill="white"/>
<path d="M5.35335 14.2971H4.92916V13.6817C4.92916 13.5198 4.79802 13.3887 4.63618 13.3887C4.47433 13.3887 4.34319 13.5198 4.34319 13.6817V14.2971H3.91896C3.75711 14.2971 3.62598 14.4283 3.62598 14.5901C3.62598 14.7519 3.75711 14.8831 3.91896 14.8831H4.34319V15.4986C4.34319 15.6604 4.47433 15.7916 4.63618 15.7916C4.79802 15.7916 4.92916 15.6604 4.92916 15.4986V14.8831H5.35335C5.5152 14.8831 5.64633 14.7519 5.64633 14.5901C5.64633 14.4283 5.51516 14.2971 5.35335 14.2971Z" fill="white"/>
<path d="M16.5903 7.94825C16.5903 7.78645 16.4591 7.65527 16.2973 7.65527C16.1354 7.65527 16.0043 7.78645 16.0043 7.94825V8.56375H15.5801C15.4182 8.56375 15.2871 8.69493 15.2871 8.85673C15.2871 9.01854 15.4182 9.14971 15.5801 9.14971H16.0043V9.76517C16.0043 9.92697 16.1354 10.0582 16.2973 10.0582C16.4591 10.0582 16.5903 9.92697 16.5903 9.76517V9.14971H17.0145C17.1763 9.14971 17.3075 9.01854 17.3075 8.85673C17.3075 8.69493 17.1763 8.56375 17.0145 8.56375H16.5903V7.94825Z" fill="white"/>
<path d="M4.39664 9.63222C4.89217 9.63222 5.29527 9.22912 5.29527 8.73359C5.29527 8.23806 4.89217 7.83496 4.39664 7.83496C3.90111 7.83496 3.49805 8.2381 3.49805 8.73359C3.49805 9.22908 3.90115 9.63222 4.39664 9.63222ZM4.39664 8.42092C4.56903 8.42092 4.70931 8.56116 4.70931 8.73359C4.70931 8.90602 4.56903 9.04626 4.39664 9.04626C4.22425 9.04626 4.08397 8.90602 4.08397 8.73359C4.08397 8.56116 4.22425 8.42092 4.39664 8.42092Z" fill="white"/>
<path d="M18.9904 9.05371C18.4949 9.05371 18.0918 9.45681 18.0918 9.9523C18.0918 10.4478 18.4949 10.8509 18.9904 10.8509C19.486 10.8509 19.8891 10.4478 19.8891 9.9523C19.8891 9.45681 19.486 9.05371 18.9904 9.05371ZM18.9904 10.265C18.818 10.265 18.6778 10.1247 18.6778 9.9523C18.6778 9.77991 18.818 9.63967 18.9904 9.63967C19.1628 9.63967 19.3031 9.77991 19.3031 9.9523C19.3031 10.1247 19.1628 10.265 18.9904 10.265Z" fill="white"/>
<path d="M13.3877 15.3125H8.77284C8.611 15.3125 8.47986 15.4437 8.47986 15.6055C8.47986 15.7673 8.611 15.8985 8.77284 15.8985H13.3877V19.1213C13.3877 19.2828 13.2563 19.4142 13.0947 19.4142H7.12894C6.96737 19.4142 6.83596 19.2828 6.83596 19.1213V15.8985H7.60084C7.76268 15.8985 7.89382 15.7673 7.89382 15.6055C7.89382 15.4437 7.76268 15.3125 7.60084 15.3125H6.83596C6.51286 15.3125 6.25 15.5754 6.25 15.8985V19.1213C6.25 19.6059 6.64431 20.0002 7.12894 20.0002H13.0947C13.5793 20.0002 13.9737 19.6059 13.9737 19.1213V15.8985C13.9737 15.5754 13.7108 15.3125 13.3877 15.3125Z" fill="white"/>
<path d="M6.35179 14.0872C6.40309 14.1234 6.46196 14.1407 6.52024 14.1407C6.61231 14.1407 6.70298 14.0974 6.76002 14.0165L8.08281 12.1388L9.40361 14.0163C9.46064 14.0974 9.55131 14.1407 9.6435 14.1407C9.7017 14.1407 9.76054 14.1234 9.81183 14.0874C9.94418 13.9943 9.97597 13.8115 9.88285 13.6791L8.44126 11.6299L9.67768 9.87483C9.77089 9.74256 9.73921 9.55978 9.6069 9.46657C9.47451 9.37336 9.2918 9.40512 9.19868 9.53736L8.08316 11.1209L6.96932 9.53751C6.87627 9.40524 6.69357 9.37336 6.56114 9.46645C6.42879 9.55954 6.39699 9.74232 6.49012 9.87467L7.72474 11.6297L6.28109 13.6789C6.18784 13.8113 6.21948 13.994 6.35179 14.0872Z" fill="white"/>
<path d="M12.4892 9.41211H11.3359C11.2581 9.41211 11.1834 9.44309 11.1284 9.49825C11.0737 9.55317 11.043 9.62759 11.043 9.70509H11.043V13.8467C11.043 14.0085 11.1741 14.1397 11.3359 14.1397C11.4978 14.1397 11.6289 14.0085 11.6289 13.8467V12.3391C11.8987 12.3376 12.2922 12.3356 12.4892 12.3356C13.3078 12.3356 13.9738 11.6799 13.9738 10.8739C13.9738 10.0678 13.3078 9.41211 12.4892 9.41211ZM12.4892 11.7496C12.2933 11.7496 11.9055 11.7516 11.6353 11.7531C11.6338 11.4759 11.6318 11.0736 11.6318 10.8739C11.6318 10.7056 11.6307 10.2861 11.6298 9.99807H12.4892C12.9763 9.99807 13.3878 10.3991 13.3878 10.8739C13.3878 11.3486 12.9763 11.7496 12.4892 11.7496Z" fill="white"/>
<path d="M18.4121 7.2959C18.5739 7.2959 18.7051 7.16473 18.7051 7.00293C18.7051 6.84113 18.5739 6.70996 18.4121 6.70996C18.2503 6.70996 18.1191 6.84113 18.1191 7.00293C18.1191 7.16473 18.2503 7.2959 18.4121 7.2959Z" fill="white"/>
<path d="M1.95605 7.375C2.11786 7.375 2.24902 7.24383 2.24902 7.08203C2.24902 6.92023 2.11786 6.78906 1.95605 6.78906C1.79425 6.78906 1.66309 6.92023 1.66309 7.08203C1.66309 7.24383 1.79425 7.375 1.95605 7.375Z" fill="white"/>
<path d="M15.5605 16.6914C15.7223 16.6914 15.8535 16.5602 15.8535 16.3984C15.8535 16.2366 15.7223 16.1055 15.5605 16.1055C15.3987 16.1055 15.2676 16.2366 15.2676 16.3984C15.2676 16.5602 15.3987 16.6914 15.5605 16.6914Z" fill="white"/>
</g>
<defs>
<clipPath id="clip0_671_670">
<rect width="20" height="20" fill="white"/>
</clipPath>
</defs>
</svg>
