<svg width="401" height="319" viewBox="0 0 401 319" fill="none" xmlns="http://www.w3.org/2000/svg">
<path d="M208.002 300.773C302.517 300.773 379.137 296.573 379.137 291.392C379.137 286.211 302.517 282.011 208.002 282.011C113.487 282.011 36.8672 286.211 36.8672 291.392C36.8672 296.573 113.487 300.773 208.002 300.773Z" fill="url(#paint0_linear_7_521)"/>
<path d="M30.297 113.285C44.6829 25.765 124.932 -0.861072 188.929 20.0156C252.927 40.8923 285.664 116.498 262.053 188.884C238.438 261.271 171.706 171.074 133.61 270.662C107.276 339.501 17.9457 188.419 30.297 113.285Z" fill="url(#paint1_linear_7_521)"/>
<path d="M126.116 175.792C126.116 240.892 178.891 293.667 243.991 293.667C309.092 293.667 361.868 240.892 361.868 175.792C361.868 110.691 316.493 13.1868 243.991 85.6888C197.958 131.722 126.116 110.689 126.116 175.792Z" fill="url(#paint2_linear_7_521)"/>
<path d="M64.995 291.392C52.5695 266.602 51.1133 235.13 51.1133 200.87C51.1133 37.756 161.552 90.4268 195.859 153.343C234.132 223.527 310.336 118.193 340.607 200.87C352.384 233.04 335.777 266.602 320.943 291.392H64.995Z" fill="url(#paint3_linear_7_521)"/>
<path d="M280.051 52.842C273.406 61.4608 255.148 58.5261 239.27 46.2845C223.393 34.0443 215.908 17.133 222.553 8.51418C229.198 -0.10462 247.456 2.8301 263.334 15.0717C279.21 27.3133 286.696 44.2232 280.051 52.842Z" fill="url(#paint4_linear_7_521)"/>
<g opacity="0.5">
<g opacity="0.5">
<path opacity="0.5" d="M386.98 69.5547L388.586 71.1594L390.19 69.5544L388.584 67.9497L386.98 69.5547Z" fill="white"/>
<path opacity="0.5" d="M377.543 69.5542L379.149 71.1589L380.753 69.5539L379.147 67.9492L377.543 69.5542Z" fill="white"/>
<path opacity="0.5" d="M368.107 69.5557L369.713 71.1604L371.317 69.5554L369.711 67.9507L368.107 69.5557Z" fill="white"/>
<path opacity="0.5" d="M358.66 69.561L360.265 71.1653L361.87 69.5599L360.266 67.9556L358.66 69.561Z" fill="white"/>
<path opacity="0.5" d="M349.225 69.5607L350.829 71.165L352.434 69.5597L350.83 67.9553L349.225 69.5607Z" fill="white"/>
<path opacity="0.5" d="M397.994 67.9288L396.389 69.5347L397.993 71.1385L399.598 69.5327L397.994 67.9288Z" fill="white"/>
</g>
<g opacity="0.5">
<path opacity="0.5" d="M386.98 82.9663L388.586 84.571L390.19 82.966L388.584 81.3613L386.98 82.9663Z" fill="white"/>
<path opacity="0.5" d="M377.543 82.9663L379.149 84.571L380.753 82.966L379.147 81.3613L377.543 82.9663Z" fill="white"/>
<path opacity="0.5" d="M368.109 82.9674L369.715 84.572L371.318 82.967L369.712 81.3623L368.109 82.9674Z" fill="white"/>
<path opacity="0.5" d="M358.66 82.9723L360.265 84.5767L361.87 82.9713L360.266 81.3669L358.66 82.9723Z" fill="white"/>
<path opacity="0.5" d="M349.225 82.9723L350.829 84.5767L352.434 82.9713L350.83 81.3669L349.225 82.9723Z" fill="white"/>
<path opacity="0.5" d="M398.012 81.3759L396.407 82.9819L398.012 84.5856L399.617 82.9795L398.012 81.3759Z" fill="white"/>
</g>
<g opacity="0.5">
<path opacity="0.5" d="M386.944 96.3946L388.55 97.9995L390.155 96.3937L388.549 94.7888L386.944 96.3946Z" fill="white"/>
<path opacity="0.5" d="M377.509 96.3951L379.115 98L380.72 96.3942L379.114 94.7892L377.509 96.3951Z" fill="white"/>
<path opacity="0.5" d="M368.073 96.3944L369.679 97.9993L371.284 96.3934L369.678 94.7885L368.073 96.3944Z" fill="white"/>
<path opacity="0.5" d="M358.685 96.3722L360.29 97.978L361.896 96.3731L360.291 94.7673L358.685 96.3722Z" fill="white"/>
<path opacity="0.5" d="M349.247 96.3722L350.852 97.978L352.457 96.3731L350.852 94.7673L349.247 96.3722Z" fill="white"/>
<path opacity="0.5" d="M397.994 94.7494L396.389 96.3552L397.995 97.9601L399.599 96.3543L397.994 94.7494Z" fill="white"/>
</g>
<g opacity="0.5">
<path opacity="0.5" d="M386.945 109.806L388.551 111.411L390.156 109.805L388.55 108.2L386.945 109.806Z" fill="white"/>
<path opacity="0.5" d="M377.507 109.806L379.113 111.411L380.718 109.805L379.112 108.2L377.507 109.806Z" fill="white"/>
<path opacity="0.5" d="M368.071 109.806L369.677 111.41L371.282 109.805L369.676 108.2L368.071 109.806Z" fill="white"/>
<path opacity="0.5" d="M358.685 109.784L360.29 111.39L361.896 109.785L360.291 108.179L358.685 109.784Z" fill="white"/>
<path opacity="0.5" d="M349.248 109.784L350.853 111.39L352.458 109.785L350.853 108.179L349.248 109.784Z" fill="white"/>
<path opacity="0.5" d="M397.994 108.16L396.389 109.766L397.995 111.371L399.599 109.765L397.994 108.16Z" fill="white"/>
</g>
<g opacity="0.5">
<path opacity="0.5" d="M386.944 123.215L388.55 124.82L390.155 123.214L388.549 121.609L386.944 123.215Z" fill="white"/>
<path opacity="0.5" d="M377.507 123.216L379.113 124.821L380.718 123.215L379.112 121.61L377.507 123.216Z" fill="white"/>
<path opacity="0.5" d="M368.071 123.214L369.677 124.819L371.282 123.213L369.676 121.609L368.071 123.214Z" fill="white"/>
<path opacity="0.5" d="M358.685 123.196L360.29 124.802L361.896 123.197L360.291 121.591L358.685 123.196Z" fill="white"/>
<path opacity="0.5" d="M349.248 123.196L350.853 124.802L352.458 123.197L350.853 121.591L349.248 123.196Z" fill="white"/>
<path opacity="0.5" d="M398.005 121.598L396.4 123.202L398.006 124.808L399.61 123.203L398.005 121.598Z" fill="white"/>
</g>
<g opacity="0.5">
<path opacity="0.5" d="M386.943 136.627L388.549 138.232L390.154 136.626L388.548 135.021L386.943 136.627Z" fill="white"/>
<path opacity="0.5" d="M377.506 136.627L379.112 138.232L380.717 136.626L379.111 135.021L377.506 136.627Z" fill="white"/>
<path opacity="0.5" d="M368.072 136.626L369.678 138.231L371.283 136.625L369.677 135.02L368.072 136.626Z" fill="white"/>
<path opacity="0.5" d="M358.685 136.608L360.29 138.214L361.896 136.609L360.291 135.003L358.685 136.608Z" fill="white"/>
<path opacity="0.5" d="M349.247 136.608L350.852 138.214L352.457 136.609L350.852 135.003L349.247 136.608Z" fill="white"/>
<path opacity="0.5" d="M397.996 134.982L396.391 136.588L397.996 138.193L399.601 136.587L397.996 134.982Z" fill="white"/>
</g>
<g opacity="0.5">
<path opacity="0.5" d="M386.982 150.024L388.588 151.629L390.192 150.024L388.585 148.419L386.982 150.024Z" fill="white"/>
<path opacity="0.5" d="M377.545 150.024L379.151 151.629L380.755 150.024L379.149 148.419L377.545 150.024Z" fill="white"/>
<path opacity="0.5" d="M368.11 150.024L369.716 151.629L371.319 150.024L369.713 148.419L368.11 150.024Z" fill="white"/>
<path opacity="0.5" d="M358.659 150.029L360.264 151.634L361.869 150.028L360.265 148.424L358.659 150.029Z" fill="white"/>
<path opacity="0.5" d="M349.225 150.029L350.829 151.634L352.434 150.028L350.83 148.424L349.225 150.029Z" fill="white"/>
<path opacity="0.5" d="M397.995 148.393L396.39 149.999L397.994 151.602L399.599 149.997L397.995 148.393Z" fill="white"/>
</g>
<g opacity="0.5">
<path opacity="0.5" d="M386.982 163.436L388.588 165.04L390.192 163.435L388.585 161.831L386.982 163.436Z" fill="white"/>
<path opacity="0.5" d="M377.545 163.436L379.151 165.04L380.755 163.435L379.149 161.831L377.545 163.436Z" fill="white"/>
<path opacity="0.5" d="M368.11 163.436L369.716 165.041L371.319 163.436L369.713 161.831L368.11 163.436Z" fill="white"/>
<path opacity="0.5" d="M358.659 163.441L360.264 165.045L361.869 163.44L360.265 161.836L358.659 163.441Z" fill="white"/>
<path opacity="0.5" d="M349.225 163.441L350.829 165.045L352.434 163.44L350.83 161.835L349.225 163.441Z" fill="white"/>
<path opacity="0.5" d="M398.008 161.844L396.403 163.45L398.008 165.053L399.613 163.447L398.008 161.844Z" fill="white"/>
</g>
<g opacity="0.5">
<path opacity="0.5" d="M386.982 176.848L388.588 178.452L390.192 176.847L388.585 175.243L386.982 176.848Z" fill="white"/>
<path opacity="0.5" d="M377.545 176.848L379.151 178.452L380.755 176.847L379.149 175.243L377.545 176.848Z" fill="white"/>
<path opacity="0.5" d="M368.11 176.848L369.716 178.453L371.319 176.848L369.713 175.243L368.11 176.848Z" fill="white"/>
<path opacity="0.5" d="M358.659 176.853L360.264 178.457L361.869 176.852L360.265 175.248L358.659 176.853Z" fill="white"/>
<path opacity="0.5" d="M349.225 176.852L350.829 178.457L352.434 176.851L350.83 175.247L349.225 176.852Z" fill="white"/>
<path opacity="0.5" d="M398.008 175.255L396.403 176.861L398.008 178.465L399.613 176.859L398.008 175.255Z" fill="white"/>
</g>
<g opacity="0.5">
<path opacity="0.5" d="M386.946 56.1614L388.552 57.7664L390.157 56.1605L388.551 54.5556L386.946 56.1614Z" fill="white"/>
<path opacity="0.5" d="M377.511 56.1619L379.117 57.7668L380.722 56.161L379.116 54.5561L377.511 56.1619Z" fill="white"/>
<path opacity="0.5" d="M368.074 56.1612L369.68 57.7661L371.285 56.1603L369.679 54.5554L368.074 56.1612Z" fill="white"/>
<path opacity="0.5" d="M358.683 56.1356L360.288 57.7415L361.894 56.1365L360.289 54.5307L358.683 56.1356Z" fill="white"/>
<path opacity="0.5" d="M349.245 56.1356L350.85 57.7415L352.455 56.1365L350.851 54.5307L349.245 56.1356Z" fill="white"/>
<path opacity="0.5" d="M397.994 54.5177L396.389 56.1235L397.995 57.7285L399.599 56.1226L397.994 54.5177Z" fill="white"/>
</g>
<g opacity="0.5">
<path opacity="0.5" d="M386.969 190.261L388.575 191.867L390.181 190.262L388.574 188.655L386.969 190.261Z" fill="white"/>
<path opacity="0.5" d="M377.532 190.262L379.139 191.868L380.744 190.263L379.138 188.656L377.532 190.262Z" fill="white"/>
<path opacity="0.5" d="M368.096 190.261L369.702 191.868L371.308 190.262L369.701 188.656L368.096 190.261Z" fill="white"/>
<path opacity="0.5" d="M358.646 190.265L360.251 191.871L361.858 190.265L360.253 188.659L358.646 190.265Z" fill="white"/>
<path opacity="0.5" d="M349.21 190.264L350.814 191.87L352.422 190.264L350.817 188.658L349.21 190.264Z" fill="white"/>
<path opacity="0.5" d="M398.006 188.655L396.401 190.259L398.007 191.864L399.611 190.26L398.006 188.655Z" fill="white"/>
</g>
</g>
<g opacity="0.5">
<g opacity="0.5">
<path opacity="0.5" d="M122.33 306.193L120.725 307.798L122.33 309.403L123.935 307.797L122.33 306.193Z" fill="white"/>
<path opacity="0.5" d="M122.316 296.802L120.71 298.407L122.315 300.013L123.921 298.408L122.316 296.802Z" fill="white"/>
<path opacity="0.5" d="M122.314 287.365L120.708 288.969L122.313 290.575L123.919 288.97L122.314 287.365Z" fill="white"/>
<path opacity="0.5" d="M122.33 277.885L120.725 279.49L122.33 281.095L123.935 279.49L122.33 277.885Z" fill="white"/>
<path opacity="0.5" d="M122.328 268.448L120.723 270.054L122.328 271.659L123.933 270.053L122.328 268.448Z" fill="white"/>
<path opacity="0.5" d="M123.908 317.248L122.303 315.643L120.697 317.248L122.302 318.853L123.908 317.248Z" fill="white"/>
</g>
<g opacity="0.5">
<path opacity="0.5" d="M108.917 306.194L107.312 307.8L108.918 309.404L110.523 307.799L108.917 306.194Z" fill="white"/>
<path opacity="0.5" d="M108.902 296.802L107.296 298.406L108.901 300.012L110.507 298.407L108.902 296.802Z" fill="white"/>
<path opacity="0.5" d="M108.902 287.364L107.296 288.969L108.901 290.575L110.507 288.97L108.902 287.364Z" fill="white"/>
<path opacity="0.5" d="M108.917 277.885L107.312 279.491L108.918 281.096L110.523 279.49L108.917 277.885Z" fill="white"/>
<path opacity="0.5" d="M108.915 268.448L107.311 270.054L108.916 271.659L110.521 270.053L108.915 268.448Z" fill="white"/>
<path opacity="0.5" d="M110.496 317.248L108.891 315.642L107.285 317.247L108.89 318.853L110.496 317.248Z" fill="white"/>
</g>
<g opacity="0.5">
<path opacity="0.5" d="M95.5043 306.194L93.8994 307.8L95.5053 309.405L97.1102 307.799L95.5043 306.194Z" fill="white"/>
<path opacity="0.5" d="M95.4896 296.8L93.8838 298.405L95.4887 300.011L97.0945 298.406L95.4896 296.8Z" fill="white"/>
<path opacity="0.5" d="M95.4896 287.363L93.8838 288.968L95.4887 290.574L97.0945 288.969L95.4896 287.363Z" fill="white"/>
<path opacity="0.5" d="M95.5043 277.886L93.8994 279.492L95.5053 281.097L97.1102 279.491L95.5043 277.886Z" fill="white"/>
<path opacity="0.5" d="M95.5043 268.449L93.8994 270.055L95.5053 271.66L97.1102 270.054L95.5043 268.449Z" fill="white"/>
<path opacity="0.5" d="M97.1174 317.261L95.5127 315.655L93.9066 317.26L95.5113 318.866L97.1174 317.261Z" fill="white"/>
</g>
<g opacity="0.5">
<path opacity="0.5" d="M82.0961 306.195L80.4912 307.801L82.097 309.405L83.702 307.8L82.0961 306.195Z" fill="white"/>
<path opacity="0.5" d="M82.0785 296.8L80.4727 298.405L82.0776 300.011L83.6834 298.406L82.0785 296.8Z" fill="white"/>
<path opacity="0.5" d="M82.0785 287.363L80.4727 288.968L82.0776 290.574L83.6834 288.969L82.0785 287.363Z" fill="white"/>
<path opacity="0.5" d="M82.0961 277.887L80.4912 279.493L82.097 281.098L83.702 279.492L82.0961 277.887Z" fill="white"/>
<path opacity="0.5" d="M82.0942 268.45L80.4893 270.055L82.0951 271.66L83.7 270.055L82.0942 268.45Z" fill="white"/>
<path opacity="0.5" d="M83.6743 317.246L82.0693 315.641L80.4635 317.246L82.0684 318.851L83.6743 317.246Z" fill="white"/>
</g>
<g opacity="0.5">
<path opacity="0.5" d="M68.684 306.195L67.0791 307.801L68.6849 309.406L70.2899 307.8L68.684 306.195Z" fill="white"/>
<path opacity="0.5" d="M68.6654 296.799L67.0596 298.404L68.6645 300.01L70.2703 298.405L68.6654 296.799Z" fill="white"/>
<path opacity="0.5" d="M68.6654 287.362L67.0596 288.967L68.6645 290.573L70.2703 288.968L68.6654 287.362Z" fill="white"/>
<path opacity="0.5" d="M68.684 277.888L67.0791 279.493L68.6849 281.098L70.2899 279.493L68.684 277.888Z" fill="white"/>
<path opacity="0.5" d="M68.6821 268.45L67.0771 270.056L68.683 271.661L70.2879 270.055L68.6821 268.45Z" fill="white"/>
<path opacity="0.5" d="M70.2621 317.246L68.6572 315.64L67.0514 317.245L68.6563 318.851L70.2621 317.246Z" fill="white"/>
</g>
<g opacity="0.5">
<path opacity="0.5" d="M55.258 306.224L53.6533 307.83L55.2583 309.433L56.863 307.827L55.258 306.224Z" fill="white"/>
<path opacity="0.5" d="M55.2625 296.78L53.6582 298.384L55.2636 299.989L56.8679 298.385L55.2625 296.78Z" fill="white"/>
<path opacity="0.5" d="M55.2625 287.344L53.6582 288.948L55.2636 290.553L56.8679 288.949L55.2625 287.344Z" fill="white"/>
<path opacity="0.5" d="M55.26 277.915L53.6553 279.521L55.2613 281.125L56.866 279.519L55.26 277.915Z" fill="white"/>
<path opacity="0.5" d="M55.26 268.477L53.6553 270.083L55.2603 271.686L56.865 270.08L55.26 268.477Z" fill="white"/>
<path opacity="0.5" d="M56.875 317.257L55.2686 315.651L53.6632 317.256L55.2696 318.863L56.875 317.257Z" fill="white"/>
</g>
<g opacity="0.5">
<path opacity="0.5" d="M41.8637 306.195L40.2588 307.801L41.8646 309.406L43.4696 307.8L41.8637 306.195Z" fill="white"/>
<path opacity="0.5" d="M41.8422 296.799L40.2363 298.404L41.8412 300.01L43.4471 298.405L41.8422 296.799Z" fill="white"/>
<path opacity="0.5" d="M41.8422 287.361L40.2363 288.966L41.8412 290.572L43.4471 288.967L41.8422 287.361Z" fill="white"/>
<path opacity="0.5" d="M41.8637 277.888L40.2588 279.493L41.8646 281.098L43.4696 279.493L41.8637 277.888Z" fill="white"/>
<path opacity="0.5" d="M41.8618 268.451L40.2568 270.057L41.8627 271.662L43.4676 270.056L41.8618 268.451Z" fill="white"/>
<path opacity="0.5" d="M43.4418 317.245L41.8369 315.639L40.2311 317.244L41.836 318.85L43.4418 317.245Z" fill="white"/>
</g>
<g opacity="0.5">
<path opacity="0.5" d="M28.4526 306.196L26.8477 307.802L28.4535 309.407L30.0584 307.801L28.4526 306.196Z" fill="white"/>
<path opacity="0.5" d="M28.43 296.798L26.8242 298.403L28.4291 300.009L30.035 298.404L28.43 296.798Z" fill="white"/>
<path opacity="0.5" d="M28.43 287.361L26.8242 288.966L28.4291 290.572L30.035 288.967L28.43 287.361Z" fill="white"/>
<path opacity="0.5" d="M28.4526 277.889L26.8477 279.494L28.4535 281.099L30.0584 279.493L28.4526 277.889Z" fill="white"/>
<path opacity="0.5" d="M28.4506 268.451L26.8457 270.057L28.4515 271.662L30.0565 270.056L28.4506 268.451Z" fill="white"/>
<path opacity="0.5" d="M30.0307 317.245L28.4258 315.639L26.8199 317.244L28.4249 318.85L30.0307 317.245Z" fill="white"/>
</g>
<g opacity="0.5">
<path opacity="0.5" d="M15.0312 306.215L13.4248 307.821L15.0302 309.427L16.6366 307.82L15.0312 306.215Z" fill="white"/>
<path opacity="0.5" d="M15.0367 296.769L13.4307 298.374L15.0364 299.981L16.6425 298.376L15.0367 296.769Z" fill="white"/>
<path opacity="0.5" d="M15.0387 287.333L13.4326 288.938L15.0384 290.545L16.6444 288.94L15.0387 287.333Z" fill="white"/>
<path opacity="0.5" d="M15.0312 277.904L13.4248 279.511L15.0312 281.117L16.6377 279.511L15.0312 277.904Z" fill="white"/>
<path opacity="0.5" d="M15.0332 268.468L13.4268 270.075L15.0321 271.68L16.6386 270.074L15.0332 268.468Z" fill="white"/>
<path opacity="0.5" d="M16.6506 317.263L15.0459 315.657L13.4388 317.262L15.0435 318.869L16.6506 317.263Z" fill="white"/>
</g>
<g opacity="0.5">
<path opacity="0.5" d="M135.726 306.227L134.121 307.833L135.726 309.437L137.331 307.831L135.726 306.227Z" fill="white"/>
<path opacity="0.5" d="M135.73 296.78L134.126 298.385L135.731 299.99L137.336 298.386L135.73 296.78Z" fill="white"/>
<path opacity="0.5" d="M135.73 287.344L134.126 288.949L135.731 290.554L137.336 288.95L135.73 287.344Z" fill="white"/>
<path opacity="0.5" d="M135.728 277.918L134.123 279.524L135.729 281.129L137.334 279.523L135.728 277.918Z" fill="white"/>
<path opacity="0.5" d="M135.728 268.48L134.123 270.086L135.728 271.69L137.333 270.084L135.728 268.48Z" fill="white"/>
<path opacity="0.5" d="M137.343 317.256L135.736 315.65L134.131 317.255L135.737 318.861L137.343 317.256Z" fill="white"/>
</g>
<g opacity="0.5">
<path opacity="0.5" d="M1.63227 306.197L0.0273438 307.802L1.63318 309.407L3.23811 307.802L1.63227 306.197Z" fill="white"/>
<path opacity="0.5" d="M1.60779 296.796L0.00195312 298.401L1.60687 300.007L3.2127 298.402L1.60779 296.796Z" fill="white"/>
<path opacity="0.5" d="M1.60779 287.359L0.00195312 288.964L1.60687 290.57L3.2127 288.965L1.60779 287.359Z" fill="white"/>
<path opacity="0.5" d="M1.63227 277.889L0.0273438 279.495L1.63318 281.1L3.23811 279.494L1.63227 277.889Z" fill="white"/>
<path opacity="0.5" d="M1.63032 268.452L0.0253906 270.057L1.63123 271.662L3.23615 270.056L1.63032 268.452Z" fill="white"/>
<path opacity="0.5" d="M3.21039 317.245L1.60547 315.639L-0.000368694 317.244L1.60456 318.849L3.21039 317.245Z" fill="white"/>
</g>
</g>
<path d="M249.752 162.834C225.617 159.724 202.26 159.644 178.272 162.834V145.336H249.752V162.834Z" fill="#023E8A"/>
<path d="M214.011 156.567L161.303 139.956L214.011 121.267L270.583 138.917L214.011 156.567Z" fill="#023E8A"/>
<path d="M260.564 140.383H258.646V167.556H260.564V140.383Z" fill="#023E8A"/>
<path d="M259.605 172.752C261.304 172.752 262.682 171.374 262.682 169.674C262.682 167.975 261.304 166.597 259.605 166.597C257.905 166.597 256.527 167.975 256.527 169.674C256.527 171.374 257.905 172.752 259.605 172.752Z" fill="#023E8A"/>
<path d="M322.095 123.794L288.041 124.186L318.482 143.846L319.144 134.616L324.88 131.471L298.366 125.718L321.412 128.326L322.998 126.614L325.669 123.733L322.095 123.794Z" fill="#0077B6"/>
<path fill-rule="evenodd" clip-rule="evenodd" d="M333.857 133.184L333.589 134.15C333.052 133.998 332.516 133.856 331.976 133.719L332.226 132.749C332.772 132.887 333.315 133.032 333.857 133.184Z" fill="white"/>
<path fill-rule="evenodd" clip-rule="evenodd" d="M329.288 132.038L330.93 132.423L330.694 133.397L329.068 133.015L329.288 132.038Z" fill="white"/>
<path fill-rule="evenodd" clip-rule="evenodd" d="M326.331 131.428L327.99 131.757L327.785 132.737L326.149 132.414L326.331 131.428Z" fill="white"/>
<path fill-rule="evenodd" clip-rule="evenodd" d="M340.546 136.406L340.902 135.469L342.476 136.092L342.096 137.019L340.546 136.406Z" fill="white"/>
<path fill-rule="evenodd" clip-rule="evenodd" d="M338.048 134.456C338.58 134.64 339.117 134.81 339.644 135.008L339.307 135.951C338.787 135.755 338.255 135.59 337.732 135.407L338.048 134.456Z" fill="white"/>
<path fill-rule="evenodd" clip-rule="evenodd" d="M336.782 134.049L336.481 135.004C335.952 134.832 335.42 134.674 334.886 134.518L335.168 133.557C335.706 133.715 336.247 133.874 336.782 134.049Z" fill="white"/>
<path fill-rule="evenodd" clip-rule="evenodd" d="M349.137 139.432C349.613 139.747 350.099 140.043 350.564 140.375L349.987 141.195C349.54 140.873 349.066 140.588 348.606 140.282L349.137 139.432Z" fill="white"/>
<path fill-rule="evenodd" clip-rule="evenodd" d="M347.968 138.744L347.472 139.615C346.999 139.329 346.505 139.08 346.013 138.824L346.472 137.933C346.975 138.195 347.482 138.449 347.968 138.744Z" fill="white"/>
<path fill-rule="evenodd" clip-rule="evenodd" d="M343.331 137.547L343.734 136.629C344.256 136.845 344.762 137.097 345.275 137.337L344.841 138.24C344.341 138.006 343.844 137.758 343.331 137.547Z" fill="white"/>
<path fill-rule="evenodd" clip-rule="evenodd" d="M354.982 146.301L355.849 145.796C356.134 146.311 356.389 146.852 356.623 147.394L355.687 147.755C355.474 147.262 355.243 146.772 354.982 146.301Z" fill="white"/>
<path fill-rule="evenodd" clip-rule="evenodd" d="M353.224 143.968L353.958 143.286C354.357 143.705 354.707 144.178 355.082 144.624L354.277 145.219C353.923 144.805 353.602 144.363 353.224 143.968Z" fill="white"/>
<path fill-rule="evenodd" clip-rule="evenodd" d="M351.057 141.987L351.676 141.2L352.993 142.316L352.312 143.052L351.057 141.987Z" fill="white"/>
<path fill-rule="evenodd" clip-rule="evenodd" d="M356.506 155.037C356.277 155.574 356.024 156.098 355.783 156.628L354.892 156.168C355.117 155.672 355.354 155.18 355.569 154.681L356.506 155.037Z" fill="white"/>
<path fill-rule="evenodd" clip-rule="evenodd" d="M356.243 151.858L357.24 151.955L357.103 152.833C357.052 153.125 357.025 153.424 356.921 153.7L355.951 153.448C356.05 153.192 356.072 152.922 356.117 152.657L356.243 151.858Z" fill="white"/>
<path fill-rule="evenodd" clip-rule="evenodd" d="M356.196 149.792L356.072 148.996L357.049 148.771L357.188 149.657C357.233 149.953 357.291 150.248 357.272 150.547L356.271 150.59C356.292 150.321 356.237 150.056 356.196 149.792Z" fill="white"/>
<path fill-rule="evenodd" clip-rule="evenodd" d="M351.196 162.593C350.785 162.986 350.39 163.4 349.948 163.756L349.284 163.004C349.717 162.657 350.096 162.256 350.495 161.875L351.196 162.593Z" fill="white"/>
<path fill-rule="evenodd" clip-rule="evenodd" d="M353.294 160.348L352.154 161.631L351.424 160.945L352.521 159.709L353.294 160.348Z" fill="white"/>
<path fill-rule="evenodd" clip-rule="evenodd" d="M354.225 157.313L355.079 157.838L354.629 158.578L354.114 159.269L353.307 158.676L353.799 158.016L354.225 157.313Z" fill="white"/>
<path fill-rule="evenodd" clip-rule="evenodd" d="M343.967 168.185L342.531 169.081L342.017 168.221L343.428 167.339L343.967 168.185Z" fill="white"/>
<path fill-rule="evenodd" clip-rule="evenodd" d="M346.491 166.495L345.095 167.456L344.538 166.622L345.909 165.679L346.491 166.495Z" fill="white"/>
<path fill-rule="evenodd" clip-rule="evenodd" d="M348.901 164.648C348.475 165.025 348.008 165.344 347.563 165.695L346.957 164.896C347.392 164.554 347.852 164.24 348.267 163.873L348.901 164.648Z" fill="white"/>
<path fill-rule="evenodd" clip-rule="evenodd" d="M335.566 171.674L336.003 172.576L334.475 173.292L334.055 172.382L335.566 171.674Z" fill="white"/>
<path fill-rule="evenodd" clip-rule="evenodd" d="M338.704 171.215C338.211 171.486 337.703 171.731 337.2 171.982L336.753 171.086C337.25 170.838 337.753 170.597 338.239 170.327L338.704 171.215Z" fill="white"/>
<path fill-rule="evenodd" clip-rule="evenodd" d="M341.35 169.762C340.862 170.044 340.377 170.33 339.878 170.588L339.398 169.708C339.892 169.453 340.371 169.17 340.852 168.894L341.35 169.762Z" fill="white"/>
<path fill-rule="evenodd" clip-rule="evenodd" d="M327.311 175.248L327.676 176.181L326.109 176.79L325.754 175.852L327.311 175.248Z" fill="white"/>
<path fill-rule="evenodd" clip-rule="evenodd" d="M330.088 174.127L330.475 175.051L328.917 175.692L328.543 174.762L330.088 174.127Z" fill="white"/>
<path fill-rule="evenodd" clip-rule="evenodd" d="M332.832 172.945L333.241 173.86L331.697 174.533L331.302 173.612L332.832 172.945Z" fill="white"/>
<path fill-rule="evenodd" clip-rule="evenodd" d="M318.833 178.286L319.146 179.239L317.545 179.751L317.241 178.796L318.833 178.286Z" fill="white"/>
<path fill-rule="evenodd" clip-rule="evenodd" d="M321.677 177.325L322.004 178.272L320.414 178.814L320.095 177.864L321.677 177.325Z" fill="white"/>
<path fill-rule="evenodd" clip-rule="evenodd" d="M324.49 176.319L324.835 177.258L323.255 177.833L322.919 176.889L324.49 176.319Z" fill="white"/>
<path fill-rule="evenodd" clip-rule="evenodd" d="M310.213 180.887L310.481 181.852L308.859 182.294L308.6 181.326L310.213 180.887Z" fill="white"/>
<path fill-rule="evenodd" clip-rule="evenodd" d="M313.096 180.063L313.378 181.024L311.763 181.49L311.49 180.526L313.096 180.063Z" fill="white"/>
<path fill-rule="evenodd" clip-rule="evenodd" d="M315.959 179.2L316.255 180.158L314.649 180.649L314.359 179.689L315.959 179.2Z" fill="white"/>
<path fill-rule="evenodd" clip-rule="evenodd" d="M299.85 183.459L301.48 183.098L301.702 184.075L300.058 184.439L299.85 183.459Z" fill="white"/>
<path fill-rule="evenodd" clip-rule="evenodd" d="M304.398 182.406L304.637 183.379L303.003 183.773L302.771 182.797L304.398 182.406Z" fill="white"/>
<path fill-rule="evenodd" clip-rule="evenodd" d="M307.295 181.671L307.548 182.64L305.92 183.059L305.676 182.087L307.295 181.671Z" fill="white"/>
<path d="M123.507 264.264C122.716 263.261 121.8 262.325 121.306 261.148C120.615 259.504 120.846 257.613 121.37 255.91C121.895 254.207 122.697 252.594 123.156 250.872C124.283 246.634 123.115 241.859 120.161 238.619C119.506 237.901 118.768 237.251 118.228 236.443C116.974 234.567 116.966 232.128 117.301 229.896C117.635 227.664 118.266 225.447 118.132 223.195C117.97 220.477 116.632 217.85 114.53 216.119C112.472 214.424 109.705 213.827 107.035 213.79C107.035 213.789 107.035 213.788 107.035 213.788C107.008 213.788 106.98 213.788 106.951 213.788C106.924 213.788 106.896 213.787 106.867 213.787V213.789C104.196 213.798 101.423 214.361 99.3465 216.032C97.2256 217.739 95.8586 220.349 95.6646 223.065C95.5039 225.316 96.1108 227.54 96.4198 229.776C96.7288 232.012 96.6929 234.45 95.4174 236.312C94.8687 237.113 94.1221 237.757 93.4597 238.466C90.4687 241.672 89.2476 246.434 90.3266 250.685C90.7653 252.411 91.5501 254.033 92.0544 255.743C92.5599 257.453 92.7688 259.346 92.0594 260.981C91.5514 262.152 90.6244 263.079 89.8223 264.072C86.8536 267.748 85.5731 273.259 88.1451 277.223C89.1722 278.805 90.7023 279.994 92.288 281.016C94.7512 282.603 97.4641 283.871 100.338 284.496C101.597 284.771 102.9 285.019 104.167 284.699C105.01 284.486 105.654 284.611 106.55 284.61C107.446 284.622 108.09 284.504 108.931 284.726C110.193 285.061 111.5 284.827 112.761 284.567C115.642 283.973 118.369 282.738 120.849 281.177C122.448 280.173 123.99 279.001 125.036 277.43C127.652 273.498 126.435 267.973 123.507 264.264Z" fill="#0077B6"/>
<path d="M120.246 260.431L107.892 273.664L107.455 247.642C109.316 245.163 116.717 235.312 116.717 235.312L107.415 245.277L107.149 229.466C107.955 228.393 113.841 220.559 113.841 220.559L107.121 227.758L106.934 216.645L106.711 230.902L100.281 223.856C100.281 223.856 105.42 230.861 106.685 232.583L106.434 248.653L97.2384 238.575C97.2384 238.575 104.628 248.646 106.397 251.056L105.984 277.413L93.4268 263.652C93.4268 263.652 104.644 278.943 105.932 280.696L105.871 284.585L108.08 284.598L107.949 276.801C110.348 273.606 120.246 260.431 120.246 260.431Z" fill="#8888BA"/>
<path d="M108.108 284.586H105.892V288.835H108.108V284.586Z" fill="#8888BA"/>
<path d="M97.1846 288.888H116.811L113.136 304.407H100.916L97.1846 288.888Z" fill="#FBB03B"/>
<path d="M116.811 287.712H97.1846V288.889H116.811V287.712Z" fill="#FFD648"/>
<path d="M133.313 128.911L137.982 131.465L133.313 134.019L130.759 138.687L128.205 134.019L123.535 131.465L128.205 128.911L130.759 124.242L133.313 128.911Z" fill="white"/>
<path d="M144.632 137.209L147.335 138.687L144.632 140.167L143.154 142.87L141.675 140.167L138.972 138.687L141.675 137.209L143.154 134.506L144.632 137.209Z" fill="white"/>
<path d="M272.159 107.309L267.489 109.862L272.159 112.416L274.712 117.085L277.267 112.416L281.936 109.862L277.267 107.309L274.712 102.638L272.159 107.309Z" fill="white"/>
<path d="M260.843 115.607L258.14 117.085L260.843 118.563L262.321 121.268L263.8 118.563L266.503 117.085L263.8 115.607L262.321 112.903L260.843 115.607Z" fill="white"/>
<path d="M396.412 268.327C397.551 270.425 400.002 268.957 400.002 268.957C400.002 268.957 399.862 268.265 398.76 267.688C397.939 267.256 396.759 267.613 396.341 267.764L394.988 267.73H394.967C394.665 267.744 394.367 267.768 394.068 267.798C397.928 266.433 396.109 261.876 396.109 261.876C396.109 261.876 394.898 261.926 393.612 263.637C392.583 265.009 392.987 267.339 393.108 267.911C391.567 268.133 390.081 268.522 388.66 269.035C388.843 268.858 389.032 268.658 389.222 268.43C390.693 266.669 390.044 263.327 390.044 263.327C384.775 264.005 385.825 268.959 386.139 270.096C384.416 270.926 382.819 271.906 381.375 272.931C381.746 272.419 382.134 271.682 382.415 270.638C383.08 268.157 380.849 265.07 380.849 265.07C375.684 268.319 379.399 273.016 380.128 273.854C379.202 274.568 378.351 275.29 377.585 275.982C376.745 276.742 375.972 277.501 375.268 278.23C375.525 277.539 375.743 276.448 375.534 274.882C375.163 272.099 371.615 269.919 371.615 269.919C367.853 275.245 373.237 278.402 374.497 279.047C372.104 281.641 370.721 283.677 370.704 283.705L371.17 284.019C371.185 283.997 372.09 282.665 373.699 280.791C375.692 287.106 382.556 283.896 382.556 283.896C382.556 283.896 382.385 282.173 379.841 280.485C378.201 279.395 375.758 279.679 374.443 279.943C375.429 278.845 376.616 277.62 377.974 276.39C378.42 275.986 378.898 275.57 379.403 275.153C381.17 281.111 387.545 278.131 387.545 278.131C387.545 278.131 387.389 276.556 385.062 275.011C383.599 274.039 381.436 274.263 380.215 274.499C381.688 273.342 383.365 272.194 385.205 271.203C386.297 276.837 392.294 274.566 392.294 274.566C392.294 274.566 392.261 273.151 390.291 271.618C389.003 270.614 386.954 270.712 385.879 270.852C387.868 269.847 390.033 269.039 392.327 268.611C392.232 273.72 397.766 272.733 397.766 272.733C397.766 272.733 397.962 271.535 396.545 269.932C395.443 268.685 393.186 268.579 392.517 268.575C393.324 268.433 394.145 268.335 394.98 268.293L396.412 268.327Z" fill="#023E8A"/>
<path d="M351.708 298.705C351.708 298.705 340.222 272.777 348.534 248.686C356.844 224.594 376.912 217.555 376.912 217.555C376.912 217.555 365 231.347 371.914 252.861C378.454 273.207 365.984 298.705 365.984 298.705H351.708Z" fill="#FBB03B"/>
<path d="M355.772 298.705C355.772 298.705 352.829 245.958 365.274 232.086C353.954 249.572 358.668 298.705 358.668 298.705H355.772Z" fill="#FFD648"/>
<path d="M375.502 298.704H363.219C363.708 296.54 365.476 290.001 369.884 285.069C375.242 279.075 382 279.656 382 279.656C382 279.656 378.323 283.69 377.76 290.936C377.533 293.822 376.556 296.53 375.502 298.704Z" fill="#0077B6"/>
<path d="M347.094 270.027C356.037 281.687 358.043 296.89 358.256 298.704H340.869C336.469 294.643 331.076 288.074 331.034 280.173C330.959 266.063 324.412 257.696 324.412 257.696C324.412 257.696 337.569 257.609 347.094 270.027Z" fill="#0077B6"/>
<path d="M367.2 298.705H366.279C368.028 294.7 372.489 285.314 376.666 283.406C372.58 286.146 368.822 294.636 367.2 298.705Z" fill="#8888BA"/>
<path d="M352.763 298.704H350.957C348.84 291.703 342.369 272.208 334.2 265.77C342.637 270.446 350.516 292.085 352.763 298.704Z" fill="#8888BA"/>
<path d="M382.656 298.704H330.819V300.76H382.656V298.704Z" fill="#8888BA"/>
<path d="M302.157 215.238C313.036 215.238 321.854 206.42 321.854 195.541C321.854 184.663 313.036 175.844 302.157 175.844C291.279 175.844 282.46 184.663 282.46 195.541C282.46 206.42 291.279 215.238 302.157 215.238Z" fill="#0077B6"/>
<path d="M302.158 211.446C310.943 211.446 318.064 204.325 318.064 195.541C318.064 186.757 310.943 179.635 302.158 179.635C293.374 179.635 286.253 186.757 286.253 195.541C286.253 204.325 293.374 211.446 302.158 211.446Z" fill="white"/>
<path d="M302.157 207.571C308.801 207.571 314.187 202.185 314.187 195.542C314.187 188.898 308.801 183.512 302.157 183.512C295.514 183.512 290.128 188.898 290.128 195.542C290.128 202.185 295.514 207.571 302.157 207.571Z" fill="#0077B6"/>
<path d="M302.157 202.976C306.264 202.976 309.593 199.647 309.593 195.541C309.593 191.434 306.264 188.105 302.157 188.105C298.051 188.105 294.722 191.434 294.722 195.541C294.722 199.647 298.051 202.976 302.157 202.976Z" fill="white"/>
<path d="M302.158 198.558C303.824 198.558 305.175 197.208 305.175 195.541C305.175 193.875 303.824 192.524 302.158 192.524C300.491 192.524 299.141 193.875 299.141 195.541C299.141 197.208 300.491 198.558 302.158 198.558Z" fill="#0077B6"/>
<path d="M327.658 170.924L327.471 166.328L322.769 171.03L323.092 174.624L305.963 191.753L304.272 190.062L302.407 195.719L308.355 194.145L306.555 192.345L323.567 175.333L326.914 175.813L332.121 170.605L327.658 170.924Z" fill="#0077B6"/>
<path d="M134.307 159.038L122.458 166.686L134.307 174.827L146.156 166.686L134.307 159.038Z" fill="#0077B6"/>
<path d="M141.562 161.66H126.471V176.749H141.562V161.66Z" fill="#FFD648"/>
<path d="M134.307 176.31L121.379 167.427V182.614C121.379 183.629 122.202 184.452 123.217 184.452H145.398C146.413 184.452 147.236 183.629 147.236 182.614V167.427L134.307 176.31Z" fill="#0077B6"/>
<path d="M163.22 232.879C167.201 232.879 170.427 229.653 170.427 225.673C170.427 221.692 167.201 218.466 163.22 218.466C159.24 218.466 156.014 221.692 156.014 225.673C156.014 229.653 159.24 232.879 163.22 232.879Z" fill="#31374F"/>
<path d="M162.537 227.903C162.537 227.985 162.534 228.055 162.529 228.113C162.524 228.171 162.517 228.221 162.507 228.262C162.497 228.302 162.484 228.338 162.468 228.368C162.452 228.396 162.424 228.431 162.389 228.469C162.353 228.506 162.282 228.556 162.178 228.615C162.075 228.674 161.947 228.731 161.798 228.786C161.648 228.84 161.476 228.886 161.284 228.922C161.091 228.957 160.882 228.976 160.658 228.976C160.219 228.976 159.824 228.908 159.472 228.773C159.119 228.639 158.819 228.436 158.572 228.168C158.325 227.899 158.134 227.565 158.003 227.162C157.871 226.76 157.806 226.292 157.806 225.758C157.806 225.214 157.879 224.731 158.023 224.308C158.169 223.886 158.37 223.532 158.631 223.246C158.892 222.959 159.204 222.742 159.568 222.594C159.931 222.445 160.333 222.37 160.772 222.37C160.95 222.37 161.122 222.386 161.286 222.414C161.45 222.444 161.604 222.484 161.743 222.532C161.883 222.579 162.009 222.634 162.122 222.697C162.233 222.76 162.312 222.814 162.356 222.858C162.401 222.903 162.432 222.94 162.448 222.969C162.464 222.999 162.478 223.037 162.487 223.083C162.497 223.13 162.505 223.184 162.51 223.247C162.515 223.31 162.517 223.387 162.517 223.48C162.517 223.579 162.515 223.663 162.507 223.732C162.5 223.801 162.489 223.858 162.473 223.9C162.457 223.943 162.437 223.975 162.413 223.994C162.39 224.015 162.364 224.024 162.334 224.024C162.285 224.024 162.222 223.995 162.146 223.937C162.07 223.879 161.972 223.815 161.852 223.744C161.732 223.674 161.589 223.61 161.422 223.553C161.255 223.495 161.056 223.466 160.826 223.466C160.573 223.466 160.346 223.518 160.147 223.622C159.946 223.726 159.777 223.874 159.637 224.067C159.496 224.258 159.39 224.493 159.318 224.765C159.246 225.039 159.21 225.347 159.21 225.691C159.21 226.067 159.248 226.39 159.326 226.666C159.404 226.943 159.514 227.168 159.657 227.347C159.8 227.525 159.974 227.657 160.176 227.745C160.379 227.832 160.608 227.875 160.861 227.875C161.092 227.875 161.291 227.849 161.459 227.794C161.627 227.74 161.771 227.679 161.892 227.614C162.012 227.547 162.11 227.488 162.188 227.436C162.266 227.383 162.326 227.357 162.369 227.357C162.402 227.357 162.428 227.364 162.448 227.377C162.468 227.39 162.484 227.416 162.497 227.456C162.51 227.495 162.521 227.55 162.526 227.621C162.533 227.689 162.537 227.783 162.537 227.903Z" fill="#CCE9F1"/>
<path d="M166.654 228.643C166.638 228.7 166.617 228.744 166.59 228.779C166.563 228.813 166.521 228.839 166.461 228.858C166.402 228.875 166.32 228.886 166.219 228.891C166.118 228.896 165.984 228.898 165.819 228.898C165.686 228.898 165.574 228.899 165.48 228.896C165.386 228.895 165.306 228.891 165.24 228.884C165.175 228.877 165.12 228.866 165.079 228.854C165.037 228.842 165.003 228.826 164.976 228.805C164.947 228.785 164.926 228.761 164.911 228.733C164.897 228.706 164.883 228.669 164.869 228.627L162.966 222.955C162.926 222.836 162.903 222.742 162.894 222.672C162.887 222.603 162.903 222.551 162.944 222.517C162.986 222.483 163.055 222.46 163.154 222.452C163.253 222.443 163.391 222.439 163.569 222.439C163.721 222.439 163.84 222.443 163.925 222.449C164.012 222.457 164.077 222.468 164.123 222.484C164.17 222.5 164.201 222.525 164.219 222.558C164.238 222.591 164.255 222.634 164.271 222.683L165.828 227.617H165.833L167.361 222.706C167.375 222.651 167.391 222.605 167.41 222.57C167.43 222.537 167.464 222.509 167.512 222.49C167.56 222.469 167.628 222.458 167.717 222.451C167.806 222.444 167.928 222.441 168.083 222.441C168.235 222.441 168.352 222.446 168.436 222.456C168.52 222.465 168.578 222.489 168.609 222.528C168.64 222.566 168.65 222.62 168.639 222.689C168.628 222.758 168.602 222.851 168.562 222.966L166.654 228.643Z" fill="#CCE9F1"/>
<path d="M129.283 195.406C122.751 195.406 116.968 198.665 113.471 203.642L114.904 205.075C118.018 200.45 123.301 197.401 129.285 197.401C135.267 197.401 140.55 200.45 143.664 205.075L145.097 203.642C141.598 198.664 135.814 195.406 129.283 195.406Z" fill="white"/>
<path d="M129.284 198.841C123.696 198.841 118.775 201.74 115.943 206.114L117.34 207.511C119.787 203.472 124.225 200.767 129.284 200.767C134.343 200.767 138.78 203.472 141.228 207.511L142.625 206.114C139.793 201.74 134.871 198.841 129.284 198.841Z" fill="white"/>
<path d="M129.284 202.836C124.793 202.836 120.877 205.34 118.855 209.026L120.231 210.401C121.849 207.026 125.298 204.69 129.284 204.69C133.27 204.69 136.72 207.026 138.336 210.4L139.712 209.026C137.693 205.341 133.776 202.836 129.284 202.836Z" fill="white"/>
<path d="M129.284 207.126C125.954 207.126 123.12 209.28 122.097 212.267L123.988 214.158C124.271 211.485 126.537 209.395 129.284 209.395C132.03 209.395 134.297 211.484 134.58 214.158L136.471 212.267C135.447 209.28 132.613 207.126 129.284 207.126Z" fill="white"/>
<path d="M129.282 217.332C130.725 217.332 131.894 216.163 131.894 214.721C131.894 213.279 130.725 212.109 129.282 212.109C127.84 212.109 126.671 213.279 126.671 214.721C126.671 216.163 127.84 217.332 129.282 217.332Z" fill="white"/>
<path d="M253.973 220.802H162.271C158.649 220.802 155.714 217.867 155.714 214.245V205.572C155.714 201.949 158.649 199.014 162.271 199.014H253.973V220.802Z" fill="white"/>
<path d="M257.384 220.802H159.575C157.878 220.802 156.499 219.292 156.499 217.434V203.09C156.499 201.233 157.879 199.723 159.575 199.723H257.384V197.664H159.575C156.841 197.664 154.616 200.099 154.616 203.09V217.434C154.616 220.426 156.841 222.861 159.575 222.861H257.384V220.802Z" fill="#0077B6"/>
<path d="M170.599 219.417L166.011 213.141L161.422 219.417V203.195H170.599V219.417Z" fill="#0077B6"/>
<path d="M271.063 195.606H162.028C158.644 195.606 155.9 192.862 155.9 189.478C155.9 186.094 158.644 183.35 162.028 183.35H271.063V195.606Z" fill="white"/>
<path d="M275.062 195.606H160.428C158.439 195.606 156.821 194.095 156.821 192.238V187.424C156.821 185.567 158.439 184.057 160.428 184.057H275.062V181.998H160.428C157.223 181.998 154.616 184.433 154.616 187.424V192.238C154.616 195.23 157.223 197.665 160.428 197.665H275.062V195.606Z" fill="#FBB03B"/>
<path d="M247.594 180.483H174.939C171.317 180.483 168.382 177.548 168.382 173.926V170.99C168.382 167.368 171.317 164.433 174.939 164.433H247.594V180.483Z" fill="white"/>
<path d="M250.346 180.483H171.498C170.13 180.483 169.017 179.371 169.017 178.002V167.434C169.017 166.067 170.13 164.953 171.498 164.953H250.346V163.437H171.498C169.294 163.437 167.501 165.23 167.501 167.434V178.002C167.501 180.207 169.294 181.999 171.498 181.999H250.346V180.483Z" fill="#00B4D8"/>
<path d="M205.645 164.432H168.869V181.072H205.645V164.432Z" fill="#00B4D8"/>
<path d="M180.384 179.462L176.687 174.837L172.987 179.462V167.511H180.384V179.462Z" fill="#DEE3FC"/>
<path d="M174.105 202.802H159.591V203.179H174.105V202.802Z" fill="#0077B6"/>
<path d="M158.803 282.848H264.318C267.939 282.848 270.875 279.911 270.875 276.29V266.694C270.875 263.073 267.939 260.136 264.318 260.136H158.803V282.848Z" fill="white"/>
<path d="M154.912 282.847H266.47C268.405 282.847 269.98 281.273 269.98 279.336V264.384C269.98 262.449 268.405 260.874 266.47 260.874H154.912V258.729H266.47C269.588 258.729 272.125 261.267 272.125 264.384V279.336C272.125 282.454 269.588 284.992 266.47 284.992H154.912V282.847Z" fill="#023E8A"/>
<path d="M270.188 260.137H218.156V283.681H270.188V260.137Z" fill="#023E8A"/>
<path d="M253.896 281.403L259.128 274.861L264.361 281.403V264.494H253.896V281.403Z" fill="#DEE3FC"/>
<path d="M294.463 255.598H161.999C158.378 255.598 155.442 252.663 155.442 249.042V231.329C155.442 227.708 158.378 224.773 161.999 224.773H294.463V255.598Z" fill="white"/>
<path d="M299.292 255.599H160.909C158.509 255.599 156.555 253.462 156.555 250.835V230.539C156.555 227.912 158.509 225.775 160.909 225.775H299.292V222.863H160.909C157.041 222.863 153.893 226.307 153.893 230.54V250.836C153.893 255.07 157.039 258.513 160.909 258.513H299.292V255.599Z" fill="#FBB03B"/>
<path d="M176.504 253.637L170.012 244.757L163.52 253.637V230.686H176.504V253.637Z" fill="#FBB03B"/>
<path d="M181.464 230.129H160.93V230.663H181.464V230.129Z" fill="#FBB03B"/>
<path d="M150.9 303.841H307.28C310.901 303.841 313.836 300.905 313.836 297.283V293.057C313.836 289.436 310.901 286.499 307.28 286.499H150.9V303.841Z" fill="#DEE3FC"/>
<path d="M145.241 303.841H307.431C310.244 303.841 312.534 301.704 312.534 299.078V292.267C312.534 289.64 310.244 287.503 307.431 287.503H145.241V284.592H307.431C311.964 284.592 315.653 288.035 315.653 292.268V299.079C315.653 303.312 311.965 306.756 307.431 306.756H145.241V303.841Z" fill="#0077B6"/>
<path d="M290.004 232.633H183.438V233.167H290.004V232.633Z" fill="white"/>
<path d="M290.004 234.832H183.438V235.366H290.004V234.832Z" fill="white"/>
<path d="M290.004 237.031H183.438V237.564H290.004V237.031Z" fill="white"/>
<path d="M290.004 239.23H183.438V239.764H290.004V239.23Z" fill="white"/>
<path d="M290.004 241.43H183.438V241.964H290.004V241.43Z" fill="white"/>
<path d="M290.004 243.629H183.438V244.163H290.004V243.629Z" fill="white"/>
<path d="M290.004 245.828H183.438V246.362H290.004V245.828Z" fill="white"/>
<path d="M290.004 248.028H183.438V248.562H290.004V248.028Z" fill="white"/>
<path d="M290.004 230.433H183.438V230.967H290.004V230.433Z" fill="white"/>
<path d="M290.004 250.228H183.438V250.762H290.004V250.228Z" fill="white"/>
<path d="M310.516 290.175H152.717V290.55H310.516V290.175Z" fill="white"/>
<path d="M310.516 291.719H152.717V292.093H310.516V291.719Z" fill="white"/>
<path d="M310.516 293.263H152.717V293.637H310.516V293.263Z" fill="white"/>
<path d="M310.516 294.806H152.717V295.181H310.516V294.806Z" fill="white"/>
<path d="M310.516 296.35H152.717V296.725H310.516V296.35Z" fill="white"/>
<path d="M310.516 297.893H152.717V298.269H310.516V297.893Z" fill="white"/>
<path d="M310.516 299.438H152.717V299.813H310.516V299.438Z" fill="white"/>
<path d="M310.516 300.982H152.717V301.357H310.516V300.982Z" fill="white"/>
<path d="M310.517 288.632H152.718V289.006H310.517V288.632Z" fill="white"/>
<path d="M310.516 302.526H152.717V302.9H310.516V302.526Z" fill="white"/>
<path d="M253.07 204.573H174.995V205.009H253.07V204.573Z" fill="#DEE3FC"/>
<path d="M253.07 206.37H174.995V206.806H253.07V206.37Z" fill="#DEE3FC"/>
<path d="M253.07 208.167H174.995V208.604H253.07V208.167Z" fill="#DEE3FC"/>
<path d="M253.07 209.965H174.995V210.401H253.07V209.965Z" fill="#DEE3FC"/>
<path d="M253.07 211.762H174.995V212.198H253.07V211.762Z" fill="#DEE3FC"/>
<path d="M253.07 213.56H174.995V213.996H253.07V213.56Z" fill="#DEE3FC"/>
<path d="M253.07 215.356H174.995V215.794H253.07V215.356Z" fill="#DEE3FC"/>
<path d="M253.07 217.155H174.995V217.591H253.07V217.155Z" fill="#DEE3FC"/>
<path d="M253.07 202.774H174.995V203.211H253.07V202.774Z" fill="#DEE3FC"/>
<path d="M253.07 218.952H174.995V219.388H253.07V218.952Z" fill="#DEE3FC"/>
<path d="M270.036 185.864H158.646V186.111H270.036V185.864Z" fill="white"/>
<path d="M270.036 186.883H158.646V187.13H270.036V186.883Z" fill="white"/>
<path d="M270.036 187.903H158.646V188.151H270.036V187.903Z" fill="white"/>
<path d="M270.036 188.923H158.646V189.17H270.036V188.923Z" fill="white"/>
<path d="M270.036 189.943H158.646V190.19H270.036V189.943Z" fill="white"/>
<path d="M270.036 190.962H158.646V191.209H270.036V190.962Z" fill="white"/>
<path d="M270.036 191.981H158.646V192.228H270.036V191.981Z" fill="white"/>
<path d="M270.036 193.001H158.646V193.249H270.036V193.001Z" fill="white"/>
<path d="M270.036 184.845H158.646V185.092H270.036V184.845Z" fill="white"/>
<path d="M270.036 194.021H158.646V194.267H270.036V194.021Z" fill="white"/>
<path d="M217.909 263.527H160.927V264.061H217.909V263.527Z" fill="#EAECFD"/>
<path d="M217.909 265.726H160.927V266.26H217.909V265.726Z" fill="#EAECFD"/>
<path d="M217.909 267.926H160.927V268.458H217.909V267.926Z" fill="#EAECFD"/>
<path d="M217.909 270.126H160.927V270.66H217.909V270.126Z" fill="#EAECFD"/>
<path d="M217.909 272.324H160.927V272.858H217.909V272.324Z" fill="#EAECFD"/>
<path d="M217.909 274.523H160.927V275.057H217.909V274.523Z" fill="#EAECFD"/>
<path d="M217.909 276.723H160.927V277.257H217.909V276.723Z" fill="#EAECFD"/>
<path d="M217.909 278.923H160.927V279.457H217.909V278.923Z" fill="#EAECFD"/>
<path d="M217.908 261.327H160.926V261.861H217.908V261.327Z" fill="#EAECFD"/>
<path d="M217.909 281.122H160.927V281.656H217.909V281.122Z" fill="#EAECFD"/>
<path d="M247.593 166.889H205.642V167.266H247.593V166.889Z" fill="#DEE3FC"/>
<path d="M247.593 168.445H205.642V168.822H247.593V168.445Z" fill="#DEE3FC"/>
<path d="M247.593 170H205.642V170.377H247.593V170Z" fill="#DEE3FC"/>
<path d="M247.593 171.557H205.642V171.934H247.593V171.557Z" fill="#DEE3FC"/>
<path d="M247.593 173.111H205.642V173.488H247.593V173.111Z" fill="#DEE3FC"/>
<path d="M247.593 174.667H205.642V175.044H247.593V174.667Z" fill="#DEE3FC"/>
<path d="M247.593 176.223H205.642V176.6H247.593V176.223Z" fill="#DEE3FC"/>
<path d="M247.593 177.78H205.642V178.156H247.593V177.78Z" fill="#DEE3FC"/>
<path d="M247.594 165.332H205.643V165.709H247.594V165.332Z" fill="#DEE3FC"/>
<path d="M247.593 179.336H205.642V179.713H247.593V179.336Z" fill="#DEE3FC"/>
<path d="M315.646 218.109C315.23 217.09 315.26 215.88 315.8 214.923C316.339 213.964 317.397 213.296 318.498 213.3C318.75 213.301 319.011 213.338 319.226 213.47C319.4 213.577 319.534 213.737 319.67 213.888C320.303 214.585 321.089 215.144 321.958 215.508C323.035 215.961 324.212 216.112 325.335 216.43C325.984 216.613 326.654 216.882 327.053 217.425C327.558 218.115 327.496 219.059 327.314 219.894C327.131 220.728 327.131 221.573 326.979 222.414C326.863 223.064 326.893 223.082 326.779 223.863C326.673 224.583 326.444 225.068 326.101 225.709C325.909 226.067 325.82 227.372 325.416 227.411C325.143 227.437 325.221 226.406 325.056 226.186C324.892 225.966 324.811 225.696 324.745 225.431C324.421 224.108 324.364 222.631 323.479 221.597C322.99 221.024 322.265 220.67 321.52 220.596C320.713 220.517 319.984 221.055 319.213 220.956C317.746 220.766 316.192 219.444 315.646 218.109Z" fill="#59595C"/>
<path d="M325.027 224.313H320.566V230.198H325.027V224.313Z" fill="#F27677"/>
<path d="M318.193 220.71C318.193 220.71 317.945 226.553 319.705 227.465C321.464 228.376 323.825 226.905 324.637 226.282C325.446 225.661 325.935 224.333 325.935 224.333C325.935 224.333 326.546 223.395 326.523 222.695C326.499 221.994 326.462 221.085 325.816 221.53C324.788 222.238 325.271 221.711 325.271 221.711C325.271 221.711 325.656 220.993 324.877 220.132C324.093 219.27 318.214 217.531 318.193 220.71Z" fill="#F27677"/>
<path d="M328.728 306.415L328.763 308.329C328.95 308.313 331.324 308.279 331.324 308.279L331.287 306.367L328.728 306.415Z" fill="#F27677"/>
<path d="M328.117 307.664C328.117 307.664 322.635 310.546 322.521 310.598C322.47 310.621 322.197 310.69 321.907 310.761C321.452 310.873 321.137 311.261 321.147 311.701C321.149 311.856 321.159 311.981 321.178 312.005C321.236 312.083 331.848 311.802 331.848 311.802C331.848 311.802 332.029 308.388 331.466 308.265C330.902 308.142 328.992 308.631 328.117 307.664Z" fill="#393768"/>
<path d="M324.977 309.311L325.495 310.203L325.156 310.401L324.631 309.493L324.977 309.311Z" fill="white"/>
<path d="M324.369 309.632L324.863 310.486L324.525 310.683L324.021 309.816L324.369 309.632Z" fill="white"/>
<path d="M323.789 309.938L324.266 310.76L323.928 310.955L323.443 310.121L323.789 309.938Z" fill="white"/>
<path d="M315.681 306.375L315.492 308.287C315.678 308.274 318.052 308.266 318.052 308.266L318.168 306.353L315.681 306.375Z" fill="#F27677"/>
<path d="M314.85 307.615C314.85 307.615 309.336 310.437 309.223 310.487C309.172 310.511 308.898 310.576 308.607 310.644C308.151 310.751 307.832 311.135 307.836 311.575C307.837 311.729 307.845 311.854 307.863 311.88C307.92 311.959 318.534 311.795 318.534 311.795C318.534 311.795 318.754 308.383 318.192 308.255C317.631 308.125 315.716 308.594 314.85 307.615Z" fill="#393768"/>
<path d="M311.692 309.228L312.2 310.126L311.857 310.319L311.342 309.407L311.692 309.228Z" fill="white"/>
<path d="M311.076 309.543L311.561 310.402L311.221 310.595L310.728 309.723L311.076 309.543Z" fill="white"/>
<path d="M310.496 309.841L310.963 310.668L310.622 310.861L310.147 310.02L310.496 309.841Z" fill="white"/>
<path d="M315.595 259.829L314.671 306.648L318.285 306.526L324.998 259.873L315.595 259.829Z" fill="#393768"/>
<path d="M320.818 260.827L327.46 306.648H331.673L331.606 259.9L320.43 259.858L320.818 260.827Z" fill="#393768"/>
<path d="M302.286 231.273C302.286 231.273 301.715 230.562 301.578 229.868C301.441 229.172 301.082 227.291 300.734 227.768C300.385 228.245 300.889 229.24 300.321 228.846C299.752 228.451 298.745 226.222 298.426 226.648C298.107 227.075 297.542 228.047 298.34 229.466C299.137 230.886 299.652 231.053 300.09 231.413C300.526 231.771 301.315 232.683 301.315 232.683L302.286 231.273Z" fill="#F27677"/>
<path d="M315.145 231.105L309.663 235.572C309.564 235.803 309.251 235.831 309.11 235.624L302.007 230.768L300.525 232.598L309.722 241.217C309.8 241.308 309.943 241.298 310.008 241.196L315.676 236.871L315.145 231.105Z" fill="#393768"/>
<path d="M315.146 231.105L317.954 230.05L320.569 229.04C322.007 230.093 323.492 229.855 325.029 228.768L327.488 229.739L332.638 231.769L331.608 259.901L327.448 259.884V259.921H317.872V259.849L315.597 259.828L315.146 231.105Z" fill="#0077B6"/>
<path d="M322.659 232.979H313.799V248.296H322.659V232.979Z" fill="#F2F2F2"/>
<path d="M324.152 242.881C324.152 242.881 323.686 242.923 323.539 242.375C323.393 241.826 322.886 240.94 322.76 241.32C322.634 241.699 320.904 240.686 320.734 241.573C320.565 242.459 320.65 243.683 321.198 244.062C321.747 244.443 323.539 245.244 323.539 245.244L324.152 242.881Z" fill="#F27677"/>
<path d="M332.639 231.767C332.639 231.767 336.637 241.979 336.436 244.866C336.234 247.754 323.703 245.773 323.703 245.773C323.703 245.773 322.975 244.589 323.478 243.75C323.982 242.909 324.318 242.675 324.318 242.675L331.9 242.871C331.9 242.872 327.176 229.409 332.639 231.767Z" fill="#393768"/>
<path d="M133.942 271.136C133.942 271.136 126.381 282.65 127.477 285.327C128.573 288.006 132.756 292.081 132.756 292.081L135.886 290.899C135.886 290.899 133.057 286.201 133.285 285.236C133.514 284.257 136.278 278.849 136.278 278.849L133.942 271.136Z" fill="#393768"/>
<path d="M153.311 271.086C153.311 271.086 160.683 282.574 159.587 285.235C158.49 287.897 154.497 291.905 154.497 291.905L151.365 290.731C151.365 290.731 153.857 285.493 154.005 285.001C154.296 284.042 150.975 278.751 150.975 278.751L153.311 271.086Z" fill="#393768"/>
<path d="M153.426 271.291C152.871 270.152 145.666 268.618 145.666 268.618C145.666 268.618 144.479 270.034 144.341 270.034C144.242 270.034 143.847 271.657 143.624 272.599C143.398 271.656 142.996 270.037 142.897 270.037C142.759 270.037 141.558 268.808 141.558 268.808C141.558 268.808 134.369 270.188 133.817 271.33C133.266 272.472 134.647 296.334 135.434 296.802C136.218 297.271 139.725 298.164 140.832 298.766C141.759 299.269 143.218 298.931 143.675 298.803C144.133 298.928 145.107 298.501 146.032 297.994C147.137 297.387 151.041 296.493 151.823 296.021C152.606 295.55 153.981 272.431 153.426 271.291Z" fill="#393768"/>
<path d="M130.725 291.038C130.725 291.038 126.777 289.369 124.802 290.221C122.827 291.072 121.365 294.509 123.407 296.584C125.449 298.661 142.262 304.957 143.725 305.4C145.189 305.842 148.83 305.808 148.83 305.808L149.613 302.711C149.614 302.711 136.852 293.726 130.725 291.038Z" fill="#FBB03B"/>
<path d="M155.461 291.038C155.461 291.038 159.409 289.369 161.384 290.221C163.359 291.072 164.821 294.509 162.779 296.584C160.737 298.66 143.924 304.957 142.46 305.4C140.997 305.842 137.355 305.808 137.355 305.808L136.572 302.711C136.572 302.711 149.335 293.726 155.461 291.038Z" fill="#FBB03B"/>
<path d="M130.935 300.858C130.935 300.858 130.22 300.274 129.609 300.274C128.999 300.274 128.602 300.99 128.283 302.024C127.965 303.059 127.806 306.241 128.204 306.559C128.602 306.878 130.06 306.665 130.06 306.665L130.935 300.858Z" fill="black"/>
<path d="M137.274 305.498C137.274 305.498 133.191 305.339 132.288 305.711C131.386 306.083 129.981 307.142 129.636 306.373C129.291 305.605 129.615 300.231 130.935 300.857C131.653 301.198 132.738 301.653 133.72 302.104C134.701 302.556 136.571 302.711 136.571 302.711L137.274 305.498Z" fill="#393768"/>
<path d="M155.177 300.858C155.177 300.858 155.894 300.275 156.503 300.275C157.112 300.275 157.51 300.99 157.829 302.025C158.148 303.059 158.306 306.242 157.908 306.559C157.511 306.878 156.053 306.666 156.053 306.666L155.177 300.858Z" fill="black"/>
<path d="M148.84 305.499C148.84 305.499 152.923 305.339 153.826 305.711C154.727 306.083 156.132 307.143 156.478 306.374C156.823 305.605 156.499 300.231 155.178 300.858C154.46 301.199 153.375 301.654 152.393 302.105C151.413 302.556 149.542 302.712 149.542 302.712L148.84 305.499Z" fill="#393768"/>
<path d="M154.435 295.991H131.512C131.054 295.991 130.675 295.636 130.645 295.18L129.832 282.734C129.8 282.234 130.197 281.81 130.698 281.81H155.216C155.716 281.81 156.114 282.233 156.082 282.732L155.3 295.178C155.274 295.635 154.893 295.991 154.435 295.991Z" fill="#F2F2F2"/>
<path d="M148.721 265.278C148.699 265.138 148.658 264.979 148.529 264.92C148.484 264.897 148.432 264.894 148.382 264.894C148.144 264.904 147.915 265.094 147.736 265.253C147.74 264.988 147.741 264.824 147.741 264.824C147.835 262.697 143.654 262.822 143.622 262.828C143.588 262.822 139.407 262.699 139.501 264.824C139.501 264.824 139.502 264.988 139.506 265.253C139.325 265.094 139.097 264.904 138.858 264.894C138.808 264.892 138.757 264.897 138.711 264.92C138.583 264.979 138.542 265.138 138.52 265.278C138.448 265.743 138.433 266.221 138.533 266.68C138.633 267.139 138.854 267.581 139.203 267.896C139.327 268.008 139.47 268.105 139.629 268.152C139.678 268.737 139.743 269.243 139.832 269.506C140.14 270.411 141.986 272.46 143.62 272.526C143.62 272.526 143.62 272.526 143.622 272.526C145.255 272.459 147.102 270.411 147.41 269.506C147.499 269.243 147.564 268.737 147.612 268.152C147.771 268.105 147.915 268.008 148.039 267.896C148.386 267.579 148.607 267.139 148.707 266.68C148.808 266.22 148.793 265.743 148.721 265.278Z" fill="#F27677"/>
<path d="M148.571 265.021C148.633 264.642 148.649 264.165 148.699 263.784C148.749 263.392 148.793 262.991 148.715 262.604C148.662 262.336 148.552 262.082 148.439 261.831C148.18 261.249 147.894 260.658 147.427 260.222C146.75 259.589 145.787 259.373 144.866 259.272C143.232 259.091 141.559 259.191 139.964 258.787C139.522 258.676 139.121 258.326 138.77 258.034C138.549 257.852 138.285 257.629 138.009 257.713C137.761 257.79 137.649 258.081 137.636 258.34C137.606 258.954 137.932 259.524 138.052 260.126C138.121 260.469 138.123 260.824 138.198 261.168C138.273 261.511 138.44 261.856 138.746 262.029C138.521 261.912 138.297 261.795 138.072 261.678C138.144 262.151 138.344 262.605 138.645 262.977C138.728 263.08 138.802 263.26 138.683 263.312C138.653 263.324 138.617 263.323 138.594 263.344C138.554 263.377 138.571 263.442 138.594 263.49C138.835 264.035 139.109 264.565 139.411 265.079C139.507 265.244 139.434 265.367 139.624 265.362C139.804 265.359 140.137 265.247 140.235 265.098C140.597 264.545 141.057 263.968 141.708 263.866C142.005 263.82 142.306 263.88 142.605 263.915C143.094 263.972 143.589 263.96 144.074 263.88C144.443 263.819 144.817 263.717 145.189 263.766C145.584 263.816 145.938 264.031 146.268 264.256C146.668 264.531 147.051 264.827 147.417 265.147C147.478 265.2 147.542 265.256 147.621 265.271C147.801 265.304 147.957 265.205 148.087 265.077C148.218 264.95 148.516 264.846 148.571 265.021Z" fill="black"/>
<path d="M295.663 151.67V149.1H286.252H276.842V151.67H271.681V153.039C271.681 157.308 274.442 160.941 278.272 162.253C279.645 164.41 281.895 165.952 284.52 166.379V168.779H283.292C282.016 168.779 280.981 169.814 280.981 171.09H278.299V172.237H286.255H294.211V171.09H291.529C291.529 169.814 290.494 168.779 289.217 168.779H287.989V166.379C290.614 165.952 292.864 164.41 294.237 162.253C298.066 160.941 300.827 157.308 300.827 153.039V151.67H295.663ZM272.849 153.041V152.839H276.841V157.345C276.841 158.505 277.058 159.612 277.451 160.633C274.719 159.2 272.849 156.336 272.849 153.041ZM299.655 153.041C299.655 156.336 297.785 159.2 295.051 160.634C295.444 159.613 295.662 158.505 295.662 157.347V152.84H299.654V153.041H299.655Z" fill="#FBB03B"/>
<path d="M286.253 153.211L287.059 154.844L287.338 155.41L287.963 155.5L289.765 155.762L288.461 157.033L288.01 157.473L288.116 158.093L288.424 159.888L286.812 159.04L286.253 158.747L285.696 159.04L284.084 159.888L284.392 158.093L284.498 157.473L284.047 157.033L282.743 155.762L284.545 155.5L285.169 155.41L285.449 154.844L286.253 153.211ZM286.253 150.502L284.372 154.314L280.165 154.925L283.209 157.892L282.491 162.082L286.253 160.103L290.016 162.082L289.296 157.892L292.34 154.925L288.134 154.314L286.253 150.502Z" fill="white"/>
<defs>
<linearGradient id="paint0_linear_7_521" x1="208.003" y1="315.469" x2="208.003" y2="284.919" gradientUnits="userSpaceOnUse">
<stop stop-color="#F0F0FA"/>
<stop offset="0.9985" stop-color="#DDDCEE"/>
</linearGradient>
<linearGradient id="paint1_linear_7_521" x1="136.662" y1="-57.0121" x2="153.06" y2="188.962" gradientUnits="userSpaceOnUse">
<stop stop-color="#F0F0FA"/>
<stop offset="0.9985" stop-color="#CAF0F8"/>
</linearGradient>
<linearGradient id="paint2_linear_7_521" x1="243.167" y1="187.614" x2="252.822" y2="57.4503" gradientUnits="userSpaceOnUse">
<stop stop-color="#D5F1F7"/>
<stop offset="0.9985" stop-color="#CAF0F8"/>
</linearGradient>
<linearGradient id="paint3_linear_7_521" x1="207.431" y1="328.877" x2="193.485" y2="175.111" gradientUnits="userSpaceOnUse">
<stop stop-color="#F0F0FA"/>
<stop offset="0.9985" stop-color="#90E0EF"/>
</linearGradient>
<linearGradient id="paint4_linear_7_521" x1="276.015" y1="-3.08295" x2="219.547" y2="74.064" gradientUnits="userSpaceOnUse">
<stop stop-color="#F0F0FA"/>
<stop offset="0.9985" stop-color="#CAF0F8"/>
</linearGradient>
</defs>
</svg>
