<svg width="114" height="226" viewBox="0 0 114 226" fill="none" xmlns="http://www.w3.org/2000/svg">
<path d="M33.6143 87.0522C33.6143 87.0522 31.5212 81.7244 40.1554 74.5293L40.0245 86.434L33.6143 87.0522Z" fill="#102048"/>
<path d="M33.3259 62.2826C30.2511 56.0123 27.7434 51.5064 26.1624 52.2173C25.7433 52.4058 25.5447 52.9445 25.6666 53.4219C26.5011 56.69 29.8794 62.7804 29.8794 62.7804L33.3259 62.2826Z" fill="#F9B384"/>
<path d="M37.251 71.2492L31.8507 74.7409C29.4802 73.6705 27.4132 71.5125 25.9845 67.5114C25.7857 66.9504 25.8327 66.315 26.131 65.8114L27.2612 63.8767C27.6642 63.1955 27.8578 62.3943 27.816 61.5814L27.708 59.2449C27.7001 59.0748 27.7609 58.9095 27.8743 58.7927L28.7085 57.9326C28.858 57.7784 29.0874 57.7641 29.2521 57.8988L30.9976 59.3259L30.6575 59.303C30.6575 59.303 30.9452 62.3254 33.1902 62.4742L34.3571 63.9681L37.251 71.2492Z" fill="#F9B384"/>
<path d="M37.9833 70.7795L37.2508 71.2489L34.3571 63.9678L33.1901 62.4738C30.9452 62.325 30.6575 59.3027 30.6575 59.3027L30.9976 59.3256L33.6401 59.4801C34.3728 59.5203 35.0635 59.8465 35.5973 60.3959L37.3921 62.2563C37.7374 62.617 37.9939 63.0634 38.1353 63.5556C38.8415 65.977 38.7055 68.3811 37.9833 70.7795Z" fill="#F9B384"/>
<path d="M41.2017 71.9074L39.9824 83.472C39.9824 83.472 36.4921 86.235 36.3194 86.5227C36.2409 86.6483 35.0425 83.8121 33.7239 80.5834C32.0234 76.4339 30.1238 71.6406 30.1238 71.6406L37.7114 67.3496L40.375 70.8242L41.2017 71.9074Z" fill="#F9B384"/>
<path d="M41.2019 71.9074L39.9826 83.472C39.9826 83.472 36.4923 86.235 36.3196 86.5228C36.2411 86.6483 35.0427 83.8122 33.7241 80.5835L40.375 70.8242L41.2019 71.9074Z" fill="#E28B6D"/>
<path d="M34.4619 64.3661C34.2907 64.1666 33.5244 63.1413 33.2808 62.8149C30.6117 62.6132 30.3981 59.3528 30.3964 59.3193L30.3813 59.0493L30.6515 59.043C34.9789 58.9446 35.8939 60.1007 36.4409 60.793C36.5355 60.913 36.6175 61.0163 36.6996 61.0898L36.3507 61.4798C36.235 61.3761 36.1357 61.2504 36.0304 61.1172C35.5251 60.4775 34.7626 59.5185 30.9484 59.5614C31.0538 60.2915 31.513 62.2262 33.4278 62.2991L33.5532 62.3037L33.6277 62.4041C33.9878 62.8882 34.709 63.8497 34.8594 64.0252L34.4619 64.3661Z" fill="#E28B6D"/>
<path d="M32.7698 65.2194C32.4985 65.2194 32.2582 65.1092 32.1074 64.9855C31.7483 64.6917 29.2986 62.765 29.2986 62.765L29.6223 62.3535C29.6223 62.3535 32.0786 64.2857 32.4388 64.5805C32.5243 64.6501 32.7251 64.7467 32.9392 64.6642C33.2517 64.543 33.4804 64.084 33.5841 63.372L34.102 63.4471C33.9328 64.6095 33.4793 65.0158 33.1288 65.1522C33.0063 65.1995 32.8854 65.2194 32.7698 65.2194Z" fill="#E28B6D"/>
<path d="M30.4339 59.4393C30.2024 59.2094 28.3129 58.94 27.946 59.0445L27.8027 58.5415C28.2617 58.4114 30.5695 58.6534 30.8814 59.1677L30.4339 59.4393Z" fill="#E28B6D"/>
<path d="M32.6509 68.069C31.8872 68.069 30.9451 67.4491 30.8106 67.3578L28.6113 65.9139L28.8983 65.4767L31.1012 66.9228C31.6635 67.303 32.6304 67.7353 32.9343 67.4635C33.0416 67.3669 33.094 67.2088 33.0895 66.9928C33.0769 66.3438 32.5588 65.3996 32.1386 65.0511L32.4727 64.6484C32.9977 65.0841 33.5971 66.1749 33.6129 66.9827C33.6201 67.3522 33.5065 67.6527 33.2843 67.8524C33.1106 68.0083 32.8895 68.069 32.6509 68.069Z" fill="#E28B6D"/>
<path d="M31.0414 69.8433C30.3887 69.8433 29.6042 69.3397 29.4118 69.2093L27.4788 67.9402L27.766 67.503L29.7022 68.7744C30.1885 69.1033 31.0213 69.4804 31.275 69.2524C31.3622 69.1739 31.4047 69.0429 31.4008 68.863C31.3893 68.2739 30.9003 67.4488 30.5763 67.18L30.9104 66.7773C31.3772 67.1644 31.9099 68.1343 31.9242 68.8526C31.9308 69.1867 31.8274 69.4596 31.6249 69.6415C31.4633 69.7871 31.2597 69.8433 31.0414 69.8433Z" fill="#E28B6D"/>
<path d="M57.9106 216.253L57.3424 218.827C52.9127 219.136 47.394 222.183 44.6895 225.999H65.8544L66.5854 215.046C63.7865 215.726 60.4206 216.338 57.9106 216.253Z" fill="#EE6F57"/>
<path d="M66.5855 215.046L67.0049 208.762L59.8657 207.396L57.9109 216.253C60.4208 216.338 63.7867 215.726 66.5855 215.046Z" fill="#F9B384"/>
<path d="M100.853 214.535L98.2395 205.445L91.0879 206.399L92.8226 215.044C95.5878 215.141 98.2842 214.97 100.853 214.535Z" fill="#F9B384"/>
<path d="M113.62 221.617C110.101 216.894 105.833 216.756 101.403 216.448L100.853 214.535C98.2843 214.97 95.5879 215.141 92.8225 215.044L95.0125 225.957L113.62 221.617Z" fill="#EE6F57"/>
<path d="M78.3916 101.499L77.4758 126.972C77.4549 127.658 77.4338 128.349 77.4077 129.029C76.9367 143.016 76.0262 156.449 74.7652 169.432C73.3366 184.136 71.4633 198.265 69.2603 211.975H54.8071C52.8814 181.41 49.6372 144.717 55.592 111.52L59.2183 102.645L78.3916 101.499Z" fill="black"/>
<path d="M98.2749 112.95C101.902 143.287 105.042 177.25 103.647 208.923L87.9483 211.976C83.6593 185.563 76.169 151.588 75.215 120.963L73.1221 96.0635L96.6605 102.646L98.2749 112.95Z" fill="black"/>
<path d="M80.1863 39.0977H69.6997V52.0967H80.1863V39.0977Z" fill="#F9B384"/>
<path d="M69.6336 47.1028C73.471 52.4229 78.3533 50.0934 80.1848 46.5176L92.658 101.932C81.0187 106.944 69.8287 107.687 59.3423 101.741L65.9706 49.2702L69.6336 47.1028Z" fill="white"/>
<path d="M85.9725 31.0617C88.295 26.4762 88.8152 19.3883 83.4119 19.092C78.7241 14.4672 71.1443 15.1021 66.7376 19.9257C58.2218 17.3054 56.9635 32.9132 67.8018 32.3178L85.9725 31.0617Z" fill="#102048"/>
<path d="M69.6997 39.0977V46.0109C72.7968 46.078 75.4005 44.9287 76.9844 42.9437C76.9844 42.9437 73.9266 40.8079 71.516 39.0977H69.6997Z" fill="#102048"/>
<path d="M84.5454 26.4857L83.7133 34.5129C82.4416 38.0712 80.872 40.5777 78.8991 42.1685C76.8636 43.8064 74.2262 44.3245 71.798 43.5918C69.7153 42.9586 68.0148 41.415 67.3188 39.327C66.9368 38.1758 66.8584 36.8623 67.1932 35.4443C67.2456 35.2191 67.2874 34.9942 67.3084 34.764C67.4182 33.843 67.3188 32.9062 67.0886 32.0063C66.602 30.1225 66.5758 28.1603 66.916 26.1298L76.3245 23.1523L84.5454 26.4857Z" fill="#F9B384"/>
<path d="M66.1442 123.06C61.2754 124.127 55.5665 124.029 49.226 123.06C50.7835 108.883 52.9176 95.2759 56.2043 82.8034L42.5115 81.4666C42.6403 79.259 42.9284 76.9841 43.3822 74.6539C43.8913 72.0294 44.6147 69.3314 45.5469 66.5781C45.5775 66.4801 45.6143 66.3819 45.6511 66.2837C48.9563 56.7177 54.9596 49.5127 69.7193 47.0537C74.3428 69.0921 73.9932 101.69 66.1442 123.06Z" fill="#0077B6"/>
<path d="M101.421 104.707C102.254 109.673 102.986 114.644 103.734 119.819C99.0038 121.504 93.2844 122.116 86.7276 121.823C83.9857 113.001 82.1279 103.812 81.0551 94.3038C81.0551 94.2671 81.0499 94.2358 81.0447 94.1992C79.3546 79.0815 78.261 63.1318 80.1867 46.5332C86.2253 46.9622 92.4157 48.8148 98.2137 52.5299C100.202 53.8068 101.814 55.6855 102.892 57.9093C106.947 66.2557 108.836 73.5973 110.406 81.1798L97.7167 86.3342C98.0883 87.8831 98.4389 89.4164 98.7737 90.9286C99.8046 95.6118 100.657 100.154 101.421 104.707Z" fill="#0077B6"/>
<path d="M59.1231 77.463L57.4245 91.2906L56.6335 92.3393L52.7458 97.4841C51.1636 99.5751 48.9929 100.618 46.81 100.636C44.4552 100.654 42.1005 99.4831 40.494 97.1284L33.6138 87.0534C36.9988 82.5279 40.261 77.929 41.1991 71.9072C45.6387 77.0827 46.9571 79.0327 46.9571 79.0327L59.1231 77.463Z" fill="#0077B6"/>
<path d="M66.678 29.4541C70.1641 29.28 73.6561 28.5375 77.1589 26.7149C78.2674 28.8295 80.8837 31.6203 84.7212 30.5737L85.1388 28.2632L85.4366 24.3329L73.8836 20.6406L64.8318 23.6182L66.678 29.4541Z" fill="#102048"/>
<path opacity="0.4" d="M101.421 104.707C94.0427 103.99 87.0465 100.589 81.0547 94.3039C81.0284 94.2724 80.9972 94.2463 80.9709 94.215L81.0441 94.1993L98.773 90.9287C99.8041 95.6119 100.657 100.154 101.421 104.707Z" fill="#1F3C88"/>
<path d="M75.7327 129.569C77.9811 143.264 76.0262 156.45 74.7651 169.433C64.2263 153.023 74.3356 133.06 75.7327 129.569Z" fill="#242424"/>
<path d="M48.9959 81.4373L41.4082 71.749L40.9962 72.0717L48.5839 81.7599L48.9959 81.4373Z" fill="#1F3C88"/>
<path opacity="0.4" d="M95.4487 65.9824L98.0651 80.9831C98.0651 80.9831 93.4001 84.0761 91.9661 81.5422C90.8475 79.5657 92.3146 73.1103 95.4487 65.9824Z" fill="#1F3C88"/>
<path d="M68.5817 76.6395L65.4072 76.8612C65.0623 76.8852 64.7681 77.1428 64.6708 77.5057L64.6496 77.585C64.4971 78.1545 64.6065 78.7695 64.943 79.2348L65.5155 80.0264C65.6071 80.1531 65.5871 80.3287 65.4695 80.4316C64.9665 80.6786 64.6017 81.1693 64.5809 81.7294C64.5757 81.8693 64.5861 82.0062 64.6128 82.1313C64.7278 82.6713 65.1063 83.0976 65.5964 83.239L65.9062 83.3284C65.9465 83.3401 65.9645 83.3914 65.9416 83.4294L65.4953 84.175C65.1637 84.7559 65.6481 85.8462 66.1231 86.2385C66.2201 86.3994 66.5288 86.4588 66.7037 86.4827L68.1026 86.6741C68.7528 86.7632 69.3728 86.9939 69.9389 87.3259C72.7615 88.9805 76.2152 88.8088 79.6666 88.6442L79.3968 79.5758C77.0426 77.7679 74.3416 76.2336 71.2138 75.0357L63.7651 69.7344C62.1329 70.453 63.1543 72.4691 68.5817 76.6395Z" fill="#F9B384"/>
<path d="M110.406 81.1805L111.506 85.8137C112.935 91.8297 108.425 97.552 102.775 96.892L75.9128 93.6303L77.9624 78.3184L110.406 81.1805Z" fill="#0077B6"/>
<path d="M56.7703 65.787L56.2507 65.7256L52.5006 97.4481L53.0202 97.5096L56.7703 65.787Z" fill="#1F3C88"/>
<path d="M98.1246 79.7513L77.979 78.0469L77.9349 78.568L98.0805 80.2724L98.1246 79.7513Z" fill="#1F3C88"/>
<path d="M69.868 80.8513C69.7138 80.8352 66.0885 80.4544 65.4417 80.2737L65.5827 79.7695C66.0843 79.91 68.8855 80.2224 69.9222 80.3307L69.868 80.8513Z" fill="#E28B6D"/>
<path d="M70.3487 84.2962C70.1902 84.2803 66.4601 83.9017 65.813 83.721L65.954 83.2168C66.4551 83.357 69.3344 83.6677 70.4014 83.7756L70.3487 84.2962Z" fill="#E28B6D"/>
<path d="M82.1616 36.4815C88.7333 37.4638 89.6054 26.9982 82.6283 31.1844L82.1616 36.4815Z" fill="#F9B384"/>
<path d="M83.6821 33.6236C83.6026 33.2859 83.582 32.9247 83.657 32.5657C83.73 32.2077 83.9064 31.8579 84.1807 31.5846C84.453 31.3166 84.8398 31.1182 85.2503 31.1498C85.658 31.1707 86.0339 31.4208 86.1882 31.7556L86.0239 31.8775C85.7857 31.6724 85.5126 31.5801 85.2524 31.6069C84.9906 31.6271 84.7426 31.7667 84.5438 31.9579C84.3411 32.1506 84.1958 32.4066 84.0822 32.6859C83.9775 32.9709 83.9329 33.2814 83.886 33.6073L83.6821 33.6236Z" fill="#E28B6D"/>
<path d="M70.0693 33.441C70.539 33.441 70.9197 32.8943 70.9197 32.22C70.9197 31.5457 70.539 30.999 70.0693 30.999C69.5997 30.999 69.219 31.5457 69.219 32.22C69.219 32.8943 69.5997 33.441 70.0693 33.441Z" fill="#102048"/>
<path d="M76.4797 32.7867C76.9494 32.7867 77.3301 32.24 77.3301 31.5657C77.3301 30.8914 76.9494 30.3447 76.4797 30.3447C76.0101 30.3447 75.6294 30.8914 75.6294 31.5657C75.6294 32.24 76.0101 32.7867 76.4797 32.7867Z" fill="#102048"/>
<path d="M73.6017 31.1883C73.5399 31.809 73.3193 32.4067 73.0512 32.9548C72.8032 33.5082 72.4288 34.035 72.1851 34.5174C71.9339 35.0175 71.8674 35.4861 72.1795 35.893C72.4873 36.3089 72.9945 36.6415 73.4801 36.996L73.3612 37.2108C72.8066 36.9861 72.215 36.7555 71.7493 36.2383C71.518 35.9844 71.3546 35.6056 71.3582 35.2337C71.363 34.862 71.4805 34.5294 71.6251 34.2397C71.934 33.6563 72.2827 33.2168 72.58 32.6994C72.883 32.1952 73.1676 31.6901 73.3617 31.1357L73.6017 31.1883Z" fill="#102048"/>
<path d="M71.6843 39.0161L76.2942 37.7031C76.2942 37.7031 76.2765 39.7804 74.0707 40.2869C72.8105 40.5765 71.6843 39.0161 71.6843 39.0161Z" fill="white"/>
<path opacity="0.4" d="M69.3964 37.0461C69.3964 38.2392 68.486 39.2229 67.3189 39.3276C66.9369 38.1765 66.8585 36.8629 67.1934 35.4449C67.2457 35.2198 67.2876 34.9948 67.3085 34.7646C68.4806 34.8639 69.3964 35.8477 69.3964 37.0461Z" fill="#FC8879"/>
<path opacity="0.4" d="M79.3034 37.703C80.5687 37.703 81.5944 36.6773 81.5944 35.4121C81.5944 34.1468 80.5687 33.1211 79.3034 33.1211C78.0382 33.1211 77.0125 34.1468 77.0125 35.4121C77.0125 36.6773 78.0382 37.703 79.3034 37.703Z" fill="#FC8879"/>
<path opacity="0.4" d="M53.3509 93.6966L52.7458 97.4842C51.1637 99.5752 48.993 100.618 46.8101 100.636C48.9624 91.8549 54.0663 85.5205 54.0663 85.5205L53.3509 93.6966Z" fill="#1F3C88"/>
<path opacity="0.2" d="M48.7236 81.509L43.3826 74.6534C43.8917 72.0288 44.6151 69.3309 45.5473 66.5776C45.5779 66.4795 45.6147 66.3814 45.6515 66.2832C46.6632 68.1718 49.024 73.4822 48.7236 81.509Z" fill="#1F3C88"/>
<g filter="url(#filter0_d_531_1600)">
<path d="M46.0797 35.0956C43.5775 34.0934 41.4499 32.5508 39.7396 30.4063C41.7292 27.4084 42.8908 23.8133 42.8908 19.9456C42.8908 9.41871 34.0702 0.786348 23.5457 1.00403C12.8621 1.22508 4.35196 10.2899 5.03885 21.1744C5.63585 30.6357 13.3354 38.2991 22.799 38.8569C27.4607 39.1316 31.7833 37.7181 35.2163 35.1727C38.1953 36.4467 41.7244 36.731 46.0476 35.5867C46.2857 35.5238 46.3082 35.1871 46.0797 35.0956Z" fill="white"/>
<path d="M46.0797 35.0956C43.5775 34.0934 41.4499 32.5508 39.7396 30.4063C41.7292 27.4084 42.8908 23.8133 42.8908 19.9456C42.8908 9.41871 34.0702 0.786348 23.5457 1.00403C12.8621 1.22508 4.35196 10.2899 5.03885 21.1744C5.63585 30.6357 13.3354 38.2991 22.799 38.8569C27.4607 39.1316 31.7833 37.7181 35.2163 35.1727C38.1953 36.4467 41.7244 36.731 46.0476 35.5867C46.2857 35.5238 46.3082 35.1871 46.0797 35.0956Z" stroke="#17C2D7" stroke-width="2" stroke-miterlimit="10"/>
</g>
<path d="M29.8427 19.7351C29.8427 16.1489 26.7353 13.2885 23.0662 13.6995C20.3179 14.0075 18.0825 16.2137 17.7413 18.958C17.5091 20.8258 18.1278 22.5483 19.2598 23.7991C20.1526 24.7855 20.6149 26.0872 20.6149 27.4178V27.4246C20.6149 29.1658 22.0265 30.5774 23.7676 30.5774C25.5089 30.5774 26.9205 29.1658 26.9205 27.4246V27.4203C26.9205 26.0382 27.4712 24.7352 28.3736 23.6884C29.2886 22.627 29.8427 21.2469 29.8427 19.7351Z" fill="#FBC343"/>
<path d="M23.7682 31.6055C24.8769 31.6055 25.7906 30.7802 25.9343 29.7109H21.6021C21.7457 30.7801 22.6595 31.6055 23.7682 31.6055Z" fill="#102048"/>
<path opacity="0.8" d="M20.3018 20.4607C20.8373 20.6521 21.5903 19.9149 21.9837 18.8141C22.377 17.7133 22.2618 16.6658 21.7262 16.4744C21.1907 16.2831 20.4377 17.0203 20.0444 18.1211C19.651 19.2219 19.7663 20.2694 20.3018 20.4607Z" fill="white"/>
<path d="M23.9586 11.6292H23.8063C23.5099 11.6292 23.2673 11.3865 23.2673 11.0902V7.68158C23.2673 7.38511 23.5099 7.14258 23.8063 7.14258H23.9586C24.255 7.14258 24.4976 7.38525 24.4976 7.68158V11.0902C24.4976 11.3866 24.255 11.6292 23.9586 11.6292Z" fill="#FBC343"/>
<path d="M19.2722 12.625L19.1247 12.7249C18.885 12.8871 18.5564 12.8237 18.394 12.584L16.7242 10.1166C16.562 9.8769 16.6253 9.54827 16.8651 9.38592L17.0125 9.28621C17.2521 9.12401 17.5809 9.18734 17.7431 9.42707L19.413 11.8944C19.5752 12.134 19.5119 12.4628 19.2722 12.625Z" fill="#FBC343"/>
<path d="M28.3173 12.5348L28.4726 12.6398C28.7101 12.8006 29.0359 12.7377 29.1967 12.5002L30.8125 10.1127C30.9733 9.87526 30.9105 9.54944 30.6729 9.38864L30.5176 9.28345C30.2801 9.12265 29.9543 9.18556 29.7935 9.42304L28.1777 11.8105C28.017 12.0481 28.0797 12.3739 28.3173 12.5348Z" fill="#FBC343"/>
<defs>
<filter id="filter0_d_531_1600" x="0" y="0" width="51.2397" height="47.8906" filterUnits="userSpaceOnUse" color-interpolation-filters="sRGB">
<feFlood flood-opacity="0" result="BackgroundImageFix"/>
<feColorMatrix in="SourceAlpha" type="matrix" values="0 0 0 0 0 0 0 0 0 0 0 0 0 0 0 0 0 0 127 0" result="hardAlpha"/>
<feOffset dy="4"/>
<feGaussianBlur stdDeviation="2"/>
<feComposite in2="hardAlpha" operator="out"/>
<feColorMatrix type="matrix" values="0 0 0 0 0 0 0 0 0 0 0 0 0 0 0 0 0 0 0.25 0"/>
<feBlend mode="normal" in2="BackgroundImageFix" result="effect1_dropShadow_531_1600"/>
<feBlend mode="normal" in="SourceGraphic" in2="effect1_dropShadow_531_1600" result="shape"/>
</filter>
</defs>
</svg>
