<svg width="96" height="200" viewBox="0 0 96 200" fill="none" xmlns="http://www.w3.org/2000/svg">
<path d="M63.1824 121.095C63.0791 121.976 63.3792 122.906 63.3377 123.785C63.2877 124.834 63.0792 125.869 62.9356 126.907C62.7025 128.575 63.0526 130.211 63.0005 131.892C62.9888 132.279 62.7324 132.814 62.7015 133.253C60.0766 133.118 57.3252 133.403 54.678 133.338C52.1978 133.277 49.7496 132.584 47.2875 132.318C46.5755 132.24 45.7477 132.126 44.9529 132.131C45.07 128.475 44.5465 124.842 44.273 121.204C44.0081 117.688 44.1049 114.132 43.6335 110.622C43.2325 107.631 42.5111 104.694 42.0812 101.709C41.5855 98.2635 41.279 94.7928 40.7406 91.3529C40.1309 87.465 39.2499 83.6112 38.9797 79.6766C38.851 77.7955 38.8817 76.025 38.4636 74.1671C38.0519 72.3307 37.473 70.5326 37.1622 68.6749C36.8985 67.1012 36.6803 65.5329 36.493 63.9614L36.6345 63.9443C36.8271 65.901 39.9286 68.3684 41.3385 69.2505C42.6716 70.0835 44.1613 70.5901 45.6499 71.0667C47.0447 71.5124 48.3842 71.7561 49.758 72.1583C51.888 72.783 54.0107 72.1839 55.9834 71.3327C56.7717 70.9922 57.7091 70.7528 58.4445 70.34C59.4191 69.793 60.4927 68.7132 61.1522 67.8108C61.3704 67.5119 61.4555 67.0032 61.7524 66.7808C61.6928 67.7182 61.6588 68.6589 61.5491 69.5058C61.4352 70.3793 61.5682 71.4582 61.3671 72.3296C61.0544 72.503 60.8298 72.7509 60.8213 73.1223C60.7872 74.4725 61.0001 75.8131 60.9596 77.1708C60.8959 79.3062 61.1011 81.2107 61.3246 83.2782C61.5884 85.7264 61.3055 88.2992 61.1852 90.7506C60.8681 97.2335 60.9415 103.622 61.6575 110.067C61.9045 112.292 61.9023 114.537 62.1662 116.761C62.345 118.27 62.7706 119.669 63.1824 121.095Z" fill="white"/>
<path d="M68.8982 133.756C69.2589 134.038 69.1803 134.604 69.2271 135.005C69.2962 135.591 69.3908 136.162 69.4154 136.753C69.4642 137.961 69.3856 139.172 69.4472 140.379C69.5218 141.848 69.2206 143.315 69.3302 144.781C69.394 145.633 69.6674 146.821 69.0364 147.534C68.9514 147.631 68.8491 147.718 68.7279 147.796C67.898 148.323 66.8116 148.25 65.871 148.252L65.8147 148.253C65.7946 146.753 65.7105 145.255 65.6083 143.759C65.3891 140.531 65.0742 137.305 65.0709 134.067C65.0699 133.923 65.0188 133.808 64.9348 133.716C66.0988 133.664 67.8596 133.011 68.8769 133.74C68.8844 133.745 68.8919 133.751 68.8982 133.756Z" fill="white"/>
<path d="M65.3158 127.597C65.1625 128.326 64.8476 129.133 64.6838 129.728C64.3721 130.855 63.7794 132.119 63.6964 133.327C63.3675 133.294 63.0356 133.271 62.7015 133.254C62.7323 132.814 62.9888 132.279 63.0005 131.893C63.0527 130.212 62.7026 128.576 62.9356 126.907C63.0793 125.87 63.2879 124.835 63.3378 123.786C63.3793 122.907 63.0793 121.977 63.1824 121.096C63.3282 121.598 63.4709 122.102 63.6016 122.615C64.0337 124.316 64.5283 126.027 65.3158 127.597Z" fill="#0077B6"/>
<path d="M85.4922 148.013C83.5356 147.905 81.6226 147.529 79.6445 147.526C78.8008 147.525 70.5164 147.808 69.0364 147.534C69.6674 146.821 69.394 145.633 69.3301 144.781C69.2206 143.315 69.5217 141.848 69.4472 140.379C69.3856 139.172 69.4642 137.961 69.4154 136.753C69.3908 136.162 69.296 135.591 69.2271 135.005C69.1803 134.604 69.2589 134.038 68.8982 133.756C69.4578 133.798 70.4804 133.605 70.7676 133.613C72.0753 134.408 73.5522 134.999 75.2599 135.425C78.6317 136.267 81.7769 135.111 84.4507 132.969C85.8189 131.872 86.8148 130.55 87.7501 129.106V129.105C89.8452 128.44 95.611 127.769 94.7214 131.358C94.6119 131.8 94.2852 132.234 94.5139 132.665C94.6524 132.925 95.0587 133.071 95.2651 133.258C95.828 133.771 96.0631 134.862 95.8673 135.567C95.6152 136.475 94.7076 137.059 94.1692 137.782C93.4626 138.732 94.2531 140.029 93.9809 141.08C93.7425 141.999 93.1573 142.767 92.5114 143.436C91.9007 144.07 91.7751 144.667 91.6486 145.527C91.5327 146.313 91.1271 146.924 90.5186 147.428C89.4205 148.336 87.8767 148.041 86.5456 148.044C86.1923 148.045 85.8423 148.034 85.4922 148.013Z" fill="#F3B39A"/>
<path d="M70.7676 133.614C70.4803 133.605 69.4578 133.799 68.8982 133.756C68.8918 133.751 68.8845 133.746 68.877 133.74C67.8597 133.011 66.0988 133.664 64.9349 133.716C64.6943 133.454 64.1826 133.377 63.7942 133.337C63.7613 133.334 63.7294 133.331 63.6964 133.327C63.7792 132.119 64.3721 130.855 64.6838 129.728C64.8476 129.133 65.1625 128.327 65.3158 127.597C65.5211 128.006 65.7467 128.406 65.9968 128.794C67.3597 130.907 68.8887 132.473 70.7676 133.614Z" fill="#0077B6"/>
<path d="M61.6822 28.2899C61.4267 27.6717 61.3608 26.8885 61.2256 26.2448C61.082 25.5659 60.9383 24.8158 60.9969 24.1189C61.0532 23.4625 61.5587 22.6475 62.2226 22.4771C62.7621 22.3389 63.377 22.4506 63.8579 22.724C64.1995 22.9197 64.4335 23.2358 64.6336 23.5667C64.8347 23.8976 65.071 24.2147 65.2198 24.5701C65.5145 25.2733 65.6912 26.0172 65.8945 26.7502C66.2073 27.8727 66.4551 28.9931 66.7456 30.1157C67.0233 31.1924 67.3244 32.2862 67.4149 33.3981C67.4606 33.9706 67.5117 34.5378 67.5787 35.108C67.6128 35.3964 67.5851 36.1602 67.9426 36.2719C68.6213 36.4848 68.6086 32.2224 68.5852 31.766C68.5405 30.917 68.3128 30.1083 68.2586 29.2518C68.2288 28.791 68.2703 28.324 68.197 27.8728C68.0449 26.9291 67.9033 25.9757 67.8607 25.0256C67.8383 24.5352 67.6607 24.0127 67.5585 23.5318C67.4606 23.0626 67.3627 22.5934 67.2788 22.1219C67.1383 21.3347 66.9435 20.3206 67.2766 19.5557C67.7425 18.4852 69.3906 18.6449 70.0748 19.3823C70.4005 19.7334 70.6303 20.1505 70.9334 20.5154C71.1909 20.8239 71.3973 21.0282 71.5527 21.4219C71.6772 21.7357 71.7922 22.073 71.891 22.4157C71.9731 22.0741 72.257 21.74 72.557 21.6252C73.005 21.4529 73.5487 21.4975 73.9965 21.6454C74.8201 21.9167 75.1596 22.7115 75.4139 23.451C75.7342 24.382 76.33 25.1917 76.6215 26.1344C76.9012 27.0398 77.2578 27.924 77.4535 28.855C77.7078 30.0679 77.8248 31.3383 77.9386 32.5693C77.9887 33.1172 78.0897 33.6886 78.1632 34.2601L78.2057 34.2547C78.3026 34.9175 78.8219 35.8007 78.9909 36.305C79.1442 36.7625 79.2635 37.2221 79.3549 37.686C79.5559 38.7074 79.623 39.7458 79.622 40.8045C79.6208 45.7575 78.807 50.988 76.7492 55.5185C76.2862 56.5389 76.1394 57.8433 76.0341 58.9477C75.9331 60.0021 75.9352 61.0619 76.016 62.1153C76.0863 63.0568 76.2193 63.9943 76.3969 64.9221C76.067 64.6359 75.4244 64.9221 75.0807 65.0796C74.6222 65.2893 74.2199 65.4339 73.7283 65.567C72.7389 65.8351 71.7355 66.0554 70.731 66.2608C69.5288 66.5065 68.3699 66.9002 67.1369 67.0438C65.8473 67.1938 64.5461 67.197 63.2489 67.2002C63.0809 67.1724 62.9521 67.2555 62.8542 67.4172L62.801 67.4055C62.9755 67.0778 62.7765 66.5969 62.718 66.2755C62.6201 65.7381 62.6383 65.171 62.5659 64.6284C62.5117 64.2219 62.4435 63.8176 62.3649 63.4155C62.2306 62.7313 62.0658 62.0526 61.886 61.3779C61.5986 60.3044 61.2741 59.2392 60.9731 58.1679C60.6719 57.0964 60.3952 56.0208 60.2048 54.9237C59.7973 52.5767 59.6951 50.1943 59.6951 47.8163C59.6951 47.3311 59.7005 46.8449 59.7068 46.3596C59.7314 44.6722 59.8441 43.0123 59.7941 41.3216C59.7334 39.2437 59.8645 37.154 59.6506 35.0813C59.5973 34.5726 59.4963 34.063 59.4133 33.5534C59.357 33.198 59.308 32.8426 59.292 32.4851C59.2782 32.1712 59.357 31.8903 59.3218 31.5701C59.2771 31.1636 59.2176 30.7593 59.143 30.3582C58.994 29.5528 58.8664 28.7952 59.209 28.0121C59.5144 27.3162 60.1284 27.0535 60.805 27.4578C61.1575 27.6685 61.4438 27.9568 61.6822 28.2899Z" fill="#F3B39A"/>
<path d="M76.5259 65.0942C76.7346 65.5485 76.7323 66.0625 76.7654 66.5509C76.7973 67.0244 76.9782 67.4712 76.9995 67.9394L76.7899 67.967C76.7633 67.967 76.7368 67.9692 76.708 67.9723C75.1716 69.2066 73.0776 68.9077 71.4114 69.7843C70.9103 70.0482 70.458 70.2706 69.9027 70.4386C68.6439 70.8206 67.347 71.0526 66.0553 71.2855C65.0604 71.4654 64.0635 71.6355 63.0772 71.858C62.9644 71.8836 62.8294 71.908 62.6835 71.9347C62.6547 70.976 62.3718 68.2203 62.8548 67.4159C62.9528 67.2542 63.0814 67.1711 63.2496 67.1988C64.5466 67.1957 65.8479 67.1925 67.1376 67.0425C68.3706 66.8989 69.5294 66.5051 70.7317 66.2594C71.7362 66.0541 72.7395 65.8338 73.729 65.5657C74.2206 65.4328 74.6227 65.288 75.0814 65.0783C75.4251 64.9208 76.0677 64.6347 76.3976 64.9208C76.4483 64.9634 76.4919 65.0208 76.5259 65.0942Z" fill="white"/>
<path d="M17.4678 153.204C15.5463 152.886 13.7566 152.186 11.9084 151.489C8.86009 150.341 5.78733 149.379 3.23477 147.221C1.79947 146.007 1.33117 144.158 0.880044 142.416C0.151197 139.601 0.067114 136.787 0.00235868 133.898C-0.0220677 132.832 0.151325 131.759 0.149162 130.673C0.142674 127.985 0.124736 125.298 0.110742 122.611C0.0841525 117.182 0.0799516 111.751 0.24801 106.325C0.283123 105.181 0.557662 104.076 0.620509 102.948C0.866299 98.5288 1.26208 94.1195 1.4706 89.6996C1.56321 87.7398 1.62493 85.783 1.68027 83.8232C1.73128 81.9761 1.84731 80.0492 2.65694 78.3554C3.68794 76.1976 5.53085 74.475 7.47898 73.1407C9.69414 71.6224 11.9041 70.0871 14.2512 68.7773C15.4142 68.1272 16.6112 67.5325 17.8529 67.0473C19.0297 66.5876 20.2618 66.2461 21.4397 65.7726C22.6407 65.2896 23.8635 64.8533 25.0316 64.2735C25.7233 63.9298 26.2978 63.4797 27.0021 63.1616C27.8182 62.7924 28.6056 62.3657 29.3907 61.9358C29.7514 61.738 30.1993 61.5347 30.5568 61.2666C30.3588 61.6922 30.1854 62.1295 30.0259 62.5636C29.7099 63.4222 29.4843 64.2255 29.3449 65.13C29.18 66.2003 29.0842 67.2813 28.864 68.3432C28.4672 70.2489 27.3234 71.8161 28.6448 73.6059C29.7715 75.1306 31.8282 76.2414 33.4742 77.1351C33.7616 77.2904 33.935 77.3947 34.1136 77.5479C33.4433 78.498 32.7549 79.4418 31.8623 80.0813C30.9376 80.7431 30.0971 81.4676 29.3471 82.321C28.9566 82.7646 27.8054 83.3988 27.982 84.101C27.1 85.3949 28.1671 87.0599 28.8429 88.1909C30.8198 91.4957 32.5657 95.5644 32.8818 99.4544C33.2116 103.519 34.9693 107.209 36.0013 111.115C36.8631 114.375 37.5772 117.721 38.5442 120.942C39.2093 123.157 40.453 125.082 41.1563 127.289C41.4915 128.341 41.7074 129.426 42.0234 130.484C42.0808 130.676 42.3831 132.087 42.6342 132.507C42.9492 132.458 43.2683 132.39 43.597 132.297C44.0164 132.177 44.478 132.133 44.9526 132.131C45.7473 132.126 46.5751 132.24 47.2871 132.318C49.7492 132.584 52.1974 133.277 54.6776 133.338C57.3249 133.403 60.0763 133.118 62.7011 133.253C63.0352 133.27 63.3671 133.294 63.696 133.327C63.7289 133.33 63.7609 133.333 63.7938 133.336C64.1822 133.377 64.6939 133.453 64.9345 133.715C65.0184 133.808 65.0697 133.923 65.0706 134.066C65.0738 137.304 65.3888 140.53 65.608 143.758C65.7102 145.254 65.7942 146.752 65.8143 148.253C65.8155 148.328 65.8166 148.405 65.8175 148.48C65.826 149.452 66.0941 150.686 65.8143 151.63C65.5899 152.384 65.0813 152.425 64.3332 152.515C64.2226 152.529 64.112 152.539 64.0013 152.547C62.4191 152.668 60.8551 152.304 59.2751 152.302C55.9331 152.297 52.4964 152.349 49.1671 152.617C44.7601 152.971 40.3808 153.587 35.9821 154.08C31.7207 154.557 27.2073 154.623 22.9641 154.085C21.4054 153.887 19.8839 153.476 18.325 153.319C18.036 153.29 17.7509 153.251 17.4678 153.204Z" fill="#0077B6"/>
<path d="M36.0186 57.4915C36.0581 57.7883 35.9314 58.3416 35.9548 58.6151C36.1091 60.4069 36.2813 62.1859 36.4932 63.9617C36.6804 65.5332 36.8986 67.1015 37.1623 68.6752C37.473 70.5329 38.0519 72.331 38.4637 74.1674C38.8819 76.0253 38.8511 77.7958 38.9798 79.6769C39.25 83.6115 40.131 87.4653 40.7407 91.3532C41.2791 94.7931 41.5857 98.2638 42.0813 101.709C42.5112 104.695 43.2327 107.631 43.6337 110.622C44.105 114.132 44.0082 117.688 44.2731 121.205C44.5465 124.842 45.0701 128.475 44.9531 132.131C44.4786 132.133 44.0169 132.178 43.5975 132.297C43.2688 132.39 42.9496 132.459 42.6347 132.508C42.3836 132.087 42.0813 130.676 42.024 130.484C41.7079 129.426 41.4919 128.341 41.1568 127.289C40.4535 125.082 39.2097 123.157 38.5447 120.942C37.5776 117.721 36.8636 114.375 36.0018 111.115C34.9698 107.209 33.212 103.519 32.8823 99.4546C32.5663 95.5646 30.8203 91.4959 28.8434 88.1911C28.1676 87.0601 27.1006 85.3949 27.9825 84.1012C27.8059 83.399 28.9571 82.7648 29.3476 82.3211C30.0977 81.4678 30.9382 80.7432 31.8628 80.0814C32.7555 79.442 33.4439 78.4982 34.1141 77.5481C33.9355 77.3948 33.762 77.2906 33.4747 77.1353C31.8288 76.2415 29.7721 75.1308 28.6453 73.606C27.3237 71.8164 28.4677 70.2491 28.8645 68.3434C29.0847 67.2815 29.1805 66.2005 29.3454 65.1302C29.4848 64.2258 29.7103 63.4224 30.0264 62.5638C30.186 62.1297 30.3594 61.6923 30.5573 61.2668C31.0701 60.1591 31.748 59.1312 32.7801 58.4408C33.1951 58.1631 35.6985 56.5502 35.9987 57.4003C36.0081 57.4266 36.0143 57.4575 36.0186 57.4915Z" fill="#0077B6"/>
<path d="M62.6868 72.0645C62.6868 72.1168 62.6857 72.1595 62.6826 72.1927C62.5843 72.1532 62.6504 72.1286 62.6868 72.0645Z" fill="#229F49"/>
<path d="M62.6865 72.0641C62.6504 72.1279 62.5844 72.1523 62.6823 72.1918C62.6854 72.1587 62.6865 72.1162 62.6865 72.0641ZM61.3671 72.3301C61.7503 72.1172 62.2651 72.0151 62.6833 71.9353C62.8291 71.9087 62.9642 71.8843 63.0771 71.8586C64.0634 71.6362 65.0603 71.466 66.0552 71.2861C67.3469 71.053 68.6439 70.8211 69.9026 70.4392C70.4579 70.2711 70.9102 70.0487 71.4113 69.7849C73.0775 68.9081 75.1714 69.2071 76.7079 67.9729C76.7366 67.9697 76.7632 67.9675 76.7898 67.9675L76.9993 67.9399C76.9781 67.4718 76.7972 67.025 76.7652 66.5515C76.7322 66.0631 76.7345 65.5492 76.5258 65.0948C76.4917 65.0214 76.4482 64.964 76.3971 64.9214C76.2195 63.9937 76.0864 63.0562 76.0162 62.1145L76.0556 62.1113C76.5291 62.2869 76.9993 62.621 77.4111 62.8199C79.2838 63.7254 81.5127 63.7563 83.3672 64.7171C84.7303 65.4214 86.2816 66.5822 87.4541 67.5952C89.8459 69.6582 91.0813 71.7894 91.7698 74.8877C92.1825 76.7487 92.4348 78.6426 92.4943 80.5471C92.7007 87.0695 92.7517 93.596 92.7379 100.121C92.7242 106.458 92.7048 112.619 91.5856 118.874C91.2716 120.629 91.2259 122.441 90.7333 124.161C90.2704 125.774 89.0266 127.077 88.1478 128.48C88.0159 128.691 87.8839 128.899 87.7499 129.105V129.106C86.8145 130.55 85.8187 131.871 84.4504 132.968C81.7765 135.111 78.6314 136.266 75.2596 135.425C73.5519 134.998 72.0751 134.408 70.7673 133.613C68.8882 132.472 67.3594 130.906 65.9964 128.793C65.7463 128.406 65.5208 128.006 65.3154 127.596C64.528 126.027 64.0333 124.316 63.6012 122.614C63.4704 122.102 63.3278 121.597 63.182 121.095C62.7702 119.669 62.3447 118.27 62.1659 116.761C61.9021 114.538 61.9042 112.293 61.6573 110.068C60.9413 103.622 60.8679 97.234 61.1849 90.7511C61.3051 88.2997 61.5882 85.7269 61.3244 83.2787C61.1008 81.2113 60.8956 79.3067 60.9594 77.1713C60.9998 75.8136 60.7871 74.473 60.8211 73.1228C60.8299 72.7514 61.0544 72.5035 61.3671 72.3301Z" fill="#0077B6"/>
<path d="M62.8015 67.4048L62.8547 67.4165C62.3716 68.2209 62.6547 70.9766 62.6833 71.9354C62.2651 72.0151 61.7503 72.1173 61.3671 72.3301C61.5682 71.4587 61.4351 70.3799 61.5491 69.5064C61.6586 68.6595 61.6927 67.7188 61.7524 66.7814C61.8268 65.5866 61.9439 64.3991 62.3131 63.4246L62.3652 63.415C62.4439 63.8172 62.512 64.2215 62.5662 64.628C62.6386 65.1706 62.6206 65.7377 62.7184 66.2751C62.777 66.5962 62.976 67.0771 62.8015 67.4048Z" fill="#0077B6"/>
<path d="M54.4523 30.6224C54.9248 30.8373 55.4791 31.2364 55.4216 31.828C55.3748 32.2993 54.6694 32.6164 54.2502 32.6697C53.6979 32.7399 53.1361 32.6239 52.599 32.508C52.1477 32.4112 51.7372 32.3239 51.27 32.3388C50.7763 32.3537 50.2869 32.4282 49.7943 32.4451C48.9292 32.4739 48.045 32.4376 47.2258 32.1313C46.7991 31.9706 46.3353 31.896 46.1714 31.3993C45.7628 30.1597 48.2205 30.0427 48.8985 30.0352C49.4123 30.0298 49.9262 29.9235 50.4413 29.9628C50.6488 29.9798 50.8264 30.0554 51.0361 30.0703C51.3095 30.0895 51.584 30.0905 51.8574 30.1193C52.3576 30.1714 52.864 30.3226 53.3631 30.348C53.7534 30.3681 54.0895 30.4564 54.4523 30.6224Z" fill="#8C542C"/>
<path d="M34.8089 29.501C34.8716 29.568 34.929 29.6362 34.9802 29.7031C35.2536 30.0616 35.3388 30.501 35.5655 30.8736C35.8101 31.2768 36.1858 31.596 36.4325 32.0142C36.4325 32.0248 36.4336 32.0355 36.4357 32.045C36.4442 32.143 36.4559 32.2398 36.4698 32.3366C36.5677 33.0154 36.8411 33.6496 37.0103 34.3113C37.1647 34.9146 37.0381 35.3625 37.0401 35.9605C37.0411 36.2648 37.0518 36.5701 37.0804 36.8723C37.0975 37.0627 37.0888 37.8256 37.2858 37.9277C37.5911 38.0852 37.8073 37.2127 37.8454 37.0052C37.9815 36.2657 38.4242 35.7156 38.6285 35.0155C38.8413 34.2834 38.8029 33.5121 38.9157 32.763C39.019 32.0767 39.2434 31.4533 39.4999 30.8138C39.7297 30.2424 40.0734 29.7326 40.3075 29.1646C40.365 29.0252 40.4129 28.8805 40.4543 28.7326C40.6436 28.906 40.9384 28.9825 41.1693 29.0571C41.498 29.1614 41.8375 29.3433 42.1864 29.389C42.8292 29.472 43.3196 29.5497 43.908 29.2773C44.5039 29.0016 45.1517 28.9347 45.7264 28.5782C46.0723 28.3634 46.4764 28.2729 46.8351 28.0825C47.1489 27.9164 47.434 27.6972 47.7119 27.4749C48.2395 27.0525 48.5694 26.5545 48.9982 26.0651C49.1962 25.8384 49.4813 25.6884 49.6451 25.449C49.8324 25.1778 49.859 24.8042 49.9771 24.5009C50.1302 24.1062 50.3601 23.7668 50.5016 23.37C50.6217 23.0305 50.7878 22.7028 50.9208 22.3666C51.1932 21.6792 51.4389 20.9813 51.6868 20.2854C52.1859 18.8905 52.688 17.4785 53.4254 16.1878C53.9733 15.2281 54.6809 14.3397 55.5863 13.6938C56.5376 13.015 57.9356 12.7501 58.4708 14.062C58.8326 14.9472 58.7942 16.0059 58.6666 16.9369C58.4601 18.4404 58.5506 19.9533 58.2505 21.4429C58.0047 22.6569 57.5109 23.788 57.2205 24.9829C56.9545 26.0777 57.1715 27.2492 56.8949 28.3164C56.649 29.2665 56.7108 30.3199 57.0842 31.2435C57.3971 32.018 58.4376 33.414 59.3017 33.5715L59.4134 33.5535C59.4963 34.0631 59.5973 34.5727 59.6507 35.0814C59.8645 37.1541 59.7335 39.2438 59.7942 41.3217C59.8443 43.0124 59.7316 44.6722 59.7069 46.3597C59.7005 46.845 59.6952 47.3312 59.6952 47.8164C59.6952 50.1944 59.7973 52.5768 60.2048 54.9238C60.3953 56.0209 60.672 57.0965 60.9731 58.168C60.439 58.6361 59.9793 59.1149 59.3409 59.464C58.6717 59.8321 57.9535 60.096 57.2439 60.3716C55.8884 60.8983 54.4561 61.1568 53.0059 60.9546C52.0706 60.8248 51.2993 60.4801 50.4395 60.1066C49.8905 59.8681 49.3373 59.6491 48.8158 59.3543C48.1252 58.9627 47.5646 58.3904 46.875 58.019C46.1547 57.6317 45.593 57.0124 45.0098 56.4464C44.0374 55.5027 43.2702 54.4279 42.2265 53.5768C41.038 52.6075 40.1155 51.0572 39.3484 49.7528C39.2951 49.6614 39.2431 49.5699 39.1929 49.4783C38.7961 48.7591 38.478 48.0142 38.1184 47.278C37.2916 45.5852 37.0438 43.4987 36.7501 41.6495C36.5904 40.6473 36.0276 39.5854 35.0785 39.1501C34.2475 38.7704 33.2197 38.6629 32.4813 38.1001C31.0343 37.001 30.4257 34.9581 30.2182 33.227C30.0692 31.98 29.999 30.5064 30.7012 29.3977C31.1258 28.7285 31.9567 28.3081 32.7557 28.3135C33.1739 28.3167 33.6069 28.4391 33.9348 28.7083C34.211 28.935 34.5481 29.2159 34.8089 29.501ZM55.4216 31.829C55.4791 31.2374 54.9248 30.8384 54.4523 30.6234C54.0895 30.4574 53.7533 30.3691 53.3629 30.3489C52.8638 30.3233 52.3575 30.1722 51.8572 30.1201C51.5838 30.0914 51.3093 30.0904 51.0359 30.0712C50.8264 30.0563 50.6486 29.9807 50.4411 29.9637C49.926 29.9244 49.4122 30.0307 48.8983 30.0361C48.2205 30.0436 45.7627 30.1606 46.1712 31.4001C46.3351 31.897 46.7989 31.9715 47.2256 32.1321C48.0448 32.4386 48.9291 32.4748 49.7941 32.446C50.2867 32.429 50.7761 32.3544 51.2699 32.3396C51.737 32.3248 52.1476 32.412 52.5988 32.5088C53.1361 32.6249 53.6979 32.7408 54.25 32.6705C54.6693 32.6175 55.3748 32.3003 55.4216 31.829Z" fill="#F3B39A"/>
<path d="M36.4324 32.0137C36.4346 32.0178 36.4377 32.022 36.4398 32.0263C36.4388 32.0326 36.4377 32.039 36.4357 32.0443C36.4335 32.0348 36.4324 32.0242 36.4324 32.0137Z" fill="#229F49"/>
<path d="M36.4323 32.0134C36.1856 31.5952 35.8098 31.276 35.5653 30.8727C35.3387 30.5004 35.2535 30.061 34.98 29.7023C34.929 29.6353 34.8715 29.5672 34.8087 29.5002C34.6939 28.898 34.8215 28.25 34.7395 27.6415C34.6342 26.8594 34.4533 26.0901 34.3458 25.3091C34.1777 24.0909 34.4086 22.9502 34.4309 21.7319C34.5012 17.825 35.0992 13.4902 37.5857 10.3228C38.1209 9.64077 38.5007 8.89806 39.021 8.22239C39.9211 7.05094 40.866 5.59859 42.1417 4.79952C44.0048 3.63125 45.8134 2.32037 47.8808 1.52982C48.9641 1.11483 50.1089 0.919034 51.2505 0.743469C52.3922 0.568923 53.5273 0.285985 54.669 0.14337C57.0704 -0.156616 59.4944 0.106096 61.9043 0.113602C63.3832 0.117927 64.8473 0.200874 66.289 0.561545C67.6743 0.908476 68.8042 1.68083 70.1278 2.19684C70.645 2.39899 71.0535 2.85546 71.4983 3.22465C72.908 3.1959 74.1624 4.46747 75.0733 5.38677C75.648 5.96549 76.2044 6.56356 76.7736 7.14763C77.3311 7.71898 77.6578 8.4968 78.1908 9.12031C78.5228 9.51075 78.9601 9.74382 79.2825 10.1374C80.2284 11.294 81.2647 12.3208 82.2914 13.4092C82.9734 14.1317 83.7651 14.7084 84.2322 15.5882C84.7005 16.467 85.0376 17.3439 85.2941 18.3078C85.5771 19.3686 86.0624 20.4337 86.2028 21.5222C86.5742 24.3822 85.6007 27.7646 84.6143 30.4374C83.629 33.1112 82.0788 35.5701 79.8209 37.3373L79.355 37.6853C79.2634 37.2214 79.1444 36.7618 78.9911 36.3043C78.822 35.8 78.3027 34.9168 78.2058 34.254L78.1634 34.2594C78.0898 33.688 77.9888 33.1167 77.9387 32.5686C77.8248 31.3376 77.7079 30.0672 77.4536 28.8543C77.2579 27.9233 76.9013 27.0391 76.6216 26.1337C76.3301 25.1909 75.7342 24.3813 75.414 23.4503C75.1597 22.7108 74.8203 21.916 73.9966 21.6447C73.5487 21.4967 73.0051 21.4521 72.5571 21.6244C72.2571 21.7393 71.9731 22.0735 71.8911 22.415C71.7923 22.0724 71.6771 21.7351 71.5529 21.4211C71.3974 21.0275 71.191 20.8232 70.9335 20.5147C70.6304 20.1497 70.4006 19.7327 70.0749 19.3815C69.3907 18.6442 67.7426 18.4846 67.2767 19.5549C66.9436 20.3199 67.1383 21.334 67.2789 22.1212C67.3628 22.5926 67.4608 23.0619 67.5586 23.5311C67.6608 24.012 67.8384 24.5345 67.8608 25.0249C67.9034 25.9751 68.0449 26.9284 68.1971 27.8721C68.2704 28.3232 68.229 28.7904 68.2587 29.2511C68.313 30.1075 68.5408 30.9161 68.5853 31.7653C68.6088 32.2218 68.6214 36.4841 67.9427 36.2712C67.5851 36.1595 67.6128 35.3956 67.5789 35.1073C67.5118 34.5371 67.4607 33.9699 67.415 33.3974C67.3245 32.2855 67.0234 31.1918 66.7457 30.115C66.4552 28.9924 66.2074 27.8721 65.8946 26.7495C65.6913 26.0165 65.5147 25.2728 65.2199 24.5693C65.071 24.214 64.8348 23.8969 64.6337 23.566C64.4337 23.2351 64.1996 22.9192 63.858 22.7233C63.3771 22.4499 62.7622 22.338 62.2227 22.4764C61.5588 22.6467 61.0535 23.4618 60.997 24.1182C60.9385 24.8151 61.0821 25.5652 61.2257 26.2441C61.3609 26.8878 61.4268 27.6709 61.6823 28.2892C61.4439 27.9561 61.1577 27.6678 60.8054 27.457C60.1288 27.0527 59.5147 27.3155 59.2094 28.0113C58.8669 28.7943 58.9945 29.5519 59.1434 30.3574C59.2179 30.7585 59.2776 31.1628 59.3221 31.5693C59.3572 31.8895 59.2785 32.1704 59.2923 32.4843C59.3084 32.8417 59.3574 33.1972 59.4137 33.5525L59.302 33.5706C58.4379 33.4131 57.3974 32.0172 57.0846 31.2426C56.711 30.319 56.6493 29.2656 56.8953 28.3155C57.1718 27.2482 56.9548 26.0768 57.2208 24.9819C57.5113 23.7871 58.005 22.6561 58.2508 21.442C58.5508 19.9524 58.4603 18.4393 58.6669 16.936C58.7945 16.005 58.833 14.9464 58.4711 14.0611C57.9359 12.7492 56.5379 13.0142 55.5867 13.6929C54.6812 14.3387 53.9735 15.2272 53.4257 16.1869C52.6883 17.4776 52.1862 18.8895 51.6871 20.2844C51.4393 20.9803 51.1934 21.6783 50.9211 22.3656C50.7882 22.7019 50.622 23.0296 50.5019 23.369C50.3604 23.7658 50.1305 24.1052 49.9774 24.5C49.8592 24.8032 49.8326 25.1767 49.6455 25.4481C49.4816 25.6875 49.1965 25.8375 48.9985 26.0642C48.5697 26.5536 48.2398 27.0515 47.7122 27.4739C47.4344 27.6963 47.1493 27.9155 46.8354 28.0815C46.4769 28.272 46.0726 28.3624 45.7267 28.5773C45.152 28.9338 44.5042 29.0008 43.9083 29.2764C43.3199 29.5488 42.8295 29.471 42.1868 29.3881C41.8378 29.3424 41.4984 29.1604 41.1696 29.0562C40.9387 28.9817 40.644 28.905 40.4547 28.7316C40.4132 28.8796 40.3653 29.0242 40.3078 29.1637C40.0738 29.7318 39.73 30.2415 39.5002 30.8128C39.2438 31.4522 39.0194 32.0757 38.9161 32.7621C38.8032 33.5112 38.8416 34.2825 38.6288 35.0145C38.4245 35.7146 37.9819 36.2647 37.8457 37.0043C37.8074 37.2118 37.5914 38.0843 37.2861 37.9268C37.0892 37.8246 37.0978 37.0618 37.0808 36.8713C37.052 36.5692 37.0413 36.2639 37.0404 35.9595C37.0383 35.3616 37.165 34.9137 37.0107 34.3104C36.8415 33.6486 36.5681 33.0144 36.4701 32.3357C36.4564 32.2388 36.4447 32.142 36.436 32.0441C36.4382 32.0387 36.4392 32.0324 36.4402 32.026C36.4377 32.0218 36.4346 32.0176 36.4323 32.0134Z" fill="#8C542C"/>
<path d="M60.9736 58.1681C60.4395 58.6363 59.9797 59.115 59.3413 59.4641C58.6721 59.8323 57.954 60.0961 57.2442 60.3717C55.8888 60.8984 54.4565 61.1569 53.0064 60.9547C52.071 60.825 51.2997 60.4802 50.4399 60.1067C49.891 59.8683 49.3377 59.6492 48.8162 59.3544C48.1257 58.9629 47.565 58.3905 46.8755 58.0191C46.1551 57.6319 45.5935 57.0126 45.0103 56.4466C44.3505 55.8063 43.7853 55.106 43.1641 54.4561C44.1264 56.4619 45.367 58.3297 46.9475 59.8881C49.1746 62.0841 52.1125 63.6336 55.2313 63.8675C57.6287 64.0471 60.1148 63.3873 62.0405 61.9768C61.9904 61.777 61.9393 61.5774 61.8862 61.3783C61.5991 60.3046 61.2746 59.2396 60.9736 58.1681Z" fill="#F4936E"/>
<path d="M55.2315 63.8666C52.1126 63.6327 49.1748 62.0831 46.9477 59.8872C45.3672 58.3288 44.1266 56.4611 43.1643 54.4552C42.8698 54.1469 42.5628 53.85 42.2272 53.5761C41.0387 52.6068 40.1162 51.0565 39.349 49.7521C39.2957 49.6606 39.2437 49.5691 39.1936 49.4775C39.1788 50.1883 39.0001 50.8331 38.9309 51.5427C38.8702 52.1705 38.867 52.76 38.7001 53.3866C38.4446 54.3432 38.0372 55.3518 37.3722 56.1019C37.1339 56.37 36.8317 56.4892 36.5998 56.7744C36.3998 57.0202 36.2221 57.2648 36.0189 57.4915C36.0584 57.7884 35.9316 58.3418 35.9551 58.6152C36.1094 60.4069 36.2816 62.186 36.4934 63.9617L36.6349 63.9447C36.8275 65.9013 39.929 68.3688 41.3389 69.2508C42.672 70.0838 44.1617 70.5903 45.6503 71.067C47.0451 71.5128 48.3846 71.7564 49.7584 72.1587C51.8884 72.7833 54.0111 72.1843 55.9838 71.333C56.7722 70.9926 57.7095 70.7532 58.4449 70.3403C59.4195 69.7934 60.4931 68.7136 61.1526 67.8113C61.3708 67.5123 61.4559 67.0037 61.7529 66.7813C61.8273 65.5865 61.9443 64.399 62.3135 63.4245L62.3657 63.4149C62.2712 62.9326 62.1607 62.4533 62.0411 61.9759C60.115 63.3864 57.6289 64.0462 55.2315 63.8666Z" fill="#F3B39A"/>
<path d="M16.5103 167.113C16.5025 166.86 16.4964 166.608 16.4912 166.355C16.496 166.608 16.502 166.861 16.5099 167.114C16.5662 168.916 16.6151 170.742 16.4653 172.537C16.4072 173.234 16.3655 173.931 16.3293 174.629C16.3656 173.931 16.4075 173.234 16.4655 172.538C16.6156 170.742 16.5666 168.917 16.5103 167.113Z" fill="#0077B6"/>
<path d="M15.7826 180.214C15.6615 180.794 15.535 181.377 15.4344 181.987C15.2035 183.388 15.1672 184.767 15.0916 186.163C15.1678 184.767 15.2039 183.388 15.4347 181.987C15.5352 181.377 15.6616 180.794 15.7826 180.214Z" fill="#0077B6"/>
<path d="M16.4849 165.95C16.4837 165.835 16.483 165.719 16.4829 165.604C16.4832 165.719 16.4837 165.835 16.4849 165.95Z" fill="#229F49"/>
<path d="M16.7035 161.992C16.7068 161.966 16.7101 161.94 16.7135 161.913C16.7101 161.94 16.7069 161.966 16.7035 161.992Z" fill="#229F49"/>
<path d="M20.2294 193.774C20.2082 193.775 20.187 193.777 20.1659 193.778C20.187 193.777 20.2082 193.775 20.2294 193.774Z" fill="#229F49"/>
<path d="M16.5035 164.347C16.5086 164.211 16.5147 164.075 16.522 163.938C16.5147 164.075 16.5086 164.211 16.5035 164.347Z" fill="#229F49"/>
<path d="M16.4824 165.459C16.4832 165.123 16.4884 164.787 16.4996 164.451C16.4884 164.787 16.4831 165.123 16.4824 165.459Z" fill="#229F49"/>
<path d="M19.9561 193.792C19.9277 193.794 19.8994 193.797 19.871 193.799C19.8993 193.796 19.9277 193.794 19.9561 193.792Z" fill="#229F49"/>
<path d="M16.5282 163.823C16.5363 163.68 16.546 163.537 16.5568 163.395C16.546 163.537 16.5365 163.68 16.5282 163.823Z" fill="#229F49"/>
<path d="M16.4889 166.269C16.4895 166.297 16.4905 166.326 16.4911 166.355C16.4898 166.284 16.4884 166.214 16.4874 166.145C16.4879 166.186 16.4882 166.227 16.4889 166.269Z" fill="#229F49"/>
<path d="M16.822 161.126C16.8246 161.108 16.827 161.091 16.8295 161.074C16.827 161.091 16.8244 161.108 16.822 161.126Z" fill="#229F49"/>
<path d="M16.3294 174.629C16.2787 175.605 16.2393 176.583 16.1847 177.559C16.1331 178.488 15.9639 179.347 15.7826 180.214C15.9641 179.347 16.1335 178.487 16.1851 177.559C16.2396 176.583 16.2787 175.605 16.3294 174.629Z" fill="#0077B6"/>
<path d="M15.0914 186.164C15.0648 186.653 15.0333 187.145 14.9866 187.64C14.9061 188.498 14.7624 189.309 14.6002 190.123C14.7627 189.309 14.9066 188.499 14.9871 187.64C15.0335 187.145 15.0648 186.653 15.0914 186.164Z" fill="#0077B6"/>
<path d="M16.6149 162.75C16.6131 162.766 16.6108 162.783 16.6091 162.799C16.5911 162.972 16.5761 163.144 16.5625 163.317C16.5761 163.144 16.5916 162.972 16.6096 162.799C16.6114 162.783 16.6131 162.766 16.6149 162.75Z" fill="#229F49"/>
<path d="M17.5403 154.788C17.5393 155.031 17.5329 155.274 17.5222 155.517C17.533 155.274 17.5393 155.031 17.5403 154.788Z" fill="#229F49"/>
<path d="M43.8381 153.49C43.9425 156.403 43.7985 159.316 43.6643 162.225C43.7737 162.23 43.8869 162.235 44.0168 162.241C47.2783 162.023 50.6679 162.474 53.9637 162.331C57.1581 162.192 61.7202 163.131 64.7432 162.289C64.7262 161.72 64.7018 161.15 64.6453 160.582C64.3974 158.137 64.0091 155.588 64.0209 153.132C64.0219 152.894 64.0079 152.694 64.0017 152.547C62.4194 152.668 60.8555 152.304 59.2754 152.302C55.9335 152.297 52.4967 152.349 49.1675 152.617C47.3872 152.76 45.6113 152.946 43.8369 153.15C43.8346 153.253 43.8335 153.36 43.8381 153.49Z" fill="white"/>
<path d="M87.3712 196.343C87.183 196.32 86.9988 196.295 86.8232 196.274C85.5751 196.123 84.2962 195.816 83.0354 195.819C81.2862 195.822 79.5615 196.23 77.8102 196.196C76.9515 196.18 76.2281 195.976 75.4057 195.807C74.5257 195.625 73.616 195.73 72.7296 195.61C71.1252 195.393 69.4122 195.306 67.7938 195.304C66.4319 195.304 65.4486 194.364 65.3615 192.933C65.2775 191.548 65.6977 190.178 65.8148 188.807C66.1893 184.442 65.4595 180.085 65.3243 175.737C65.2894 174.61 65.484 173.527 65.4574 172.399C65.3989 169.923 65.1255 167.46 64.8722 164.998C64.7796 164.098 64.7711 163.193 64.7433 162.291C64.7433 162.291 64.7433 162.29 64.7433 162.289C61.7202 163.131 57.1582 162.192 53.9638 162.331C50.6682 162.474 47.2784 162.023 44.0169 162.241C43.887 162.235 43.7739 162.23 43.6644 162.225C43.654 162.451 43.6437 162.676 43.6335 162.901C43.5672 164.367 43.5496 165.835 43.5421 167.302C43.5348 168.738 43.7204 170.323 43.4432 171.735C42.925 174.374 43.3556 177.215 43.3039 179.916C43.2619 182.107 43.1345 184.204 43.2975 186.398C43.4704 188.726 44.3404 191.91 42.3295 193.732C40.8429 195.079 38.4216 194.747 36.5846 194.747C34.9775 194.747 33.3413 195.047 31.737 194.898C30.3525 194.768 28.9497 194.652 27.5492 194.566C26.4915 194.502 25.4528 194.506 24.3878 194.336C23.0321 194.119 21.7671 193.762 20.4408 193.771L20.4418 193.854C19.9621 194.852 20.1333 198.857 20.8983 200H53.4748H87.2896C87.3777 198.734 87.3926 197.294 87.3712 196.343Z" fill="#DBD0C3"/>
<path d="M15.2923 193.164C14.8787 192.889 14.5852 192.503 14.4487 192.061C14.5852 192.503 14.8786 192.889 15.2919 193.164C16.458 193.938 18.2541 194.009 19.6042 193.828C19.6169 193.826 19.6295 193.825 19.6421 193.823C19.6295 193.825 19.6172 193.826 19.6046 193.827C18.2543 194.01 16.4583 193.938 15.2923 193.164Z" fill="#229F49"/>
<path d="M17.3223 157.733C17.3299 157.673 17.3375 157.613 17.3449 157.554C17.3376 157.613 17.3298 157.673 17.3223 157.733Z" fill="#229F49"/>
<path d="M17.4032 157.046C17.4124 156.961 17.4211 156.876 17.4294 156.791C17.4211 156.876 17.4125 156.961 17.4032 157.046Z" fill="#229F49"/>
<path d="M17.4391 156.696C17.4503 156.579 17.4606 156.462 17.4701 156.345C17.4605 156.462 17.4502 156.579 17.4391 156.696Z" fill="#229F49"/>
<path d="M17.4764 156.264C17.4837 156.171 17.4904 156.079 17.4965 155.986C17.4904 156.079 17.4836 156.171 17.4764 156.264Z" fill="#229F49"/>
<path d="M17.3638 157.394C17.3719 157.326 17.3799 157.257 17.3876 157.188C17.3799 157.257 17.3719 157.325 17.3638 157.394Z" fill="#229F49"/>
<path d="M17.5238 153.974C17.5121 153.721 17.4941 153.468 17.4688 153.215C17.4941 153.468 17.5121 153.721 17.5238 153.974Z" fill="#229F49"/>
<path d="M17.5032 155.88C17.5086 155.791 17.5135 155.702 17.5178 155.613C17.5135 155.702 17.5086 155.791 17.5032 155.88Z" fill="#229F49"/>
<path d="M17.5361 154.34C17.5336 154.236 17.5303 154.131 17.5259 154.026C17.5303 154.131 17.5338 154.236 17.5361 154.34Z" fill="#229F49"/>
<path d="M17.5403 154.729C17.5404 154.627 17.5395 154.524 17.5376 154.421C17.5396 154.524 17.5404 154.627 17.5403 154.729Z" fill="#229F49"/>
<path d="M43.8382 153.489C43.8336 153.359 43.8348 153.253 43.8368 153.149C41.2188 153.449 38.604 153.786 35.9824 154.08C31.7211 154.556 27.2077 154.622 22.9645 154.085C21.4058 153.887 19.8842 153.475 18.3254 153.319C18.0361 153.29 17.7508 153.251 17.4679 153.204C17.4683 153.208 17.4685 153.211 17.4688 153.215C17.494 153.469 17.5122 153.722 17.5239 153.974C17.5246 153.991 17.5253 154.009 17.526 154.026C17.5305 154.131 17.5339 154.236 17.5362 154.34C17.5368 154.367 17.5375 154.394 17.5379 154.42C17.5398 154.523 17.5405 154.626 17.5405 154.729C17.5405 154.748 17.5408 154.768 17.5407 154.788C17.54 154.936 17.5369 155.084 17.5325 155.232C26.2501 156.407 35.0612 156.73 43.8599 156.987C43.8809 155.822 43.88 154.656 43.8382 153.489Z" fill="#124B73"/>
<path d="M17.5323 155.231C17.5296 155.326 17.5267 155.422 17.5225 155.516C17.5211 155.548 17.5195 155.58 17.5179 155.612C17.5136 155.701 17.5087 155.79 17.5033 155.878C17.5011 155.914 17.4989 155.95 17.4965 155.986C17.4904 156.079 17.4835 156.171 17.4764 156.263C17.4742 156.291 17.4725 156.318 17.4702 156.345C17.4606 156.462 17.4503 156.579 17.4391 156.696C17.4362 156.727 17.4328 156.759 17.4296 156.791C17.4213 156.876 17.4125 156.961 17.4034 157.046C17.3983 157.093 17.393 157.141 17.3876 157.188C17.38 157.257 17.3721 157.325 17.3638 157.394C17.3576 157.447 17.3514 157.5 17.3449 157.553C17.3375 157.612 17.33 157.672 17.3224 157.731C17.2507 158.294 17.1676 158.855 17.0816 159.418C16.997 159.969 16.9102 160.521 16.8296 161.074C16.8271 161.091 16.8247 161.108 16.8221 161.125C16.7841 161.387 16.7477 161.65 16.7136 161.913C16.7102 161.939 16.7069 161.966 16.7036 161.993C16.6714 162.244 16.6417 162.496 16.615 162.749C16.6132 162.765 16.6114 162.782 16.6097 162.798C16.5917 162.971 16.5762 163.143 16.5626 163.316C16.5604 163.341 16.5589 163.367 16.5569 163.393C16.546 163.536 16.5365 163.679 16.5282 163.822C16.5259 163.861 16.5239 163.899 16.5219 163.938C16.5146 164.074 16.5086 164.21 16.5034 164.346C16.5022 164.381 16.5008 164.415 16.4995 164.45C16.4883 164.786 16.4831 165.121 16.4823 165.457C16.4823 165.506 16.4827 165.555 16.4828 165.604C16.483 165.719 16.4836 165.834 16.4849 165.949C16.4855 166.014 16.4864 166.079 16.4874 166.144C16.4884 166.214 16.4899 166.285 16.4911 166.354C16.4963 166.607 16.5025 166.859 16.5102 167.112C16.5665 168.916 16.6155 170.741 16.4654 172.537C16.4074 173.233 16.3655 173.93 16.3293 174.628C16.2788 175.605 16.2394 176.582 16.185 177.558C16.1333 178.486 15.964 179.346 15.7825 180.213C15.6615 180.793 15.535 181.377 15.4345 181.987C15.2037 183.388 15.1675 184.767 15.0914 186.163C15.0648 186.652 15.0335 187.144 14.9871 187.639C14.9066 188.497 14.7627 189.308 14.6002 190.121C14.5372 190.437 14.4717 190.754 14.4057 191.073C14.3341 191.418 14.3538 191.752 14.4488 192.06C14.5853 192.502 14.8788 192.888 15.2924 193.163C16.4584 193.937 18.2544 194.009 19.6047 193.827C19.6173 193.825 19.6296 193.824 19.6422 193.823C19.7188 193.813 19.795 193.804 19.8711 193.797C19.8997 193.795 19.9282 193.793 19.9567 193.79C20.0267 193.785 20.0964 193.78 20.166 193.777C20.1871 193.776 20.2083 193.775 20.2296 193.774C20.3002 193.771 20.3706 193.77 20.4408 193.77V193.77C21.7672 193.761 23.0321 194.118 24.3878 194.335C25.4526 194.505 26.4914 194.501 27.5492 194.566C28.9497 194.651 30.3525 194.768 31.737 194.897C33.3413 195.046 34.9776 194.746 36.5846 194.746C38.4216 194.746 40.843 195.078 42.3295 193.732C44.3406 191.91 43.4705 188.725 43.2975 186.398C43.1345 184.203 43.2619 182.106 43.3039 179.916C43.3555 177.214 42.9249 174.374 43.4432 171.735C43.7205 170.322 43.5349 168.738 43.5421 167.301C43.5496 165.834 43.5672 164.367 43.6335 162.901C43.6437 162.675 43.654 162.45 43.6644 162.225C43.491 162.217 43.327 162.211 43.1214 162.201C43.3269 162.211 43.4909 162.217 43.6644 162.225C43.7449 160.48 43.8279 158.734 43.8597 156.987C35.061 156.73 26.2498 156.406 17.5323 155.231Z" fill="#0077B6"/>
<path d="M67.8074 152.344C67.937 151.849 67.9167 151.288 68.2309 150.883C68.4654 150.582 68.8408 150.432 69.2005 150.303C71.7003 149.411 74.3451 148.926 76.9989 148.874C78.8071 148.838 80.6712 148.994 82.3743 148.385C82.7853 148.238 83.1774 148.049 83.5606 147.841C82.2627 147.697 80.9681 147.529 79.6446 147.526C78.8009 147.525 70.5165 147.808 69.0365 147.534C68.9513 147.631 68.8492 147.718 68.7279 147.796C67.8981 148.323 66.8116 148.25 65.8711 148.252L65.8147 148.253C65.8159 148.329 65.817 148.405 65.8179 148.481C65.8264 149.452 66.0945 150.687 65.8147 151.63C65.5903 152.385 65.0817 152.425 64.3336 152.516C64.2229 152.529 64.1124 152.54 64.0017 152.547C64.0081 152.694 64.0219 152.894 64.0209 153.133C64.0184 153.634 64.0334 154.139 64.0597 154.647C64.5308 154.633 64.9975 154.579 65.4529 154.455C66.5184 154.165 67.5279 153.412 67.8074 152.344Z" fill="#124B73"/>
<path d="M90.3132 191.012C90.2216 188.71 90.0132 186.414 89.7898 184.123C89.7004 183.205 89.7046 182.204 89.5078 181.301C89.3481 180.569 89.1045 179.893 89.0322 179.122C88.9535 178.279 88.9502 177.43 88.8769 176.585C88.7449 175.077 88.2906 173.576 88.033 172.084C87.8936 171.282 87.7765 170.474 87.7106 169.663C87.6712 169.18 87.7351 168.723 87.7447 168.257C87.7501 168.077 87.7459 167.895 87.7245 167.711C87.4289 165.127 86.9563 162.566 86.6733 159.981C86.5786 159.12 86.5052 158.256 86.4669 157.389C86.4063 156.054 86.37 154.722 86.2414 153.391C86.1201 152.147 85.6371 150.949 85.6051 149.7C85.5923 149.257 85.4423 148.506 85.4923 148.013C84.845 147.977 84.2023 147.912 83.5606 147.841C83.1773 148.049 82.7853 148.238 82.3742 148.385C80.6711 148.993 78.8071 148.838 76.9989 148.874C74.3452 148.926 71.7004 149.411 69.2004 150.303C68.8408 150.431 68.4653 150.581 68.2309 150.883C67.9166 151.287 67.9369 151.849 67.8074 152.344C67.528 153.412 66.5184 154.165 65.4529 154.454C64.9974 154.578 64.5308 154.632 64.0597 154.646C64.1626 156.625 64.4481 158.636 64.6454 160.582C64.7018 161.15 64.7263 161.721 64.7434 162.291C64.7711 163.193 64.7796 164.098 64.8723 164.998C65.1254 167.46 65.399 169.923 65.4575 172.399C65.4841 173.527 65.2894 174.61 65.3244 175.737C65.4596 180.085 66.1895 184.442 65.8148 188.807C65.6978 190.178 65.2776 191.548 65.3615 192.933C65.4488 194.364 66.432 195.304 67.7939 195.304C69.4123 195.306 71.1253 195.393 72.7297 195.61C73.616 195.73 74.5258 195.625 75.4057 195.807C76.2282 195.976 76.9516 196.18 77.8102 196.196C79.5616 196.23 81.2863 195.822 83.0354 195.819C84.2963 195.816 85.5753 196.123 86.8233 196.274C86.9988 196.295 87.1829 196.32 87.3712 196.343C88.531 196.486 89.8313 196.553 90.2144 195.199C90.5909 193.872 90.3675 192.367 90.3132 191.012Z" fill="#0077B6"/>
<path d="M41.981 28.3489C41.9301 28.3489 41.8784 28.3367 41.8305 28.3109C41.6758 28.2277 41.6179 28.0348 41.7011 27.8801C42.0843 27.1677 42.6885 26.6545 43.2728 26.1581C43.4191 26.0337 43.5649 25.91 43.7058 25.7838C44.1124 25.4201 44.4358 25.0006 44.7782 24.5566C45.0017 24.2666 45.2329 23.9667 45.4905 23.6821C46.0615 23.0511 46.4487 22.0795 46.5011 21.1469C46.5109 20.9715 46.658 20.838 46.8366 20.8471C47.0119 20.857 47.1461 21.0072 47.1362 21.1825C47.076 22.2537 46.6261 23.375 45.9621 24.1088C45.7214 24.3748 45.4981 24.6646 45.282 24.9449C44.9371 25.3923 44.5804 25.8549 44.13 26.2578C43.9848 26.3876 43.8351 26.5149 43.6846 26.6428C43.1453 27.1009 42.5877 27.5747 42.2613 28.1814C42.2039 28.2881 42.0942 28.3489 41.981 28.3489Z" fill="#693F21"/>
<path d="M36.4125 32.0887C36.2459 32.0887 36.1061 31.9593 36.0953 31.791C36.0585 31.2162 36.0793 30.6374 36.0994 30.0776C36.1107 29.7635 36.1223 29.4387 36.1233 29.1228C36.1238 28.9475 36.2662 28.8057 36.4413 28.8057C36.4416 28.8057 36.442 28.8057 36.4424 28.8057C36.6179 28.8062 36.7599 28.9489 36.7594 29.1246C36.7584 29.4509 36.7465 29.7811 36.7352 30.1003C36.7158 30.6445 36.6954 31.2072 36.7303 31.7503C36.7415 31.9256 36.6084 32.0768 36.4331 32.0881C36.4262 32.0885 36.4192 32.0887 36.4125 32.0887Z" fill="#693F21"/>
<path d="M40.3075 29.4824C40.2671 29.4824 40.2258 29.4746 40.1861 29.4582C40.0238 29.3912 39.9466 29.205 40.0137 29.0427C40.1593 28.6908 40.242 28.281 40.322 27.8847C40.3754 27.6201 40.4307 27.3466 40.505 27.086C40.8562 25.853 41.3201 24.8888 41.8839 24.2203C41.9839 24.1016 42.097 23.9448 42.2166 23.7788C42.5145 23.3655 42.8522 22.8972 43.2285 22.6833C43.381 22.5963 43.5754 22.6499 43.6622 22.8027C43.7489 22.9553 43.6955 23.1496 43.5428 23.2363C43.287 23.3818 42.9797 23.8082 42.7326 24.1508C42.6057 24.3269 42.4859 24.493 42.3701 24.6303C41.8647 25.2296 41.4431 26.1145 41.1166 27.2602C41.0493 27.4968 40.9988 27.7464 40.9455 28.0107C40.8595 28.4366 40.7706 28.8771 40.6016 29.2857C40.551 29.4083 40.4324 29.4824 40.3075 29.4824Z" fill="#693F21"/>
<path d="M53.999 61.3398C53.6486 61.3398 53.3031 61.3161 52.9627 61.2688C52.0159 61.1373 51.2314 60.7963 50.4007 60.4353L50.3132 60.3972C50.2086 60.3518 50.1036 60.307 49.9988 60.2624C49.5552 60.0731 49.0963 59.8774 48.6593 59.6297C48.3066 59.43 47.9897 59.1884 47.6834 58.9547C47.362 58.7096 47.0585 58.4781 46.7244 58.2982C46.08 57.951 45.5653 57.4413 45.0676 56.9482C44.9749 56.8562 44.8821 56.7644 44.789 56.674C44.3877 56.2847 44.0192 55.8719 43.6628 55.4726C43.1308 54.8766 42.6284 54.3137 42.0261 53.8222C40.7716 52.799 39.7909 51.1309 39.0748 49.9128C38.9858 49.7615 39.0363 49.5666 39.1879 49.4775C39.339 49.3886 39.5342 49.439 39.6232 49.5905C40.3535 50.8325 41.2623 52.3783 42.4283 53.3295C43.0696 53.8526 43.6126 54.461 44.1376 55.0493C44.4865 55.4401 44.8471 55.8443 45.2321 56.2177C45.3269 56.3096 45.421 56.403 45.5156 56.4965C46.0027 56.9789 46.4628 57.4348 47.0264 57.7384C47.4048 57.9421 47.7427 58.1999 48.0695 58.4491C48.3723 58.6799 48.6583 58.8981 48.9733 59.0764C49.3792 59.3064 49.8016 59.4867 50.2488 59.6774C50.3548 59.7226 50.461 59.7679 50.5669 59.8139L50.6546 59.8521C51.4785 60.2102 52.1899 60.5195 53.0505 60.6391C54.3332 60.8171 55.7049 60.6275 57.129 60.0746L57.3523 59.9882C57.9697 59.7498 58.6081 59.5034 59.1886 59.1848C59.6572 58.9276 60.0299 58.5897 60.4245 58.2321C60.567 58.1031 60.7142 57.9696 60.8687 57.8376C61.0022 57.7236 61.2031 57.7395 61.317 57.8728C61.4311 58.0064 61.4153 58.2071 61.2819 58.3212C61.1346 58.4471 60.9908 58.5775 60.8518 58.7034C60.4471 59.0701 60.0288 59.4491 59.4947 59.7424C58.877 60.0816 58.2183 60.3358 57.5814 60.5817L57.3592 60.6676C56.2062 61.1149 55.0803 61.3398 53.999 61.3398Z" fill="#AB5F40"/>
<path d="M34.7113 36.7804C34.6502 36.7804 34.5883 36.7627 34.5338 36.726C34.0898 36.4268 32.9514 35.3265 33.2108 34.4274C33.2938 34.1399 33.4875 33.9402 33.643 33.7797C33.8403 33.5763 33.9128 33.486 33.8934 33.3426C33.8482 33.0118 33.6749 32.6349 33.5162 32.3075C33.2682 31.7959 32.7568 30.983 32.1175 31.2877C31.959 31.3636 31.7692 31.2959 31.6936 31.1375C31.618 30.9788 31.6853 30.789 31.844 30.7135C32.6736 30.3182 33.4915 30.7982 34.0888 32.0299C34.2688 32.4013 34.4659 32.8331 34.5236 33.2563C34.5871 33.7199 34.3055 34.0104 34.0999 34.2225C33.9718 34.3546 33.8611 34.4688 33.8221 34.6037C33.7054 35.0086 34.3843 35.8583 34.8893 36.1986C35.0351 36.2967 35.0735 36.4944 34.9754 36.64C34.9139 36.731 34.8136 36.7802 34.7113 36.7804Z" fill="#AB5F40"/>
<path d="M58.2129 49.0381C57.1231 49.0381 55.9063 48.3219 55.2505 47.5795C55.1342 47.4478 55.1468 47.2468 55.2784 47.1306C55.4101 47.014 55.6109 47.0268 55.7274 47.1583C56.3306 47.8413 57.5357 48.5057 58.4303 48.3883C58.8801 48.3292 59.2049 48.0874 59.4235 47.649C59.5017 47.4916 59.6926 47.4277 59.8501 47.5061C60.0072 47.5845 60.0712 47.7754 59.9928 47.9327C59.6817 48.5571 59.1701 48.9328 58.5132 49.019C58.4146 49.0319 58.3141 49.0381 58.2129 49.0381Z" fill="#AB5F40"/>
<path d="M54.7716 52.3464C54.7236 52.3464 54.6746 52.3355 54.6288 52.3123C54.2219 52.1074 53.8381 51.8593 53.4669 51.6196C53.2596 51.4858 53.0454 51.3473 52.8334 51.2206C52.3961 50.9594 51.9123 50.7364 51.4446 50.5207C51.1182 50.3702 50.7807 50.2146 50.4586 50.0461C50.303 49.9647 50.2428 49.7725 50.3243 49.6169C50.4058 49.4612 50.5979 49.4014 50.7535 49.4824C51.0615 49.6436 51.3916 49.7958 51.7108 49.9431C52.1936 50.1657 52.693 50.396 53.1594 50.6745C53.3811 50.8069 53.6002 50.9484 53.812 51.0853C54.1692 51.316 54.5386 51.5546 54.915 51.7444C55.0719 51.8234 55.135 52.0147 55.0559 52.1715C55 52.2824 54.8879 52.3464 54.7716 52.3464Z" fill="#AB5F40"/>
<path d="M52.9496 38.9762C52.3083 39.3324 51.026 38.8345 50.3935 38.564C49.8839 38.3462 48.3357 37.5489 48.3405 36.9859C48.1544 37.028 48.109 36.9437 48.2161 36.7859C48.3232 36.6282 48.5576 36.6067 48.7335 36.6801C48.9095 36.7536 49.0442 36.8975 49.1845 37.0268C50.1135 37.8835 51.4166 38.1846 52.6657 38.3772C52.7922 38.3967 52.9227 38.4168 53.033 38.4817C53.1433 38.5467 53.2304 38.6688 53.2145 38.7959C53.1986 38.923 53.062 39.0376 52.9496 38.9762Z" fill="#231F20"/>
<path d="M62.3652 63.7339C62.2162 63.7339 62.0831 63.6287 62.0535 63.4769C61.9338 62.8664 61.7829 62.2253 61.5787 61.4595C61.4032 60.8016 61.2096 60.1344 61.0222 59.4891C60.5974 58.0263 60.1583 56.5138 59.8917 54.9772C59.3839 52.0495 59.3503 49.1025 59.3898 46.3541C59.3985 45.7559 59.4185 45.153 59.4377 44.5699C59.4727 43.5102 59.5091 42.4144 59.4771 41.3305C59.4551 40.5827 59.4579 39.8233 59.4606 39.0889C59.4654 37.7809 59.4704 36.4286 59.3343 35.1135C59.2975 34.7583 59.2345 34.3915 59.1735 34.0368C59.1521 33.9121 59.1306 33.7873 59.1102 33.6625C59.0817 33.4893 59.1993 33.3257 59.3727 33.2972C59.5465 33.2689 59.7096 33.3863 59.7379 33.5596C59.7582 33.6828 59.7793 33.806 59.8004 33.9292C59.8631 34.2942 59.928 34.6715 59.9669 35.048C60.1067 36.3968 60.1016 37.7665 60.0968 39.091C60.0941 39.8203 60.0913 40.5743 60.1131 41.3117C60.1455 42.4154 60.109 43.5214 60.0735 44.5908C60.0544 45.171 60.0346 45.7709 60.0261 46.3632C59.9869 49.0808 60.0196 51.9922 60.5186 54.8684C60.7791 56.3703 61.2133 57.8656 61.6333 59.3117C61.8214 59.9603 62.0163 60.6309 62.1935 61.2956C62.4014 62.0755 62.5554 62.7298 62.6779 63.3547C62.7117 63.5271 62.5994 63.6941 62.427 63.728C62.4061 63.732 62.3855 63.7339 62.3652 63.7339Z" fill="#AB5F40"/>
<path d="M64.2137 38.2214C64.0756 38.2214 63.9485 38.1308 63.9083 37.9915C63.7407 37.4109 63.6662 36.8156 63.594 36.2399C63.518 35.6327 63.4462 35.0592 63.2743 34.5008C63.0637 33.8157 62.9158 33.1104 62.773 32.4283C62.6483 31.8334 62.5194 31.2181 62.3503 30.628C62.122 29.8308 61.8159 28.9288 61.2761 28.2827C61.1635 28.1478 61.1816 27.9473 61.3163 27.8347C61.4511 27.7221 61.6515 27.7401 61.7642 27.8749C62.38 28.612 62.7152 29.5918 62.9617 30.4528C63.1372 31.0651 63.2685 31.6918 63.3954 32.2979C63.5354 32.9659 63.6802 33.6567 63.8823 34.3138C64.0705 34.9252 64.1491 35.5534 64.2251 36.161C64.2972 36.7377 64.3655 37.2824 64.5193 37.8152C64.568 37.984 64.4706 38.1602 64.3019 38.2089C64.2725 38.2173 64.2429 38.2214 64.2137 38.2214Z" fill="#AB5F40"/>
<path d="M73.6633 35.8771C73.5923 35.8771 73.5211 35.8535 73.4619 35.8052C73.3261 35.6939 73.306 35.4935 73.4173 35.3576C73.6684 35.0509 73.542 34.2531 73.4497 33.6705C73.4099 33.4188 73.3721 33.1809 73.3618 32.9844C73.3542 32.8381 73.3472 32.6918 73.3399 32.5455C73.31 31.9304 73.279 31.2943 73.2071 30.6777C73.1488 30.1772 73.1074 29.6693 73.0673 29.1781C73.0072 28.4418 72.9452 27.6804 72.8253 26.9444C72.7316 26.3678 72.5382 25.8291 72.3335 25.2587C72.1349 24.7053 71.9296 24.1331 71.8227 23.5222C71.7576 23.1495 71.6632 22.7578 71.542 22.3576C71.4912 22.1895 71.5862 22.0119 71.7543 21.961C71.9226 21.91 72.0999 22.0052 72.1508 22.1732C72.2794 22.5979 72.3798 23.0148 72.4494 23.4125C72.5468 23.9696 72.734 24.4913 72.9322 25.0437C73.1376 25.6161 73.35 26.2078 73.4533 26.842C73.5772 27.6031 73.6403 28.3774 73.7014 29.1262C73.7411 29.612 73.782 30.1144 73.839 30.6038C73.9134 31.2417 73.9449 31.8887 73.9753 32.5144C73.9824 32.6599 73.9894 32.8054 73.9972 32.951C74.0056 33.1141 74.0408 33.336 74.0781 33.5708C74.1954 34.3112 74.3413 35.2328 73.9096 35.7603C73.8467 35.8372 73.7554 35.8771 73.6633 35.8771Z" fill="#AB5F40"/>
<path d="M78.3528 43.3369C78.3512 43.3369 78.3498 43.3369 78.3481 43.3369C78.1724 43.3343 78.0322 43.1899 78.0346 43.0142C78.0411 42.5639 78.038 42.1037 78.035 41.6586C78.0296 40.8671 78.024 40.0487 78.0715 39.2408C78.1021 38.7231 78.0479 38.2109 77.9905 37.6687C77.9283 37.0799 77.8638 36.471 77.9181 35.8554C77.9498 35.496 77.9387 35.0927 77.8833 34.5861C77.8642 34.4115 77.9902 34.2545 78.1648 34.2353C78.34 34.2164 78.4965 34.3423 78.5157 34.5168C78.5758 35.066 78.5873 35.5091 78.5518 35.9111C78.5029 36.4652 78.5613 37.0172 78.6233 37.6016C78.6808 38.1456 78.7403 38.7082 78.7067 39.278C78.6603 40.0651 78.6659 40.8729 78.6713 41.6541C78.6742 42.1026 78.6775 42.5662 78.6709 43.0233C78.6683 43.1974 78.5263 43.3369 78.3528 43.3369Z" fill="#AB5F40"/>
<path d="M70.5752 133.813C70.5171 133.813 70.4584 133.797 70.4056 133.764C68.6099 132.63 67.0802 131.06 65.7294 128.965C64.4457 126.974 63.799 124.683 63.2935 122.693C63.1553 122.148 63.0019 121.613 62.8565 121.111C62.8076 120.942 62.9049 120.766 63.0735 120.717C63.243 120.668 63.4187 120.765 63.4675 120.934C63.6144 121.441 63.7694 121.982 63.91 122.536C64.4032 124.478 65.0325 126.71 66.2642 128.62C67.5817 130.664 69.0057 132.127 70.7455 133.226C70.8939 133.32 70.9383 133.516 70.8446 133.665C70.784 133.761 70.6808 133.813 70.5752 133.813Z" fill="#00B4D8"/>
<path d="M61.497 72.5811C61.377 72.5811 61.262 72.5129 61.2082 72.3969C61.1343 72.2376 61.2035 72.0484 61.3628 71.9745C61.7794 71.7811 62.2732 71.6889 62.67 71.6147C62.8427 71.5829 63.0086 71.6963 63.0409 71.869C63.0733 72.0417 62.9594 72.2078 62.7868 72.2401C62.4249 72.3077 61.9747 72.3919 61.6306 72.5516C61.5873 72.5715 61.5418 72.5811 61.497 72.5811Z" fill="#00B4D8"/>
<path d="M86.7152 120.982C86.6294 120.982 86.5441 120.947 86.4813 120.88C86.3621 120.75 86.3703 120.549 86.4993 120.43C88.1553 118.901 86.0021 110.08 85.2944 107.182C85.2175 106.867 85.1506 106.592 85.0973 106.368C84.6607 104.525 84.1458 102.666 83.6479 100.869C83.1705 99.1466 82.6771 97.3652 82.2515 95.5948C81.8315 93.8478 81.5069 92.0562 81.193 90.3236L81.185 90.2789C81.0923 89.7669 81.0265 89.2474 80.963 88.7452C80.8153 87.5766 80.6757 86.473 80.2216 85.4152C79.8043 84.4434 79.6712 83.3715 79.5423 82.3349C79.4749 81.7919 79.4052 81.2304 79.2954 80.7034C79.2077 80.2827 79.1184 79.8662 79.0299 79.4519C78.616 77.5188 78.2253 75.6928 78.0288 73.7157C77.9981 73.4073 77.9757 73.0945 77.9541 72.7919C77.8825 71.7892 77.8148 70.842 77.4657 69.9403C77.4064 69.7871 77.3627 69.587 77.3166 69.3751C77.1819 68.7575 77.0438 68.2483 76.7486 68.288C76.5741 68.3098 76.415 68.1869 76.3929 68.0126C76.3706 67.8384 76.4939 67.6791 76.668 67.6569C77.568 67.5428 77.7998 68.6047 77.938 69.2396C77.9788 69.4267 78.0173 69.6035 78.0587 69.7107C78.4424 70.7015 78.5167 71.7411 78.5884 72.7465C78.6097 73.0447 78.6317 73.3531 78.6615 73.6527C78.8546 75.5945 79.2418 77.4036 79.6516 79.3189C79.7405 79.7342 79.8298 80.1519 79.9179 80.5736C80.033 81.1262 80.1045 81.7008 80.1735 82.2565C80.2968 83.2491 80.4243 84.2755 80.8059 85.1643C81.2956 86.3044 81.4473 87.5046 81.594 88.6654C81.6565 89.1594 81.721 89.6702 81.8108 90.1656L81.8188 90.2102C82.1311 91.9341 82.4543 93.7168 82.8699 95.4464C83.2928 97.2061 83.7849 98.982 84.2608 100.699C84.7604 102.502 85.2768 104.366 85.7161 106.221C85.7692 106.445 85.8357 106.717 85.9121 107.031C87.3709 113.006 88.6325 119.326 86.9307 120.898C86.8697 120.954 86.7923 120.982 86.7152 120.982Z" fill="#00B4D8"/>
<path d="M34.4488 78.192C34.3637 78.192 34.2788 78.158 34.2162 78.0911C33.8882 77.7399 33.7452 77.6434 33.3229 77.4141L33.2921 77.3974C31.6255 76.4927 29.5514 75.3667 28.3896 73.7945C27.3042 72.3252 27.7444 70.9563 28.1699 69.6326C28.3105 69.1951 28.4562 68.7425 28.5529 68.2781C28.6927 67.6061 28.7836 66.9083 28.8718 66.2337C28.9212 65.8563 28.9721 65.4663 29.0312 65.0822C29.1662 64.2059 29.3809 63.395 29.7279 62.4532C29.8969 61.9942 30.0496 61.6161 30.2084 61.2637C30.2805 61.1035 30.4691 61.0321 30.629 61.1044C30.7893 61.1765 30.8605 61.3648 30.7884 61.525C30.636 61.8635 30.4886 62.2284 30.3247 62.6731C29.9931 63.5735 29.788 64.3462 29.6598 65.179C29.6018 65.5558 29.5513 65.9423 29.5026 66.3161C29.413 67.0025 29.3203 67.7122 29.1756 68.4077C29.0722 68.9052 28.9214 69.374 28.7755 69.8274C28.3646 71.1057 28.0095 72.2096 28.9012 73.4165C29.9791 74.8752 31.9843 75.9637 33.5954 76.8384L33.6262 76.8551C34.1069 77.1161 34.3037 77.253 34.6811 77.6569C34.8009 77.7853 34.7942 77.9866 34.6657 78.1065C34.6044 78.1638 34.5264 78.192 34.4488 78.192Z" fill="#00B4D8"/>
<path d="M42.7601 132.944C42.3863 132.944 42.1937 132.526 41.7822 130.826C41.7526 130.704 41.731 130.614 41.7196 130.575C41.5733 130.086 41.4467 129.586 41.3244 129.102C41.1809 128.535 41.0326 127.948 40.8533 127.386C40.5186 126.335 40.0473 125.324 39.5915 124.347C39.0987 123.29 38.5889 122.197 38.2401 121.034C37.6326 119.009 37.1172 116.907 36.619 114.873C36.3226 113.663 36.0161 112.413 35.6945 111.196C35.3468 109.881 34.9078 108.565 34.4833 107.293C33.6487 104.791 32.7859 102.205 32.5648 99.4808C32.2954 96.1625 30.8768 92.2111 28.5704 88.3544L28.4907 88.2213C27.8183 87.1015 26.8112 85.424 27.6486 84.0322C27.5898 83.3973 28.1991 82.8924 28.6955 82.481C28.8615 82.3433 29.0182 82.2134 29.1086 82.1106C29.8224 81.2982 30.6626 80.55 31.677 79.8232C32.5748 79.1799 33.2805 78.1784 33.9632 77.2099C34.7434 76.1026 35.5503 74.9577 36.6647 74.3141C36.8165 74.2265 37.0113 74.2782 37.0992 74.4305C37.187 74.5826 37.1349 74.7771 36.9828 74.865C35.9894 75.4387 35.2576 76.4771 34.4831 77.5764C33.7702 78.5883 33.0328 79.6344 32.0475 80.3405C31.0729 81.0388 30.2678 81.7552 29.5863 82.5309C29.4626 82.6714 29.2871 82.817 29.1012 82.971C28.7256 83.2822 28.2114 83.7085 28.2904 84.0238C28.3125 84.1118 28.2959 84.2051 28.2449 84.2801C27.5121 85.3562 28.3928 86.823 29.0359 87.8941L29.1162 88.0281C30.7827 90.8144 32.8436 95.0543 33.1988 99.4296C33.4136 102.077 34.2642 104.626 35.0867 107.092C35.5144 108.374 35.9567 109.7 36.3095 111.034C36.6325 112.256 36.9398 113.509 37.2368 114.722C37.7331 116.747 38.2464 118.842 38.8493 120.851C39.185 121.97 39.6847 123.042 40.168 124.078C40.6322 125.074 41.1123 126.103 41.4593 127.193C41.6444 127.774 41.7953 128.37 41.9411 128.946C42.0617 129.423 42.1866 129.917 42.3291 130.393C42.3421 130.437 42.367 130.539 42.4005 130.677C42.6272 131.613 42.796 132.172 42.903 132.341C43.0068 132.393 43.0787 132.5 43.0797 132.624C43.0811 132.799 42.9397 132.943 42.7642 132.944C42.7628 132.944 42.7615 132.944 42.7601 132.944ZM42.9233 132.37H42.9247H42.9233Z" fill="#00B4D8"/>
<path d="M29.2413 154.78C27.0459 154.78 24.9205 154.654 22.9244 154.401C22.2009 154.309 21.4786 154.171 20.78 154.037C19.966 153.881 19.1243 153.719 18.2933 153.636C17.9468 153.601 17.5904 153.551 17.2341 153.487C17.0612 153.456 16.9459 153.291 16.977 153.118C17.0078 152.946 17.1729 152.831 17.3459 152.861C17.6865 152.922 18.0266 152.97 18.3569 153.003C19.2162 153.089 20.072 153.254 20.8997 153.412C21.5886 153.544 22.301 153.681 23.0044 153.77C26.9596 154.271 31.4351 154.27 35.9467 153.764C37.3669 153.605 38.8093 153.431 40.2043 153.261C41.3715 153.12 42.5784 152.974 43.7663 152.837C43.9417 152.816 44.0986 152.943 44.1186 153.117C44.1386 153.291 44.0134 153.449 43.839 153.469C42.653 153.605 41.4471 153.751 40.2809 153.893C38.8845 154.062 37.4407 154.237 36.0176 154.397C33.73 154.652 31.4501 154.78 29.2413 154.78Z" fill="#00B4D8"/>
<path d="M63.8155 152.878C63.6475 152.878 63.507 152.746 63.4983 152.576C63.489 152.401 63.6237 152.251 63.7991 152.242C63.9697 152.233 64.1368 152.219 64.2957 152.199L64.3571 152.192C65.1124 152.101 65.3585 152.048 65.5096 151.539C65.685 150.947 65.6214 150.199 65.56 149.475C65.5305 149.127 65.5025 148.797 65.4996 148.482C65.4984 148.37 65.497 148.256 65.4954 148.143C65.4927 147.968 65.6329 147.823 65.8086 147.82C65.9811 147.817 66.1288 147.958 66.1315 148.134C66.1332 148.248 66.1345 148.362 66.1357 148.476C66.1383 148.768 66.1652 149.085 66.1938 149.421C66.2602 150.204 66.329 151.013 66.1194 151.719C65.8422 152.654 65.1577 152.736 64.4331 152.823L64.3721 152.831C64.1991 152.852 64.0174 152.867 63.8323 152.877C63.8269 152.877 63.8211 152.878 63.8155 152.878Z" fill="#00B4D8"/>
<path d="M64.945 134.044C64.8564 134.044 64.7682 134.008 64.7053 133.936C64.5278 133.733 63.951 133.673 63.7615 133.653C63.3448 133.61 62.9144 133.579 62.4458 133.56C62.2703 133.552 62.134 133.404 62.1413 133.229C62.1488 133.053 62.2946 132.919 62.4724 132.924C62.9542 132.944 63.3974 132.976 63.8272 133.02C64.3289 133.072 64.8827 133.172 65.1843 133.517C65.2998 133.649 65.2863 133.85 65.1541 133.966C65.0938 134.019 65.0192 134.044 64.945 134.044Z" fill="#00B4D8"/>
<path d="M18.3868 133.654C18.2626 133.654 18.1449 133.581 18.0935 133.46C18.0253 133.298 18.1012 133.111 18.263 133.043C21.7674 131.565 25.6305 131.799 28.9762 132.134C29.3592 132.172 29.742 132.212 30.1248 132.252C31.4854 132.396 32.8925 132.543 34.2779 132.597C35.2319 132.634 36.0794 132.623 36.8686 132.565C37.1807 132.542 37.49 132.486 37.8173 132.427C38.2729 132.345 38.7454 132.26 39.2217 132.271C39.3901 132.275 39.5558 132.28 39.719 132.285C41.0583 132.324 42.2148 132.358 43.5103 131.99C43.9437 131.867 44.4497 131.81 45.0448 131.813C45.2205 131.814 45.362 131.957 45.361 132.133C45.36 132.308 45.2177 132.449 45.0429 132.449C45.0266 132.449 45.0097 132.449 44.9932 132.449C44.4763 132.449 44.0477 132.499 43.684 132.602C42.2942 132.997 41.0921 132.962 39.7003 132.921C39.538 132.916 39.3734 132.911 39.2057 132.907C38.794 132.897 38.374 132.973 37.9305 133.053C37.6013 133.112 37.2608 133.174 36.9153 133.199C36.102 133.259 35.2309 133.27 34.2535 133.232C32.8469 133.178 31.4293 133.029 30.0581 132.885C29.6763 132.845 29.2946 132.805 28.9128 132.767C25.6448 132.439 21.8766 132.209 18.5101 133.629C18.4699 133.646 18.428 133.654 18.3868 133.654Z" fill="#00B4D8"/>
<path d="M11.3479 136.378C11.2467 136.378 11.1481 136.33 11.0868 136.242C10.9958 136.112 11.015 135.935 11.1317 135.827C11.2778 135.691 11.4345 135.585 11.586 135.482L11.6422 135.444C11.7229 135.389 11.8198 135.376 11.9074 135.4C11.9599 135.371 12.0131 135.342 12.0667 135.313C13.3082 134.631 14.8532 133.783 16.1897 133.747C16.3663 133.744 16.5114 133.881 16.5162 134.057C16.5209 134.232 16.3825 134.378 16.2068 134.383C15.0241 134.415 13.5539 135.222 12.3726 135.87C12.0613 136.041 11.7672 136.202 11.4922 136.343C11.4462 136.367 11.3966 136.378 11.3479 136.378Z" fill="#00B4D8"/>
<path d="M10.9098 132.743C10.8275 132.743 10.7452 132.711 10.683 132.647C10.5599 132.522 10.5616 132.321 10.687 132.198C12.5216 130.394 16.6626 130.724 18.8202 131.202C18.9918 131.24 19.0998 131.41 19.0618 131.581C19.0237 131.753 18.8537 131.862 18.6825 131.823C17.4212 131.543 15.9265 131.415 14.6847 131.481C13.0527 131.567 11.8245 131.972 11.1327 132.651C11.0709 132.712 10.9904 132.743 10.9098 132.743Z" fill="#00B4D8"/>
<path d="M18.7512 102.471C18.5776 102.471 18.4357 102.332 18.4333 102.157C18.4177 100.985 17.7935 99.8236 17.1899 98.7009C16.8473 98.0637 16.4928 97.4047 16.2554 96.751C16.0832 96.2768 15.9138 95.8029 15.7448 95.3297C15.1517 93.6695 14.5385 91.9527 13.8147 90.2945C12.8137 88.0009 11.5764 86.152 9.54415 83.9132C9.31464 83.6604 9.04659 83.3273 8.73592 82.9417C7.72731 81.6895 6.20321 79.7969 5.04093 79.6744C4.86625 79.656 4.73967 79.4995 4.75799 79.3247C4.77656 79.15 4.93189 79.0237 5.1077 79.0418C6.5327 79.1921 8.09244 81.1287 9.23119 82.5427C9.5355 82.9205 9.79821 83.2468 10.0151 83.4857C12.0971 85.7795 13.3669 87.6785 14.3975 90.0402C15.1299 91.7183 15.7469 93.4455 16.3437 95.1158C16.5123 95.5881 16.6812 96.0608 16.8531 96.534C17.0747 97.1442 17.4027 97.7541 17.7499 98.3998C18.3898 99.5899 19.0515 100.821 19.0693 102.149C19.0717 102.325 18.9311 102.469 18.7554 102.471C18.7542 102.471 18.7528 102.471 18.7512 102.471Z" fill="#00B4D8"/>
<path d="M3.9803 109.035C3.88947 109.035 3.79915 108.997 3.7363 108.921C3.62346 108.787 3.64139 108.586 3.77612 108.473C4.88854 107.543 6.24903 106.71 7.56449 105.904C9.69505 104.599 11.8981 103.25 13.2039 101.42C13.3061 101.277 13.5046 101.244 13.6476 101.346C13.7905 101.448 13.8238 101.647 13.7217 101.79C12.3407 103.725 10.0815 105.108 7.89666 106.446C6.54112 107.277 5.26066 108.061 4.18424 108.961C4.12483 109.011 4.05244 109.035 3.9803 109.035Z" fill="#00B4D8"/>
<path d="M21.5593 133.013C21.4398 133.013 21.3253 132.946 21.2711 132.83C20.6423 131.492 20.6618 129.916 20.6808 128.391C20.6887 127.766 20.6959 127.176 20.6592 126.616C20.4976 124.149 20.2131 121.66 19.9592 119.52C19.9068 119.078 19.8537 118.636 19.8007 118.194C19.2932 113.965 18.7684 109.593 18.7979 105.251C18.7992 105.075 18.9446 104.928 19.1182 104.935C19.2938 104.936 19.4353 105.079 19.434 105.255C19.4048 109.557 19.9271 113.909 20.4322 118.118C20.4854 118.56 20.5384 119.002 20.5908 119.445C20.8458 121.593 21.1314 124.092 21.294 126.575C21.3323 127.159 21.3248 127.761 21.3169 128.399C21.2987 129.852 21.28 131.354 21.8468 132.56C21.9215 132.719 21.8531 132.908 21.6942 132.983C21.6506 133.004 21.6046 133.013 21.5593 133.013Z" fill="#00B4D8"/>
<path d="M26.7729 167.575C26.6062 167.575 26.4393 167.572 26.2725 167.565C25.0703 167.519 23.8562 167.339 22.6821 167.164C21.0646 166.924 19.3926 166.676 17.7656 166.785C17.3652 166.812 16.6941 166.857 16.2468 166.484C16.1118 166.372 16.0936 166.171 16.2061 166.036C16.3187 165.901 16.5192 165.883 16.654 165.996C16.9055 166.205 17.3975 166.172 17.723 166.151C19.4176 166.037 21.1245 166.291 22.7754 166.535C23.9328 166.707 25.1295 166.885 26.2971 166.93C26.8968 166.953 27.5124 166.925 28.1074 166.899C28.7307 166.87 29.3751 166.841 30.0123 166.869C31.0632 166.916 32.1268 166.879 32.78 166.296C33.4824 165.669 33.6789 164.473 33.8525 163.418C33.92 163.007 33.9838 162.619 34.0737 162.269C34.3583 161.16 34.3348 160.768 33.6331 160.473C32.9651 160.192 32.1686 160.133 31.3429 160.093C30.3181 160.043 29.2743 160.104 28.2649 160.162C27.7539 160.192 27.2254 160.222 26.7023 160.239C26.5294 160.248 26.38 160.106 26.3744 159.931C26.369 159.755 26.5069 159.608 26.6824 159.603C27.1973 159.587 27.7215 159.556 28.2282 159.527C29.2542 159.468 30.3151 159.406 31.3736 159.457C32.2585 159.5 33.1161 159.565 33.8799 159.886C35.1997 160.442 34.9169 161.543 34.6898 162.427C34.6069 162.75 34.5453 163.124 34.4802 163.521C34.2897 164.68 34.0738 165.994 33.2038 166.771C32.3808 167.505 31.1702 167.558 29.9841 167.505C29.3762 167.478 28.7458 167.507 28.1364 167.534C27.69 167.554 27.2324 167.575 26.7729 167.575Z" fill="#00B4D8"/>
<path d="M24.0134 160.059C23.9854 160.059 23.9571 160.055 23.9287 160.047C22.7305 159.717 21.4034 159.763 20.1202 159.807C19.1415 159.841 18.1296 159.876 17.1578 159.749C16.9836 159.726 16.8608 159.566 16.8837 159.392C16.9064 159.218 17.0644 159.095 17.2403 159.118C18.1599 159.238 19.1453 159.204 20.0983 159.171C21.4291 159.125 22.8058 159.078 24.0979 159.434C24.2672 159.481 24.3666 159.656 24.3199 159.825C24.2811 159.966 24.1531 160.059 24.0134 160.059Z" fill="#00B4D8"/>
<path d="M81.8807 160.773C81.735 160.773 81.6037 160.673 81.5705 160.525C81.5321 160.353 81.6399 160.183 81.8114 160.145C83.0858 159.859 84.4025 159.788 85.6758 159.72C86.0017 159.702 86.3274 159.685 86.6526 159.664C86.8243 159.653 86.9791 159.785 86.9905 159.961C87.0018 160.136 86.8689 160.287 86.6936 160.299C86.3662 160.32 86.0381 160.337 85.71 160.355C84.4627 160.422 83.1731 160.491 81.9505 160.766C81.9271 160.771 81.9036 160.773 81.8807 160.773Z" fill="#00B4D8"/>
<path d="M80.4895 168.578C79.7431 168.578 78.993 168.54 78.2468 168.428C77.571 168.326 76.7904 168.173 76.1243 167.813C75.4009 167.421 74.9114 166.844 74.6278 166.048C74.1235 164.634 73.664 163.021 74.0777 161.783C74.1047 161.702 74.1021 161.576 74.0996 161.454C74.0937 161.17 74.0829 160.641 74.6628 160.503C76.0118 160.18 77.5177 160.168 78.9742 160.156C79.4229 160.152 79.8468 160.149 80.2642 160.137C80.4386 160.132 80.5862 160.27 80.5914 160.445C80.5965 160.621 80.4583 160.767 80.2828 160.773C79.8587 160.785 79.4316 160.789 78.9792 160.792C77.5586 160.804 76.0894 160.815 74.8106 161.121C74.7466 161.137 74.7293 161.141 74.7355 161.441C74.739 161.609 74.7431 161.799 74.681 161.984C74.281 163.181 74.9199 164.973 75.2269 165.834C75.6961 167.15 76.7665 167.562 78.3414 167.799C79.81 168.02 81.327 167.938 82.7936 167.859C83.0663 167.845 83.3391 167.83 83.612 167.817C84.2401 167.787 84.9776 167.827 85.7588 167.87C86.434 167.907 87.1317 167.944 87.7881 167.938C87.9608 167.937 88.1076 168.077 88.1094 168.253C88.1111 168.428 87.9702 168.572 87.7945 168.574C87.1177 168.58 86.4092 168.542 85.7242 168.505C84.9596 168.463 84.2376 168.425 83.642 168.452C83.3705 168.465 83.099 168.48 82.8278 168.494C82.0589 168.536 81.2762 168.578 80.4895 168.578Z" fill="#00B4D8"/>
<path d="M79.0425 33.4272C78.9911 33.4272 78.939 33.4147 78.8906 33.3884C78.7364 33.3043 78.6796 33.1112 78.7635 32.957C79.0042 32.5153 79.2963 32.1002 79.5787 31.6987C79.9991 31.1015 80.3959 30.5374 80.6484 29.8831C81.0121 28.9406 81.2182 27.858 81.4176 26.8111C81.4481 26.65 81.4785 26.4906 81.5092 26.3334C81.5428 26.161 81.71 26.0488 81.8822 26.082C82.0546 26.1156 82.1672 26.2826 82.1337 26.455C82.1033 26.6114 82.073 26.77 82.0425 26.93C81.8381 28.0048 81.6264 29.1161 81.2419 30.1122C80.9612 30.8394 80.523 31.4623 80.0991 32.0648C79.8144 32.4695 79.5453 32.8518 79.3223 33.2613C79.2644 33.3672 79.1552 33.4272 79.0425 33.4272Z" fill="#693F21"/>
<path d="M63.4131 21.3865C63.3312 21.3865 63.2495 21.3551 63.1873 21.2924C63.0637 21.1677 63.0644 20.9663 63.1892 20.8426C63.83 20.207 63.6944 17.7526 63.4467 16.2579C63.418 16.0846 63.5353 15.9208 63.7087 15.8921C63.8808 15.8631 64.0455 15.9806 64.0744 16.1539C64.1863 16.8291 64.6907 20.2495 63.6372 21.2943C63.5751 21.3557 63.494 21.3865 63.4131 21.3865Z" fill="#693F21"/>
<path d="M82.0448 83.7658C82.0434 83.7658 82.0421 83.7658 82.0409 83.7658C81.8652 83.7636 81.7245 83.6196 81.7266 83.444C81.7413 82.1976 83.6628 79.829 84.4882 78.8687C85.8101 77.3306 87.5219 75.668 88.3662 75.4215C88.7848 75.2991 88.9796 75.5137 89.0437 75.6117C89.14 75.7586 89.099 75.9558 88.9519 76.052C88.8296 76.1323 88.6718 76.1171 88.5669 76.0243C88.3811 76.0608 87.8176 76.3769 86.7489 77.3975C84.2511 79.7824 82.373 82.5607 82.3626 83.4515C82.3605 83.6258 82.2185 83.7658 82.0448 83.7658Z" fill="#00B4D8"/>
<path d="M63.6942 133.663C63.6873 133.663 63.6805 133.663 63.6735 133.662C63.4981 133.651 63.3652 133.5 63.3765 133.324C63.4325 132.458 63.7306 131.591 64.0189 130.753C64.1526 130.364 64.2787 129.997 64.3767 129.643C64.4401 129.413 64.5236 129.158 64.6121 128.888C64.7564 128.447 64.92 127.947 65.0121 127.498C65.0473 127.326 65.2161 127.216 65.3875 127.25C65.5596 127.286 65.6706 127.454 65.6352 127.626C65.5358 128.111 65.3663 128.629 65.2166 129.086C65.1305 129.349 65.0494 129.597 64.9898 129.812C64.8865 130.186 64.7574 130.562 64.6205 130.96C64.346 131.758 64.0619 132.584 64.0115 133.365C64.0004 133.534 63.8605 133.663 63.6942 133.663Z" fill="#00B4D8"/>
<path d="M46.1452 65.5386C46.1018 65.5386 46.0578 65.5297 46.0157 65.5109C44.0878 64.6504 43.54 62.0216 43.0999 59.9092C42.9877 59.3708 42.8819 58.8623 42.7631 58.4298C42.7165 58.2605 42.816 58.0854 42.9853 58.0388C43.155 57.9922 43.3298 58.0919 43.3762 58.2612C43.5005 58.713 43.6084 59.231 43.7228 59.7796C44.1333 61.75 44.6441 64.2023 46.275 64.9301C46.4354 65.0018 46.5074 65.1898 46.4359 65.3502C46.383 65.4685 46.2668 65.5386 46.1452 65.5386Z" fill="#AB5F40"/>
<path d="M53.4793 199.881C53.4786 199.881 53.4778 199.881 53.4769 199.881C53.3012 199.88 53.16 199.736 53.1613 199.561C53.1634 199.278 53.1638 198.994 53.1642 198.709C53.1669 196.885 53.1694 194.999 53.6235 193.334C53.6698 193.164 53.8449 193.065 54.014 193.111C54.1835 193.157 54.2834 193.332 54.2372 193.501C53.8053 195.084 53.8027 196.928 53.8002 198.71C53.7997 198.996 53.7993 199.282 53.7972 199.565C53.796 199.74 53.6539 199.881 53.4793 199.881Z" fill="#C0A78A"/>
<path d="M54.849 191.687C54.7888 191.687 54.728 191.67 54.674 191.635C54.5275 191.538 54.487 191.34 54.5837 191.194C56.7926 187.845 57.8274 183.799 57.4977 179.801C57.4832 179.626 57.6133 179.473 57.7885 179.458C57.9624 179.443 58.1171 179.574 58.1315 179.749C58.4731 183.888 57.4016 188.077 55.1146 191.544C55.0537 191.637 54.9523 191.687 54.849 191.687Z" fill="#C0A78A"/>
<path d="M57.9642 179.182C57.7918 179.182 57.6501 179.044 57.6464 178.871L57.3814 166.529C57.3776 166.353 57.5169 166.208 57.6925 166.204C57.6949 166.204 57.6972 166.204 57.6995 166.204C57.8719 166.204 58.0136 166.342 58.0173 166.515L58.2823 178.857C58.2861 179.033 58.1468 179.178 57.9712 179.182C57.9688 179.182 57.9664 179.182 57.9642 179.182Z" fill="#C0A78A"/>
<path d="M53.5754 188.579C53.5751 188.579 53.5749 188.579 53.5746 188.579C53.3991 188.578 53.2569 188.435 53.2573 188.26L53.3085 165.051C53.3088 164.875 53.4512 164.733 53.6265 164.733C53.6268 164.733 53.627 164.733 53.6273 164.733C53.8029 164.734 53.9449 164.877 53.9446 165.052L53.8934 188.261C53.8932 188.437 53.7507 188.579 53.5754 188.579Z" fill="#C0A78A"/>
</svg>
