<svg width="89" height="211" viewBox="0 0 89 211" fill="none" xmlns="http://www.w3.org/2000/svg">
<path d="M8.61428 72.0522C8.61428 72.0522 6.52117 66.7244 15.1554 59.5293L15.0245 71.434L8.61428 72.0522Z" fill="#102048"/>
<path d="M8.32587 47.2826C5.2511 41.0123 2.74341 36.5064 1.16235 37.2173C0.743283 37.4058 0.544698 37.9445 0.666599 38.4219C1.50109 41.69 4.87935 47.7804 4.87935 47.7804L8.32587 47.2826Z" fill="#F9B384"/>
<path d="M12.251 56.2492L6.85065 59.7409C4.48019 58.6705 2.41321 56.5125 0.98452 52.5114C0.785659 51.9504 0.832702 51.315 1.13099 50.8114L2.26124 48.8767C2.66416 48.1955 2.85784 47.3943 2.81599 46.5814L2.70798 44.2449C2.70012 44.0748 2.76092 43.9095 2.87426 43.7927L3.70847 42.9326C3.85804 42.7784 4.08737 42.7641 4.25211 42.8988L5.99763 44.3259L5.65749 44.303C5.65749 44.303 5.94524 47.3254 8.19016 47.4742L9.35706 48.9681L12.251 56.2492Z" fill="#F9B384"/>
<path d="M12.9833 55.7795L12.2508 56.2489L9.35706 48.9678L8.19014 47.4738C5.94522 47.325 5.65747 44.3027 5.65747 44.3027L5.99761 44.3256L8.6401 44.4801C9.37277 44.5203 10.0635 44.8465 10.5973 45.3959L12.3921 47.2563C12.7374 47.617 12.9939 48.0634 13.1353 48.5556C13.8415 50.977 13.7055 53.3811 12.9833 55.7795Z" fill="#F9B384"/>
<path d="M16.2017 56.9074L14.9824 68.472C14.9824 68.472 11.4921 71.235 11.3194 71.5227C11.2409 71.6483 10.0425 68.8121 8.72393 65.5834C7.02336 61.4339 5.12378 56.6406 5.12378 56.6406L12.7114 52.3496L15.375 55.8242L16.2017 56.9074Z" fill="#F9B384"/>
<path d="M16.2019 56.9074L14.9826 68.472C14.9826 68.472 11.4923 71.235 11.3196 71.5228C11.2411 71.6483 10.0427 68.8122 8.72412 65.5835L15.375 55.8242L16.2019 56.9074Z" fill="#E28B6D"/>
<path d="M9.46194 49.3661C9.29075 49.1666 8.52437 48.1413 8.28085 47.8149C5.61167 47.6132 5.39807 44.3528 5.39638 44.3193L5.38135 44.0493L5.65155 44.043C9.97889 43.9446 10.8939 45.1007 11.4409 45.793C11.5355 45.913 11.6175 46.0163 11.6996 46.0898L11.3507 46.4798C11.235 46.3761 11.1357 46.2504 11.0304 46.1172C10.5251 45.4775 9.76261 44.5185 5.94843 44.5614C6.05376 45.2915 6.51301 47.2262 8.42775 47.2991L8.55315 47.3037L8.62773 47.4041C8.98781 47.8882 9.70897 48.8497 9.85938 49.0252L9.46194 49.3661Z" fill="#E28B6D"/>
<path d="M7.7698 50.2194C7.49847 50.2194 7.25819 50.1092 7.10736 49.9855C6.74826 49.6917 4.29858 47.765 4.29858 47.765L4.62229 47.3535C4.62229 47.3535 7.07857 49.2857 7.4388 49.5805C7.52432 49.6501 7.72515 49.7467 7.93918 49.6642C8.25165 49.543 8.48043 49.084 8.58408 48.372L9.10202 48.4471C8.93279 49.6095 8.4793 50.0158 8.12877 50.1522C8.0063 50.1995 7.88538 50.2194 7.7698 50.2194Z" fill="#E28B6D"/>
<path d="M5.43385 44.4393C5.20241 44.2094 3.31293 43.94 2.94597 44.0445L2.80273 43.5415C3.26169 43.4114 5.56952 43.6534 5.88144 44.1677L5.43385 44.4393Z" fill="#E28B6D"/>
<path d="M7.65092 53.069C6.88721 53.069 5.94515 52.4491 5.81061 52.3578L3.61133 50.9139L3.89826 50.4767L6.10117 51.9228C6.66349 52.303 7.63042 52.7353 7.93433 52.4635C8.04163 52.3669 8.09401 52.2088 8.08951 51.9928C8.07688 51.3438 7.5588 50.3996 7.1386 50.0511L7.47271 49.6484C7.99767 50.0841 8.59705 51.1749 8.61292 51.9827C8.62008 52.3522 8.50647 52.6527 8.2843 52.8524C8.11058 53.0083 7.88952 53.069 7.65092 53.069Z" fill="#E28B6D"/>
<path d="M6.04142 54.8433C5.38866 54.8433 4.60417 54.3397 4.41177 54.2093L2.47876 52.9402L2.76596 52.503L4.70219 53.7744C5.18853 54.1033 6.02133 54.4804 6.27496 54.2524C6.36218 54.1739 6.40473 54.0429 6.4008 53.863C6.38928 53.2739 5.90028 52.4488 5.57628 52.18L5.91039 51.7773C6.37721 52.1644 6.90989 53.1343 6.92422 53.8526C6.93082 54.1867 6.82744 54.4596 6.62493 54.6415C6.46328 54.7871 6.25966 54.8433 6.04142 54.8433Z" fill="#E28B6D"/>
<path d="M32.9106 201.253L32.3424 203.827C27.9127 204.136 22.394 207.183 19.6895 210.999H40.8544L41.5854 200.046C38.7865 200.726 35.4206 201.338 32.9106 201.253Z" fill="#EE6F57"/>
<path d="M41.5855 200.046L42.0049 193.762L34.8657 192.396L32.9109 201.253C35.4208 201.338 38.7867 200.726 41.5855 200.046Z" fill="#F9B384"/>
<path d="M75.8533 199.535L73.2395 190.445L66.0879 191.399L67.8226 200.044C70.5878 200.141 73.2842 199.97 75.8533 199.535Z" fill="#F9B384"/>
<path d="M88.6204 206.617C85.1006 201.894 80.8331 201.756 76.4035 201.448L75.8534 199.535C73.2843 199.97 70.5879 200.141 67.8225 200.044L70.0125 210.957L88.6204 206.617Z" fill="#EE6F57"/>
<path d="M53.3916 86.499L52.4758 111.972C52.4549 112.658 52.4338 113.349 52.4077 114.029C51.9367 128.016 51.0262 141.449 49.7652 154.432C48.3366 169.136 46.4633 183.265 44.2603 196.975H29.8071C27.8814 166.41 24.6372 129.717 30.592 96.5199L34.2183 87.645L53.3916 86.499Z" fill="black"/>
<path d="M73.2749 97.9496C76.9025 128.287 80.0423 162.25 78.6467 193.923L62.9483 196.976C58.6593 170.563 51.169 136.588 50.215 105.963L48.1221 81.0635L71.6605 87.6461L73.2749 97.9496Z" fill="black"/>
<path d="M55.1863 24.0977H44.6997V37.0967H55.1863V24.0977Z" fill="#F9B384"/>
<path d="M44.6336 32.1028C48.471 37.4229 53.3533 35.0934 55.1848 31.5176L67.658 86.9317C56.0187 91.9444 44.8287 92.6866 34.3423 86.741L40.9706 34.2702L44.6336 32.1028Z" fill="white"/>
<path d="M60.9725 16.0617C63.295 11.4762 63.8152 4.38828 58.4119 4.09195C53.7241 -0.532842 46.1443 0.102084 41.7376 4.92574C33.2218 2.30543 31.9635 17.9132 42.8018 17.3178L60.9725 16.0617Z" fill="#102048"/>
<path d="M44.6997 24.0977V31.0109C47.7968 31.078 50.4005 29.9287 51.9844 27.9437C51.9844 27.9437 48.9266 25.8079 46.516 24.0977H44.6997Z" fill="#102048"/>
<path d="M59.5454 11.4857L58.7133 19.5129C57.4416 23.0712 55.872 25.5777 53.8991 27.1685C51.8636 28.8064 49.2262 29.3245 46.798 28.5918C44.7153 27.9586 43.0148 26.415 42.3188 24.327C41.9368 23.1758 41.8584 21.8623 42.1932 20.4443C42.2456 20.2191 42.2874 19.9942 42.3084 19.764C42.4182 18.843 42.3188 17.9062 42.0886 17.0063C41.602 15.1225 41.5758 13.1603 41.916 11.1298L51.3245 8.15234L59.5454 11.4857Z" fill="#F9B384"/>
<path d="M41.1442 108.06C36.2754 109.127 30.5665 109.029 24.226 108.06C25.7835 93.8829 27.9176 80.2759 31.2043 67.8034L17.5115 66.4666C17.6403 64.259 17.9284 61.9841 18.3822 59.6539C18.8913 57.0294 19.6147 54.3314 20.5469 51.5781C20.5775 51.4801 20.6143 51.3819 20.6511 51.2837C23.9563 41.7177 29.9596 34.5127 44.7193 32.0537C49.3428 54.0921 48.9932 86.6901 41.1442 108.06Z" fill="#0077B6"/>
<path d="M76.4214 89.7066C77.2535 94.6726 77.9861 99.6437 78.7343 104.819C74.0038 106.504 68.2844 107.116 61.7276 106.823C58.9857 98.0008 57.1279 88.8119 56.0551 79.3038C56.0551 79.2671 56.0499 79.2358 56.0447 79.1992C54.3546 64.0815 53.261 48.1318 55.1867 31.5332C61.2253 31.9622 67.4157 33.8148 73.2137 37.5299C75.2021 38.8068 76.814 40.6855 77.892 42.9093C81.9474 51.2557 83.8363 58.5973 85.4063 66.1798L72.7167 71.3342C73.0883 72.8831 73.4389 74.4164 73.7737 75.9286C74.8046 80.6118 75.6575 85.154 76.4214 89.7066Z" fill="#0077B6"/>
<path d="M34.1231 62.463L32.4245 76.2906L31.6335 77.3393L27.7458 82.4841C26.1636 84.5751 23.9929 85.6176 21.81 85.6358C19.4552 85.6542 17.1005 84.4831 15.494 82.1284L8.61377 72.0534C11.9988 67.5279 15.261 62.929 16.1991 56.9072C20.6387 62.0827 21.9571 64.0327 21.9571 64.0327L34.1231 62.463Z" fill="#0077B6"/>
<path d="M41.678 14.4541C45.1641 14.28 48.6561 13.5375 52.1589 11.7149C53.2674 13.8295 55.8837 16.6203 59.7212 15.5737L60.1388 13.2632L60.4366 9.3329L48.8836 5.64062L39.8318 8.61821L41.678 14.4541Z" fill="#102048"/>
<path opacity="0.4" d="M76.421 89.7067C69.0427 88.9898 62.0465 85.5885 56.0547 79.3039C56.0284 79.2724 55.9972 79.2463 55.9709 79.215L56.0441 79.1993L73.773 75.9287C74.8041 80.6119 75.657 85.1541 76.421 89.7067Z" fill="#1F3C88"/>
<path d="M50.7327 114.569C52.9811 128.264 51.0262 141.45 49.7651 154.433C39.2263 138.023 49.3356 118.06 50.7327 114.569Z" fill="#242424"/>
<path d="M23.9959 66.4373L16.4082 56.749L15.9962 57.0717L23.5839 66.7599L23.9959 66.4373Z" fill="#1F3C88"/>
<path opacity="0.4" d="M70.4487 50.9824L73.0651 65.9831C73.0651 65.9831 68.4001 69.0761 66.9661 66.5422C65.8475 64.5657 67.3146 58.1103 70.4487 50.9824Z" fill="#1F3C88"/>
<path d="M43.5817 61.6395L40.4072 61.8612C40.0623 61.8852 39.7681 62.1428 39.6708 62.5057L39.6496 62.585C39.4971 63.1545 39.6065 63.7695 39.943 64.2348L40.5155 65.0264C40.6071 65.1531 40.5871 65.3287 40.4695 65.4316C39.9665 65.6786 39.6017 66.1693 39.5809 66.7294C39.5757 66.8693 39.5861 67.0062 39.6128 67.1313C39.7278 67.6713 40.1063 68.0976 40.5964 68.239L40.9062 68.3284C40.9465 68.3401 40.9645 68.3914 40.9416 68.4294L40.4953 69.175C40.1637 69.7559 40.6481 70.8462 41.1231 71.2385C41.2201 71.3994 41.5288 71.4588 41.7037 71.4827L43.1026 71.6741C43.7528 71.7632 44.3728 71.9939 44.9389 72.3259C47.7615 73.9805 51.2152 73.8088 54.6666 73.6442L54.3968 64.5758C52.0426 62.7679 49.3416 61.2336 46.2138 60.0357L38.7651 54.7344C37.1329 55.453 38.1543 57.4691 43.5817 61.6395Z" fill="#F9B384"/>
<path d="M85.406 66.1805L86.5064 70.8137C87.9351 76.8297 83.4249 82.552 77.7746 81.892L50.9128 78.6303L52.9624 63.3184L85.406 66.1805Z" fill="#0077B6"/>
<path d="M31.7703 50.787L31.2507 50.7256L27.5006 82.4481L28.0202 82.5096L31.7703 50.787Z" fill="#1F3C88"/>
<path d="M73.1246 64.7513L52.979 63.0469L52.9349 63.568L73.0805 65.2724L73.1246 64.7513Z" fill="#1F3C88"/>
<path d="M44.868 65.8513C44.7138 65.8352 41.0885 65.4544 40.4417 65.2737L40.5827 64.7695C41.0843 64.91 43.8855 65.2224 44.9222 65.3307L44.868 65.8513Z" fill="#E28B6D"/>
<path d="M45.3487 69.2962C45.1902 69.2803 41.4601 68.9017 40.813 68.721L40.954 68.2168C41.4551 68.357 44.3344 68.6677 45.4014 68.7756L45.3487 69.2962Z" fill="#E28B6D"/>
<path d="M57.1616 21.4815C63.7333 22.4638 64.6054 11.9982 57.6283 16.1844L57.1616 21.4815Z" fill="#F9B384"/>
<path d="M58.6821 18.6236C58.6026 18.2859 58.582 17.9247 58.657 17.5657C58.73 17.2077 58.9064 16.8579 59.1807 16.5846C59.453 16.3166 59.8398 16.1182 60.2503 16.1498C60.658 16.1707 61.0339 16.4208 61.1882 16.7556L61.0239 16.8775C60.7857 16.6724 60.5126 16.5801 60.2524 16.6069C59.9906 16.6271 59.7426 16.7667 59.5438 16.9579C59.3411 17.1506 59.1958 17.4066 59.0822 17.6859C58.9775 17.9709 58.9329 18.2814 58.886 18.6073L58.6821 18.6236Z" fill="#E28B6D"/>
<path d="M45.0693 18.441C45.539 18.441 45.9197 17.8943 45.9197 17.22C45.9197 16.5457 45.539 15.999 45.0693 15.999C44.5997 15.999 44.219 16.5457 44.219 17.22C44.219 17.8943 44.5997 18.441 45.0693 18.441Z" fill="#102048"/>
<path d="M51.4797 17.7867C51.9494 17.7867 52.3301 17.24 52.3301 16.5657C52.3301 15.8914 51.9494 15.3447 51.4797 15.3447C51.0101 15.3447 50.6294 15.8914 50.6294 16.5657C50.6294 17.24 51.0101 17.7867 51.4797 17.7867Z" fill="#102048"/>
<path d="M48.6017 16.1883C48.5399 16.809 48.3193 17.4067 48.0512 17.9548C47.8032 18.5082 47.4288 19.035 47.1851 19.5174C46.9339 20.0175 46.8674 20.4861 47.1795 20.893C47.4873 21.3089 47.9945 21.6415 48.4801 21.996L48.3612 22.2108C47.8066 21.9861 47.215 21.7555 46.7493 21.2383C46.518 20.9844 46.3546 20.6056 46.3582 20.2337C46.363 19.862 46.4805 19.5294 46.6251 19.2397C46.934 18.6563 47.2827 18.2168 47.58 17.6994C47.883 17.1952 48.1676 16.6901 48.3617 16.1357L48.6017 16.1883Z" fill="#102048"/>
<path d="M46.6843 24.0161L51.2942 22.7031C51.2942 22.7031 51.2765 24.7804 49.0707 25.2869C47.8105 25.5765 46.6843 24.0161 46.6843 24.0161Z" fill="white"/>
<path opacity="0.4" d="M44.3964 22.0461C44.3964 23.2392 43.486 24.2229 42.3189 24.3276C41.9369 23.1765 41.8585 21.8629 42.1934 20.4449C42.2457 20.2198 42.2876 19.9948 42.3085 19.7646C43.4806 19.8639 44.3964 20.8477 44.3964 22.0461Z" fill="#FC8879"/>
<path opacity="0.4" d="M54.3034 22.703C55.5687 22.703 56.5944 21.6773 56.5944 20.4121C56.5944 19.1468 55.5687 18.1211 54.3034 18.1211C53.0382 18.1211 52.0125 19.1468 52.0125 20.4121C52.0125 21.6773 53.0382 22.703 54.3034 22.703Z" fill="#FC8879"/>
<path opacity="0.4" d="M28.3509 78.6966L27.7458 82.4842C26.1637 84.5752 23.993 85.6177 21.8101 85.6359C23.9624 76.8549 29.0663 70.5205 29.0663 70.5205L28.3509 78.6966Z" fill="#1F3C88"/>
<path opacity="0.2" d="M23.7236 66.509L18.3826 59.6534C18.8917 57.0288 19.6151 54.3309 20.5473 51.5776C20.5779 51.4795 20.6147 51.3814 20.6515 51.2832C21.6632 53.1718 24.024 58.4822 23.7236 66.509Z" fill="#1F3C88"/>
</svg>
