<svg width="185" height="200" viewBox="0 0 185 200" fill="none" xmlns="http://www.w3.org/2000/svg">
<path d="M142.66 92.0639C142.66 92.0639 145.574 91.2405 145.224 87.9468C144.874 84.6531 138.114 56.7744 138.114 56.7744L137.064 86.7705C137.064 86.7704 141.261 91.2405 142.66 92.0639Z" fill="#CC594A"/>
<path d="M48.4179 55.54C48.4179 55.54 42.6595 69.4246 41.599 74.5376C40.5499 79.5957 37.8689 91.0061 40.2001 92.7705C42.5315 94.535 49.059 89.9474 49.059 89.9474L54.8872 72.0673L50.4577 56.6576L48.4179 55.54Z" fill="#CC594A"/>
<path d="M77.5005 24.8956C77.5005 24.8956 75.5774 30.0137 74.4121 30.0137C73.8896 30.0137 72.7657 29.8819 71.6881 29.7379C70.3648 29.5628 69.1085 29.365 69.1085 29.365L37.1701 52.4215L48.4183 55.5399L55.5866 78.0655L46.0295 91.7114C46.0295 91.7114 4.53214 63.9497 2.66752 62.302C0.800996 60.656 -0.364141 56.1867 0.103289 53.5973C0.56906 51.0097 10.8256 40.1873 13.1578 38.7755C15.4882 37.3656 65.3775 20.1902 65.3775 20.1902C65.3775 20.1902 70.0401 11.7214 70.9733 11.0156C71.1263 10.8994 71.3685 10.7692 71.6659 10.6358C73.173 9.95415 76.1016 9.13379 76.1016 9.13379L77.5005 24.8956Z" fill="#FFA67C"/>
<path d="M76.1016 9.13477L77.5006 24.8965C77.5006 24.8965 75.5775 30.0145 74.4123 30.0145C73.8897 30.0145 72.7658 29.8827 71.6883 29.7387C71.9117 28.5352 72.185 27.0973 72.46 25.7167C73.1113 22.4302 73.7627 16.8438 73.4362 15.1997C73.2832 14.4226 72.4755 12.4767 71.666 10.6366C73.1731 9.95512 76.1016 9.13477 76.1016 9.13477Z" fill="#D86742"/>
<path d="M17.4705 63.4109C17.3462 63.4109 17.2324 63.3271 17.199 63.2C17.159 63.0484 17.2484 62.8931 17.3986 62.8529C17.4784 62.8315 25.3981 60.6999 27.2045 59.4912C31.2785 56.7649 68.3392 29.8109 68.713 29.539C68.8392 29.4472 69.0149 29.4762 69.1057 29.6032C69.1966 29.7303 69.1679 29.9077 69.042 29.9994C68.6681 30.2714 31.5983 57.2318 27.5154 59.9642C25.6323 61.2242 17.8724 63.3131 17.5429 63.4014C17.5187 63.4078 17.4944 63.4109 17.4705 63.4109Z" fill="#D86742"/>
<path d="M181.127 69.8309C180.077 71.5964 138.114 89.2399 138.114 89.2399L130.422 79.0073L134.268 59.5965L138.114 56.7747L145.458 54.3032L114.684 31.3665L111.814 31.4203L108.508 31.4828L105.942 21.838L106.641 8.07422C106.641 8.07422 108.059 8.36043 109.668 8.83394C111.151 9.27097 112.796 9.86766 113.636 10.5458C115.384 11.9558 119.232 20.4263 119.232 20.4263C119.232 20.4263 171.685 42.6589 174.132 44.4227C176.58 46.1866 184.623 58.1866 184.973 60.3025C185.322 62.4199 182.175 68.067 181.127 69.8309Z" fill="#FFA67C"/>
<path d="M111.814 31.4203L108.508 31.4828L105.942 21.838L106.641 8.07422C106.641 8.07422 108.059 8.36043 109.668 8.83394C110.099 10.4434 110.558 12.49 110.558 13.8861C110.558 16.5136 109.907 23.0868 110.233 24.4014C110.522 25.5685 111.58 30.3571 111.814 31.4203Z" fill="#D86742"/>
<path d="M168.52 67.7344C168.493 67.7344 168.464 67.7303 168.436 67.7215C168.064 67.604 159.305 64.8341 157.902 64.1263C156.496 63.4169 116.331 32.8315 114.622 31.5297C114.498 31.4354 114.473 31.2574 114.567 31.1323C114.66 31.0073 114.837 30.9824 114.961 31.0768C129.424 42.0922 157.065 63.0696 158.154 63.6187C159.516 64.3061 168.513 67.1511 168.604 67.1797C168.752 67.2266 168.835 67.3858 168.789 67.5354C168.751 67.6568 168.64 67.7344 168.52 67.7344Z" fill="#D86742"/>
<path d="M127.816 24.0205C127.816 24.0205 122.063 26.2842 121.123 36.8729L125.175 39.94C125.175 39.94 124.813 28.9863 131.886 25.8279L127.816 24.0205Z" fill="#4F5B6B"/>
<path d="M61.7355 174.075C61.7355 174.075 60.8091 181.937 60.8091 185.869C60.8091 189.8 61.7355 199.846 61.7355 199.846H125.664C125.664 199.846 127.517 179.317 125.201 174.512C122.885 169.707 61.7355 174.075 61.7355 174.075Z" fill="black"/>
<path d="M93.6912 200L93.0171 199.864L93.9808 195.002L94.1198 194.924C95.8045 193.979 98.2398 192.332 98.379 191.63C98.5652 190.69 98.774 179.978 98.8388 175.93L99.526 175.941C99.5165 176.538 99.2898 190.573 99.0531 191.766C98.8149 192.968 95.5535 194.904 94.5928 195.451L93.6912 200Z" fill="#374451"/>
<path d="M63.4049 190.845L63.1558 190.198C65.4764 189.288 71.7013 186.761 72.6238 186.016C73.4132 185.379 75.1181 180.586 76.0074 177.714L76.6636 177.921C76.4217 178.702 74.266 185.579 73.0532 186.558C71.8604 187.521 63.7497 190.71 63.4049 190.845Z" fill="#374451"/>
<path d="M124.672 188.951C124.48 188.854 119.96 186.568 118.092 185.154C116.204 183.725 112.127 177.797 111.954 177.545L112.519 177.15C112.561 177.211 116.705 183.237 118.504 184.599C120.323 185.975 124.933 188.307 124.979 188.33L124.672 188.951Z" fill="#374451"/>
<path d="M107.925 19.3665C107.925 20.3083 107.108 27.0133 107.108 27.0133L97.5496 30.071L76.452 25.8375C76.452 25.8375 75.9794 21.7028 75.6683 18.378C75.5153 16.7512 75.4019 15.3186 75.4019 14.6612C75.4019 12.6616 75.9845 7.84005 75.9845 7.84005L75.1699 3.48687C75.1699 3.48687 75.7525 2.42898 77.0345 2.78097C78.3167 3.13475 79.7156 3.13476 79.7156 3.13476L79.0161 1.95715C79.0161 1.95715 80.6471 1.36918 82.3966 1.48711C84.1444 1.60504 86.2428 1.95715 86.9422 1.48711C87.6416 1.01707 88.8068 0.663284 89.5063 0.311173C90.2058 -0.0426117 91.7216 -0.16066 93.5862 0.311173C95.322 0.748202 96.1487 0.881798 97.3844 0.897347C97.4755 0.899141 97.5699 0.899141 97.6662 0.899141C99.0652 0.899141 98.9483 0.429101 101.629 1.01707C104.31 1.60504 105.941 3.60468 106.641 5.01647C107.34 6.42826 108.739 10.4277 108.973 11.6035C109.207 12.7795 107.925 18.4266 107.925 19.3665Z" fill="#97543D"/>
<path d="M107.925 19.3668C107.925 20.3086 107.108 27.0137 107.108 27.0137L97.5497 30.0713L76.4522 25.8378C76.4522 25.8378 75.9796 21.7032 75.6685 18.3783C78.2738 16.2364 79.5955 12.8111 80.771 9.58347C84.6895 9.58861 88.6078 9.59387 92.5262 9.59901C95.3963 9.60427 98.2664 9.60774 101.136 9.61121C101.449 9.61121 101.796 9.59901 102.021 9.3805C102.269 9.14117 102.276 8.74924 102.247 8.40586C101.973 5.20935 100.004 2.57319 97.3846 0.89779C97.4758 0.899585 97.5702 0.899584 97.6665 0.899584C99.0655 0.899584 98.9486 0.429546 101.63 1.01751C104.311 1.60548 105.942 3.60512 106.641 5.01691C107.34 6.4287 108.739 10.4281 108.973 11.6039C109.207 12.7798 107.925 18.4269 107.925 19.3668Z" fill="#6B3B2A"/>
<path d="M79.8907 60.1276C79.8907 60.1276 77.268 59.7747 76.0441 59.7747C74.8202 59.7747 73.4214 58.0102 71.8478 57.8338C70.2741 57.6573 66.2527 58.0102 65.2036 58.0102C64.1545 58.0102 55.4122 57.128 54.1884 56.4222C52.9645 55.7165 48.4184 55.54 48.4184 55.54C48.4184 55.54 50.3417 59.7748 51.2159 65.2447C52.0901 70.7145 53.1392 74.5965 52.265 78.8312C51.3908 83.066 47.3693 90.8297 44.9215 91.8884C42.4736 92.9471 40.7251 93.6528 40.2006 92.7706C39.676 91.8884 40.7251 93.6528 40.7251 93.6528C40.7251 93.6528 45.9705 97.1817 48.768 97.8876C51.5656 98.5934 58.0349 100.534 58.0349 100.534C58.0349 100.534 58.3846 124.178 58.3846 128.413C58.3846 132.648 59.4337 156.292 59.4337 160.174C59.4337 164.056 58.3846 177.113 58.3846 177.113C58.3846 177.113 69.225 181.347 72.3722 182.053C75.5194 182.759 102.795 182.759 105.943 182.053C109.09 181.348 120.979 178.171 123.777 178.524C126.574 178.877 129.372 178.172 129.372 178.172L127.623 158.056C127.623 158.056 127.623 129.825 127.623 126.296C127.623 122.767 125.525 100.534 125.525 100.534C125.525 100.534 132.519 97.0054 134.617 96.6524C136.715 96.2996 142.66 92.0648 142.66 92.0648C142.66 92.0648 137.764 88.183 137.065 86.7714C136.366 85.3599 133.219 76.5375 133.219 73.3613C133.219 70.1852 132.869 59.2456 138.114 56.7753C138.114 56.7753 133.918 56.4223 132.169 56.7753C130.421 57.1281 127.973 57.834 124.826 58.1868C121.679 58.5397 116.259 57.1281 114.16 56.9517C112.062 56.7753 103.67 58.1868 103.67 58.1868L94.228 63.1274L79.8907 60.1276Z" fill="#0077B6"/>
<path d="M90.0897 79.1172C90.0582 79.1172 90.0262 79.1128 89.9943 79.1035C89.964 79.0947 86.9235 78.2086 83.8368 77.2188C77.4958 75.1854 77.1431 74.7109 76.9925 74.5085C76.6505 74.0481 76.4321 73.2749 76.1554 72.2957C75.8229 71.1182 75.409 69.6529 74.6415 68.3618C73.2834 66.0777 66.6098 59.7958 66.5426 59.7326C66.4037 59.602 66.3959 59.3825 66.5252 59.2422C66.6546 59.1022 66.8721 59.0943 67.0112 59.2248C67.2886 59.4856 73.8235 65.6375 75.2311 68.0049C76.0454 69.3746 76.4731 70.8888 76.8167 72.1054C77.0636 72.9797 77.2769 73.7346 77.5426 74.0921C78.0268 74.6642 84.4181 76.7582 90.1849 78.4369C90.3673 78.4899 90.4725 78.6822 90.4198 78.8663C90.3764 79.0183 90.239 79.1172 90.0897 79.1172Z" fill="#00B4D8"/>
<path d="M109.672 81.2368C109.596 81.2368 109.519 81.2111 109.455 81.1585C109.308 81.0371 109.286 80.8186 109.406 80.6703C109.448 80.619 113.576 75.5104 114.478 73.0077C115.157 71.1231 118.243 65.9676 120.086 62.8874C120.799 61.6972 121.361 60.7571 121.488 60.5023C121.573 60.3308 121.779 60.2618 121.949 60.3472C122.119 60.4328 122.187 60.6411 122.102 60.8125C121.964 61.0923 121.423 61.9958 120.675 63.2461C118.844 66.3047 115.78 71.424 115.124 73.245C114.183 75.8583 110.111 80.8967 109.938 81.11C109.87 81.1934 109.772 81.2368 109.672 81.2368Z" fill="#00B4D8"/>
<path d="M125.525 100.88C125.345 100.88 125.194 100.739 125.182 100.555C124.957 97.0281 122.221 91.9274 122.193 91.8763C122.102 91.7081 122.163 91.4974 122.33 91.4057C122.497 91.3139 122.705 91.3761 122.796 91.544C122.912 91.7581 125.633 96.8294 125.868 100.51C125.881 100.702 125.737 100.866 125.547 100.879C125.54 100.879 125.532 100.88 125.525 100.88Z" fill="#00B4D8"/>
<path d="M58.2403 125.872C58.0504 125.872 57.8966 125.717 57.8966 125.525C57.8966 125.319 57.8942 104.89 57.6917 100.55C57.4875 96.1824 57.8934 90.2887 57.8975 90.2297C57.9108 90.0386 58.0758 89.8936 58.2646 89.9082C58.454 89.9216 58.5967 90.0875 58.5832 90.2787C58.5791 90.3373 58.1759 96.191 58.3783 100.518C58.5817 104.874 58.5841 125.319 58.5841 125.525C58.584 125.717 58.43 125.872 58.2403 125.872Z" fill="#00B4D8"/>
<path d="M58.023 107.03C57.9854 107.03 57.947 107.024 57.9095 107.011C57.7303 106.947 57.6358 106.749 57.6986 106.569L62.2575 93.4242C63.7215 89.2028 61.1943 81.019 61.1686 80.9369C61.1114 80.7542 61.2118 80.5594 61.3929 80.5016C61.5735 80.4437 61.767 80.5453 61.8242 80.728C61.9319 81.0724 64.446 89.214 62.9064 93.6534L58.3475 106.798C58.2979 106.941 58.165 107.03 58.023 107.03Z" fill="#00B4D8"/>
<path d="M119.241 76.359C119.205 76.359 119.169 76.3533 119.133 76.3412C118.952 76.2807 118.855 76.0843 118.915 75.9025C118.928 75.8634 120.215 71.9316 120.854 67.2023C121.508 62.3693 123.631 58.6839 123.721 58.5294C123.817 58.3643 124.028 58.3093 124.191 58.4063C124.355 58.5034 124.41 58.7159 124.313 58.8811C124.292 58.9178 122.169 62.6066 121.536 67.296C120.887 72.0923 119.58 76.0821 119.567 76.1218C119.519 76.2672 119.385 76.359 119.241 76.359Z" fill="#00B4D8"/>
<path d="M91.8884 91.0377C91.709 91.0377 91.5579 90.8972 91.5458 90.7139C91.528 90.4451 91.1108 84.1077 91.1108 82.1469C91.1108 80.1901 91.5277 70.7043 91.5453 70.3014C91.5537 70.1102 91.7126 69.9595 91.904 69.9703C92.0936 69.9788 92.2405 70.1408 92.2321 70.3322C92.2277 70.4306 91.7984 80.2053 91.7984 82.1468C91.7984 84.0843 92.2274 90.602 92.2316 90.6675C92.2442 90.8588 92.1009 91.0239 91.9117 91.0367C91.9038 91.0375 91.896 91.0377 91.8884 91.0377Z" fill="#00B4D8"/>
<path opacity="0.5" d="M95.4161 79.6277C96.4651 79.6277 97.3155 78.7695 97.3155 77.7108C97.3155 76.6522 96.4651 75.7939 95.4161 75.7939C94.367 75.7939 93.5166 76.6522 93.5166 77.7108C93.5166 78.7695 94.367 79.6277 95.4161 79.6277Z" fill="#E0EDFE"/>
<path opacity="0.5" d="M96.4473 89.3211C97.4964 89.3211 98.3468 88.4628 98.3468 87.4042C98.3468 86.3455 97.4964 85.4873 96.4473 85.4873C95.3983 85.4873 94.5479 86.3455 94.5479 87.4042C94.5479 88.4628 95.3983 89.3211 96.4473 89.3211Z" fill="#E0EDFE"/>
<path d="M59.0897 173.615C59.0612 173.615 59.0323 173.611 59.0033 173.603C58.8195 173.555 58.7091 173.366 58.7566 173.181L59.4708 170.394C60.0267 168.225 60.6015 165.983 61.5751 163.906C61.8692 163.278 62.2023 162.662 62.5242 162.066C63.0182 161.151 63.5288 160.205 63.8928 159.226C65.0641 156.075 64.7669 152.501 64.5046 149.348C64.4886 149.157 64.6291 148.989 64.8183 148.973C65.0062 148.957 65.1735 149.099 65.1895 149.29C65.4579 152.516 65.7621 156.172 64.5365 159.47C64.1554 160.494 63.633 161.462 63.1278 162.397C62.8104 162.985 62.4823 163.593 62.1966 164.202C61.2507 166.22 60.6842 168.43 60.1363 170.567L59.4221 173.354C59.3822 173.511 59.2426 173.615 59.0897 173.615Z" fill="#00B4D8"/>
<path d="M63.5429 170.628C63.4926 170.628 63.4416 170.617 63.3935 170.594C63.2226 170.51 63.1509 170.303 63.2335 170.13C64.0117 168.506 65.324 167.25 66.5931 166.035L66.8393 165.799C70.911 161.89 74.6539 157.583 77.9635 152.999C78.0753 152.844 78.2903 152.81 78.4437 152.923C78.5971 153.036 78.6309 153.253 78.5191 153.408C75.1851 158.025 71.415 162.364 67.3131 166.302L67.0661 166.538C65.842 167.71 64.576 168.922 63.8525 170.432C63.7932 170.556 63.6705 170.628 63.5429 170.628Z" fill="#00B4D8"/>
<path d="M123.729 167.113C123.582 167.113 123.446 167.017 123.4 166.867C121.511 160.639 121.456 156.44 122.04 149.919C122.776 141.706 119.929 132.959 118.166 128.476C118.096 128.298 118.183 128.096 118.359 128.026C118.536 127.955 118.736 128.042 118.805 128.22C120.591 132.76 123.473 141.625 122.725 149.982C122.149 156.41 122.202 160.546 124.058 166.664C124.113 166.848 124.011 167.042 123.829 167.098C123.796 167.108 123.762 167.113 123.729 167.113Z" fill="#00B4D8"/>
<path d="M118.653 156.218C118.651 156.218 118.65 156.218 118.648 156.218C118.458 156.215 118.306 156.058 118.309 155.866C118.362 151.972 117.284 147.996 115.273 144.671C115.174 144.508 115.225 144.294 115.387 144.194C115.549 144.095 115.76 144.146 115.859 144.31C117.937 147.745 119.051 151.852 118.996 155.876C118.994 156.066 118.84 156.218 118.653 156.218Z" fill="#00B4D8"/>
<path d="M82.4774 147.125C82.4251 147.125 82.372 147.113 82.3221 147.088C82.1528 147.001 82.0852 146.792 82.171 146.621C87.7671 135.479 92.3013 123.732 95.6476 111.706C95.699 111.522 95.8887 111.414 96.0714 111.466C96.2541 111.518 96.3607 111.709 96.3093 111.894C92.9511 123.963 88.4006 135.753 82.7842 146.935C82.7237 147.055 82.6027 147.125 82.4774 147.125Z" fill="#00B4D8"/>
<path d="M74.029 149.247C73.9934 149.247 73.9574 149.241 73.922 149.23C73.7416 149.17 73.6431 148.974 73.7022 148.792C77.7269 136.389 80.5497 123.531 82.092 110.573C82.5326 106.873 82.6532 103.091 80.5711 100.489C80.4519 100.34 80.4749 100.121 80.6227 100.001C80.7705 99.8805 80.9868 99.9038 81.1061 100.053C83.3483 102.855 83.2331 106.805 82.7747 110.656C81.2269 123.659 78.3943 136.562 74.3555 149.008C74.3081 149.154 74.1736 149.247 74.029 149.247Z" fill="#00B4D8"/>
<path d="M103.76 57.9454C103.034 55.5726 102.005 51.9757 101.583 49.3631C100.899 45.1283 81.7492 49.1278 81.7492 49.1278C81.7492 49.1278 80.8373 56.8916 80.3812 58.5384C80.2467 59.0242 80.0526 59.5713 79.8459 60.1014L75.3901 59.8016C75.3901 59.8016 77.9951 65.7166 80.383 67.2502C82.771 68.7837 91.8886 70.5364 96.8815 70.5364C101.874 70.5364 105.999 64.8404 107.302 63.526C108.604 62.2115 109.472 57.3919 109.472 57.3919C109.472 57.3919 106.167 57.6004 103.76 57.9454Z" fill="#FFA67C"/>
<path d="M105.243 31.4841C105.243 32.8251 105.127 34.7937 104.942 36.8127C104.673 39.748 104.259 42.7952 103.844 44.1883C103.144 46.5406 101.046 57.1272 98.9476 59.0101C96.851 60.8913 88.4572 61.1277 85.8936 59.2447C83.3281 57.3636 80.4141 47.6581 79.7146 44.5998C79.3122 42.8398 78.7936 41.02 78.4263 38.8949C78.155 37.3286 77.9668 35.5983 77.9668 33.6017C77.9668 28.895 78.6663 17.8392 80.2978 14.0751C80.2978 14.0751 87.1745 11.1342 92.3034 11.6035C97.4324 12.0747 101.046 13.3692 102.212 15.0156C103.377 16.6623 105.243 28.1912 105.243 31.4841Z" fill="#FFA67C"/>
<path d="M89.4673 39.0618C89.428 39.0618 89.3879 39.0534 89.3497 39.0356C89.3013 39.0131 88.164 38.468 88.2547 37.1891C88.2963 36.6015 88.5002 36.0249 88.6976 35.4672C88.8907 34.9215 89.0732 34.4059 89.1094 33.8955C89.1867 32.8034 90.0082 25.8643 90.0432 25.5695C90.0616 25.4138 90.2012 25.3025 90.3557 25.3214C90.51 25.34 90.62 25.4812 90.6015 25.6368C90.5931 25.7091 89.7468 32.8574 89.6703 33.9361C89.6287 34.5237 89.4248 35.1004 89.2273 35.6582C89.0343 36.204 88.8517 36.7195 88.8156 37.2297C88.7525 38.1217 89.5772 38.5165 89.5855 38.5203C89.7265 38.586 89.788 38.7546 89.723 38.8968C89.6754 39.0006 89.5736 39.0618 89.4673 39.0618Z" fill="#D86742"/>
<path d="M93.8196 38.9815C93.7269 38.9815 93.6361 38.9352 93.5825 38.8507C93.4987 38.7186 93.5369 38.5432 93.6677 38.4588C93.9064 38.3037 94.5377 37.7993 94.5889 37.3333C94.6404 36.8658 94.172 35.2859 93.8648 34.4C93.8134 34.2521 93.8908 34.0901 94.0373 34.0385C94.184 33.9867 94.3444 34.0647 94.3956 34.2125C94.4814 34.4595 95.2303 36.6476 95.1479 37.3961C95.0579 38.2129 94.082 38.8652 93.9709 38.9368C93.924 38.9671 93.8715 38.9815 93.8196 38.9815Z" fill="#D86742"/>
<path d="M78.4912 26.1463L77.0281 25.6441C75.9909 25.288 74.8604 25.8246 74.4708 26.8579L73.3572 30.6727C73.1792 31.145 73.1798 31.6669 73.3591 32.1386L75.2626 37.2591C75.6137 38.183 76.5679 38.7228 77.5322 38.543L78.4912 38.3643V26.1463Z" fill="#FFA67C"/>
<path d="M78.1218 35.6098C78.0005 35.6098 77.8883 35.5299 77.8523 35.4063C76.8803 32.0867 75.5329 30.7611 75.5193 30.7482C75.4072 30.6402 75.4026 30.4606 75.5092 30.3471C75.6162 30.234 75.7933 30.2287 75.906 30.336C75.9654 30.3926 77.3716 31.7617 78.3917 35.2456C78.4356 35.3958 78.3506 35.5537 78.2016 35.598C78.175 35.6061 78.1481 35.6098 78.1218 35.6098Z" fill="#D86742"/>
<path d="M77.5782 33.9636C77.5572 33.9636 77.536 33.9612 77.5147 33.9562C76.5327 33.7274 75.1517 33.5712 75.138 33.5697C74.9835 33.5524 74.8724 33.4121 74.8894 33.2564C74.9066 33.1005 75.0461 32.9888 75.1999 33.0056C75.2577 33.0121 76.6266 33.1669 77.6413 33.4032C77.7925 33.4384 77.8868 33.5908 77.8519 33.7436C77.8219 33.8748 77.7062 33.9636 77.5782 33.9636Z" fill="#D86742"/>
<path d="M104.716 26.1463L106.179 25.6441C107.216 25.288 108.347 25.8246 108.736 26.8579L109.85 30.6727C110.028 31.145 110.027 31.6669 109.848 32.1386L107.944 37.2591C107.593 38.183 106.639 38.7228 105.675 38.543L104.716 38.3643V26.1463Z" fill="#FFA67C"/>
<path d="M105.085 35.61C105.058 35.61 105.031 35.6063 105.005 35.5983C104.856 35.5539 104.771 35.3961 104.815 35.2458C105.835 31.7619 107.241 30.3928 107.3 30.3363C107.413 30.2286 107.591 30.2338 107.698 30.3478C107.805 30.4615 107.8 30.6408 107.687 30.7485C107.668 30.7672 106.324 32.0944 105.354 35.4066C105.318 35.5301 105.206 35.61 105.085 35.61Z" fill="#D86742"/>
<path d="M105.629 33.9636C105.501 33.9636 105.385 33.8749 105.355 33.7435C105.32 33.5909 105.414 33.4384 105.566 33.4033C106.58 33.1668 107.949 33.012 108.007 33.0056C108.16 32.9887 108.3 33.1006 108.317 33.2564C108.335 33.4121 108.223 33.5525 108.069 33.5698C108.055 33.5713 106.674 33.7274 105.692 33.9562C105.671 33.9612 105.65 33.9636 105.629 33.9636Z" fill="#D86742"/>
<path d="M104.943 36.8144C104.673 39.7489 104.259 42.7961 103.844 44.1888C103.145 46.5423 101.047 57.1287 98.9482 59.0105C96.8515 60.8922 88.4578 61.1299 85.8937 59.2464C85.6891 59.0972 85.4829 58.8977 85.2749 58.6549C82.8774 55.8609 80.358 47.4164 79.7135 44.6015C79.3113 42.8412 78.794 41.0218 78.4263 38.8955C78.9591 39.4713 81.3359 41.9948 82.1643 42.3069C82.9687 42.6121 85.2544 39.7575 89.245 38.9735C89.8723 38.8504 90.5426 38.7792 91.2557 38.7792C96.5009 38.7792 99.065 41.6027 100.113 41.719C101.162 41.8369 104.076 38.0733 104.776 36.8957C104.826 36.8126 104.881 36.7867 104.943 36.8144Z" fill="#97543D"/>
<path d="M80.7642 22.7013C80.8192 23.0895 83.0178 22.074 84.3388 21.8387C85.6597 21.6035 87.2917 21.7603 87.2917 21.4467C87.2917 21.1329 84.9605 20.0351 83.5616 20.3487C82.1628 20.6623 80.6865 22.1523 80.7642 22.7013Z" fill="#6B3B2A"/>
<path d="M95.9171 21.1322C95.8405 21.5964 98.6369 21.5244 99.7249 21.9949C100.813 22.4654 101.435 23.4065 101.823 23.328C102.211 23.2495 101.124 21.1322 100.347 20.6617C99.5694 20.1912 95.9948 20.6617 95.9171 21.1322Z" fill="#6B3B2A"/>
<path d="M85.1934 30.2282C86.0518 30.2282 86.7476 29.21 86.7476 27.9539C86.7476 26.6979 86.0518 25.6797 85.1934 25.6797C84.335 25.6797 83.6392 26.6979 83.6392 27.9539C83.6392 29.21 84.335 30.2282 85.1934 30.2282Z" fill="#1E2A41"/>
<path d="M98.0347 30.2282C98.8931 30.2282 99.5889 29.21 99.5889 27.9539C99.5889 26.6979 98.8931 25.6797 98.0347 25.6797C97.1763 25.6797 96.4805 26.6979 96.4805 27.9539C96.4805 29.21 97.1763 30.2282 98.0347 30.2282Z" fill="#1E2A41"/>
<path d="M88.2827 53.5068C88.1793 53.5068 88.0816 53.4434 88.0421 53.34C87.9911 53.2058 88.0573 53.0553 88.1902 53.0037C88.2844 52.9671 90.5158 52.1069 92.2784 51.929C94.0851 51.7451 96.3521 52.9655 96.4478 53.0175C96.5732 53.0856 96.62 53.2433 96.5526 53.3698C96.4853 53.4965 96.3285 53.5438 96.2036 53.4756C96.1813 53.4636 93.9785 52.2816 92.3298 52.4467C90.6355 52.6178 88.3977 53.4806 88.3754 53.4894C88.3448 53.5012 88.3136 53.5068 88.2827 53.5068Z" fill="#6B3B2A"/>
<path d="M97.3166 44.1874C97.3166 44.1874 95.5097 48.7745 94.6933 49.0103C93.8771 49.2461 90.1432 49.4559 89.0403 49.0103C88.0693 48.6183 86.0483 44.2271 86.0483 44.2271L86.065 44.2134C86.361 44.2562 86.7022 44.2638 87.0588 44.1874C87.1543 44.1659 87.2484 44.1384 87.344 44.1048C88.3346 43.7557 89.3756 42.7697 91.6438 42.6977C93.8802 42.6272 95.2986 43.699 96.3531 44.0282C96.4714 44.0665 96.5852 44.094 96.6945 44.1093C96.9008 44.1399 97.0889 44.1368 97.2574 44.1154L97.3166 44.1874Z" fill="#1E2A41"/>
<path d="M82.8627 26.5487C82.849 26.5487 82.8351 26.5476 82.821 26.5456C82.6699 26.5226 82.5658 26.3802 82.5886 26.2277C82.592 26.2047 82.9662 23.926 85.8734 23.7165C86.0275 23.7059 86.1583 23.8214 86.1692 23.9753C86.1801 24.1291 86.0653 24.2628 85.9127 24.2738C83.4424 24.4518 83.1388 26.2925 83.136 26.311C83.1153 26.4494 82.9972 26.5487 82.8627 26.5487Z" fill="#1E2A41"/>
<path d="M100.58 26.9799C100.446 26.9799 100.328 26.8817 100.307 26.7438C99.9228 24.2785 97.2068 24.3114 97.0899 24.3135C97.0877 24.3136 97.0857 24.3136 97.0836 24.3136C96.9337 24.3136 96.8103 24.1928 96.8067 24.0409C96.803 23.8869 96.9235 23.7589 97.0762 23.755C97.1105 23.7546 100.394 23.7052 100.853 26.6572C100.877 26.8096 100.774 26.9527 100.623 26.9766C100.609 26.9789 100.594 26.9799 100.58 26.9799Z" fill="#1E2A41"/>
<path d="M104.943 36.8144C104.673 39.7489 104.259 42.7961 103.844 44.1888C103.145 46.5423 101.047 57.1287 98.9482 59.0105C96.8515 60.8922 88.4578 61.1299 85.8937 59.2464C85.6891 59.0972 85.4829 58.8977 85.2749 58.6549C85.5585 58.7 85.8403 58.7729 86.0947 58.8543C88.1054 59.4961 90.2417 59.9019 92.3194 59.5516C94.3989 59.203 96.4165 57.9976 97.348 56.0882C98.0406 54.6695 98.0784 53.0323 98.2021 51.4557C98.4239 48.6288 98.9617 45.8278 99.8004 43.1221C96.2979 41.1207 93.0703 39.7454 89.2447 38.9736C89.8721 38.8505 90.5424 38.7794 91.2555 38.7794C96.5007 38.7794 99.0648 41.6028 100.113 41.7191C101.161 41.837 104.076 38.0735 104.776 36.8959C104.826 36.8126 104.881 36.7867 104.943 36.8144Z" fill="#6B3B2A"/>
<path d="M81.0813 33.8374L79.6162 26.9322L89.4962 26.3447L88.5201 33.7204L81.0813 33.8374ZM80.3044 27.4606L81.5354 33.2618L88.0263 33.1597L88.8476 26.9528L80.3044 27.4606Z" fill="#1E2A41"/>
<path d="M102.306 33.839L94.8281 33.7221L93.8467 26.3447L103.78 26.9322L102.306 33.839ZM95.3233 33.1598L101.852 33.2618L103.089 27.4624L94.4976 26.9543L95.3233 33.1598Z" fill="#1E2A41"/>
<path d="M89.171 26.9324C89.0317 26.9324 88.9107 26.8281 88.8921 26.685C88.8719 26.5292 88.9806 26.3867 89.1349 26.3663C91.6358 26.0367 94.1043 26.3528 94.2081 26.3663C94.3624 26.3866 94.4712 26.529 94.4512 26.6847C94.4312 26.8405 94.2882 26.9501 94.1357 26.93C94.1109 26.9268 91.6342 26.6102 89.2079 26.93C89.1955 26.9316 89.1832 26.9324 89.171 26.9324Z" fill="#1E2A41"/>
<path d="M96.3529 44.0282C95.438 44.3528 93.8602 44.7509 91.7664 44.6728C89.5922 44.5916 88.1282 44.3054 87.3438 44.1048C88.3344 43.7557 89.3754 42.7697 91.6435 42.6977C93.8798 42.6272 95.2984 43.699 96.3529 44.0282Z" fill="white"/>
<path d="M86.4988 44.5063C86.3442 44.5063 86.1871 44.4947 86.028 44.4717C85.3799 44.372 84.9283 44.1114 84.9095 44.1005C84.7862 44.0284 84.7442 43.8693 84.8155 43.7449C84.8868 43.6205 85.0447 43.5782 85.1679 43.6501C85.1712 43.6521 85.5586 43.8731 86.1037 43.957C86.4163 44.0024 86.7199 43.9945 87.0041 43.9337C87.3442 43.8605 87.6932 43.6767 88.0976 43.4639C88.9207 43.0305 89.9451 42.4912 91.6361 42.4381C93.3204 42.3835 94.5821 42.9682 95.5036 43.3939C95.9792 43.6136 96.39 43.8034 96.73 43.8523C96.8996 43.8768 97.0654 43.8783 97.2229 43.8576C97.8154 43.7803 98.1125 43.4147 98.1247 43.3991C98.2136 43.2877 98.3752 43.2687 98.4863 43.3572C98.5975 43.4457 98.6174 43.6074 98.5305 43.7202C98.5132 43.7425 98.0997 44.2678 97.2895 44.3734C97.0861 44.4007 96.8733 44.3984 96.6571 44.3673C96.2432 44.3078 95.8009 44.1035 95.2888 43.8668C94.3651 43.4401 93.2142 42.9107 91.652 42.9579C90.0789 43.0074 89.1124 43.5162 88.3359 43.925C87.8984 44.1554 87.5204 44.3543 87.1115 44.4423C86.9135 44.4851 86.7087 44.5063 86.4988 44.5063Z" fill="#6B3B2A"/>
<path d="M100.837 35.8669C100.753 35.8669 100.67 35.8291 100.615 35.7568C100.519 35.6329 100.542 35.4546 100.665 35.3587L102.645 33.8114C102.768 33.7153 102.944 33.7382 103.04 33.8621C103.135 33.986 103.112 34.1643 102.989 34.2602L101.009 35.8075C100.958 35.8475 100.897 35.8669 100.837 35.8669Z" fill="#D86742"/>
<path d="M101.539 36.7683C101.474 36.7683 101.408 36.7452 101.354 36.698C101.237 36.5949 101.226 36.4156 101.328 36.2976L102.669 34.7503C102.772 34.6323 102.949 34.6203 103.066 34.7236C103.183 34.8267 103.195 35.006 103.093 35.124L101.751 36.6713C101.696 36.7354 101.618 36.7683 101.539 36.7683Z" fill="#D86742"/>
<path d="M83.0141 35.7379C82.9627 35.7379 82.9108 35.7238 82.8642 35.694L80.4367 34.1467C80.3054 34.0631 80.2662 33.8878 80.3492 33.7554C80.432 33.6227 80.606 33.5833 80.737 33.667L83.1644 35.2143C83.2957 35.2979 83.335 35.4732 83.252 35.6056C83.1987 35.691 83.1074 35.7379 83.0141 35.7379Z" fill="#D86742"/>
<path d="M82.5027 37.028C82.4448 37.028 82.3865 37.01 82.3364 36.9727L80.1644 35.361C80.0393 35.2681 80.0125 35.0905 80.1045 34.9644C80.1963 34.8379 80.3726 34.811 80.4975 34.9038L82.6694 36.5156C82.7946 36.6084 82.8214 36.786 82.7294 36.9122C82.6744 36.9879 82.5892 37.028 82.5027 37.028Z" fill="#D86742"/>
</svg>
