<svg width="57" height="57" viewBox="0 0 57 57" fill="none" xmlns="http://www.w3.org/2000/svg">
<path d="M23.5764 41.2444L25.9445 40.3575C25.9408 40.338 25.9329 40.3217 25.93 40.3015L25.3096 36.2587L23.5764 41.2444Z" fill="#17C2D7"/>
<path d="M19.338 35.8985C19.8089 35.478 20.3559 35.1512 20.9496 34.9363L24.2926 33.7219C22.9605 32.6454 21.8692 31.3012 21.0892 29.7766C20.9899 29.5937 20.9036 29.3962 20.8092 29.2079L17.6677 30.8824C17.1004 31.1828 16.6987 31.7233 16.5751 32.3533L15.1186 40.8695L19.2677 35.9709C19.2889 35.9444 19.3121 35.9203 19.338 35.8985Z" fill="#17C2D7"/>
<path d="M35.7913 29.2234C35.1444 30.5763 34.2834 31.8157 33.2414 32.8943C32.9423 33.1921 32.6233 33.4689 32.2864 33.7229L35.6138 34.9344C36.2072 35.1496 36.7539 35.4757 37.2252 35.8959C37.2508 35.9176 37.2746 35.9415 37.2964 35.967L41.4463 40.8678L39.9859 32.328C39.8575 31.7057 39.4579 31.1738 38.8961 30.8773L35.7913 29.2234Z" fill="#17C2D7"/>
<path d="M34.335 40.7714C34.5113 41.297 34.3741 41.8771 33.9806 42.2683C33.5872 42.6572 33.0025 42.7799 32.4856 42.5825L30.5431 41.853L31.0337 46.3853C31.0683 46.611 30.9932 46.8397 30.8312 47.0007C30.778 47.0539 30.7165 47.0988 30.6489 47.1326C30.3733 47.2722 30.0393 47.2191 29.8208 47.0009L28.2806 45.4607L26.7398 47.0014C26.5336 47.2076 26.2224 47.2678 25.9543 47.1537C25.6862 47.0393 25.5143 46.7737 25.5202 46.4823L25.5409 45.4423C25.5414 45.4169 25.5432 45.3917 25.5461 45.3664L25.9888 41.8681L24.0766 42.5833C23.5578 42.7775 22.9737 42.6544 22.5777 42.2674C22.1815 41.8809 22.0447 41.2996 22.2264 40.7764L24.1316 35.2957L22.545 35.872L18.7741 46.1017L21.8857 44.9336C22.3609 44.755 22.8951 44.8419 23.2889 45.1618C23.6825 45.4819 23.8774 45.9865 23.8003 46.4883L23.5091 51.7285C23.5467 51.8552 23.6474 51.9528 23.7748 51.9866L27.5 48.2614C27.6891 48.017 27.973 47.8647 28.2806 47.8422C28.5828 47.8618 28.862 48.0097 29.0479 48.2489L32.8258 52.0267C32.8211 51.9938 32.8187 51.9606 32.8182 51.9273L32.7531 46.4295C32.6977 45.9359 32.9028 45.4484 33.2948 45.1427C33.6868 44.8371 34.2092 44.7568 34.6745 44.9313L37.7859 46.0978L34.0187 35.8728L32.3968 35.283L34.335 40.7714Z" fill="#17C2D7"/>
<path d="M28.2817 35.1701C27.6922 35.1643 27.1071 35.0707 26.5454 34.8921L27.3427 40.0758C27.3577 40.1858 27.3948 40.2916 27.4518 40.3869C27.6178 40.6915 27.9355 40.882 28.282 40.8849C28.6161 40.885 28.9247 40.7077 29.0924 40.4191C29.158 40.3176 29.2028 40.2038 29.2244 40.0851L30.0204 34.906C29.457 35.0786 28.8711 35.1676 28.2817 35.1701Z" fill="#17C2D7"/>
<path d="M32.9875 41.244L31.2479 36.3165L30.6367 40.2958C30.6335 40.3169 30.624 40.3378 30.6204 40.3587L32.9875 41.244Z" fill="#17C2D7"/>
<path d="M29.1358 42.1488C28.576 42.3726 27.9515 42.3698 27.3945 42.1406L27.0778 44.6422L27.5026 44.2174C27.6831 43.9651 27.9702 43.8105 28.2803 43.7994C28.5808 43.818 28.8594 43.9651 29.0447 44.2028L29.3763 44.5344L29.1358 42.1488Z" fill="#17C2D7"/>
<path d="M24.2946 21.5894C24.2937 23.7827 26.0714 25.5604 28.2652 25.56C30.4373 25.5063 32.1845 23.7592 32.2377 21.5875C32.2376 19.3943 30.4599 17.6165 28.2671 17.6169C26.0959 17.6706 24.3488 19.4178 24.2946 21.5894Z" fill="#17C2D7"/>
<path d="M28.2886 0.878804C27.7666 0.879416 27.2634 1.07392 26.8768 1.42467C26.8317 1.45973 26.7885 1.49738 26.7471 1.5371C26.6597 1.62448 26.5661 1.73121 26.4652 1.84242L26.4076 1.90597C26.1938 2.1429 25.9506 2.42542 25.6853 2.75111L25.6295 2.82036C25.494 2.98839 25.3529 3.16643 25.2081 3.35707L25.2011 3.36416C26.2101 3.61744 27.2476 3.7414 28.2884 3.73327C29.3285 3.74172 30.3654 3.61773 31.3743 3.3646L31.3572 3.34751C31.2189 3.16641 31.0857 2.99688 30.9571 2.83822C30.9293 2.80283 30.9013 2.769 30.8735 2.73499C30.7537 2.58824 30.6375 2.44789 30.5274 2.31945L30.5022 2.29424C30.3841 2.15683 30.2735 2.03236 30.1714 1.9179C30.1481 1.89459 30.1279 1.86956 30.1064 1.84591C30.0068 1.73629 29.9132 1.63443 29.8281 1.54414C29.4284 1.11998 28.8713 0.878872 28.2886 0.878804Z" fill="#17C2D7"/>
<path d="M24.3218 4.58447C22.728 6.9126 19.714 12.021 19.7118 17.312C19.658 20.9403 20.3526 24.5407 21.7525 27.8883L21.756 27.8917C21.9408 28.3049 22.1362 28.7057 22.3452 29.0875C23.9682 32.0848 26.0796 33.7371 28.2831 33.735C30.8776 33.7342 33.2015 31.5066 34.7756 28.007C34.7837 27.9643 34.7962 27.9229 34.8124 27.8825C34.8285 27.8605 34.8456 27.8396 34.8639 27.8196C36.2301 24.4837 36.9089 20.9063 36.8597 17.3023C36.8608 12.0083 33.8462 6.90232 32.255 4.57614C30.9703 4.97004 29.6328 5.16608 28.2893 5.15752C26.9451 5.16898 25.6074 4.97584 24.3218 4.58447ZM33.9996 21.5956C33.9993 24.3221 32.0728 26.6695 29.3987 27.2023C26.7242 27.7347 24.047 26.304 23.0038 23.785C21.9605 21.2662 22.8423 18.3608 25.11 16.8455C27.3772 15.3303 30.3987 15.6271 32.3264 17.5547C33.3998 18.625 34.0018 20.0794 33.9996 21.5956ZM31.857 10.1641C31.8562 11.8685 30.6519 13.3351 28.9805 13.6676C27.3092 14.0003 25.6359 13.1059 24.9842 11.5316C24.3326 9.9574 24.8838 8.14141 26.3007 7.19444C27.7181 6.24764 29.6065 6.43326 30.8111 7.63824C31.4834 8.30667 31.8596 9.21619 31.857 10.1641Z" fill="#17C2D7"/>
<path d="M26.7724 8.65147C26.1593 9.26454 25.9759 10.1864 26.3078 10.987C26.6392 11.7878 27.4206 12.3097 28.2872 12.3098C29.4594 12.2821 30.4032 11.3383 30.4305 10.1665C30.4306 9.29968 29.9085 8.51848 29.1077 8.18711C28.3071 7.85522 27.3852 8.03858 26.7724 8.65147Z" fill="#17C2D7"/>
</svg>
