<svg width="170" height="170" viewBox="0 0 170 170" fill="none" xmlns="http://www.w3.org/2000/svg">
<circle cx="155" cy="48" r="35" fill="#FBB03B"/>
<ellipse cx="158.5" cy="46.5" rx="49.5" ry="46.5" fill="#FDD199" fill-opacity="0.5"/>
<path d="M73.7936 49.3015C71.1236 49.3015 68.673 50.1819 66.6646 51.6369C62.9306 43.5943 54.7974 38 45.3375 38C37.2543 38 30.1253 42.0794 25.8924 48.285C23.2024 46.3416 19.9239 45.1656 16.3494 45.1656C7.32184 45.1656 0 52.4774 0 61.5C0 70.5193 7.31852 77.8344 16.3494 77.8344C19.9239 77.8344 23.2024 76.6584 25.8924 74.715C30.1253 80.9206 37.2543 85 45.3375 85C54.7974 85 62.9306 79.4057 66.6646 71.3631C68.673 72.8181 71.1236 73.6985 73.7936 73.6985C80.5369 73.6985 86 68.2371 86 61.5033C86 54.7596 80.5369 49.3015 73.7936 49.3015Z" fill="white"/>
<path d="M190.948 128.985C187.875 128.985 185.054 129.996 182.742 131.668C178.443 122.427 169.081 116 158.191 116C148.886 116 140.679 120.687 135.806 127.817C132.71 125.584 128.936 124.233 124.821 124.233C114.429 124.233 106 132.634 106 143C106 153.363 114.425 161.767 124.821 161.767C128.936 161.767 132.71 160.416 135.806 158.183C140.679 165.313 148.886 170 158.191 170C169.081 170 178.443 163.573 182.742 154.332C185.054 156.004 187.875 157.015 190.948 157.015C198.711 157.015 205 150.74 205 143.004C205 135.256 198.711 128.985 190.948 128.985Z" fill="white"/>
<path d="M76.4404 117.078L33 117.585L71.832 143L72.6755 131.068L79.9926 127.003L46.171 119.566L75.5686 122.937L77.5929 120.724L81 117L76.4404 117.078Z" fill="white"/>
</svg>
