<svg width="20" height="20" viewBox="0 0 20 20" fill="none" xmlns="http://www.w3.org/2000/svg">
<path d="M18.0304 1.00066C17.0641 1.00066 16.2581 1.70004 16.0921 2.61922C15.7414 2.4941 15.3698 2.42926 14.994 2.42926C14.3844 2.42926 13.8023 2.59391 13.291 2.90844C13.0952 2.72789 12.8641 2.58871 12.6084 2.49894C12.3984 2.42547 12.1795 2.38824 11.958 2.38824C11.5948 2.38824 11.2397 2.48926 10.9321 2.67687C10.6257 2.49133 10.2726 2.39141 9.91156 2.39141C9.69344 2.39141 9.47793 2.42754 9.27164 2.49859C9.00668 2.58949 8.76812 2.73281 8.56781 2.91984C7.92301 2.58305 6.98164 2.42926 6.42949 2.42926C5.4334 2.42926 4.53977 2.87711 3.93922 3.58203V1.96961C3.93926 0.883555 3.05566 0 1.96961 0C0.883555 0 0 0.883555 0 1.96961V2.95352C0 3.16922 0.174883 3.34414 0.390625 3.34414C0.606367 3.34414 0.78125 3.16922 0.78125 2.95352V1.96961C0.78125 1.31434 1.31434 0.78125 1.96961 0.78125C2.62488 0.78125 3.15801 1.31434 3.15801 1.96961L3.16156 5.77867C3.1868 5.99 3.37617 6.14262 3.5884 6.12109C3.79793 6.10012 3.9527 5.91695 3.93926 5.70762V5.70277C3.93926 4.32855 5.05641 3.21055 6.42953 3.21055C7.0434 3.21055 8.00355 3.42531 8.39992 3.73348C8.48324 3.79828 8.58926 3.82644 8.69383 3.81195C8.7984 3.7973 8.89258 3.74098 8.95492 3.65574C9.09711 3.46141 9.29434 3.3168 9.52563 3.23746C9.65035 3.19445 9.78023 3.17269 9.91156 3.17269C10.1923 3.17269 10.4653 3.27297 10.6803 3.45512C10.8263 3.57879 11.0405 3.57855 11.1861 3.45441C11.4018 3.27066 11.6759 3.16949 11.958 3.16949C12.0915 3.16949 12.2235 3.19199 12.35 3.23625C12.5778 3.31621 12.7732 3.46121 12.9152 3.65551C12.9776 3.74082 13.0718 3.79723 13.1764 3.81191C13.281 3.82648 13.3871 3.79824 13.4705 3.73336C13.9101 3.39129 14.4369 3.21051 14.9939 3.21051C15.4374 3.21051 15.8727 3.32898 16.253 3.55312C16.3738 3.62437 16.5234 3.62543 16.6451 3.55578C16.7668 3.48625 16.842 3.3568 16.842 3.2166V2.97031C16.842 2.31504 17.375 1.78191 18.0304 1.78191C18.6857 1.78191 19.2188 2.31504 19.2188 2.97031V7.30742C19.2188 7.96266 18.6857 8.49578 18.0304 8.49578C17.6768 8.49578 17.3438 8.33922 17.1169 8.06629C17.0479 7.98324 16.9475 7.93246 16.8397 7.92605C16.7312 7.91969 16.6263 7.95812 16.5479 8.03238C16.4669 8.1091 16.3766 8.17383 16.2793 8.22496C15.9378 8.40469 15.5584 8.49582 15.1518 8.49582C14.7641 8.49582 14.3904 8.41371 14.0395 8.25105C13.9104 8.19187 13.7829 8.11961 13.6605 8.03621C13.3461 7.82207 13.087 7.54828 12.8904 7.22246C12.8123 7.09293 12.6664 7.02047 12.5158 7.03574C12.3653 7.05129 12.2373 7.1523 12.1873 7.29512L12.0452 7.70062C11.8964 8.12551 11.5264 8.42621 11.0796 8.48543C10.8854 8.51113 10.7402 8.67676 10.7402 8.87265V9.78297C10.7402 9.8934 10.787 9.99867 10.8689 10.0727C10.9508 10.1468 11.06 10.1828 11.1702 10.1716C11.3684 10.1516 11.5613 10.1811 11.7395 10.2539C11.8208 10.2871 11.9109 10.2919 11.9952 10.2677C12.2304 10.2 12.4748 10.1657 12.7217 10.1657C14.1684 10.1657 15.3454 11.3427 15.3454 12.7894C15.3454 14.1927 14.248 15.3437 12.847 15.4099C12.6386 15.4197 12.4748 15.5915 12.4748 15.8001V16.0247C12.4748 16.68 11.9417 17.2131 11.2864 17.2131C10.6312 17.2131 10.098 16.68 10.098 16.0247V15.1681C10.098 15.0234 10.018 14.8905 9.89012 14.8229C9.76223 14.7552 9.60727 14.7638 9.48766 14.8452C9.36168 14.9309 9.22457 15.0114 9.08051 15.0841C8.64715 15.3023 8.17156 15.413 7.6641 15.413C7.07152 15.412 6.52527 15.2544 6.04055 14.9447C4.89496 14.2127 4.65449 13.2436 4.65449 12.5596V8.88644C4.65449 8.87051 4.65477 8.85457 4.65535 8.83855C4.66016 8.71383 4.605 8.5943 4.50695 8.51699C4.40895 8.43969 4.27988 8.41379 4.15965 8.44754C4.0575 8.47613 3.95187 8.4909 3.84559 8.49148C3.13199 8.49547 1.92504 8.48879 1.76238 8.47305C1.19348 8.37234 0.78125 7.88141 0.78125 7.30309V6.46914C0.78125 6.25344 0.606367 6.07852 0.390625 6.07852C0.174883 6.07852 0 6.25344 0 6.46914V7.30309C0 8.26539 0.688555 9.08172 1.63711 9.24418C1.85422 9.28141 3.83023 9.27281 3.84988 9.27269C3.8577 9.27266 3.86547 9.27254 3.87328 9.27242V12.5595C3.87328 13.4388 4.17633 14.6805 5.61996 15.603C6.23195 15.994 6.9193 16.1929 7.66281 16.1942H7.66703C8.25062 16.1942 8.80496 16.0743 9.31684 15.8374V16.0246C9.31684 17.1107 10.2004 17.9943 11.2865 17.9943C12.3294 17.9943 13.1855 17.1795 13.2519 16.153C14.8909 15.898 16.1267 14.4856 16.1267 12.7893C16.1267 10.9118 14.5992 9.38437 12.7218 9.38437C12.4458 9.38437 12.172 9.41754 11.9059 9.48301C11.7809 9.44184 11.6525 9.41351 11.5215 9.39805V9.18445C12.0187 9.02742 12.4312 8.68098 12.6715 8.2164C12.8364 8.38953 13.0198 8.545 13.2206 8.68176C13.3791 8.7898 13.5452 8.88383 13.7125 8.96051C14.1655 9.17055 14.6498 9.27703 15.1519 9.27703C15.6866 9.27703 16.1883 9.15566 16.643 8.9164C16.6917 8.89078 16.7395 8.86312 16.7859 8.83344C17.1345 9.11855 17.5719 9.27699 18.0304 9.27699C19.1164 9.27699 20 8.39344 20 7.30738V2.97031C20 1.88422 19.1164 1.00066 18.0304 1.00066Z" fill="white"/>
<path d="M0.390625 5.10254C0.606361 5.10254 0.78125 4.92765 0.78125 4.71191C0.78125 4.49618 0.606361 4.32129 0.390625 4.32129C0.174889 4.32129 0 4.49618 0 4.71191C0 4.92765 0.174889 5.10254 0.390625 5.10254Z" fill="white"/>
<path d="M9.16133 8.88668V12.556C9.16133 13.047 8.90992 13.4023 8.37023 13.6741C8.15937 13.7803 7.92281 13.8341 7.66707 13.8341C7.66629 13.8341 7.66547 13.8341 7.66469 13.8341C7.37879 13.8337 7.11832 13.7597 6.89051 13.6142C6.42992 13.3199 6.2334 13.0046 6.2334 12.5599V8.88672C6.2334 8.67102 6.05852 8.49609 5.84277 8.49609C5.62707 8.49609 5.45215 8.67102 5.45215 8.88672V12.5599C5.45215 13.2748 5.78508 13.835 6.46992 14.2725C6.825 14.4995 7.22664 14.6148 7.66367 14.6154H7.66711C8.04598 14.6154 8.40078 14.5334 8.72168 14.3719C9.73078 13.8637 9.94262 13.1039 9.94262 12.5561V8.88672C9.94262 8.67102 9.76769 8.49609 9.55199 8.49609C9.33625 8.49605 9.16133 8.67098 9.16133 8.88668Z" fill="white"/>
<path d="M11.6768 16.0243V14.285C11.973 14.4925 12.3331 14.6147 12.7214 14.6147C13.7282 14.6147 14.5473 13.7956 14.5473 12.7888C14.5473 11.782 13.7282 10.9629 12.7214 10.9629C12.3311 10.9629 11.9692 11.0864 11.672 11.2959C11.6441 11.1076 11.4822 10.9629 11.2861 10.9629C11.0704 10.9629 10.8955 11.1378 10.8955 11.3535V16.0243C10.8955 16.24 11.0704 16.4149 11.2861 16.4149C11.5018 16.4149 11.6768 16.24 11.6768 16.0243ZM12.7214 11.7441C13.2975 11.7441 13.7661 12.2128 13.7661 12.7888C13.7661 13.3648 13.2975 13.8335 12.7214 13.8335C12.1454 13.8335 11.6768 13.3648 11.6768 12.7888C11.6768 12.2128 12.1454 11.7441 12.7214 11.7441Z" fill="white"/>
<path d="M1.96973 1.5791C1.75402 1.5791 1.5791 1.75402 1.5791 1.96973V7.30328C1.5791 7.49355 1.71621 7.65617 1.90379 7.68828C1.9316 7.69304 3.23602 7.69726 3.84117 7.6939C4.05691 7.69269 4.23082 7.51683 4.22961 7.30109C4.2284 7.08609 4.05375 6.91265 3.83902 6.91265C3.83828 6.91265 3.83754 6.91265 3.8368 6.91265C3.39473 6.91508 2.75801 6.91762 2.36035 6.91711V1.96973C2.36035 1.75402 2.18543 1.5791 1.96973 1.5791Z" fill="white"/>
<path d="M10.9225 7.69869H10.9237C11.0896 7.69869 11.2374 7.59389 11.2923 7.43729L12.3262 4.48767C12.3975 4.28408 12.2903 4.06119 12.0867 3.98982C11.8831 3.91857 11.6603 4.02568 11.5889 4.22928L10.9273 6.11674L10.2806 4.23498C10.2105 4.03092 9.98823 3.92228 9.78428 3.99252C9.58026 4.06263 9.4717 4.28482 9.54182 4.48889L10.5542 7.43502C10.6083 7.59236 10.7561 7.69822 10.9225 7.69869Z" fill="white"/>
<path d="M18.4209 7.30688V2.96973C18.4209 2.75402 18.246 2.5791 18.0303 2.5791C17.8145 2.5791 17.6396 2.75402 17.6396 2.96973V7.30688C17.6396 7.52258 17.8145 7.6975 18.0303 7.6975C18.246 7.6975 18.4209 7.52262 18.4209 7.30688Z" fill="white"/>
<path d="M6.56256 4.00784C5.56603 4.00241 4.78013 4.88256 4.87611 5.87151C4.87603 6.49678 5.19861 7.0728 5.74357 7.41588C6.04365 7.60475 6.37795 7.70034 6.70986 7.70034C6.97017 7.7003 7.229 7.64147 7.46842 7.52276C7.66166 7.4269 7.74064 7.19253 7.64482 6.99924C7.54896 6.80604 7.31459 6.72698 7.12131 6.82284C6.82256 6.97104 6.4631 6.94557 6.15982 6.75471C5.97384 6.63764 5.83287 6.47506 5.74802 6.28881C5.74806 6.28885 7.86408 6.29292 7.86428 6.29295C8.18338 6.2996 8.29361 5.9669 8.2549 5.70014C8.25486 4.76702 7.49572 4.00784 6.56256 4.00784ZM5.67236 5.50745C5.76166 5.09721 6.12689 4.78909 6.56256 4.78909C7.00002 4.78909 7.3665 5.09909 7.45385 5.51092L5.67236 5.50745Z" fill="white"/>
<path d="M16.2956 6.29295C16.636 6.28084 16.7138 5.98811 16.6862 5.70014C16.6862 4.76698 15.927 4.00784 14.9939 4.00784C14.0013 4.00264 13.2153 4.87623 13.3071 5.86229C13.3037 6.49096 13.6268 7.07084 14.1745 7.41572C14.4746 7.60471 14.809 7.70033 15.1408 7.70029C15.4011 7.70029 15.6599 7.64147 15.8992 7.52272C16.0924 7.42682 16.1714 7.19244 16.0755 6.9992C15.9797 6.80596 15.7452 6.72705 15.552 6.82287C15.2533 6.97104 14.8939 6.94549 14.5908 6.75463C14.4048 6.63756 14.2639 6.47498 14.1791 6.28881C14.1792 6.28881 16.2953 6.29295 16.2956 6.29295ZM14.1037 5.50744C14.193 5.09721 14.5582 4.78909 14.9939 4.78909C15.4314 4.78909 15.7978 5.09909 15.8852 5.51092L14.1037 5.50744Z" fill="white"/>
<path d="M17.7543 14.2953C17.6805 14.1979 17.5653 14.1406 17.443 14.1406C17.3207 14.1406 17.2055 14.1979 17.1317 14.2953L15.1818 16.8679C15.0923 16.9861 15.0773 17.1448 15.1434 17.2777C15.2093 17.4105 15.3448 17.4945 15.4932 17.4945H16.1517V19.6094C16.1517 19.8251 16.3266 20 16.5423 20H18.3436C18.5593 20 18.7342 19.8251 18.7342 19.6094V17.4945H19.3928C19.5411 17.4945 19.6766 17.4105 19.7426 17.2777C19.8086 17.1449 19.7937 16.9861 19.7041 16.8679L17.7543 14.2953ZM18.3436 16.7132C18.1279 16.7132 17.953 16.8882 17.953 17.1039V19.2188H16.933V17.1039C16.933 16.8882 16.7581 16.7132 16.5424 16.7132H16.2794L17.443 15.1779L18.6066 16.7132H18.3436Z" fill="white"/>
<path d="M2.86859 14.2953C2.79473 14.1979 2.67953 14.1406 2.55727 14.1406C2.435 14.1406 2.31981 14.1979 2.24594 14.2953L0.296094 16.8679C0.206524 16.9861 0.191602 17.1448 0.257618 17.2777C0.323594 17.4105 0.459102 17.4945 0.607422 17.4945H1.26602V19.6094C1.26602 19.8251 1.44094 20 1.65664 20H3.45785C3.67355 20 3.84848 19.8251 3.84848 19.6094V17.4945H4.50703C4.65535 17.4945 4.79086 17.4105 4.85684 17.2777C4.92281 17.1449 4.90793 16.9861 4.81836 16.8679L2.86859 14.2953ZM3.45789 16.7132C3.24219 16.7132 3.06727 16.8882 3.06727 17.1039V19.2188H2.04727V17.1039C2.04727 16.8882 1.87234 16.7132 1.65664 16.7132H1.39363L2.55727 15.1779L3.72086 16.7132H3.45789Z" fill="white"/>
</svg>
